<?xml version="1.0" encoding="utf-8"?>
<svg xmlns="http://www.w3.org/2000/svg" xmlns:xlink="http://www.w3.org/1999/xlink" width="800" height="200" viewBox="0 0 3200 800">
<defs>
  <clipPath id="clip240">
    <rect x="0" y="0" width="3200" height="800"/>
  </clipPath>
</defs>
<path clip-path="url(#clip240)" d="
M0 800 L3200 800 L3200 0 L0 0  Z
  " fill="#ffffff" fill-rule="evenodd" fill-opacity="1"/>
<defs>
  <clipPath id="clip241">
    <rect x="640" y="0" width="2241" height="800"/>
  </clipPath>
</defs>
<path clip-path="url(#clip240)" d="
M155.709 716.048 L3152.76 716.048 L3152.76 85.6721 L155.709 85.6721  Z
  " fill="#ffffff" fill-rule="evenodd" fill-opacity="1"/>
<defs>
  <clipPath id="clip242">
    <rect x="155" y="85" width="2998" height="631"/>
  </clipPath>
</defs>
<polyline clip-path="url(#clip242)" style="stroke:#000000; stroke-linecap:butt; stroke-linejoin:round; stroke-width:2; stroke-opacity:0.1; fill:none" points="
  229.444,716.048 229.444,85.6721 
  "/>
<polyline clip-path="url(#clip242)" style="stroke:#000000; stroke-linecap:butt; stroke-linejoin:round; stroke-width:2; stroke-opacity:0.1; fill:none" points="
  783.836,716.048 783.836,85.6721 
  "/>
<polyline clip-path="url(#clip242)" style="stroke:#000000; stroke-linecap:butt; stroke-linejoin:round; stroke-width:2; stroke-opacity:0.1; fill:none" points="
  1338.23,716.048 1338.23,85.6721 
  "/>
<polyline clip-path="url(#clip242)" style="stroke:#000000; stroke-linecap:butt; stroke-linejoin:round; stroke-width:2; stroke-opacity:0.1; fill:none" points="
  1892.62,716.048 1892.62,85.6721 
  "/>
<polyline clip-path="url(#clip242)" style="stroke:#000000; stroke-linecap:butt; stroke-linejoin:round; stroke-width:2; stroke-opacity:0.1; fill:none" points="
  2447.01,716.048 2447.01,85.6721 
  "/>
<polyline clip-path="url(#clip242)" style="stroke:#000000; stroke-linecap:butt; stroke-linejoin:round; stroke-width:2; stroke-opacity:0.1; fill:none" points="
  3001.41,716.048 3001.41,85.6721 
  "/>
<polyline clip-path="url(#clip240)" style="stroke:#000000; stroke-linecap:butt; stroke-linejoin:round; stroke-width:4; stroke-opacity:1; fill:none" points="
  155.709,716.048 3152.76,716.048 
  "/>
<polyline clip-path="url(#clip240)" style="stroke:#000000; stroke-linecap:butt; stroke-linejoin:round; stroke-width:4; stroke-opacity:1; fill:none" points="
  229.444,716.048 229.444,697.15 
  "/>
<polyline clip-path="url(#clip240)" style="stroke:#000000; stroke-linecap:butt; stroke-linejoin:round; stroke-width:4; stroke-opacity:1; fill:none" points="
  783.836,716.048 783.836,697.15 
  "/>
<polyline clip-path="url(#clip240)" style="stroke:#000000; stroke-linecap:butt; stroke-linejoin:round; stroke-width:4; stroke-opacity:1; fill:none" points="
  1338.23,716.048 1338.23,697.15 
  "/>
<polyline clip-path="url(#clip240)" style="stroke:#000000; stroke-linecap:butt; stroke-linejoin:round; stroke-width:4; stroke-opacity:1; fill:none" points="
  1892.62,716.048 1892.62,697.15 
  "/>
<polyline clip-path="url(#clip240)" style="stroke:#000000; stroke-linecap:butt; stroke-linejoin:round; stroke-width:4; stroke-opacity:1; fill:none" points="
  2447.01,716.048 2447.01,697.15 
  "/>
<polyline clip-path="url(#clip240)" style="stroke:#000000; stroke-linecap:butt; stroke-linejoin:round; stroke-width:4; stroke-opacity:1; fill:none" points="
  3001.41,716.048 3001.41,697.15 
  "/>
<path clip-path="url(#clip240)" d="M229.444 753.367 Q225.833 753.367 224.004 756.931 Q222.198 760.473 222.198 767.603 Q222.198 774.709 224.004 778.274 Q225.833 781.815 229.444 781.815 Q233.078 781.815 234.883 778.274 Q236.712 774.709 236.712 767.603 Q236.712 760.473 234.883 756.931 Q233.078 753.367 229.444 753.367 M229.444 749.663 Q235.254 749.663 238.309 754.269 Q241.388 758.853 241.388 767.603 Q241.388 776.329 238.309 780.936 Q235.254 785.519 229.444 785.519 Q223.633 785.519 220.555 780.936 Q217.499 776.329 217.499 767.603 Q217.499 758.853 220.555 754.269 Q223.633 749.663 229.444 749.663 Z" fill="#000000" fill-rule="evenodd" fill-opacity="1" /><path clip-path="url(#clip240)" d="M758.535 750.288 L776.892 750.288 L776.892 754.223 L762.818 754.223 L762.818 762.695 Q763.836 762.348 764.855 762.186 Q765.873 762.001 766.892 762.001 Q772.679 762.001 776.058 765.172 Q779.438 768.343 779.438 773.76 Q779.438 779.339 775.966 782.44 Q772.494 785.519 766.174 785.519 Q763.998 785.519 761.73 785.149 Q759.485 784.778 757.077 784.038 L757.077 779.339 Q759.16 780.473 761.383 781.028 Q763.605 781.584 766.082 781.584 Q770.086 781.584 772.424 779.478 Q774.762 777.371 774.762 773.76 Q774.762 770.149 772.424 768.042 Q770.086 765.936 766.082 765.936 Q764.207 765.936 762.332 766.353 Q760.48 766.769 758.535 767.649 L758.535 750.288 Z" fill="#000000" fill-rule="evenodd" fill-opacity="1" /><path clip-path="url(#clip240)" d="M798.651 753.367 Q795.04 753.367 793.211 756.931 Q791.406 760.473 791.406 767.603 Q791.406 774.709 793.211 778.274 Q795.04 781.815 798.651 781.815 Q802.285 781.815 804.091 778.274 Q805.919 774.709 805.919 767.603 Q805.919 760.473 804.091 756.931 Q802.285 753.367 798.651 753.367 M798.651 749.663 Q804.461 749.663 807.517 754.269 Q810.595 758.853 810.595 767.603 Q810.595 776.329 807.517 780.936 Q804.461 785.519 798.651 785.519 Q792.841 785.519 789.762 780.936 Q786.707 776.329 786.707 767.603 Q786.707 758.853 789.762 754.269 Q792.841 749.663 798.651 749.663 Z" fill="#000000" fill-rule="evenodd" fill-opacity="1" /><path clip-path="url(#clip240)" d="M1297.84 780.913 L1305.47 780.913 L1305.47 754.547 L1297.16 756.214 L1297.16 751.955 L1305.43 750.288 L1310.1 750.288 L1310.1 780.913 L1317.74 780.913 L1317.74 784.848 L1297.84 784.848 L1297.84 780.913 Z" fill="#000000" fill-rule="evenodd" fill-opacity="1" /><path clip-path="url(#clip240)" d="M1337.19 753.367 Q1333.58 753.367 1331.75 756.931 Q1329.94 760.473 1329.94 767.603 Q1329.94 774.709 1331.75 778.274 Q1333.58 781.815 1337.19 781.815 Q1340.82 781.815 1342.63 778.274 Q1344.46 774.709 1344.46 767.603 Q1344.46 760.473 1342.63 756.931 Q1340.82 753.367 1337.19 753.367 M1337.19 749.663 Q1343 749.663 1346.05 754.269 Q1349.13 758.853 1349.13 767.603 Q1349.13 776.329 1346.05 780.936 Q1343 785.519 1337.19 785.519 Q1331.38 785.519 1328.3 780.936 Q1325.24 776.329 1325.24 767.603 Q1325.24 758.853 1328.3 754.269 Q1331.38 749.663 1337.19 749.663 Z" fill="#000000" fill-rule="evenodd" fill-opacity="1" /><path clip-path="url(#clip240)" d="M1367.35 753.367 Q1363.74 753.367 1361.91 756.931 Q1360.1 760.473 1360.1 767.603 Q1360.1 774.709 1361.91 778.274 Q1363.74 781.815 1367.35 781.815 Q1370.98 781.815 1372.79 778.274 Q1374.62 774.709 1374.62 767.603 Q1374.62 760.473 1372.79 756.931 Q1370.98 753.367 1367.35 753.367 M1367.35 749.663 Q1373.16 749.663 1376.21 754.269 Q1379.29 758.853 1379.29 767.603 Q1379.29 776.329 1376.21 780.936 Q1373.16 785.519 1367.35 785.519 Q1361.54 785.519 1358.46 780.936 Q1355.4 776.329 1355.4 767.603 Q1355.4 758.853 1358.46 754.269 Q1361.54 749.663 1367.35 749.663 Z" fill="#000000" fill-rule="evenodd" fill-opacity="1" /><path clip-path="url(#clip240)" d="M1852.23 780.913 L1859.87 780.913 L1859.87 754.547 L1851.56 756.214 L1851.56 751.955 L1859.82 750.288 L1864.5 750.288 L1864.5 780.913 L1872.14 780.913 L1872.14 784.848 L1852.23 784.848 L1852.23 780.913 Z" fill="#000000" fill-rule="evenodd" fill-opacity="1" /><path clip-path="url(#clip240)" d="M1881.63 750.288 L1899.98 750.288 L1899.98 754.223 L1885.91 754.223 L1885.91 762.695 Q1886.93 762.348 1887.95 762.186 Q1888.96 762.001 1889.98 762.001 Q1895.77 762.001 1899.15 765.172 Q1902.53 768.343 1902.53 773.76 Q1902.53 779.339 1899.06 782.44 Q1895.58 785.519 1889.27 785.519 Q1887.09 785.519 1884.82 785.149 Q1882.58 784.778 1880.17 784.038 L1880.17 779.339 Q1882.25 780.473 1884.47 781.028 Q1886.7 781.584 1889.17 781.584 Q1893.18 781.584 1895.51 779.478 Q1897.85 777.371 1897.85 773.76 Q1897.85 770.149 1895.51 768.042 Q1893.18 765.936 1889.17 765.936 Q1887.3 765.936 1885.42 766.353 Q1883.57 766.769 1881.63 767.649 L1881.63 750.288 Z" fill="#000000" fill-rule="evenodd" fill-opacity="1" /><path clip-path="url(#clip240)" d="M1921.74 753.367 Q1918.13 753.367 1916.3 756.931 Q1914.5 760.473 1914.5 767.603 Q1914.5 774.709 1916.3 778.274 Q1918.13 781.815 1921.74 781.815 Q1925.38 781.815 1927.18 778.274 Q1929.01 774.709 1929.01 767.603 Q1929.01 760.473 1927.18 756.931 Q1925.38 753.367 1921.74 753.367 M1921.74 749.663 Q1927.55 749.663 1930.61 754.269 Q1933.69 758.853 1933.69 767.603 Q1933.69 776.329 1930.61 780.936 Q1927.55 785.519 1921.74 785.519 Q1915.93 785.519 1912.85 780.936 Q1909.8 776.329 1909.8 767.603 Q1909.8 758.853 1912.85 754.269 Q1915.93 749.663 1921.74 749.663 Z" fill="#000000" fill-rule="evenodd" fill-opacity="1" /><path clip-path="url(#clip240)" d="M2410.71 780.913 L2427.03 780.913 L2427.03 784.848 L2405.08 784.848 L2405.08 780.913 Q2407.74 778.158 2412.33 773.528 Q2416.93 768.876 2418.11 767.533 Q2420.36 765.01 2421.24 763.274 Q2422.14 761.515 2422.14 759.825 Q2422.14 757.07 2420.2 755.334 Q2418.28 753.598 2415.17 753.598 Q2412.97 753.598 2410.52 754.362 Q2408.09 755.126 2405.31 756.677 L2405.31 751.955 Q2408.14 750.82 2410.59 750.242 Q2413.04 749.663 2415.08 749.663 Q2420.45 749.663 2423.65 752.348 Q2426.84 755.033 2426.84 759.524 Q2426.84 761.654 2426.03 763.575 Q2425.24 765.473 2423.14 768.066 Q2422.56 768.737 2419.46 771.954 Q2416.35 775.149 2410.71 780.913 Z" fill="#000000" fill-rule="evenodd" fill-opacity="1" /><path clip-path="url(#clip240)" d="M2446.84 753.367 Q2443.23 753.367 2441.4 756.931 Q2439.6 760.473 2439.6 767.603 Q2439.6 774.709 2441.4 778.274 Q2443.23 781.815 2446.84 781.815 Q2450.47 781.815 2452.28 778.274 Q2454.11 774.709 2454.11 767.603 Q2454.11 760.473 2452.28 756.931 Q2450.47 753.367 2446.84 753.367 M2446.84 749.663 Q2452.65 749.663 2455.71 754.269 Q2458.78 758.853 2458.78 767.603 Q2458.78 776.329 2455.71 780.936 Q2452.65 785.519 2446.84 785.519 Q2441.03 785.519 2437.95 780.936 Q2434.9 776.329 2434.9 767.603 Q2434.9 758.853 2437.95 754.269 Q2441.03 749.663 2446.84 749.663 Z" fill="#000000" fill-rule="evenodd" fill-opacity="1" /><path clip-path="url(#clip240)" d="M2477 753.367 Q2473.39 753.367 2471.56 756.931 Q2469.76 760.473 2469.76 767.603 Q2469.76 774.709 2471.56 778.274 Q2473.39 781.815 2477 781.815 Q2480.64 781.815 2482.44 778.274 Q2484.27 774.709 2484.27 767.603 Q2484.27 760.473 2482.44 756.931 Q2480.64 753.367 2477 753.367 M2477 749.663 Q2482.81 749.663 2485.87 754.269 Q2488.95 758.853 2488.95 767.603 Q2488.95 776.329 2485.87 780.936 Q2482.81 785.519 2477 785.519 Q2471.19 785.519 2468.11 780.936 Q2465.06 776.329 2465.06 767.603 Q2465.06 758.853 2468.11 754.269 Q2471.19 749.663 2477 749.663 Z" fill="#000000" fill-rule="evenodd" fill-opacity="1" /><path clip-path="url(#clip240)" d="M2965.1 780.913 L2981.42 780.913 L2981.42 784.848 L2959.47 784.848 L2959.47 780.913 Q2962.14 778.158 2966.72 773.528 Q2971.33 768.876 2972.51 767.533 Q2974.75 765.01 2975.63 763.274 Q2976.53 761.515 2976.53 759.825 Q2976.53 757.07 2974.59 755.334 Q2972.67 753.598 2969.57 753.598 Q2967.37 753.598 2964.91 754.362 Q2962.48 755.126 2959.71 756.677 L2959.71 751.955 Q2962.53 750.82 2964.98 750.242 Q2967.44 749.663 2969.47 749.663 Q2974.84 749.663 2978.04 752.348 Q2981.23 755.033 2981.23 759.524 Q2981.23 761.654 2980.42 763.575 Q2979.64 765.473 2977.53 768.066 Q2976.95 768.737 2973.85 771.954 Q2970.75 775.149 2965.1 780.913 Z" fill="#000000" fill-rule="evenodd" fill-opacity="1" /><path clip-path="url(#clip240)" d="M2991.28 750.288 L3009.64 750.288 L3009.64 754.223 L2995.56 754.223 L2995.56 762.695 Q2996.58 762.348 2997.6 762.186 Q2998.62 762.001 2999.64 762.001 Q3005.42 762.001 3008.8 765.172 Q3012.18 768.343 3012.18 773.76 Q3012.18 779.339 3008.71 782.44 Q3005.24 785.519 2998.92 785.519 Q2996.74 785.519 2994.47 785.149 Q2992.23 784.778 2989.82 784.038 L2989.82 779.339 Q2991.9 780.473 2994.13 781.028 Q2996.35 781.584 2998.83 781.584 Q3002.83 781.584 3005.17 779.478 Q3007.51 777.371 3007.51 773.76 Q3007.51 770.149 3005.17 768.042 Q3002.83 765.936 2998.83 765.936 Q2996.95 765.936 2995.08 766.353 Q2993.22 766.769 2991.28 767.649 L2991.28 750.288 Z" fill="#000000" fill-rule="evenodd" fill-opacity="1" /><path clip-path="url(#clip240)" d="M3031.39 753.367 Q3027.78 753.367 3025.96 756.931 Q3024.15 760.473 3024.15 767.603 Q3024.15 774.709 3025.96 778.274 Q3027.78 781.815 3031.39 781.815 Q3035.03 781.815 3036.83 778.274 Q3038.66 774.709 3038.66 767.603 Q3038.66 760.473 3036.83 756.931 Q3035.03 753.367 3031.39 753.367 M3031.39 749.663 Q3037.21 749.663 3040.26 754.269 Q3043.34 758.853 3043.34 767.603 Q3043.34 776.329 3040.26 780.936 Q3037.21 785.519 3031.39 785.519 Q3025.58 785.519 3022.51 780.936 Q3019.45 776.329 3019.45 767.603 Q3019.45 758.853 3022.51 754.269 Q3025.58 749.663 3031.39 749.663 Z" fill="#000000" fill-rule="evenodd" fill-opacity="1" /><polyline clip-path="url(#clip242)" style="stroke:#000000; stroke-linecap:butt; stroke-linejoin:round; stroke-width:2; stroke-opacity:0.1; fill:none" points="
  155.709,627.815 3152.76,627.815 
  "/>
<polyline clip-path="url(#clip242)" style="stroke:#000000; stroke-linecap:butt; stroke-linejoin:round; stroke-width:2; stroke-opacity:0.1; fill:none" points="
  155.709,463.665 3152.76,463.665 
  "/>
<polyline clip-path="url(#clip242)" style="stroke:#000000; stroke-linecap:butt; stroke-linejoin:round; stroke-width:2; stroke-opacity:0.1; fill:none" points="
  155.709,299.515 3152.76,299.515 
  "/>
<polyline clip-path="url(#clip242)" style="stroke:#000000; stroke-linecap:butt; stroke-linejoin:round; stroke-width:2; stroke-opacity:0.1; fill:none" points="
  155.709,135.366 3152.76,135.366 
  "/>
<polyline clip-path="url(#clip240)" style="stroke:#000000; stroke-linecap:butt; stroke-linejoin:round; stroke-width:4; stroke-opacity:1; fill:none" points="
  155.709,716.048 155.709,85.6721 
  "/>
<polyline clip-path="url(#clip240)" style="stroke:#000000; stroke-linecap:butt; stroke-linejoin:round; stroke-width:4; stroke-opacity:1; fill:none" points="
  155.709,627.815 174.607,627.815 
  "/>
<polyline clip-path="url(#clip240)" style="stroke:#000000; stroke-linecap:butt; stroke-linejoin:round; stroke-width:4; stroke-opacity:1; fill:none" points="
  155.709,463.665 174.607,463.665 
  "/>
<polyline clip-path="url(#clip240)" style="stroke:#000000; stroke-linecap:butt; stroke-linejoin:round; stroke-width:4; stroke-opacity:1; fill:none" points="
  155.709,299.515 174.607,299.515 
  "/>
<polyline clip-path="url(#clip240)" style="stroke:#000000; stroke-linecap:butt; stroke-linejoin:round; stroke-width:4; stroke-opacity:1; fill:none" points="
  155.709,135.366 174.607,135.366 
  "/>
<path clip-path="url(#clip240)" d="M46.9921 628.266 L76.6679 628.266 L76.6679 632.201 L46.9921 632.201 L46.9921 628.266 Z" fill="#000000" fill-rule="evenodd" fill-opacity="1" /><path clip-path="url(#clip240)" d="M86.8067 610.535 L105.163 610.535 L105.163 614.47 L91.0891 614.47 L91.0891 622.942 Q92.1076 622.595 93.1261 622.433 Q94.1447 622.248 95.1632 622.248 Q100.95 622.248 104.33 625.419 Q107.709 628.59 107.709 634.007 Q107.709 639.585 104.237 642.687 Q100.765 645.766 94.4456 645.766 Q92.2697 645.766 90.0012 645.396 Q87.7558 645.025 85.3484 644.284 L85.3484 639.585 Q87.4317 640.72 89.6539 641.275 Q91.8761 641.831 94.353 641.831 Q98.3576 641.831 100.696 639.724 Q103.033 637.618 103.033 634.007 Q103.033 630.396 100.696 628.289 Q98.3576 626.183 94.353 626.183 Q92.478 626.183 90.603 626.599 Q88.7512 627.016 86.8067 627.896 L86.8067 610.535 Z" fill="#000000" fill-rule="evenodd" fill-opacity="1" /><path clip-path="url(#clip240)" d="M95.765 449.464 Q92.1539 449.464 90.3252 453.028 Q88.5197 456.57 88.5197 463.7 Q88.5197 470.806 90.3252 474.371 Q92.1539 477.913 95.765 477.913 Q99.3993 477.913 101.205 474.371 Q103.033 470.806 103.033 463.7 Q103.033 456.57 101.205 453.028 Q99.3993 449.464 95.765 449.464 M95.765 445.76 Q101.575 445.76 104.631 450.366 Q107.709 454.95 107.709 463.7 Q107.709 472.426 104.631 477.033 Q101.575 481.616 95.765 481.616 Q89.9549 481.616 86.8762 477.033 Q83.8206 472.426 83.8206 463.7 Q83.8206 454.95 86.8762 450.366 Q89.9549 445.76 95.765 445.76 Z" fill="#000000" fill-rule="evenodd" fill-opacity="1" /><path clip-path="url(#clip240)" d="M86.8067 282.235 L105.163 282.235 L105.163 286.17 L91.0891 286.17 L91.0891 294.643 Q92.1076 294.295 93.1261 294.133 Q94.1447 293.948 95.1632 293.948 Q100.95 293.948 104.33 297.119 Q107.709 300.291 107.709 305.707 Q107.709 311.286 104.237 314.388 Q100.765 317.467 94.4456 317.467 Q92.2697 317.467 90.0012 317.096 Q87.7558 316.726 85.3484 315.985 L85.3484 311.286 Q87.4317 312.42 89.6539 312.976 Q91.8761 313.531 94.353 313.531 Q98.3576 313.531 100.696 311.425 Q103.033 309.318 103.033 305.707 Q103.033 302.096 100.696 299.99 Q98.3576 297.883 94.353 297.883 Q92.478 297.883 90.603 298.3 Q88.7512 298.717 86.8067 299.596 L86.8067 282.235 Z" fill="#000000" fill-rule="evenodd" fill-opacity="1" /><path clip-path="url(#clip240)" d="M56.4134 148.71 L64.0522 148.71 L64.0522 122.345 L55.7421 124.012 L55.7421 119.752 L64.0059 118.086 L68.6818 118.086 L68.6818 148.71 L76.3207 148.71 L76.3207 152.646 L56.4134 152.646 L56.4134 148.71 Z" fill="#000000" fill-rule="evenodd" fill-opacity="1" /><path clip-path="url(#clip240)" d="M95.765 121.164 Q92.1539 121.164 90.3252 124.729 Q88.5197 128.271 88.5197 135.4 Q88.5197 142.507 90.3252 146.072 Q92.1539 149.613 95.765 149.613 Q99.3993 149.613 101.205 146.072 Q103.033 142.507 103.033 135.4 Q103.033 128.271 101.205 124.729 Q99.3993 121.164 95.765 121.164 M95.765 117.461 Q101.575 117.461 104.631 122.067 Q107.709 126.65 107.709 135.4 Q107.709 144.127 104.631 148.734 Q101.575 153.317 95.765 153.317 Q89.9549 153.317 86.8762 148.734 Q83.8206 144.127 83.8206 135.4 Q83.8206 126.65 86.8762 122.067 Q89.9549 117.461 95.765 117.461 Z" fill="#000000" fill-rule="evenodd" fill-opacity="1" /><path clip-path="url(#clip240)" d="M1279.36 14.324 L1279.36 27.2059 L1294.71 27.2059 L1294.71 32.9987 L1279.36 32.9987 L1279.36 57.6282 Q1279.36 63.1779 1280.86 64.7578 Q1282.4 66.3376 1287.06 66.3376 L1294.71 66.3376 L1294.71 72.576 L1287.06 72.576 Q1278.43 72.576 1275.15 69.3758 Q1271.87 66.1351 1271.87 57.6282 L1271.87 32.9987 L1266.4 32.9987 L1266.4 27.2059 L1271.87 27.2059 L1271.87 14.324 L1279.36 14.324 Z" fill="#000000" fill-rule="evenodd" fill-opacity="1" /><path clip-path="url(#clip240)" d="M1343.33 48.0275 L1343.33 51.6733 L1309.06 51.6733 Q1309.54 59.3701 1313.67 63.421 Q1317.85 67.4314 1325.26 67.4314 Q1329.55 67.4314 1333.56 66.3781 Q1337.61 65.3249 1341.58 63.2184 L1341.58 70.267 Q1337.57 71.9684 1333.36 72.8596 Q1329.15 73.7508 1324.81 73.7508 Q1313.96 73.7508 1307.6 67.4314 Q1301.28 61.1119 1301.28 50.3365 Q1301.28 39.1965 1307.27 32.6746 Q1313.31 26.1121 1323.52 26.1121 Q1332.67 26.1121 1337.98 32.0264 Q1343.33 37.9003 1343.33 48.0275 M1335.87 45.84 Q1335.79 39.7232 1332.43 36.0774 Q1329.11 32.4315 1323.6 32.4315 Q1317.36 32.4315 1313.59 35.9558 Q1309.87 39.4801 1309.3 45.8805 L1335.87 45.84 Z" fill="#000000" fill-rule="evenodd" fill-opacity="1" /><path clip-path="url(#clip240)" d="M1384.48 28.5427 L1384.48 35.5912 Q1381.32 33.9709 1377.92 33.1607 Q1374.52 32.3505 1370.87 32.3505 Q1365.32 32.3505 1362.53 34.0519 Q1359.77 35.7533 1359.77 39.156 Q1359.77 41.7486 1361.76 43.2475 Q1363.74 44.7058 1369.74 46.0426 L1372.29 46.6097 Q1380.23 48.3111 1383.55 51.4303 Q1386.91 54.509 1386.91 60.0587 Q1386.91 66.3781 1381.89 70.0644 Q1376.91 73.7508 1368.16 73.7508 Q1364.51 73.7508 1360.54 73.0216 Q1356.61 72.3329 1352.24 70.9151 L1352.24 63.2184 Q1356.37 65.3654 1360.38 66.4591 Q1364.39 67.5124 1368.32 67.5124 Q1373.59 67.5124 1376.42 65.73 Q1379.26 63.9071 1379.26 60.6258 Q1379.26 57.5877 1377.19 55.9673 Q1375.17 54.3469 1368.24 52.8481 L1365.65 52.2405 Q1358.72 50.7821 1355.64 47.7845 Q1352.56 44.7463 1352.56 39.4801 Q1352.56 33.0797 1357.1 29.5959 Q1361.64 26.1121 1369.98 26.1121 Q1374.11 26.1121 1377.76 26.7198 Q1381.4 27.3274 1384.48 28.5427 Z" fill="#000000" fill-rule="evenodd" fill-opacity="1" /><path clip-path="url(#clip240)" d="M1406.16 14.324 L1406.16 27.2059 L1421.51 27.2059 L1421.51 32.9987 L1406.16 32.9987 L1406.16 57.6282 Q1406.16 63.1779 1407.65 64.7578 Q1409.19 66.3376 1413.85 66.3376 L1421.51 66.3376 L1421.51 72.576 L1413.85 72.576 Q1405.22 72.576 1401.94 69.3758 Q1398.66 66.1351 1398.66 57.6282 L1398.66 32.9987 L1393.19 32.9987 L1393.19 27.2059 L1398.66 27.2059 L1398.66 14.324 L1406.16 14.324 Z" fill="#000000" fill-rule="evenodd" fill-opacity="1" /><path clip-path="url(#clip240)" d="M1483.97 34.1734 Q1482.72 33.4443 1481.22 33.1202 Q1479.76 32.7556 1477.98 32.7556 Q1471.66 32.7556 1468.26 36.8875 Q1464.89 40.9789 1464.89 48.6757 L1464.89 72.576 L1457.4 72.576 L1457.4 27.2059 L1464.89 27.2059 L1464.89 34.2544 Q1467.24 30.1225 1471.01 28.1376 Q1474.78 26.1121 1480.17 26.1121 Q1480.93 26.1121 1481.87 26.2337 Q1482.8 26.3147 1483.93 26.5172 L1483.97 34.1734 Z" fill="#000000" fill-rule="evenodd" fill-opacity="1" /><path clip-path="url(#clip240)" d="M1528.78 48.0275 L1528.78 51.6733 L1494.51 51.6733 Q1494.99 59.3701 1499.12 63.421 Q1503.3 67.4314 1510.71 67.4314 Q1515 67.4314 1519.01 66.3781 Q1523.06 65.3249 1527.03 63.2184 L1527.03 70.267 Q1523.02 71.9684 1518.81 72.8596 Q1514.6 73.7508 1510.26 73.7508 Q1499.41 73.7508 1493.05 67.4314 Q1486.73 61.1119 1486.73 50.3365 Q1486.73 39.1965 1492.72 32.6746 Q1498.76 26.1121 1508.97 26.1121 Q1518.12 26.1121 1523.43 32.0264 Q1528.78 37.9003 1528.78 48.0275 M1521.32 45.84 Q1521.24 39.7232 1517.88 36.0774 Q1514.56 32.4315 1509.05 32.4315 Q1502.81 32.4315 1499.04 35.9558 Q1495.32 39.4801 1494.75 45.8805 L1521.32 45.84 Z" fill="#000000" fill-rule="evenodd" fill-opacity="1" /><path clip-path="url(#clip240)" d="M1573.66 28.9478 L1573.66 35.9153 Q1570.5 34.1734 1567.3 33.3227 Q1564.14 32.4315 1560.9 32.4315 Q1553.65 32.4315 1549.64 37.0496 Q1545.63 41.6271 1545.63 49.9314 Q1545.63 58.2358 1549.64 62.8538 Q1553.65 67.4314 1560.9 67.4314 Q1564.14 67.4314 1567.3 66.5807 Q1570.5 65.6895 1573.66 63.9476 L1573.66 70.8341 Q1570.54 72.2924 1567.18 73.0216 Q1563.86 73.7508 1560.09 73.7508 Q1549.84 73.7508 1543.81 67.3098 Q1537.77 60.8689 1537.77 49.9314 Q1537.77 38.832 1543.85 32.472 Q1549.96 26.1121 1560.58 26.1121 Q1564.02 26.1121 1567.3 26.8413 Q1570.58 27.5299 1573.66 28.9478 Z" fill="#000000" fill-rule="evenodd" fill-opacity="1" /><path clip-path="url(#clip240)" d="M1604.2 32.4315 Q1598.21 32.4315 1594.72 37.1306 Q1591.24 41.7891 1591.24 49.9314 Q1591.24 58.0738 1594.68 62.7728 Q1598.17 67.4314 1604.2 67.4314 Q1610.16 67.4314 1613.64 62.7323 Q1617.13 58.0333 1617.13 49.9314 Q1617.13 41.8701 1613.64 37.1711 Q1610.16 32.4315 1604.2 32.4315 M1604.2 26.1121 Q1613.93 26.1121 1619.48 32.4315 Q1625.03 38.7509 1625.03 49.9314 Q1625.03 61.0714 1619.48 67.4314 Q1613.93 73.7508 1604.2 73.7508 Q1594.44 73.7508 1588.89 67.4314 Q1583.38 61.0714 1583.38 49.9314 Q1583.38 38.7509 1588.89 32.4315 Q1594.44 26.1121 1604.2 26.1121 Z" fill="#000000" fill-rule="evenodd" fill-opacity="1" /><path clip-path="url(#clip240)" d="M1675.09 45.1919 L1675.09 72.576 L1667.64 72.576 L1667.64 45.4349 Q1667.64 38.994 1665.13 35.7938 Q1662.62 32.5936 1657.59 32.5936 Q1651.56 32.5936 1648.08 36.4419 Q1644.59 40.2903 1644.59 46.9338 L1644.59 72.576 L1637.1 72.576 L1637.1 27.2059 L1644.59 27.2059 L1644.59 34.2544 Q1647.27 30.163 1650.87 28.1376 Q1654.52 26.1121 1659.26 26.1121 Q1667.07 26.1121 1671.08 30.9732 Q1675.09 35.7938 1675.09 45.1919 Z" fill="#000000" fill-rule="evenodd" fill-opacity="1" /><path clip-path="url(#clip240)" d="M1718.89 28.5427 L1718.89 35.5912 Q1715.73 33.9709 1712.32 33.1607 Q1708.92 32.3505 1705.27 32.3505 Q1699.72 32.3505 1696.93 34.0519 Q1694.17 35.7533 1694.17 39.156 Q1694.17 41.7486 1696.16 43.2475 Q1698.14 44.7058 1704.14 46.0426 L1706.69 46.6097 Q1714.63 48.3111 1717.95 51.4303 Q1721.32 54.509 1721.32 60.0587 Q1721.32 66.3781 1716.29 70.0644 Q1711.31 73.7508 1702.56 73.7508 Q1698.91 73.7508 1694.94 73.0216 Q1691.01 72.3329 1686.64 70.9151 L1686.64 63.2184 Q1690.77 65.3654 1694.78 66.4591 Q1698.79 67.5124 1702.72 67.5124 Q1707.99 67.5124 1710.82 65.73 Q1713.66 63.9071 1713.66 60.6258 Q1713.66 57.5877 1711.59 55.9673 Q1709.57 54.3469 1702.64 52.8481 L1700.05 52.2405 Q1693.12 50.7821 1690.04 47.7845 Q1686.96 44.7463 1686.96 39.4801 Q1686.96 33.0797 1691.5 29.5959 Q1696.04 26.1121 1704.38 26.1121 Q1708.51 26.1121 1712.16 26.7198 Q1715.81 27.3274 1718.89 28.5427 Z" fill="#000000" fill-rule="evenodd" fill-opacity="1" /><path clip-path="url(#clip240)" d="M1740.56 14.324 L1740.56 27.2059 L1755.91 27.2059 L1755.91 32.9987 L1740.56 32.9987 L1740.56 57.6282 Q1740.56 63.1779 1742.06 64.7578 Q1743.6 66.3376 1748.25 66.3376 L1755.91 66.3376 L1755.91 72.576 L1748.25 72.576 Q1739.63 72.576 1736.34 69.3758 Q1733.06 66.1351 1733.06 57.6282 L1733.06 32.9987 L1727.59 32.9987 L1727.59 27.2059 L1733.06 27.2059 L1733.06 14.324 L1740.56 14.324 Z" fill="#000000" fill-rule="evenodd" fill-opacity="1" /><path clip-path="url(#clip240)" d="M1792 34.1734 Q1790.75 33.4443 1789.25 33.1202 Q1787.79 32.7556 1786.01 32.7556 Q1779.69 32.7556 1776.29 36.8875 Q1772.92 40.9789 1772.92 48.6757 L1772.92 72.576 L1765.43 72.576 L1765.43 27.2059 L1772.92 27.2059 L1772.92 34.2544 Q1775.27 30.1225 1779.04 28.1376 Q1782.81 26.1121 1788.2 26.1121 Q1788.97 26.1121 1789.9 26.2337 Q1790.83 26.3147 1791.96 26.5172 L1792 34.1734 Z" fill="#000000" fill-rule="evenodd" fill-opacity="1" /><path clip-path="url(#clip240)" d="M1799.05 54.671 L1799.05 27.2059 L1806.51 27.2059 L1806.51 54.3874 Q1806.51 60.8284 1809.02 64.0691 Q1811.53 67.2693 1816.55 67.2693 Q1822.59 67.2693 1826.07 63.421 Q1829.6 59.5726 1829.6 52.9291 L1829.6 27.2059 L1837.05 27.2059 L1837.05 72.576 L1829.6 72.576 L1829.6 65.6084 Q1826.88 69.7404 1823.28 71.7658 Q1819.71 73.7508 1814.97 73.7508 Q1807.15 73.7508 1803.1 68.8897 Q1799.05 64.0286 1799.05 54.671 M1817.81 26.1121 L1817.81 26.1121 Z" fill="#000000" fill-rule="evenodd" fill-opacity="1" /><path clip-path="url(#clip240)" d="M1885.05 28.9478 L1885.05 35.9153 Q1881.89 34.1734 1878.69 33.3227 Q1875.53 32.4315 1872.29 32.4315 Q1865.04 32.4315 1861.03 37.0496 Q1857.02 41.6271 1857.02 49.9314 Q1857.02 58.2358 1861.03 62.8538 Q1865.04 67.4314 1872.29 67.4314 Q1875.53 67.4314 1878.69 66.5807 Q1881.89 65.6895 1885.05 63.9476 L1885.05 70.8341 Q1881.93 72.2924 1878.57 73.0216 Q1875.25 73.7508 1871.48 73.7508 Q1861.23 73.7508 1855.2 67.3098 Q1849.16 60.8689 1849.16 49.9314 Q1849.16 38.832 1855.24 32.472 Q1861.36 26.1121 1871.97 26.1121 Q1875.41 26.1121 1878.69 26.8413 Q1881.97 27.5299 1885.05 28.9478 Z" fill="#000000" fill-rule="evenodd" fill-opacity="1" /><path clip-path="url(#clip240)" d="M1905.39 14.324 L1905.39 27.2059 L1920.74 27.2059 L1920.74 32.9987 L1905.39 32.9987 L1905.39 57.6282 Q1905.39 63.1779 1906.89 64.7578 Q1908.43 66.3376 1913.09 66.3376 L1920.74 66.3376 L1920.74 72.576 L1913.09 72.576 Q1904.46 72.576 1901.18 69.3758 Q1897.89 66.1351 1897.89 57.6282 L1897.89 32.9987 L1892.43 32.9987 L1892.43 27.2059 L1897.89 27.2059 L1897.89 14.324 L1905.39 14.324 Z" fill="#000000" fill-rule="evenodd" fill-opacity="1" /><path clip-path="url(#clip240)" d="M1930.54 27.2059 L1938 27.2059 L1938 72.576 L1930.54 72.576 L1930.54 27.2059 M1930.54 9.54393 L1938 9.54393 L1938 18.9825 L1930.54 18.9825 L1930.54 9.54393 Z" fill="#000000" fill-rule="evenodd" fill-opacity="1" /><path clip-path="url(#clip240)" d="M1971.18 32.4315 Q1965.18 32.4315 1961.7 37.1306 Q1958.21 41.7891 1958.21 49.9314 Q1958.21 58.0738 1961.66 62.7728 Q1965.14 67.4314 1971.18 67.4314 Q1977.13 67.4314 1980.61 62.7323 Q1984.1 58.0333 1984.1 49.9314 Q1984.1 41.8701 1980.61 37.1711 Q1977.13 32.4315 1971.18 32.4315 M1971.18 26.1121 Q1980.9 26.1121 1986.45 32.4315 Q1992 38.7509 1992 49.9314 Q1992 61.0714 1986.45 67.4314 Q1980.9 73.7508 1971.18 73.7508 Q1961.41 73.7508 1955.86 67.4314 Q1950.35 61.0714 1950.35 49.9314 Q1950.35 38.7509 1955.86 32.4315 Q1961.41 26.1121 1971.18 26.1121 Z" fill="#000000" fill-rule="evenodd" fill-opacity="1" /><path clip-path="url(#clip240)" d="M2042.07 45.1919 L2042.07 72.576 L2034.61 72.576 L2034.61 45.4349 Q2034.61 38.994 2032.1 35.7938 Q2029.59 32.5936 2024.57 32.5936 Q2018.53 32.5936 2015.05 36.4419 Q2011.56 40.2903 2011.56 46.9338 L2011.56 72.576 L2004.07 72.576 L2004.07 27.2059 L2011.56 27.2059 L2011.56 34.2544 Q2014.24 30.163 2017.84 28.1376 Q2021.49 26.1121 2026.23 26.1121 Q2034.05 26.1121 2038.06 30.9732 Q2042.07 35.7938 2042.07 45.1919 Z" fill="#000000" fill-rule="evenodd" fill-opacity="1" /><polyline clip-path="url(#clip242)" style="stroke:#009af9; stroke-linecap:butt; stroke-linejoin:round; stroke-width:8; stroke-opacity:1; fill:none" points="
  240.531,463.665 251.619,463.665 262.707,463.665 273.795,463.665 284.883,463.665 295.971,463.665 307.059,463.665 318.146,463.665 329.234,463.665 340.322,463.665 
  351.41,463.665 362.498,463.665 373.586,463.665 384.674,463.665 395.761,463.665 406.849,463.665 417.937,463.665 429.025,463.665 440.113,463.665 451.201,463.665 
  462.289,463.665 473.376,463.665 484.464,463.665 495.552,463.665 506.64,463.665 517.728,463.665 528.816,463.665 539.903,463.665 550.991,463.665 562.079,463.665 
  573.167,463.665 584.255,463.665 595.343,463.665 606.431,463.665 617.518,463.665 628.606,463.665 639.694,463.665 650.782,463.665 661.87,463.665 672.958,463.665 
  684.046,463.665 695.133,463.665 706.221,463.665 717.309,463.665 728.397,463.665 739.485,463.665 750.573,463.665 761.661,463.665 772.748,463.665 783.836,463.665 
  794.924,463.665 806.012,463.665 817.1,463.665 828.188,463.665 839.275,463.665 850.363,463.665 861.451,463.665 872.539,463.665 883.627,463.665 894.715,463.665 
  905.803,463.665 916.89,463.665 927.978,463.665 939.066,463.665 950.154,463.665 961.242,463.665 972.33,463.665 983.418,463.665 994.505,463.665 1005.59,463.665 
  1016.68,463.665 1027.77,463.665 1038.86,463.665 1049.94,463.665 1061.03,463.665 1072.12,463.665 1083.21,463.665 1094.3,463.665 1105.38,463.665 1116.47,463.665 
  1127.56,463.665 1138.65,463.665 1149.74,463.665 1160.82,463.665 1171.91,463.665 1183,463.665 1194.09,463.665 1205.17,463.665 1216.26,463.665 1227.35,463.665 
  1238.44,463.665 1249.53,463.665 1260.61,463.665 1271.7,463.665 1282.79,463.665 1293.88,463.665 1304.97,463.665 1316.05,463.665 1327.14,463.665 1338.23,463.665 
  1349.32,463.665 1360.4,463.665 1371.49,463.665 1382.58,463.665 1393.67,463.665 1404.76,463.665 1415.84,463.665 1426.93,463.665 1438.02,463.665 1449.11,463.665 
  1460.2,463.665 1471.28,463.665 1482.37,463.665 1493.46,463.665 1504.55,463.665 1515.63,463.665 1526.72,463.665 1537.81,463.665 1548.9,463.665 1559.99,463.665 
  1571.07,463.665 1582.16,463.665 1593.25,463.665 1604.34,463.665 1615.43,463.665 1626.51,463.665 1637.6,463.665 1648.69,463.665 1659.78,463.665 1670.86,463.665 
  1681.95,463.665 1693.04,463.665 1704.13,463.665 1715.22,463.665 1726.3,463.665 1737.39,463.665 1748.48,452.136 1759.57,441.114 1770.66,585.204 1781.74,479.183 
  1792.83,463.761 1803.92,466.415 1815.01,419.987 1826.09,518.154 1837.18,426.182 1848.27,384.515 1859.36,463.665 1870.45,463.665 1881.53,463.665 1892.62,463.665 
  1903.71,463.665 1914.8,463.665 1925.89,463.665 1936.97,463.665 1948.06,463.665 1959.15,463.665 1970.24,463.665 1981.32,463.665 1992.41,463.665 2003.5,463.665 
  2014.59,463.665 2025.68,463.665 2036.76,463.665 2047.85,463.665 2058.94,463.665 2070.03,463.665 2081.11,463.665 2092.2,463.665 2103.29,463.665 2114.38,463.665 
  2125.47,463.665 2136.55,463.665 2147.64,463.665 2158.73,497.83 2169.82,530.49 2180.91,103.513 2191.99,417.681 2203.08,463.381 2214.17,455.516 2225.26,593.095 
  2236.34,302.199 2247.43,574.737 2258.52,698.207 2269.61,463.665 2280.7,463.665 2291.78,463.665 2302.87,463.665 2313.96,463.665 2325.05,463.665 2336.14,463.665 
  2347.22,463.665 2358.31,463.665 2369.4,463.665 2380.49,463.665 2391.57,463.665 2402.66,463.665 2413.75,463.665 2424.84,463.665 2435.93,463.665 2447.01,463.665 
  2458.1,463.665 2469.19,463.665 2480.28,463.665 2491.37,463.665 2502.45,463.665 2513.54,463.665 2524.63,463.665 2535.72,463.665 2546.8,463.665 2557.89,463.665 
  2568.98,463.665 2580.07,463.665 2591.16,463.665 2602.24,463.665 2613.33,463.665 2624.42,463.665 2635.51,463.665 2646.6,463.665 2657.68,463.665 2668.77,463.665 
  2679.86,463.665 2690.95,463.665 2702.03,463.665 2713.12,463.665 2724.21,463.665 2735.3,463.665 2746.39,463.665 2757.47,463.665 2768.56,463.665 2779.65,463.665 
  2790.74,463.665 2801.83,463.665 2812.91,463.665 2824,463.665 2835.09,463.665 2846.18,463.665 2857.26,463.665 2868.35,463.665 2879.44,463.665 2890.53,463.665 
  2901.62,463.665 2912.7,463.665 2923.79,463.665 2934.88,463.665 2945.97,463.665 2957.06,463.665 2968.14,463.665 2979.23,463.665 2990.32,463.665 3001.41,463.665 
  3012.49,463.665 3023.58,463.665 3034.67,463.665 3045.76,463.665 3056.85,463.665 3067.93,463.665 
  "/>
<polyline clip-path="url(#clip242)" style="stroke:#e26f46; stroke-linecap:butt; stroke-linejoin:round; stroke-width:4; stroke-opacity:1; fill:none" points="
  240.531,463.412 251.619,463.438 262.707,463.395 273.795,463.673 284.883,463.741 295.971,464.244 307.059,463.657 318.146,463.453 329.234,463.795 340.322,463.826 
  351.41,463.833 362.498,463.525 373.586,463.193 384.674,463.386 395.761,463.823 406.849,463.835 417.937,463.576 429.025,463.638 440.113,463.534 451.201,463.753 
  462.289,463.441 473.376,463.476 484.464,463.591 495.552,463.176 506.64,463.78 517.728,463.129 528.816,463.346 539.903,463.317 550.991,463.398 562.079,463.376 
  573.167,463.049 584.255,462.963 595.343,463.18 606.431,463.231 617.518,463.439 628.606,463.156 639.694,463.264 650.782,463.498 661.87,463.524 672.958,463.476 
  684.046,463.407 695.133,463.474 706.221,463.737 717.309,463.75 728.397,463.658 739.485,463.423 750.573,463.866 761.661,463.832 772.748,463.49 783.836,463.48 
  794.924,463.329 806.012,463.677 817.1,463.423 828.188,463.297 839.275,463.494 850.363,463.353 861.451,463.428 872.539,463.383 883.627,463.426 894.715,463.294 
  905.803,463.364 916.89,463.41 927.978,463.257 939.066,463.262 950.154,463.376 961.242,463.362 972.33,463.268 983.418,463.324 994.505,463.305 1005.59,463.421 
  1016.68,463.476 1027.77,463.513 1038.86,463.384 1049.94,463.576 1061.03,463.435 1072.12,463.478 1083.21,463.392 1094.3,463.436 1105.38,463.618 1116.47,463.553 
  1127.56,463.395 1138.65,463.491 1149.74,463.486 1160.82,463.554 1171.91,463.614 1183,463.512 1194.09,463.314 1205.17,463.155 1216.26,463.469 1227.35,463.293 
  1238.44,463.308 1249.53,463.477 1260.61,463.508 1271.7,463.523 1282.79,463.419 1293.88,463.503 1304.97,463.491 1316.05,463.52 1327.14,463.631 1338.23,463.344 
  1349.32,463.642 1360.4,463.539 1371.49,463.505 1382.58,463.52 1393.67,463.573 1404.76,463.528 1415.84,463.631 1426.93,463.63 1438.02,463.378 1449.11,463.376 
  1460.2,463.908 1471.28,463.9 1482.37,463.618 1493.46,463.573 1504.55,463.494 1515.63,463.604 1526.72,463.342 1537.81,463.484 1548.9,463.345 1559.99,463.339 
  1571.07,463.351 1582.16,463.464 1593.25,463.392 1604.34,463.407 1615.43,463.233 1626.51,463.797 1637.6,463.793 1648.69,463.862 1659.78,463.518 1670.86,463.589 
  1681.95,463.652 1693.04,464.012 1704.13,463.698 1715.22,463.748 1726.3,463.712 1737.39,463.578 1748.48,463.613 1759.57,463.719 1770.66,463.564 1781.74,463.506 
  1792.83,463.263 1803.92,463.525 1815.01,463.027 1826.09,464.371 1837.18,463.358 1848.27,465.136 1859.36,463.727 1870.45,463.862 1881.53,463.571 1892.62,463.814 
  1903.71,462.951 1914.8,464.51 1925.89,463.066 1936.97,464.07 1948.06,462.997 1959.15,463.933 1970.24,465.729 1981.32,462.81 1992.41,465.098 2003.5,465.096 
  2014.59,466.976 2025.68,459.762 2036.76,461.861 2047.85,463.296 2058.94,463.909 2070.03,467.438 2081.11,460.647 2092.2,462.601 2103.29,467.881 2114.38,463.874 
  2125.47,462.041 2136.55,464.556 2147.64,456.781 2158.73,498.786 2169.82,527.336 2180.91,113.728 2191.99,433.491 2203.08,470.57 2214.17,449.709 2225.26,592.734 
  2236.34,302.917 2247.43,577.685 2258.52,681.392 2269.61,453.989 2280.7,464.022 2291.78,462.156 2302.87,465.094 2313.96,464.446 2325.05,465.244 2336.14,466.458 
  2347.22,463.263 2358.31,461.964 2369.4,464.081 2380.49,461.792 2391.57,463.496 2402.66,462.947 2413.75,465.649 2424.84,462.958 2435.93,465.628 2447.01,463.269 
  2458.1,464.458 2469.19,462.804 2480.28,465.064 2491.37,463.992 2502.45,462.822 2513.54,464.229 2524.63,463.687 2535.72,464.282 2546.8,464.069 2557.89,463.685 
  2568.98,463.6 2580.07,463.262 2591.16,463.855 2602.24,463.275 2613.33,463.593 2624.42,463.179 2635.51,463.457 2646.6,463.409 2657.68,463.534 2668.77,463.34 
  2679.86,463.134 2690.95,463.296 2702.03,463.872 2713.12,463.828 2724.21,463.598 2735.3,463.547 2746.39,463.948 2757.47,463.343 2768.56,463.518 2779.65,463.343 
  2790.74,463.297 2801.83,463.322 2812.91,463.377 2824,463.39 2835.09,463.5 2846.18,463.5 2857.26,463.172 2868.35,463.659 2879.44,463.797 2890.53,463.89 
  2901.62,463.685 2912.7,463.665 2923.79,463.542 2934.88,463.452 2945.97,463.504 2957.06,463.633 2968.14,463.562 2979.23,463.443 2990.32,463.513 3001.41,463.808 
  3012.49,463.748 3023.58,462.538 3034.67,463.801 3045.76,462.926 3056.85,465.217 3067.93,462.979 
  "/>
<path clip-path="url(#clip240)" d="
M2667.79 210.365 L3052.85 210.365 L3052.85 106.685 L2667.79 106.685  Z
  " fill="#ffffff" fill-rule="evenodd" fill-opacity="1"/>
<polyline clip-path="url(#clip240)" style="stroke:#000000; stroke-linecap:butt; stroke-linejoin:round; stroke-width:4; stroke-opacity:1; fill:none" points="
  2667.79,210.365 3052.85,210.365 3052.85,106.685 2667.79,106.685 2667.79,210.365 
  "/>
<polyline clip-path="url(#clip240)" style="stroke:#e26f46; stroke-linecap:butt; stroke-linejoin:round; stroke-width:4; stroke-opacity:1; fill:none" points="
  2701.09,158.525 2900.89,158.525 
  "/>
<path clip-path="url(#clip240)" d="M2948.04 178.212 Q2946.23 182.842 2944.52 184.254 Q2942.8 185.666 2939.93 185.666 L2936.53 185.666 L2936.53 182.101 L2939.03 182.101 Q2940.79 182.101 2941.76 181.268 Q2942.74 180.434 2943.92 177.332 L2944.68 175.388 L2934.19 149.879 L2938.71 149.879 L2946.81 170.157 L2954.91 149.879 L2959.42 149.879 L2948.04 178.212 Z" fill="#000000" fill-rule="evenodd" fill-opacity="1" /><path clip-path="url(#clip240)" d="M2969.93 171.869 L2986.25 171.869 L2986.25 175.805 L2964.31 175.805 L2964.31 171.869 Q2966.97 169.115 2971.55 164.485 Q2976.16 159.833 2977.34 158.49 Q2979.59 155.967 2980.47 154.231 Q2981.37 152.471 2981.37 150.782 Q2981.37 148.027 2979.42 146.291 Q2977.5 144.555 2974.4 144.555 Q2972.2 144.555 2969.75 145.319 Q2967.32 146.083 2964.54 147.634 L2964.54 142.911 Q2967.36 141.777 2969.82 141.198 Q2972.27 140.62 2974.31 140.62 Q2979.68 140.62 2982.87 143.305 Q2986.07 145.99 2986.07 150.481 Q2986.07 152.61 2985.26 154.532 Q2984.47 156.43 2982.36 159.022 Q2981.79 159.694 2978.68 162.911 Q2975.58 166.106 2969.93 171.869 Z" fill="#000000" fill-rule="evenodd" fill-opacity="1" /></svg>
