<?xml version="1.0" encoding="utf-8"?>
<svg xmlns="http://www.w3.org/2000/svg" xmlns:xlink="http://www.w3.org/1999/xlink" width="600" height="400" viewBox="0 0 2400 1600">
<defs>
  <clipPath id="clip120">
    <rect x="0" y="0" width="2400" height="1600"/>
  </clipPath>
</defs>
<path clip-path="url(#clip120)" d="
M0 1600 L2400 1600 L2400 0 L0 0  Z
  " fill="#ffffff" fill-rule="evenodd" fill-opacity="1"/>
<defs>
  <clipPath id="clip121">
    <rect x="480" y="0" width="1681" height="1600"/>
  </clipPath>
</defs>
<path clip-path="url(#clip120)" d="
M193.936 1486.45 L2352.76 1486.45 L2352.76 123.472 L193.936 123.472  Z
  " fill="#ffffff" fill-rule="evenodd" fill-opacity="1"/>
<defs>
  <clipPath id="clip122">
    <rect x="193" y="123" width="2160" height="1364"/>
  </clipPath>
</defs>
<polyline clip-path="url(#clip122)" style="stroke:#000000; stroke-linecap:butt; stroke-linejoin:round; stroke-width:2; stroke-opacity:0.1; fill:none" points="
  213.471,1486.45 213.471,123.472 
  "/>
<polyline clip-path="url(#clip122)" style="stroke:#000000; stroke-linecap:butt; stroke-linejoin:round; stroke-width:2; stroke-opacity:0.1; fill:none" points="
  629.108,1486.45 629.108,123.472 
  "/>
<polyline clip-path="url(#clip122)" style="stroke:#000000; stroke-linecap:butt; stroke-linejoin:round; stroke-width:2; stroke-opacity:0.1; fill:none" points="
  1044.75,1486.45 1044.75,123.472 
  "/>
<polyline clip-path="url(#clip122)" style="stroke:#000000; stroke-linecap:butt; stroke-linejoin:round; stroke-width:2; stroke-opacity:0.1; fill:none" points="
  1460.38,1486.45 1460.38,123.472 
  "/>
<polyline clip-path="url(#clip122)" style="stroke:#000000; stroke-linecap:butt; stroke-linejoin:round; stroke-width:2; stroke-opacity:0.1; fill:none" points="
  1876.02,1486.45 1876.02,123.472 
  "/>
<polyline clip-path="url(#clip122)" style="stroke:#000000; stroke-linecap:butt; stroke-linejoin:round; stroke-width:2; stroke-opacity:0.1; fill:none" points="
  2291.66,1486.45 2291.66,123.472 
  "/>
<polyline clip-path="url(#clip120)" style="stroke:#000000; stroke-linecap:butt; stroke-linejoin:round; stroke-width:4; stroke-opacity:1; fill:none" points="
  193.936,1486.45 2352.76,1486.45 
  "/>
<polyline clip-path="url(#clip120)" style="stroke:#000000; stroke-linecap:butt; stroke-linejoin:round; stroke-width:4; stroke-opacity:1; fill:none" points="
  213.471,1486.45 213.471,1467.55 
  "/>
<polyline clip-path="url(#clip120)" style="stroke:#000000; stroke-linecap:butt; stroke-linejoin:round; stroke-width:4; stroke-opacity:1; fill:none" points="
  629.108,1486.45 629.108,1467.55 
  "/>
<polyline clip-path="url(#clip120)" style="stroke:#000000; stroke-linecap:butt; stroke-linejoin:round; stroke-width:4; stroke-opacity:1; fill:none" points="
  1044.75,1486.45 1044.75,1467.55 
  "/>
<polyline clip-path="url(#clip120)" style="stroke:#000000; stroke-linecap:butt; stroke-linejoin:round; stroke-width:4; stroke-opacity:1; fill:none" points="
  1460.38,1486.45 1460.38,1467.55 
  "/>
<polyline clip-path="url(#clip120)" style="stroke:#000000; stroke-linecap:butt; stroke-linejoin:round; stroke-width:4; stroke-opacity:1; fill:none" points="
  1876.02,1486.45 1876.02,1467.55 
  "/>
<polyline clip-path="url(#clip120)" style="stroke:#000000; stroke-linecap:butt; stroke-linejoin:round; stroke-width:4; stroke-opacity:1; fill:none" points="
  2291.66,1486.45 2291.66,1467.55 
  "/>
<path clip-path="url(#clip120)" d="M213.471 1517.37 Q209.86 1517.37 208.031 1520.93 Q206.226 1524.47 206.226 1531.6 Q206.226 1538.71 208.031 1542.27 Q209.86 1545.82 213.471 1545.82 Q217.105 1545.82 218.911 1542.27 Q220.739 1538.71 220.739 1531.6 Q220.739 1524.47 218.911 1520.93 Q217.105 1517.37 213.471 1517.37 M213.471 1513.66 Q219.281 1513.66 222.337 1518.27 Q225.415 1522.85 225.415 1531.6 Q225.415 1540.33 222.337 1544.94 Q219.281 1549.52 213.471 1549.52 Q207.661 1549.52 204.582 1544.94 Q201.527 1540.33 201.527 1531.6 Q201.527 1522.85 204.582 1518.27 Q207.661 1513.66 213.471 1513.66 Z" fill="#000000" fill-rule="evenodd" fill-opacity="1" /><path clip-path="url(#clip120)" d="M603.796 1544.91 L611.435 1544.91 L611.435 1518.55 L603.125 1520.21 L603.125 1515.95 L611.388 1514.29 L616.064 1514.29 L616.064 1544.91 L623.703 1544.91 L623.703 1548.85 L603.796 1548.85 L603.796 1544.91 Z" fill="#000000" fill-rule="evenodd" fill-opacity="1" /><path clip-path="url(#clip120)" d="M643.147 1517.37 Q639.536 1517.37 637.708 1520.93 Q635.902 1524.47 635.902 1531.6 Q635.902 1538.71 637.708 1542.27 Q639.536 1545.82 643.147 1545.82 Q646.782 1545.82 648.587 1542.27 Q650.416 1538.71 650.416 1531.6 Q650.416 1524.47 648.587 1520.93 Q646.782 1517.37 643.147 1517.37 M643.147 1513.66 Q648.958 1513.66 652.013 1518.27 Q655.092 1522.85 655.092 1531.6 Q655.092 1540.33 652.013 1544.94 Q648.958 1549.52 643.147 1549.52 Q637.337 1549.52 634.259 1544.94 Q631.203 1540.33 631.203 1531.6 Q631.203 1522.85 634.259 1518.27 Q637.337 1513.66 643.147 1513.66 Z" fill="#000000" fill-rule="evenodd" fill-opacity="1" /><path clip-path="url(#clip120)" d="M1023.52 1544.91 L1039.84 1544.91 L1039.84 1548.85 L1017.89 1548.85 L1017.89 1544.91 Q1020.56 1542.16 1025.14 1537.53 Q1029.75 1532.88 1030.93 1531.53 Q1033.17 1529.01 1034.05 1527.27 Q1034.95 1525.51 1034.95 1523.82 Q1034.95 1521.07 1033.01 1519.33 Q1031.09 1517.6 1027.99 1517.6 Q1025.79 1517.6 1023.33 1518.36 Q1020.9 1519.13 1018.13 1520.68 L1018.13 1515.95 Q1020.95 1514.82 1023.4 1514.24 Q1025.86 1513.66 1027.89 1513.66 Q1033.26 1513.66 1036.46 1516.35 Q1039.65 1519.03 1039.65 1523.52 Q1039.65 1525.65 1038.84 1527.57 Q1038.06 1529.47 1035.95 1532.07 Q1035.37 1532.74 1032.27 1535.95 Q1029.17 1539.15 1023.52 1544.91 Z" fill="#000000" fill-rule="evenodd" fill-opacity="1" /><path clip-path="url(#clip120)" d="M1059.65 1517.37 Q1056.04 1517.37 1054.21 1520.93 Q1052.41 1524.47 1052.41 1531.6 Q1052.41 1538.71 1054.21 1542.27 Q1056.04 1545.82 1059.65 1545.82 Q1063.29 1545.82 1065.09 1542.27 Q1066.92 1538.71 1066.92 1531.6 Q1066.92 1524.47 1065.09 1520.93 Q1063.29 1517.37 1059.65 1517.37 M1059.65 1513.66 Q1065.46 1513.66 1068.52 1518.27 Q1071.6 1522.85 1071.6 1531.6 Q1071.6 1540.33 1068.52 1544.94 Q1065.46 1549.52 1059.65 1549.52 Q1053.84 1549.52 1050.76 1544.94 Q1047.71 1540.33 1047.71 1531.6 Q1047.71 1522.85 1050.76 1518.27 Q1053.84 1513.66 1059.65 1513.66 Z" fill="#000000" fill-rule="evenodd" fill-opacity="1" /><path clip-path="url(#clip120)" d="M1449.23 1530.21 Q1452.58 1530.93 1454.46 1533.2 Q1456.35 1535.47 1456.35 1538.8 Q1456.35 1543.92 1452.84 1546.72 Q1449.32 1549.52 1442.84 1549.52 Q1440.66 1549.52 1438.35 1549.08 Q1436.05 1548.66 1433.6 1547.81 L1433.6 1543.29 Q1435.54 1544.43 1437.86 1545.01 Q1440.17 1545.58 1442.7 1545.58 Q1447.1 1545.58 1449.39 1543.85 Q1451.7 1542.11 1451.7 1538.8 Q1451.7 1535.75 1449.55 1534.03 Q1447.42 1532.3 1443.6 1532.3 L1439.57 1532.3 L1439.57 1528.45 L1443.79 1528.45 Q1447.23 1528.45 1449.06 1527.09 Q1450.89 1525.7 1450.89 1523.11 Q1450.89 1520.45 1448.99 1519.03 Q1447.12 1517.6 1443.6 1517.6 Q1441.68 1517.6 1439.48 1518.01 Q1437.28 1518.43 1434.64 1519.31 L1434.64 1515.14 Q1437.3 1514.4 1439.62 1514.03 Q1441.96 1513.66 1444.02 1513.66 Q1449.34 1513.66 1452.44 1516.09 Q1455.54 1518.5 1455.54 1522.62 Q1455.54 1525.49 1453.9 1527.48 Q1452.26 1529.45 1449.23 1530.21 Z" fill="#000000" fill-rule="evenodd" fill-opacity="1" /><path clip-path="url(#clip120)" d="M1475.22 1517.37 Q1471.61 1517.37 1469.78 1520.93 Q1467.98 1524.47 1467.98 1531.6 Q1467.98 1538.71 1469.78 1542.27 Q1471.61 1545.82 1475.22 1545.82 Q1478.85 1545.82 1480.66 1542.27 Q1482.49 1538.71 1482.49 1531.6 Q1482.49 1524.47 1480.66 1520.93 Q1478.85 1517.37 1475.22 1517.37 M1475.22 1513.66 Q1481.03 1513.66 1484.09 1518.27 Q1487.16 1522.85 1487.16 1531.6 Q1487.16 1540.33 1484.09 1544.94 Q1481.03 1549.52 1475.22 1549.52 Q1469.41 1549.52 1466.33 1544.94 Q1463.28 1540.33 1463.28 1531.6 Q1463.28 1522.85 1466.33 1518.27 Q1469.41 1513.66 1475.22 1513.66 Z" fill="#000000" fill-rule="evenodd" fill-opacity="1" /><path clip-path="url(#clip120)" d="M1864.19 1518.36 L1852.39 1536.81 L1864.19 1536.81 L1864.19 1518.36 M1862.96 1514.29 L1868.84 1514.29 L1868.84 1536.81 L1873.77 1536.81 L1873.77 1540.7 L1868.84 1540.7 L1868.84 1548.85 L1864.19 1548.85 L1864.19 1540.7 L1848.59 1540.7 L1848.59 1536.19 L1862.96 1514.29 Z" fill="#000000" fill-rule="evenodd" fill-opacity="1" /><path clip-path="url(#clip120)" d="M1891.51 1517.37 Q1887.89 1517.37 1886.07 1520.93 Q1884.26 1524.47 1884.26 1531.6 Q1884.26 1538.71 1886.07 1542.27 Q1887.89 1545.82 1891.51 1545.82 Q1895.14 1545.82 1896.95 1542.27 Q1898.77 1538.71 1898.77 1531.6 Q1898.77 1524.47 1896.95 1520.93 Q1895.14 1517.37 1891.51 1517.37 M1891.51 1513.66 Q1897.32 1513.66 1900.37 1518.27 Q1903.45 1522.85 1903.45 1531.6 Q1903.45 1540.33 1900.37 1544.94 Q1897.32 1549.52 1891.51 1549.52 Q1885.7 1549.52 1882.62 1544.94 Q1879.56 1540.33 1879.56 1531.6 Q1879.56 1522.85 1882.62 1518.27 Q1885.7 1513.66 1891.51 1513.66 Z" fill="#000000" fill-rule="evenodd" fill-opacity="1" /><path clip-path="url(#clip120)" d="M2266.36 1514.29 L2284.71 1514.29 L2284.71 1518.22 L2270.64 1518.22 L2270.64 1526.7 Q2271.66 1526.35 2272.68 1526.19 Q2273.69 1526 2274.71 1526 Q2280.5 1526 2283.88 1529.17 Q2287.26 1532.34 2287.26 1537.76 Q2287.26 1543.34 2283.79 1546.44 Q2280.31 1549.52 2274 1549.52 Q2271.82 1549.52 2269.55 1549.15 Q2267.31 1548.78 2264.9 1548.04 L2264.9 1543.34 Q2266.98 1544.47 2269.2 1545.03 Q2271.43 1545.58 2273.9 1545.58 Q2277.91 1545.58 2280.25 1543.48 Q2282.58 1541.37 2282.58 1537.76 Q2282.58 1534.15 2280.25 1532.04 Q2277.91 1529.94 2273.9 1529.94 Q2272.03 1529.94 2270.15 1530.35 Q2268.3 1530.77 2266.36 1531.65 L2266.36 1514.29 Z" fill="#000000" fill-rule="evenodd" fill-opacity="1" /><path clip-path="url(#clip120)" d="M2306.47 1517.37 Q2302.86 1517.37 2301.03 1520.93 Q2299.23 1524.47 2299.23 1531.6 Q2299.23 1538.71 2301.03 1542.27 Q2302.86 1545.82 2306.47 1545.82 Q2310.11 1545.82 2311.91 1542.27 Q2313.74 1538.71 2313.74 1531.6 Q2313.74 1524.47 2311.91 1520.93 Q2310.11 1517.37 2306.47 1517.37 M2306.47 1513.66 Q2312.28 1513.66 2315.34 1518.27 Q2318.42 1522.85 2318.42 1531.6 Q2318.42 1540.33 2315.34 1544.94 Q2312.28 1549.52 2306.47 1549.52 Q2300.66 1549.52 2297.58 1544.94 Q2294.53 1540.33 2294.53 1531.6 Q2294.53 1522.85 2297.58 1518.27 Q2300.66 1513.66 2306.47 1513.66 Z" fill="#000000" fill-rule="evenodd" fill-opacity="1" /><polyline clip-path="url(#clip122)" style="stroke:#000000; stroke-linecap:butt; stroke-linejoin:round; stroke-width:2; stroke-opacity:0.1; fill:none" points="
  193.936,1430.9 2352.76,1430.9 
  "/>
<polyline clip-path="url(#clip122)" style="stroke:#000000; stroke-linecap:butt; stroke-linejoin:round; stroke-width:2; stroke-opacity:0.1; fill:none" points="
  193.936,1189.89 2352.76,1189.89 
  "/>
<polyline clip-path="url(#clip122)" style="stroke:#000000; stroke-linecap:butt; stroke-linejoin:round; stroke-width:2; stroke-opacity:0.1; fill:none" points="
  193.936,948.882 2352.76,948.882 
  "/>
<polyline clip-path="url(#clip122)" style="stroke:#000000; stroke-linecap:butt; stroke-linejoin:round; stroke-width:2; stroke-opacity:0.1; fill:none" points="
  193.936,707.875 2352.76,707.875 
  "/>
<polyline clip-path="url(#clip122)" style="stroke:#000000; stroke-linecap:butt; stroke-linejoin:round; stroke-width:2; stroke-opacity:0.1; fill:none" points="
  193.936,466.867 2352.76,466.867 
  "/>
<polyline clip-path="url(#clip122)" style="stroke:#000000; stroke-linecap:butt; stroke-linejoin:round; stroke-width:2; stroke-opacity:0.1; fill:none" points="
  193.936,225.86 2352.76,225.86 
  "/>
<polyline clip-path="url(#clip120)" style="stroke:#000000; stroke-linecap:butt; stroke-linejoin:round; stroke-width:4; stroke-opacity:1; fill:none" points="
  193.936,1486.45 193.936,123.472 
  "/>
<polyline clip-path="url(#clip120)" style="stroke:#000000; stroke-linecap:butt; stroke-linejoin:round; stroke-width:4; stroke-opacity:1; fill:none" points="
  193.936,1430.9 212.834,1430.9 
  "/>
<polyline clip-path="url(#clip120)" style="stroke:#000000; stroke-linecap:butt; stroke-linejoin:round; stroke-width:4; stroke-opacity:1; fill:none" points="
  193.936,1189.89 212.834,1189.89 
  "/>
<polyline clip-path="url(#clip120)" style="stroke:#000000; stroke-linecap:butt; stroke-linejoin:round; stroke-width:4; stroke-opacity:1; fill:none" points="
  193.936,948.882 212.834,948.882 
  "/>
<polyline clip-path="url(#clip120)" style="stroke:#000000; stroke-linecap:butt; stroke-linejoin:round; stroke-width:4; stroke-opacity:1; fill:none" points="
  193.936,707.875 212.834,707.875 
  "/>
<polyline clip-path="url(#clip120)" style="stroke:#000000; stroke-linecap:butt; stroke-linejoin:round; stroke-width:4; stroke-opacity:1; fill:none" points="
  193.936,466.867 212.834,466.867 
  "/>
<polyline clip-path="url(#clip120)" style="stroke:#000000; stroke-linecap:butt; stroke-linejoin:round; stroke-width:4; stroke-opacity:1; fill:none" points="
  193.936,225.86 212.834,225.86 
  "/>
<path clip-path="url(#clip120)" d="M50.9921 1431.35 L80.6679 1431.35 L80.6679 1435.28 L50.9921 1435.28 L50.9921 1431.35 Z" fill="#000000" fill-rule="evenodd" fill-opacity="1" /><path clip-path="url(#clip120)" d="M91.5706 1444.24 L99.2095 1444.24 L99.2095 1417.88 L90.8993 1419.54 L90.8993 1415.28 L99.1632 1413.62 L103.839 1413.62 L103.839 1444.24 L111.478 1444.24 L111.478 1448.18 L91.5706 1448.18 L91.5706 1444.24 Z" fill="#000000" fill-rule="evenodd" fill-opacity="1" /><path clip-path="url(#clip120)" d="M120.922 1442.3 L125.807 1442.3 L125.807 1448.18 L120.922 1448.18 L120.922 1442.3 Z" fill="#000000" fill-rule="evenodd" fill-opacity="1" /><path clip-path="url(#clip120)" d="M145.992 1416.7 Q142.381 1416.7 140.552 1420.26 Q138.746 1423.8 138.746 1430.93 Q138.746 1438.04 140.552 1441.6 Q142.381 1445.14 145.992 1445.14 Q149.626 1445.14 151.431 1441.6 Q153.26 1438.04 153.26 1430.93 Q153.26 1423.8 151.431 1420.26 Q149.626 1416.7 145.992 1416.7 M145.992 1412.99 Q151.802 1412.99 154.857 1417.6 Q157.936 1422.18 157.936 1430.93 Q157.936 1439.66 154.857 1444.26 Q151.802 1448.85 145.992 1448.85 Q140.181 1448.85 137.103 1444.26 Q134.047 1439.66 134.047 1430.93 Q134.047 1422.18 137.103 1417.6 Q140.181 1412.99 145.992 1412.99 Z" fill="#000000" fill-rule="evenodd" fill-opacity="1" /><path clip-path="url(#clip120)" d="M51.9875 1190.34 L81.6633 1190.34 L81.6633 1194.28 L51.9875 1194.28 L51.9875 1190.34 Z" fill="#000000" fill-rule="evenodd" fill-opacity="1" /><path clip-path="url(#clip120)" d="M101.756 1175.69 Q98.1447 1175.69 96.316 1179.25 Q94.5104 1182.79 94.5104 1189.92 Q94.5104 1197.03 96.316 1200.6 Q98.1447 1204.14 101.756 1204.14 Q105.39 1204.14 107.196 1200.6 Q109.024 1197.03 109.024 1189.92 Q109.024 1182.79 107.196 1179.25 Q105.39 1175.69 101.756 1175.69 M101.756 1171.98 Q107.566 1171.98 110.621 1176.59 Q113.7 1181.17 113.7 1189.92 Q113.7 1198.65 110.621 1203.26 Q107.566 1207.84 101.756 1207.84 Q95.9456 1207.84 92.8669 1203.26 Q89.8114 1198.65 89.8114 1189.92 Q89.8114 1181.17 92.8669 1176.59 Q95.9456 1171.98 101.756 1171.98 Z" fill="#000000" fill-rule="evenodd" fill-opacity="1" /><path clip-path="url(#clip120)" d="M121.918 1201.29 L126.802 1201.29 L126.802 1207.17 L121.918 1207.17 L121.918 1201.29 Z" fill="#000000" fill-rule="evenodd" fill-opacity="1" /><path clip-path="url(#clip120)" d="M137.033 1172.61 L155.39 1172.61 L155.39 1176.54 L141.316 1176.54 L141.316 1185.02 Q142.334 1184.67 143.353 1184.51 Q144.371 1184.32 145.39 1184.32 Q151.177 1184.32 154.556 1187.49 Q157.936 1190.67 157.936 1196.08 Q157.936 1201.66 154.464 1204.76 Q150.992 1207.84 144.672 1207.84 Q142.496 1207.84 140.228 1207.47 Q137.982 1207.1 135.575 1206.36 L135.575 1201.66 Q137.658 1202.79 139.881 1203.35 Q142.103 1203.91 144.58 1203.91 Q148.584 1203.91 150.922 1201.8 Q153.26 1199.69 153.26 1196.08 Q153.26 1192.47 150.922 1190.36 Q148.584 1188.26 144.58 1188.26 Q142.705 1188.26 140.83 1188.67 Q138.978 1189.09 137.033 1189.97 L137.033 1172.61 Z" fill="#000000" fill-rule="evenodd" fill-opacity="1" /><path clip-path="url(#clip120)" d="M100.76 934.681 Q97.1493 934.681 95.3206 938.246 Q93.515 941.787 93.515 948.917 Q93.515 956.023 95.3206 959.588 Q97.1493 963.13 100.76 963.13 Q104.395 963.13 106.2 959.588 Q108.029 956.023 108.029 948.917 Q108.029 941.787 106.2 938.246 Q104.395 934.681 100.76 934.681 M100.76 930.977 Q106.571 930.977 109.626 935.584 Q112.705 940.167 112.705 948.917 Q112.705 957.644 109.626 962.25 Q106.571 966.834 100.76 966.834 Q94.9502 966.834 91.8715 962.25 Q88.816 957.644 88.816 948.917 Q88.816 940.167 91.8715 935.584 Q94.9502 930.977 100.76 930.977 Z" fill="#000000" fill-rule="evenodd" fill-opacity="1" /><path clip-path="url(#clip120)" d="M120.922 960.283 L125.807 960.283 L125.807 966.162 L120.922 966.162 L120.922 960.283 Z" fill="#000000" fill-rule="evenodd" fill-opacity="1" /><path clip-path="url(#clip120)" d="M145.992 934.681 Q142.381 934.681 140.552 938.246 Q138.746 941.787 138.746 948.917 Q138.746 956.023 140.552 959.588 Q142.381 963.13 145.992 963.13 Q149.626 963.13 151.431 959.588 Q153.26 956.023 153.26 948.917 Q153.26 941.787 151.431 938.246 Q149.626 934.681 145.992 934.681 M145.992 930.977 Q151.802 930.977 154.857 935.584 Q157.936 940.167 157.936 948.917 Q157.936 957.644 154.857 962.25 Q151.802 966.834 145.992 966.834 Q140.181 966.834 137.103 962.25 Q134.047 957.644 134.047 948.917 Q134.047 940.167 137.103 935.584 Q140.181 930.977 145.992 930.977 Z" fill="#000000" fill-rule="evenodd" fill-opacity="1" /><path clip-path="url(#clip120)" d="M101.756 693.674 Q98.1447 693.674 96.316 697.238 Q94.5104 700.78 94.5104 707.91 Q94.5104 715.016 96.316 718.581 Q98.1447 722.122 101.756 722.122 Q105.39 722.122 107.196 718.581 Q109.024 715.016 109.024 707.91 Q109.024 700.78 107.196 697.238 Q105.39 693.674 101.756 693.674 M101.756 689.97 Q107.566 689.97 110.621 694.576 Q113.7 699.16 113.7 707.91 Q113.7 716.636 110.621 721.243 Q107.566 725.826 101.756 725.826 Q95.9456 725.826 92.8669 721.243 Q89.8114 716.636 89.8114 707.91 Q89.8114 699.16 92.8669 694.576 Q95.9456 689.97 101.756 689.97 Z" fill="#000000" fill-rule="evenodd" fill-opacity="1" /><path clip-path="url(#clip120)" d="M121.918 719.275 L126.802 719.275 L126.802 725.155 L121.918 725.155 L121.918 719.275 Z" fill="#000000" fill-rule="evenodd" fill-opacity="1" /><path clip-path="url(#clip120)" d="M137.033 690.595 L155.39 690.595 L155.39 694.53 L141.316 694.53 L141.316 703.002 Q142.334 702.655 143.353 702.493 Q144.371 702.308 145.39 702.308 Q151.177 702.308 154.556 705.479 Q157.936 708.65 157.936 714.067 Q157.936 719.646 154.464 722.747 Q150.992 725.826 144.672 725.826 Q142.496 725.826 140.228 725.456 Q137.982 725.085 135.575 724.345 L135.575 719.646 Q137.658 720.78 139.881 721.335 Q142.103 721.891 144.58 721.891 Q148.584 721.891 150.922 719.785 Q153.26 717.678 153.26 714.067 Q153.26 710.456 150.922 708.349 Q148.584 706.243 144.58 706.243 Q142.705 706.243 140.83 706.66 Q138.978 707.076 137.033 707.956 L137.033 690.595 Z" fill="#000000" fill-rule="evenodd" fill-opacity="1" /><path clip-path="url(#clip120)" d="M91.5706 480.212 L99.2095 480.212 L99.2095 453.847 L90.8993 455.513 L90.8993 451.254 L99.1632 449.587 L103.839 449.587 L103.839 480.212 L111.478 480.212 L111.478 484.147 L91.5706 484.147 L91.5706 480.212 Z" fill="#000000" fill-rule="evenodd" fill-opacity="1" /><path clip-path="url(#clip120)" d="M120.922 478.268 L125.807 478.268 L125.807 484.147 L120.922 484.147 L120.922 478.268 Z" fill="#000000" fill-rule="evenodd" fill-opacity="1" /><path clip-path="url(#clip120)" d="M145.992 452.666 Q142.381 452.666 140.552 456.231 Q138.746 459.773 138.746 466.902 Q138.746 474.009 140.552 477.573 Q142.381 481.115 145.992 481.115 Q149.626 481.115 151.431 477.573 Q153.26 474.009 153.26 466.902 Q153.26 459.773 151.431 456.231 Q149.626 452.666 145.992 452.666 M145.992 448.962 Q151.802 448.962 154.857 453.569 Q157.936 458.152 157.936 466.902 Q157.936 475.629 154.857 480.235 Q151.802 484.819 145.992 484.819 Q140.181 484.819 137.103 480.235 Q134.047 475.629 134.047 466.902 Q134.047 458.152 137.103 453.569 Q140.181 448.962 145.992 448.962 Z" fill="#000000" fill-rule="evenodd" fill-opacity="1" /><path clip-path="url(#clip120)" d="M92.566 239.205 L100.205 239.205 L100.205 212.839 L91.8947 214.506 L91.8947 210.247 L100.159 208.58 L104.834 208.58 L104.834 239.205 L112.473 239.205 L112.473 243.14 L92.566 243.14 L92.566 239.205 Z" fill="#000000" fill-rule="evenodd" fill-opacity="1" /><path clip-path="url(#clip120)" d="M121.918 237.261 L126.802 237.261 L126.802 243.14 L121.918 243.14 L121.918 237.261 Z" fill="#000000" fill-rule="evenodd" fill-opacity="1" /><path clip-path="url(#clip120)" d="M137.033 208.58 L155.39 208.58 L155.39 212.515 L141.316 212.515 L141.316 220.987 Q142.334 220.64 143.353 220.478 Q144.371 220.293 145.39 220.293 Q151.177 220.293 154.556 223.464 Q157.936 226.636 157.936 232.052 Q157.936 237.631 154.464 240.733 Q150.992 243.811 144.672 243.811 Q142.496 243.811 140.228 243.441 Q137.982 243.071 135.575 242.33 L135.575 237.631 Q137.658 238.765 139.881 239.321 Q142.103 239.876 144.58 239.876 Q148.584 239.876 150.922 237.77 Q153.26 235.663 153.26 232.052 Q153.26 228.441 150.922 226.335 Q148.584 224.228 144.58 224.228 Q142.705 224.228 140.83 224.645 Q138.978 225.062 137.033 225.941 L137.033 208.58 Z" fill="#000000" fill-rule="evenodd" fill-opacity="1" /><path clip-path="url(#clip120)" d="M1175.09 34.0924 L1175.09 9.54393 L1182.54 9.54393 L1182.54 72.576 L1175.09 72.576 L1175.09 65.7705 Q1172.74 69.8214 1169.14 71.8063 Q1165.57 73.7508 1160.55 73.7508 Q1152.33 73.7508 1147.14 67.1883 Q1142 60.6258 1142 49.9314 Q1142 39.2371 1147.14 32.6746 Q1152.33 26.1121 1160.55 26.1121 Q1165.57 26.1121 1169.14 28.0971 Q1172.74 30.0415 1175.09 34.0924 M1149.69 49.9314 Q1149.69 58.1548 1153.05 62.8538 Q1156.46 67.5124 1162.37 67.5124 Q1168.29 67.5124 1171.69 62.8538 Q1175.09 58.1548 1175.09 49.9314 Q1175.09 41.7081 1171.69 37.0496 Q1168.29 32.3505 1162.37 32.3505 Q1156.46 32.3505 1153.05 37.0496 Q1149.69 41.7081 1149.69 49.9314 Z" fill="#000000" fill-rule="evenodd" fill-opacity="1" /><path clip-path="url(#clip120)" d="M1200.37 65.6895 L1213.74 65.6895 L1213.74 19.5497 L1199.19 22.4663 L1199.19 15.0127 L1213.66 12.096 L1221.84 12.096 L1221.84 65.6895 L1235.21 65.6895 L1235.21 72.576 L1200.37 72.576 L1200.37 65.6895 Z" fill="#000000" fill-rule="evenodd" fill-opacity="1" /><path clip-path="url(#clip120)" d="M1263.04 40.0472 Q1259.35 43.3285 1257.61 46.6097 Q1255.91 49.8504 1255.91 53.4152 Q1255.91 59.3295 1260.2 63.2589 Q1264.49 67.1883 1270.98 67.1883 Q1274.82 67.1883 1278.19 65.9325 Q1281.55 64.6362 1284.51 62.0436 L1263.04 40.0472 M1268.75 35.5102 L1289.33 56.5749 Q1291.72 52.9696 1293.05 48.8782 Q1294.39 44.7463 1294.63 40.1283 L1302.17 40.1283 Q1301.68 45.4755 1299.58 50.7011 Q1297.47 55.9268 1293.7 61.0309 L1305 72.576 L1294.8 72.576 L1289 66.6212 Q1284.79 70.2265 1280.17 72.0089 Q1275.55 73.7508 1270.25 73.7508 Q1260.48 73.7508 1254.29 68.201 Q1248.09 62.6108 1248.09 53.9013 Q1248.09 48.7162 1250.8 44.1792 Q1253.52 39.6016 1258.94 35.5912 Q1257 33.0392 1255.99 30.5276 Q1254.98 27.9755 1254.98 25.545 Q1254.98 18.9825 1259.47 15.0127 Q1263.97 11.0023 1271.42 11.0023 Q1274.78 11.0023 1278.11 11.7314 Q1281.47 12.4606 1284.91 13.9189 L1284.91 21.2916 Q1281.39 19.3876 1278.19 18.4154 Q1274.99 17.4027 1272.23 17.4027 Q1267.98 17.4027 1265.3 19.6712 Q1262.67 21.8992 1262.67 25.464 Q1262.67 27.5299 1263.85 29.6364 Q1265.06 31.7024 1268.75 35.5102 Z" fill="#000000" fill-rule="evenodd" fill-opacity="1" /><path clip-path="url(#clip120)" d="M1345.23 34.0924 L1345.23 9.54393 L1352.68 9.54393 L1352.68 72.576 L1345.23 72.576 L1345.23 65.7705 Q1342.88 69.8214 1339.27 71.8063 Q1335.71 73.7508 1330.69 73.7508 Q1322.46 73.7508 1317.28 67.1883 Q1312.13 60.6258 1312.13 49.9314 Q1312.13 39.2371 1317.28 32.6746 Q1322.46 26.1121 1330.69 26.1121 Q1335.71 26.1121 1339.27 28.0971 Q1342.88 30.0415 1345.23 34.0924 M1319.83 49.9314 Q1319.83 58.1548 1323.19 62.8538 Q1326.6 67.5124 1332.51 67.5124 Q1338.42 67.5124 1341.83 62.8538 Q1345.23 58.1548 1345.23 49.9314 Q1345.23 41.7081 1341.83 37.0496 Q1338.42 32.3505 1332.51 32.3505 Q1326.6 32.3505 1323.19 37.0496 Q1319.83 41.7081 1319.83 49.9314 Z" fill="#000000" fill-rule="evenodd" fill-opacity="1" /><path clip-path="url(#clip120)" d="M1376.14 65.6895 L1404.7 65.6895 L1404.7 72.576 L1366.29 72.576 L1366.29 65.6895 Q1370.95 60.8689 1378.97 52.7671 Q1387.03 44.6248 1389.1 42.2752 Q1393.03 37.8598 1394.57 34.8216 Q1396.15 31.7429 1396.15 28.7857 Q1396.15 23.9651 1392.75 20.927 Q1389.38 17.8888 1383.96 17.8888 Q1380.11 17.8888 1375.81 19.2256 Q1371.56 20.5624 1366.7 23.2765 L1366.7 15.0127 Q1371.64 13.0277 1375.94 12.015 Q1380.23 11.0023 1383.79 11.0023 Q1393.19 11.0023 1398.78 15.7013 Q1404.37 20.4004 1404.37 28.2591 Q1404.37 31.9859 1402.95 35.3482 Q1401.58 38.6699 1397.89 43.2069 Q1396.88 44.3817 1391.45 50.0125 Q1386.02 55.6027 1376.14 65.6895 Z" fill="#000000" fill-rule="evenodd" fill-opacity="1" /><polyline clip-path="url(#clip122)" style="stroke:#009af9; stroke-linecap:butt; stroke-linejoin:round; stroke-width:4; stroke-opacity:1; fill:none" points="
  255.035,723.479 296.598,769.633 338.162,932.981 379.726,548.438 421.29,938.989 462.853,1307.35 504.417,1336.28 545.981,162.047 587.544,628.423 629.108,1016.98 
  670.672,1191.2 712.236,860.366 753.799,1091.35 795.363,361.126 836.927,1028.77 878.491,1370.21 920.054,975.706 961.618,1086.22 1003.18,903.259 1044.75,346.454 
  1086.31,1063.89 1127.87,1120.07 1169.44,1126.78 1211,735.834 1252.56,1032.41 1294.13,582.399 1335.69,1447.87 1377.26,894.455 1418.82,1431.28 1460.38,551.216 
  1501.95,1061.13 1543.51,620.141 1585.07,1012.9 1626.64,1157.11 1668.2,641.117 1709.77,844.064 1751.33,1121 1792.89,1259.14 1834.46,805.99 1876.02,1033.76 
  1917.58,1260.25 1959.15,931.244 2000.71,1053.55 2042.27,1313.02 2083.84,983.433 2125.4,1193.83 2166.97,1179 2208.53,787.306 2250.09,839.379 2291.66,430.885 
  
  "/>
<polyline clip-path="url(#clip122)" style="stroke:#e26f46; stroke-linecap:butt; stroke-linejoin:round; stroke-width:4; stroke-opacity:1; fill:none" points="
  255.035,777.006 296.598,1019.88 338.162,935.184 379.726,1053.57 421.29,823.016 462.853,1039.91 504.417,935.829 545.981,791.605 587.544,824.469 629.108,947.451 
  670.672,992.239 712.236,1205.46 753.799,1123.91 795.363,1023.61 836.927,1049.04 878.491,930.232 920.054,962.421 961.618,1093.23 1003.18,940.986 1044.75,810.192 
  1086.31,989.494 1127.87,1109.16 1169.44,1022.19 1211,802.955 1252.56,1018.37 1294.13,780.084 1335.69,855.499 1377.26,1033.2 1418.82,994.472 1460.38,855.419 
  1501.95,1010.81 1543.51,743.615 1585.07,969.481 1626.64,989.33 1668.2,777.936 1709.77,898.437 1751.33,872.294 1792.89,969.442 1834.46,898.008 1876.02,1013.16 
  1917.58,885.164 1959.15,989.406 2000.71,892.438 2042.27,1081.14 2083.84,917.324 2125.4,898.647 2166.97,1022.18 2208.53,808.427 2250.09,790.79 2291.66,765.042 
  
  "/>
<path clip-path="url(#clip120)" d="
M1988.5 324.425 L2280.8 324.425 L2280.8 168.905 L1988.5 168.905  Z
  " fill="#ffffff" fill-rule="evenodd" fill-opacity="1"/>
<polyline clip-path="url(#clip120)" style="stroke:#000000; stroke-linecap:butt; stroke-linejoin:round; stroke-width:4; stroke-opacity:1; fill:none" points="
  1988.5,324.425 2280.8,324.425 2280.8,168.905 1988.5,168.905 1988.5,324.425 
  "/>
<polyline clip-path="url(#clip120)" style="stroke:#009af9; stroke-linecap:butt; stroke-linejoin:round; stroke-width:4; stroke-opacity:1; fill:none" points="
  2012.48,220.745 2156.4,220.745 
  "/>
<path clip-path="url(#clip120)" d="M2194.23 240.432 Q2192.43 245.062 2190.72 246.474 Q2189 247.886 2186.13 247.886 L2182.73 247.886 L2182.73 244.321 L2185.23 244.321 Q2186.99 244.321 2187.96 243.488 Q2188.93 242.654 2190.11 239.552 L2190.88 237.608 L2180.39 212.099 L2184.91 212.099 L2193.01 232.377 L2201.11 212.099 L2205.62 212.099 L2194.23 240.432 Z" fill="#000000" fill-rule="evenodd" fill-opacity="1" /><path clip-path="url(#clip120)" d="M2212.91 234.089 L2220.55 234.089 L2220.55 207.724 L2212.24 209.391 L2212.24 205.131 L2220.51 203.465 L2225.18 203.465 L2225.18 234.089 L2232.82 234.089 L2232.82 238.025 L2212.91 238.025 L2212.91 234.089 Z" fill="#000000" fill-rule="evenodd" fill-opacity="1" /><polyline clip-path="url(#clip120)" style="stroke:#e26f46; stroke-linecap:butt; stroke-linejoin:round; stroke-width:4; stroke-opacity:1; fill:none" points="
  2012.48,272.585 2156.4,272.585 
  "/>
<path clip-path="url(#clip120)" d="M2194.23 292.272 Q2192.43 296.902 2190.72 298.314 Q2189 299.726 2186.13 299.726 L2182.73 299.726 L2182.73 296.161 L2185.23 296.161 Q2186.99 296.161 2187.96 295.328 Q2188.93 294.494 2190.11 291.392 L2190.88 289.448 L2180.39 263.939 L2184.91 263.939 L2193.01 284.217 L2201.11 263.939 L2205.62 263.939 L2194.23 292.272 Z" fill="#000000" fill-rule="evenodd" fill-opacity="1" /><path clip-path="url(#clip120)" d="M2216.13 285.929 L2232.45 285.929 L2232.45 289.865 L2210.51 289.865 L2210.51 285.929 Q2213.17 283.175 2217.75 278.545 Q2222.36 273.893 2223.54 272.55 Q2225.78 270.027 2226.66 268.291 Q2227.57 266.531 2227.57 264.842 Q2227.57 262.087 2225.62 260.351 Q2223.7 258.615 2220.6 258.615 Q2218.4 258.615 2215.95 259.379 Q2213.52 260.143 2210.74 261.694 L2210.74 256.971 Q2213.56 255.837 2216.02 255.258 Q2218.47 254.68 2220.51 254.68 Q2225.88 254.68 2229.07 257.365 Q2232.27 260.05 2232.27 264.541 Q2232.27 266.67 2231.46 268.592 Q2230.67 270.49 2228.56 273.082 Q2227.98 273.754 2224.88 276.971 Q2221.78 280.166 2216.13 285.929 Z" fill="#000000" fill-rule="evenodd" fill-opacity="1" /></svg>
