<?xml version="1.0" encoding="utf-8"?>
<svg xmlns="http://www.w3.org/2000/svg" xmlns:xlink="http://www.w3.org/1999/xlink" width="800" height="400" viewBox="0 0 3200 1600">
<defs>
  <clipPath id="clip200">
    <rect x="0" y="0" width="3200" height="1600"/>
  </clipPath>
</defs>
<path clip-path="url(#clip200)" d="
M0 1600 L3200 1600 L3200 0 L0 0  Z
  " fill="#ffffff" fill-rule="evenodd" fill-opacity="1"/>
<defs>
  <clipPath id="clip201">
    <rect x="640" y="0" width="2241" height="1600"/>
  </clipPath>
</defs>
<path clip-path="url(#clip200)" d="
M186.867 695.088 L3152.76 695.088 L3152.76 108.352 L186.867 108.352  Z
  " fill="#ffffff" fill-rule="evenodd" fill-opacity="1"/>
<defs>
  <clipPath id="clip202">
    <rect x="186" y="108" width="2967" height="588"/>
  </clipPath>
</defs>
<polyline clip-path="url(#clip202)" style="stroke:#000000; stroke-linecap:butt; stroke-linejoin:round; stroke-width:2; stroke-opacity:0.1; fill:none" points="
  259.834,695.088 259.834,108.352 
  "/>
<polyline clip-path="url(#clip202)" style="stroke:#000000; stroke-linecap:butt; stroke-linejoin:round; stroke-width:2; stroke-opacity:0.1; fill:none" points="
  808.463,695.088 808.463,108.352 
  "/>
<polyline clip-path="url(#clip202)" style="stroke:#000000; stroke-linecap:butt; stroke-linejoin:round; stroke-width:2; stroke-opacity:0.1; fill:none" points="
  1357.09,695.088 1357.09,108.352 
  "/>
<polyline clip-path="url(#clip202)" style="stroke:#000000; stroke-linecap:butt; stroke-linejoin:round; stroke-width:2; stroke-opacity:0.1; fill:none" points="
  1905.72,695.088 1905.72,108.352 
  "/>
<polyline clip-path="url(#clip202)" style="stroke:#000000; stroke-linecap:butt; stroke-linejoin:round; stroke-width:2; stroke-opacity:0.1; fill:none" points="
  2454.35,695.088 2454.35,108.352 
  "/>
<polyline clip-path="url(#clip202)" style="stroke:#000000; stroke-linecap:butt; stroke-linejoin:round; stroke-width:2; stroke-opacity:0.1; fill:none" points="
  3002.98,695.088 3002.98,108.352 
  "/>
<polyline clip-path="url(#clip200)" style="stroke:#000000; stroke-linecap:butt; stroke-linejoin:round; stroke-width:4; stroke-opacity:1; fill:none" points="
  186.867,695.088 3152.76,695.088 
  "/>
<polyline clip-path="url(#clip200)" style="stroke:#000000; stroke-linecap:butt; stroke-linejoin:round; stroke-width:4; stroke-opacity:1; fill:none" points="
  259.834,695.088 259.834,676.19 
  "/>
<polyline clip-path="url(#clip200)" style="stroke:#000000; stroke-linecap:butt; stroke-linejoin:round; stroke-width:4; stroke-opacity:1; fill:none" points="
  808.463,695.088 808.463,676.19 
  "/>
<polyline clip-path="url(#clip200)" style="stroke:#000000; stroke-linecap:butt; stroke-linejoin:round; stroke-width:4; stroke-opacity:1; fill:none" points="
  1357.09,695.088 1357.09,676.19 
  "/>
<polyline clip-path="url(#clip200)" style="stroke:#000000; stroke-linecap:butt; stroke-linejoin:round; stroke-width:4; stroke-opacity:1; fill:none" points="
  1905.72,695.088 1905.72,676.19 
  "/>
<polyline clip-path="url(#clip200)" style="stroke:#000000; stroke-linecap:butt; stroke-linejoin:round; stroke-width:4; stroke-opacity:1; fill:none" points="
  2454.35,695.088 2454.35,676.19 
  "/>
<polyline clip-path="url(#clip200)" style="stroke:#000000; stroke-linecap:butt; stroke-linejoin:round; stroke-width:4; stroke-opacity:1; fill:none" points="
  3002.98,695.088 3002.98,676.19 
  "/>
<path clip-path="url(#clip200)" d="M259.834 732.407 Q256.223 732.407 254.395 735.971 Q252.589 739.513 252.589 746.643 Q252.589 753.749 254.395 757.314 Q256.223 760.855 259.834 760.855 Q263.469 760.855 265.274 757.314 Q267.103 753.749 267.103 746.643 Q267.103 739.513 265.274 735.971 Q263.469 732.407 259.834 732.407 M259.834 728.703 Q265.644 728.703 268.7 733.309 Q271.779 737.893 271.779 746.643 Q271.779 755.369 268.7 759.976 Q265.644 764.559 259.834 764.559 Q254.024 764.559 250.945 759.976 Q247.89 755.369 247.89 746.643 Q247.89 737.893 250.945 733.309 Q254.024 728.703 259.834 728.703 Z" fill="#000000" fill-rule="evenodd" fill-opacity="1" /><path clip-path="url(#clip200)" d="M783.163 729.328 L801.519 729.328 L801.519 733.263 L787.445 733.263 L787.445 741.735 Q788.464 741.388 789.482 741.226 Q790.501 741.041 791.519 741.041 Q797.306 741.041 800.686 744.212 Q804.065 747.383 804.065 752.8 Q804.065 758.379 800.593 761.48 Q797.121 764.559 790.802 764.559 Q788.626 764.559 786.357 764.189 Q784.112 763.818 781.704 763.078 L781.704 758.379 Q783.788 759.513 786.01 760.068 Q788.232 760.624 790.709 760.624 Q794.714 760.624 797.052 758.518 Q799.389 756.411 799.389 752.8 Q799.389 749.189 797.052 747.082 Q794.714 744.976 790.709 744.976 Q788.834 744.976 786.959 745.393 Q785.107 745.809 783.163 746.689 L783.163 729.328 Z" fill="#000000" fill-rule="evenodd" fill-opacity="1" /><path clip-path="url(#clip200)" d="M823.278 732.407 Q819.667 732.407 817.838 735.971 Q816.033 739.513 816.033 746.643 Q816.033 753.749 817.838 757.314 Q819.667 760.855 823.278 760.855 Q826.912 760.855 828.718 757.314 Q830.547 753.749 830.547 746.643 Q830.547 739.513 828.718 735.971 Q826.912 732.407 823.278 732.407 M823.278 728.703 Q829.088 728.703 832.144 733.309 Q835.223 737.893 835.223 746.643 Q835.223 755.369 832.144 759.976 Q829.088 764.559 823.278 764.559 Q817.468 764.559 814.389 759.976 Q811.334 755.369 811.334 746.643 Q811.334 737.893 814.389 733.309 Q817.468 728.703 823.278 728.703 Z" fill="#000000" fill-rule="evenodd" fill-opacity="1" /><path clip-path="url(#clip200)" d="M1316.7 759.953 L1324.34 759.953 L1324.34 733.587 L1316.03 735.254 L1316.03 730.995 L1324.29 729.328 L1328.97 729.328 L1328.97 759.953 L1336.61 759.953 L1336.61 763.888 L1316.7 763.888 L1316.7 759.953 Z" fill="#000000" fill-rule="evenodd" fill-opacity="1" /><path clip-path="url(#clip200)" d="M1356.05 732.407 Q1352.44 732.407 1350.61 735.971 Q1348.81 739.513 1348.81 746.643 Q1348.81 753.749 1350.61 757.314 Q1352.44 760.855 1356.05 760.855 Q1359.69 760.855 1361.49 757.314 Q1363.32 753.749 1363.32 746.643 Q1363.32 739.513 1361.49 735.971 Q1359.69 732.407 1356.05 732.407 M1356.05 728.703 Q1361.86 728.703 1364.92 733.309 Q1368 737.893 1368 746.643 Q1368 755.369 1364.92 759.976 Q1361.86 764.559 1356.05 764.559 Q1350.24 764.559 1347.16 759.976 Q1344.11 755.369 1344.11 746.643 Q1344.11 737.893 1347.16 733.309 Q1350.24 728.703 1356.05 728.703 Z" fill="#000000" fill-rule="evenodd" fill-opacity="1" /><path clip-path="url(#clip200)" d="M1386.21 732.407 Q1382.6 732.407 1380.77 735.971 Q1378.97 739.513 1378.97 746.643 Q1378.97 753.749 1380.77 757.314 Q1382.6 760.855 1386.21 760.855 Q1389.85 760.855 1391.65 757.314 Q1393.48 753.749 1393.48 746.643 Q1393.48 739.513 1391.65 735.971 Q1389.85 732.407 1386.21 732.407 M1386.21 728.703 Q1392.02 728.703 1395.08 733.309 Q1398.16 737.893 1398.16 746.643 Q1398.16 755.369 1395.08 759.976 Q1392.02 764.559 1386.21 764.559 Q1380.4 764.559 1377.32 759.976 Q1374.27 755.369 1374.27 746.643 Q1374.27 737.893 1377.32 733.309 Q1380.4 728.703 1386.21 728.703 Z" fill="#000000" fill-rule="evenodd" fill-opacity="1" /><path clip-path="url(#clip200)" d="M1865.33 759.953 L1872.97 759.953 L1872.97 733.587 L1864.66 735.254 L1864.66 730.995 L1872.92 729.328 L1877.6 729.328 L1877.6 759.953 L1885.24 759.953 L1885.24 763.888 L1865.33 763.888 L1865.33 759.953 Z" fill="#000000" fill-rule="evenodd" fill-opacity="1" /><path clip-path="url(#clip200)" d="M1894.73 729.328 L1913.08 729.328 L1913.08 733.263 L1899.01 733.263 L1899.01 741.735 Q1900.03 741.388 1901.05 741.226 Q1902.06 741.041 1903.08 741.041 Q1908.87 741.041 1912.25 744.212 Q1915.63 747.383 1915.63 752.8 Q1915.63 758.379 1912.16 761.48 Q1908.68 764.559 1902.37 764.559 Q1900.19 764.559 1897.92 764.189 Q1895.68 763.818 1893.27 763.078 L1893.27 758.379 Q1895.35 759.513 1897.57 760.068 Q1899.8 760.624 1902.27 760.624 Q1906.28 760.624 1908.62 758.518 Q1910.95 756.411 1910.95 752.8 Q1910.95 749.189 1908.62 747.082 Q1906.28 744.976 1902.27 744.976 Q1900.4 744.976 1898.52 745.393 Q1896.67 745.809 1894.73 746.689 L1894.73 729.328 Z" fill="#000000" fill-rule="evenodd" fill-opacity="1" /><path clip-path="url(#clip200)" d="M1934.84 732.407 Q1931.23 732.407 1929.4 735.971 Q1927.6 739.513 1927.6 746.643 Q1927.6 753.749 1929.4 757.314 Q1931.23 760.855 1934.84 760.855 Q1938.48 760.855 1940.28 757.314 Q1942.11 753.749 1942.11 746.643 Q1942.11 739.513 1940.28 735.971 Q1938.48 732.407 1934.84 732.407 M1934.84 728.703 Q1940.65 728.703 1943.71 733.309 Q1946.79 737.893 1946.79 746.643 Q1946.79 755.369 1943.71 759.976 Q1940.65 764.559 1934.84 764.559 Q1929.03 764.559 1925.95 759.976 Q1922.9 755.369 1922.9 746.643 Q1922.9 737.893 1925.95 733.309 Q1929.03 728.703 1934.84 728.703 Z" fill="#000000" fill-rule="evenodd" fill-opacity="1" /><path clip-path="url(#clip200)" d="M2418.04 759.953 L2434.36 759.953 L2434.36 763.888 L2412.42 763.888 L2412.42 759.953 Q2415.08 757.198 2419.66 752.568 Q2424.27 747.916 2425.45 746.573 Q2427.7 744.05 2428.58 742.314 Q2429.48 740.555 2429.48 738.865 Q2429.48 736.11 2427.53 734.374 Q2425.61 732.638 2422.51 732.638 Q2420.31 732.638 2417.86 733.402 Q2415.43 734.166 2412.65 735.717 L2412.65 730.995 Q2415.47 729.86 2417.93 729.282 Q2420.38 728.703 2422.42 728.703 Q2427.79 728.703 2430.98 731.388 Q2434.18 734.073 2434.18 738.564 Q2434.18 740.694 2433.37 742.615 Q2432.58 744.513 2430.47 747.106 Q2429.9 747.777 2426.79 750.994 Q2423.69 754.189 2418.04 759.953 Z" fill="#000000" fill-rule="evenodd" fill-opacity="1" /><path clip-path="url(#clip200)" d="M2454.18 732.407 Q2450.57 732.407 2448.74 735.971 Q2446.93 739.513 2446.93 746.643 Q2446.93 753.749 2448.74 757.314 Q2450.57 760.855 2454.18 760.855 Q2457.81 760.855 2459.62 757.314 Q2461.45 753.749 2461.45 746.643 Q2461.45 739.513 2459.62 735.971 Q2457.81 732.407 2454.18 732.407 M2454.18 728.703 Q2459.99 728.703 2463.04 733.309 Q2466.12 737.893 2466.12 746.643 Q2466.12 755.369 2463.04 759.976 Q2459.99 764.559 2454.18 764.559 Q2448.37 764.559 2445.29 759.976 Q2442.23 755.369 2442.23 746.643 Q2442.23 737.893 2445.29 733.309 Q2448.37 728.703 2454.18 728.703 Z" fill="#000000" fill-rule="evenodd" fill-opacity="1" /><path clip-path="url(#clip200)" d="M2484.34 732.407 Q2480.73 732.407 2478.9 735.971 Q2477.09 739.513 2477.09 746.643 Q2477.09 753.749 2478.9 757.314 Q2480.73 760.855 2484.34 760.855 Q2487.97 760.855 2489.78 757.314 Q2491.61 753.749 2491.61 746.643 Q2491.61 739.513 2489.78 735.971 Q2487.97 732.407 2484.34 732.407 M2484.34 728.703 Q2490.15 728.703 2493.2 733.309 Q2496.28 737.893 2496.28 746.643 Q2496.28 755.369 2493.2 759.976 Q2490.15 764.559 2484.34 764.559 Q2478.53 764.559 2475.45 759.976 Q2472.39 755.369 2472.39 746.643 Q2472.39 737.893 2475.45 733.309 Q2478.53 728.703 2484.34 728.703 Z" fill="#000000" fill-rule="evenodd" fill-opacity="1" /><path clip-path="url(#clip200)" d="M2966.67 759.953 L2982.99 759.953 L2982.99 763.888 L2961.05 763.888 L2961.05 759.953 Q2963.71 757.198 2968.29 752.568 Q2972.9 747.916 2974.08 746.573 Q2976.33 744.05 2977.2 742.314 Q2978.11 740.555 2978.11 738.865 Q2978.11 736.11 2976.16 734.374 Q2974.24 732.638 2971.14 732.638 Q2968.94 732.638 2966.49 733.402 Q2964.06 734.166 2961.28 735.717 L2961.28 730.995 Q2964.1 729.86 2966.56 729.282 Q2969.01 728.703 2971.05 728.703 Q2976.42 728.703 2979.61 731.388 Q2982.81 734.073 2982.81 738.564 Q2982.81 740.694 2982 742.615 Q2981.21 744.513 2979.1 747.106 Q2978.52 747.777 2975.42 750.994 Q2972.32 754.189 2966.67 759.953 Z" fill="#000000" fill-rule="evenodd" fill-opacity="1" /><path clip-path="url(#clip200)" d="M2992.85 729.328 L3011.21 729.328 L3011.21 733.263 L2997.14 733.263 L2997.14 741.735 Q2998.15 741.388 2999.17 741.226 Q3000.19 741.041 3001.21 741.041 Q3007 741.041 3010.38 744.212 Q3013.76 747.383 3013.76 752.8 Q3013.76 758.379 3010.28 761.48 Q3006.81 764.559 3000.49 764.559 Q2998.32 764.559 2996.05 764.189 Q2993.8 763.818 2991.39 763.078 L2991.39 758.379 Q2993.48 759.513 2995.7 760.068 Q2997.92 760.624 3000.4 760.624 Q3004.4 760.624 3006.74 758.518 Q3009.08 756.411 3009.08 752.8 Q3009.08 749.189 3006.74 747.082 Q3004.4 744.976 3000.4 744.976 Q2998.52 744.976 2996.65 745.393 Q2994.8 745.809 2992.85 746.689 L2992.85 729.328 Z" fill="#000000" fill-rule="evenodd" fill-opacity="1" /><path clip-path="url(#clip200)" d="M3032.97 732.407 Q3029.36 732.407 3027.53 735.971 Q3025.72 739.513 3025.72 746.643 Q3025.72 753.749 3027.53 757.314 Q3029.36 760.855 3032.97 760.855 Q3036.6 760.855 3038.41 757.314 Q3040.24 753.749 3040.24 746.643 Q3040.24 739.513 3038.41 735.971 Q3036.6 732.407 3032.97 732.407 M3032.97 728.703 Q3038.78 728.703 3041.83 733.309 Q3044.91 737.893 3044.91 746.643 Q3044.91 755.369 3041.83 759.976 Q3038.78 764.559 3032.97 764.559 Q3027.16 764.559 3024.08 759.976 Q3021.02 755.369 3021.02 746.643 Q3021.02 737.893 3024.08 733.309 Q3027.16 728.703 3032.97 728.703 Z" fill="#000000" fill-rule="evenodd" fill-opacity="1" /><polyline clip-path="url(#clip202)" style="stroke:#000000; stroke-linecap:butt; stroke-linejoin:round; stroke-width:2; stroke-opacity:0.1; fill:none" points="
  186.867,640.49 3152.76,640.49 
  "/>
<polyline clip-path="url(#clip202)" style="stroke:#000000; stroke-linecap:butt; stroke-linejoin:round; stroke-width:2; stroke-opacity:0.1; fill:none" points="
  186.867,490.905 3152.76,490.905 
  "/>
<polyline clip-path="url(#clip202)" style="stroke:#000000; stroke-linecap:butt; stroke-linejoin:round; stroke-width:2; stroke-opacity:0.1; fill:none" points="
  186.867,341.321 3152.76,341.321 
  "/>
<polyline clip-path="url(#clip202)" style="stroke:#000000; stroke-linecap:butt; stroke-linejoin:round; stroke-width:2; stroke-opacity:0.1; fill:none" points="
  186.867,191.737 3152.76,191.737 
  "/>
<polyline clip-path="url(#clip200)" style="stroke:#000000; stroke-linecap:butt; stroke-linejoin:round; stroke-width:4; stroke-opacity:1; fill:none" points="
  186.867,695.088 186.867,108.352 
  "/>
<polyline clip-path="url(#clip200)" style="stroke:#000000; stroke-linecap:butt; stroke-linejoin:round; stroke-width:4; stroke-opacity:1; fill:none" points="
  186.867,640.49 205.764,640.49 
  "/>
<polyline clip-path="url(#clip200)" style="stroke:#000000; stroke-linecap:butt; stroke-linejoin:round; stroke-width:4; stroke-opacity:1; fill:none" points="
  186.867,490.905 205.764,490.905 
  "/>
<polyline clip-path="url(#clip200)" style="stroke:#000000; stroke-linecap:butt; stroke-linejoin:round; stroke-width:4; stroke-opacity:1; fill:none" points="
  186.867,341.321 205.764,341.321 
  "/>
<polyline clip-path="url(#clip200)" style="stroke:#000000; stroke-linecap:butt; stroke-linejoin:round; stroke-width:4; stroke-opacity:1; fill:none" points="
  186.867,191.737 205.764,191.737 
  "/>
<path clip-path="url(#clip200)" d="M46.9921 640.941 L76.6679 640.941 L76.6679 644.876 L46.9921 644.876 L46.9921 640.941 Z" fill="#000000" fill-rule="evenodd" fill-opacity="1" /><path clip-path="url(#clip200)" d="M87.5706 653.835 L95.2095 653.835 L95.2095 627.469 L86.8993 629.136 L86.8993 624.876 L95.1632 623.21 L99.8391 623.21 L99.8391 653.835 L107.478 653.835 L107.478 657.77 L87.5706 657.77 L87.5706 653.835 Z" fill="#000000" fill-rule="evenodd" fill-opacity="1" /><path clip-path="url(#clip200)" d="M126.922 626.288 Q123.311 626.288 121.482 629.853 Q119.677 633.395 119.677 640.524 Q119.677 647.631 121.482 651.196 Q123.311 654.737 126.922 654.737 Q130.556 654.737 132.362 651.196 Q134.191 647.631 134.191 640.524 Q134.191 633.395 132.362 629.853 Q130.556 626.288 126.922 626.288 M126.922 622.585 Q132.732 622.585 135.788 627.191 Q138.867 631.775 138.867 640.524 Q138.867 649.251 135.788 653.858 Q132.732 658.441 126.922 658.441 Q121.112 658.441 118.033 653.858 Q114.978 649.251 114.978 640.524 Q114.978 631.775 118.033 627.191 Q121.112 622.585 126.922 622.585 Z" fill="#000000" fill-rule="evenodd" fill-opacity="1" /><path clip-path="url(#clip200)" d="M78.1494 491.357 L107.825 491.357 L107.825 495.292 L78.1494 495.292 L78.1494 491.357 Z" fill="#000000" fill-rule="evenodd" fill-opacity="1" /><path clip-path="url(#clip200)" d="M117.964 473.625 L136.32 473.625 L136.32 477.561 L122.246 477.561 L122.246 486.033 Q123.265 485.686 124.283 485.524 Q125.302 485.338 126.32 485.338 Q132.107 485.338 135.487 488.51 Q138.867 491.681 138.867 497.098 Q138.867 502.676 135.394 505.778 Q131.922 508.857 125.603 508.857 Q123.427 508.857 121.158 508.486 Q118.913 508.116 116.506 507.375 L116.506 502.676 Q118.589 503.811 120.811 504.366 Q123.033 504.922 125.51 504.922 Q129.515 504.922 131.853 502.815 Q134.191 500.709 134.191 497.098 Q134.191 493.486 131.853 491.38 Q129.515 489.274 125.51 489.274 Q123.635 489.274 121.76 489.69 Q119.908 490.107 117.964 490.986 L117.964 473.625 Z" fill="#000000" fill-rule="evenodd" fill-opacity="1" /><path clip-path="url(#clip200)" d="M126.922 327.12 Q123.311 327.12 121.482 330.685 Q119.677 334.226 119.677 341.356 Q119.677 348.462 121.482 352.027 Q123.311 355.569 126.922 355.569 Q130.556 355.569 132.362 352.027 Q134.191 348.462 134.191 341.356 Q134.191 334.226 132.362 330.685 Q130.556 327.12 126.922 327.12 M126.922 323.416 Q132.732 323.416 135.788 328.023 Q138.867 332.606 138.867 341.356 Q138.867 350.083 135.788 354.689 Q132.732 359.273 126.922 359.273 Q121.112 359.273 118.033 354.689 Q114.978 350.083 114.978 341.356 Q114.978 332.606 118.033 328.023 Q121.112 323.416 126.922 323.416 Z" fill="#000000" fill-rule="evenodd" fill-opacity="1" /><path clip-path="url(#clip200)" d="M117.964 174.457 L136.32 174.457 L136.32 178.392 L122.246 178.392 L122.246 186.864 Q123.265 186.517 124.283 186.355 Q125.302 186.17 126.32 186.17 Q132.107 186.17 135.487 189.341 Q138.867 192.512 138.867 197.929 Q138.867 203.508 135.394 206.61 Q131.922 209.688 125.603 209.688 Q123.427 209.688 121.158 209.318 Q118.913 208.947 116.506 208.207 L116.506 203.508 Q118.589 204.642 120.811 205.198 Q123.033 205.753 125.51 205.753 Q129.515 205.753 131.853 203.647 Q134.191 201.54 134.191 197.929 Q134.191 194.318 131.853 192.211 Q129.515 190.105 125.51 190.105 Q123.635 190.105 121.76 190.522 Q119.908 190.938 117.964 191.818 L117.964 174.457 Z" fill="#000000" fill-rule="evenodd" fill-opacity="1" /><path clip-path="url(#clip200)" d="M1186.46 34.1734 Q1185.2 33.4443 1183.7 33.1202 Q1182.24 32.7556 1180.46 32.7556 Q1174.14 32.7556 1170.74 36.8875 Q1167.38 40.9789 1167.38 48.6757 L1167.38 72.576 L1159.88 72.576 L1159.88 27.2059 L1167.38 27.2059 L1167.38 34.2544 Q1169.73 30.1225 1173.49 28.1376 Q1177.26 26.1121 1182.65 26.1121 Q1183.42 26.1121 1184.35 26.2337 Q1185.28 26.3147 1186.42 26.5172 L1186.46 34.1734 Z" fill="#000000" fill-rule="evenodd" fill-opacity="1" /><path clip-path="url(#clip200)" d="M1231.26 48.0275 L1231.26 51.6733 L1196.99 51.6733 Q1197.48 59.3701 1201.61 63.421 Q1205.78 67.4314 1213.19 67.4314 Q1217.49 67.4314 1221.5 66.3781 Q1225.55 65.3249 1229.52 63.2184 L1229.52 70.267 Q1225.51 71.9684 1221.3 72.8596 Q1217.08 73.7508 1212.75 73.7508 Q1201.89 73.7508 1195.53 67.4314 Q1189.21 61.1119 1189.21 50.3365 Q1189.21 39.1965 1195.21 32.6746 Q1201.24 26.1121 1211.45 26.1121 Q1220.61 26.1121 1225.91 32.0264 Q1231.26 37.9003 1231.26 48.0275 M1223.81 45.84 Q1223.73 39.7232 1220.36 36.0774 Q1217.04 32.4315 1211.53 32.4315 Q1205.29 32.4315 1201.53 35.9558 Q1197.8 39.4801 1197.23 45.8805 L1223.81 45.84 Z" fill="#000000" fill-rule="evenodd" fill-opacity="1" /><path clip-path="url(#clip200)" d="M1276.14 28.9478 L1276.14 35.9153 Q1272.98 34.1734 1269.78 33.3227 Q1266.62 32.4315 1263.38 32.4315 Q1256.13 32.4315 1252.12 37.0496 Q1248.11 41.6271 1248.11 49.9314 Q1248.11 58.2358 1252.12 62.8538 Q1256.13 67.4314 1263.38 67.4314 Q1266.62 67.4314 1269.78 66.5807 Q1272.98 65.6895 1276.14 63.9476 L1276.14 70.8341 Q1273.03 72.2924 1269.66 73.0216 Q1266.34 73.7508 1262.57 73.7508 Q1252.33 73.7508 1246.29 67.3098 Q1240.25 60.8689 1240.25 49.9314 Q1240.25 38.832 1246.33 32.472 Q1252.45 26.1121 1263.06 26.1121 Q1266.5 26.1121 1269.78 26.8413 Q1273.07 27.5299 1276.14 28.9478 Z" fill="#000000" fill-rule="evenodd" fill-opacity="1" /><path clip-path="url(#clip200)" d="M1306.69 32.4315 Q1300.69 32.4315 1297.21 37.1306 Q1293.73 41.7891 1293.73 49.9314 Q1293.73 58.0738 1297.17 62.7728 Q1300.65 67.4314 1306.69 67.4314 Q1312.64 67.4314 1316.13 62.7323 Q1319.61 58.0333 1319.61 49.9314 Q1319.61 41.8701 1316.13 37.1711 Q1312.64 32.4315 1306.69 32.4315 M1306.69 26.1121 Q1316.41 26.1121 1321.96 32.4315 Q1327.51 38.7509 1327.51 49.9314 Q1327.51 61.0714 1321.96 67.4314 Q1316.41 73.7508 1306.69 73.7508 Q1296.93 73.7508 1291.38 67.4314 Q1285.87 61.0714 1285.87 49.9314 Q1285.87 38.7509 1291.38 32.4315 Q1296.93 26.1121 1306.69 26.1121 Z" fill="#000000" fill-rule="evenodd" fill-opacity="1" /><path clip-path="url(#clip200)" d="M1377.58 45.1919 L1377.58 72.576 L1370.13 72.576 L1370.13 45.4349 Q1370.13 38.994 1367.61 35.7938 Q1365.1 32.5936 1360.08 32.5936 Q1354.04 32.5936 1350.56 36.4419 Q1347.08 40.2903 1347.08 46.9338 L1347.08 72.576 L1339.58 72.576 L1339.58 27.2059 L1347.08 27.2059 L1347.08 34.2544 Q1349.75 30.163 1353.35 28.1376 Q1357 26.1121 1361.74 26.1121 Q1369.56 26.1121 1373.57 30.9732 Q1377.58 35.7938 1377.58 45.1919 Z" fill="#000000" fill-rule="evenodd" fill-opacity="1" /><path clip-path="url(#clip200)" d="M1421.37 28.5427 L1421.37 35.5912 Q1418.21 33.9709 1414.81 33.1607 Q1411.4 32.3505 1407.76 32.3505 Q1402.21 32.3505 1399.41 34.0519 Q1396.66 35.7533 1396.66 39.156 Q1396.66 41.7486 1398.64 43.2475 Q1400.63 44.7058 1406.62 46.0426 L1409.18 46.6097 Q1417.12 48.3111 1420.44 51.4303 Q1423.8 54.509 1423.8 60.0587 Q1423.8 66.3781 1418.78 70.0644 Q1413.79 73.7508 1405.04 73.7508 Q1401.4 73.7508 1397.43 73.0216 Q1393.5 72.3329 1389.12 70.9151 L1389.12 63.2184 Q1393.26 65.3654 1397.27 66.4591 Q1401.28 67.5124 1405.21 67.5124 Q1410.47 67.5124 1413.31 65.73 Q1416.14 63.9071 1416.14 60.6258 Q1416.14 57.5877 1414.08 55.9673 Q1412.05 54.3469 1405.13 52.8481 L1402.53 52.2405 Q1395.61 50.7821 1392.53 47.7845 Q1389.45 44.7463 1389.45 39.4801 Q1389.45 33.0797 1393.99 29.5959 Q1398.52 26.1121 1406.87 26.1121 Q1411 26.1121 1414.64 26.7198 Q1418.29 27.3274 1421.37 28.5427 Z" fill="#000000" fill-rule="evenodd" fill-opacity="1" /><path clip-path="url(#clip200)" d="M1443.04 14.324 L1443.04 27.2059 L1458.39 27.2059 L1458.39 32.9987 L1443.04 32.9987 L1443.04 57.6282 Q1443.04 63.1779 1444.54 64.7578 Q1446.08 66.3376 1450.74 66.3376 L1458.39 66.3376 L1458.39 72.576 L1450.74 72.576 Q1442.11 72.576 1438.83 69.3758 Q1435.55 66.1351 1435.55 57.6282 L1435.55 32.9987 L1430.08 32.9987 L1430.08 27.2059 L1435.55 27.2059 L1435.55 14.324 L1443.04 14.324 Z" fill="#000000" fill-rule="evenodd" fill-opacity="1" /><path clip-path="url(#clip200)" d="M1494.49 34.1734 Q1493.23 33.4443 1491.73 33.1202 Q1490.28 32.7556 1488.49 32.7556 Q1482.17 32.7556 1478.77 36.8875 Q1475.41 40.9789 1475.41 48.6757 L1475.41 72.576 L1467.91 72.576 L1467.91 27.2059 L1475.41 27.2059 L1475.41 34.2544 Q1477.76 30.1225 1481.53 28.1376 Q1485.29 26.1121 1490.68 26.1121 Q1491.45 26.1121 1492.38 26.2337 Q1493.31 26.3147 1494.45 26.5172 L1494.49 34.1734 Z" fill="#000000" fill-rule="evenodd" fill-opacity="1" /><path clip-path="url(#clip200)" d="M1501.54 54.671 L1501.54 27.2059 L1508.99 27.2059 L1508.99 54.3874 Q1508.99 60.8284 1511.5 64.0691 Q1514.01 67.2693 1519.04 67.2693 Q1525.07 67.2693 1528.56 63.421 Q1532.08 59.5726 1532.08 52.9291 L1532.08 27.2059 L1539.53 27.2059 L1539.53 72.576 L1532.08 72.576 L1532.08 65.6084 Q1529.37 69.7404 1525.76 71.7658 Q1522.2 73.7508 1517.46 73.7508 Q1509.64 73.7508 1505.59 68.8897 Q1501.54 64.0286 1501.54 54.671 M1520.29 26.1121 L1520.29 26.1121 Z" fill="#000000" fill-rule="evenodd" fill-opacity="1" /><path clip-path="url(#clip200)" d="M1587.54 28.9478 L1587.54 35.9153 Q1584.38 34.1734 1581.18 33.3227 Q1578.02 32.4315 1574.78 32.4315 Q1567.53 32.4315 1563.52 37.0496 Q1559.51 41.6271 1559.51 49.9314 Q1559.51 58.2358 1563.52 62.8538 Q1567.53 67.4314 1574.78 67.4314 Q1578.02 67.4314 1581.18 66.5807 Q1584.38 65.6895 1587.54 63.9476 L1587.54 70.8341 Q1584.42 72.2924 1581.06 73.0216 Q1577.73 73.7508 1573.97 73.7508 Q1563.72 73.7508 1557.68 67.3098 Q1551.65 60.8689 1551.65 49.9314 Q1551.65 38.832 1557.72 32.472 Q1563.84 26.1121 1574.45 26.1121 Q1577.9 26.1121 1581.18 26.8413 Q1584.46 27.5299 1587.54 28.9478 Z" fill="#000000" fill-rule="evenodd" fill-opacity="1" /><path clip-path="url(#clip200)" d="M1607.87 14.324 L1607.87 27.2059 L1623.23 27.2059 L1623.23 32.9987 L1607.87 32.9987 L1607.87 57.6282 Q1607.87 63.1779 1609.37 64.7578 Q1610.91 66.3376 1615.57 66.3376 L1623.23 66.3376 L1623.23 72.576 L1615.57 72.576 Q1606.94 72.576 1603.66 69.3758 Q1600.38 66.1351 1600.38 57.6282 L1600.38 32.9987 L1594.91 32.9987 L1594.91 27.2059 L1600.38 27.2059 L1600.38 14.324 L1607.87 14.324 Z" fill="#000000" fill-rule="evenodd" fill-opacity="1" /><path clip-path="url(#clip200)" d="M1680.02 49.7694 Q1670.99 49.7694 1667.5 51.8354 Q1664.02 53.9013 1664.02 58.8839 Q1664.02 62.8538 1666.61 65.2034 Q1669.24 67.5124 1673.74 67.5124 Q1679.94 67.5124 1683.67 63.1374 Q1687.43 58.7219 1687.43 51.4303 L1687.43 49.7694 L1680.02 49.7694 M1694.89 46.6907 L1694.89 72.576 L1687.43 72.576 L1687.43 65.6895 Q1684.88 69.8214 1681.07 71.8063 Q1677.26 73.7508 1671.76 73.7508 Q1664.79 73.7508 1660.66 69.8619 Q1656.56 65.9325 1656.56 59.3701 Q1656.56 51.7138 1661.67 47.825 Q1666.81 43.9361 1676.98 43.9361 L1687.43 43.9361 L1687.43 43.2069 Q1687.43 38.0623 1684.03 35.2672 Q1680.67 32.4315 1674.55 32.4315 Q1670.66 32.4315 1666.98 33.3632 Q1663.29 34.295 1659.89 36.1584 L1659.89 29.2718 Q1663.98 27.692 1667.83 26.9223 Q1671.67 26.1121 1675.32 26.1121 Q1685.16 26.1121 1690.03 31.2163 Q1694.89 36.3204 1694.89 46.6907 Z" fill="#000000" fill-rule="evenodd" fill-opacity="1" /><path clip-path="url(#clip200)" d="M1747.95 45.1919 L1747.95 72.576 L1740.5 72.576 L1740.5 45.4349 Q1740.5 38.994 1737.99 35.7938 Q1735.48 32.5936 1730.45 32.5936 Q1724.42 32.5936 1720.93 36.4419 Q1717.45 40.2903 1717.45 46.9338 L1717.45 72.576 L1709.96 72.576 L1709.96 27.2059 L1717.45 27.2059 L1717.45 34.2544 Q1720.12 30.163 1723.73 28.1376 Q1727.37 26.1121 1732.11 26.1121 Q1739.93 26.1121 1743.94 30.9732 Q1747.95 35.7938 1747.95 45.1919 Z" fill="#000000" fill-rule="evenodd" fill-opacity="1" /><path clip-path="url(#clip200)" d="M1792.68 34.0924 L1792.68 9.54393 L1800.13 9.54393 L1800.13 72.576 L1792.68 72.576 L1792.68 65.7705 Q1790.33 69.8214 1786.72 71.8063 Q1783.16 73.7508 1778.13 73.7508 Q1769.91 73.7508 1764.72 67.1883 Q1759.58 60.6258 1759.58 49.9314 Q1759.58 39.2371 1764.72 32.6746 Q1769.91 26.1121 1778.13 26.1121 Q1783.16 26.1121 1786.72 28.0971 Q1790.33 30.0415 1792.68 34.0924 M1767.28 49.9314 Q1767.28 58.1548 1770.64 62.8538 Q1774.04 67.5124 1779.96 67.5124 Q1785.87 67.5124 1789.27 62.8538 Q1792.68 58.1548 1792.68 49.9314 Q1792.68 41.7081 1789.27 37.0496 Q1785.87 32.3505 1779.96 32.3505 Q1774.04 32.3505 1770.64 37.0496 Q1767.28 41.7081 1767.28 49.9314 Z" fill="#000000" fill-rule="evenodd" fill-opacity="1" /><path clip-path="url(#clip200)" d="M1868.14 34.1734 Q1866.89 33.4443 1865.39 33.1202 Q1863.93 32.7556 1862.15 32.7556 Q1855.83 32.7556 1852.43 36.8875 Q1849.06 40.9789 1849.06 48.6757 L1849.06 72.576 L1841.57 72.576 L1841.57 27.2059 L1849.06 27.2059 L1849.06 34.2544 Q1851.41 30.1225 1855.18 28.1376 Q1858.95 26.1121 1864.34 26.1121 Q1865.11 26.1121 1866.04 26.2337 Q1866.97 26.3147 1868.1 26.5172 L1868.14 34.1734 Z" fill="#000000" fill-rule="evenodd" fill-opacity="1" /><path clip-path="url(#clip200)" d="M1912.95 48.0275 L1912.95 51.6733 L1878.68 51.6733 Q1879.16 59.3701 1883.29 63.421 Q1887.47 67.4314 1894.88 67.4314 Q1899.17 67.4314 1903.18 66.3781 Q1907.23 65.3249 1911.2 63.2184 L1911.2 70.267 Q1907.19 71.9684 1902.98 72.8596 Q1898.77 73.7508 1894.43 73.7508 Q1883.58 73.7508 1877.22 67.4314 Q1870.9 61.1119 1870.9 50.3365 Q1870.9 39.1965 1876.89 32.6746 Q1882.93 26.1121 1893.14 26.1121 Q1902.29 26.1121 1907.6 32.0264 Q1912.95 37.9003 1912.95 48.0275 M1905.49 45.84 Q1905.41 39.7232 1902.05 36.0774 Q1898.73 32.4315 1893.22 32.4315 Q1886.98 32.4315 1883.21 35.9558 Q1879.49 39.4801 1878.92 45.8805 L1905.49 45.84 Z" fill="#000000" fill-rule="evenodd" fill-opacity="1" /><path clip-path="url(#clip200)" d="M1955.04 34.0924 L1955.04 9.54393 L1962.49 9.54393 L1962.49 72.576 L1955.04 72.576 L1955.04 65.7705 Q1952.69 69.8214 1949.08 71.8063 Q1945.52 73.7508 1940.49 73.7508 Q1932.27 73.7508 1927.08 67.1883 Q1921.94 60.6258 1921.94 49.9314 Q1921.94 39.2371 1927.08 32.6746 Q1932.27 26.1121 1940.49 26.1121 Q1945.52 26.1121 1949.08 28.0971 Q1952.69 30.0415 1955.04 34.0924 M1929.64 49.9314 Q1929.64 58.1548 1933 62.8538 Q1936.4 67.5124 1942.32 67.5124 Q1948.23 67.5124 1951.63 62.8538 Q1955.04 58.1548 1955.04 49.9314 Q1955.04 41.7081 1951.63 37.0496 Q1948.23 32.3505 1942.32 32.3505 Q1936.4 32.3505 1933 37.0496 Q1929.64 41.7081 1929.64 49.9314 Z" fill="#000000" fill-rule="evenodd" fill-opacity="1" /><path clip-path="url(#clip200)" d="M1998.46 49.7694 Q1989.43 49.7694 1985.94 51.8354 Q1982.46 53.9013 1982.46 58.8839 Q1982.46 62.8538 1985.05 65.2034 Q1987.69 67.5124 1992.18 67.5124 Q1998.38 67.5124 2002.11 63.1374 Q2005.87 58.7219 2005.87 51.4303 L2005.87 49.7694 L1998.46 49.7694 M2013.33 46.6907 L2013.33 72.576 L2005.87 72.576 L2005.87 65.6895 Q2003.32 69.8214 1999.51 71.8063 Q1995.71 73.7508 1990.2 73.7508 Q1983.23 73.7508 1979.1 69.8619 Q1975.01 65.9325 1975.01 59.3701 Q1975.01 51.7138 1980.11 47.825 Q1985.26 43.9361 1995.42 43.9361 L2005.87 43.9361 L2005.87 43.2069 Q2005.87 38.0623 2002.47 35.2672 Q1999.11 32.4315 1992.99 32.4315 Q1989.1 32.4315 1985.42 33.3632 Q1981.73 34.295 1978.33 36.1584 L1978.33 29.2718 Q1982.42 27.692 1986.27 26.9223 Q1990.12 26.1121 1993.76 26.1121 Q2003.61 26.1121 2008.47 31.2163 Q2013.33 36.3204 2013.33 46.6907 Z" fill="#000000" fill-rule="evenodd" fill-opacity="1" /><path clip-path="url(#clip200)" d="M2036.05 14.324 L2036.05 27.2059 L2051.41 27.2059 L2051.41 32.9987 L2036.05 32.9987 L2036.05 57.6282 Q2036.05 63.1779 2037.55 64.7578 Q2039.09 66.3376 2043.75 66.3376 L2051.41 66.3376 L2051.41 72.576 L2043.75 72.576 Q2035.12 72.576 2031.84 69.3758 Q2028.56 66.1351 2028.56 57.6282 L2028.56 32.9987 L2023.09 32.9987 L2023.09 27.2059 L2028.56 27.2059 L2028.56 14.324 L2036.05 14.324 Z" fill="#000000" fill-rule="evenodd" fill-opacity="1" /><path clip-path="url(#clip200)" d="M2060.44 54.671 L2060.44 27.2059 L2067.89 27.2059 L2067.89 54.3874 Q2067.89 60.8284 2070.41 64.0691 Q2072.92 67.2693 2077.94 67.2693 Q2083.98 67.2693 2087.46 63.421 Q2090.98 59.5726 2090.98 52.9291 L2090.98 27.2059 L2098.44 27.2059 L2098.44 72.576 L2090.98 72.576 L2090.98 65.6084 Q2088.27 69.7404 2084.66 71.7658 Q2081.1 73.7508 2076.36 73.7508 Q2068.54 73.7508 2064.49 68.8897 Q2060.44 64.0286 2060.44 54.671 M2079.2 26.1121 L2079.2 26.1121 Z" fill="#000000" fill-rule="evenodd" fill-opacity="1" /><path clip-path="url(#clip200)" d="M2149.11 35.9153 Q2151.91 30.8922 2155.8 28.5022 Q2159.69 26.1121 2164.95 26.1121 Q2172.04 26.1121 2175.89 31.0947 Q2179.74 36.0368 2179.74 45.1919 L2179.74 72.576 L2172.24 72.576 L2172.24 45.4349 Q2172.24 38.913 2169.94 35.7533 Q2167.63 32.5936 2162.89 32.5936 Q2157.09 32.5936 2153.73 36.4419 Q2150.37 40.2903 2150.37 46.9338 L2150.37 72.576 L2142.88 72.576 L2142.88 45.4349 Q2142.88 38.8725 2140.57 35.7533 Q2138.26 32.5936 2133.44 32.5936 Q2127.73 32.5936 2124.36 36.4824 Q2121 40.3308 2121 46.9338 L2121 72.576 L2113.51 72.576 L2113.51 27.2059 L2121 27.2059 L2121 34.2544 Q2123.55 30.082 2127.12 28.0971 Q2130.68 26.1121 2135.58 26.1121 Q2140.53 26.1121 2143.97 28.6237 Q2147.45 31.1352 2149.11 35.9153 Z" fill="#000000" fill-rule="evenodd" fill-opacity="1" /><polyline clip-path="url(#clip202)" style="stroke:#ff0000; stroke-linecap:butt; stroke-linejoin:round; stroke-width:8; stroke-opacity:1; fill:none" points="
  270.807,341.321 281.779,341.321 292.752,341.321 303.725,341.321 314.697,341.321 325.67,341.321 336.642,341.321 347.615,341.321 358.588,341.321 369.56,341.321 
  380.533,341.321 391.505,341.321 402.478,341.321 413.45,341.321 424.423,341.321 435.396,341.321 446.368,341.321 457.341,341.321 468.313,341.321 479.286,341.321 
  490.259,341.321 501.231,341.321 512.204,341.321 523.176,341.321 534.149,341.321 545.121,341.321 556.094,341.321 567.067,341.321 578.039,341.321 589.012,341.321 
  599.984,341.321 610.957,341.321 621.93,341.321 632.902,341.321 643.875,341.321 654.847,341.321 665.82,341.321 676.792,341.321 687.765,341.321 698.738,341.321 
  709.71,341.321 720.683,341.321 731.655,341.321 742.628,341.321 753.601,341.321 764.573,341.321 775.546,341.321 786.518,341.321 797.491,341.321 808.463,341.321 
  819.436,341.321 830.409,341.321 841.381,341.321 852.354,341.321 863.326,341.321 874.299,341.321 885.272,341.321 896.244,341.321 907.217,341.321 918.189,341.321 
  929.162,341.321 940.134,341.321 951.107,341.321 962.08,341.321 973.052,341.321 984.025,341.321 994.997,341.321 1005.97,341.321 1016.94,341.321 1027.92,341.321 
  1038.89,341.321 1049.86,341.321 1060.83,341.321 1071.81,341.321 1082.78,341.321 1093.75,341.321 1104.72,341.321 1115.7,341.321 1126.67,341.321 1137.64,341.321 
  1148.61,341.321 1159.59,341.321 1170.56,341.321 1181.53,341.321 1192.5,341.321 1203.48,341.321 1214.45,341.321 1225.42,341.321 1236.39,341.321 1247.37,341.321 
  1258.34,341.321 1269.31,341.321 1280.28,341.321 1291.26,341.321 1302.23,341.321 1313.2,341.321 1324.17,341.321 1335.15,341.321 1346.12,341.321 1357.09,341.321 
  1368.07,341.321 1379.04,341.321 1390.01,341.321 1400.98,341.321 1411.96,341.321 1422.93,341.321 1433.9,341.321 1444.87,341.321 1455.85,341.321 1466.82,341.321 
  1477.79,341.321 1488.76,341.321 1499.74,341.321 1510.71,341.321 1521.68,341.321 1532.65,341.321 1543.63,341.321 1554.6,341.321 1565.57,341.321 1576.54,341.321 
  1587.52,341.321 1598.49,341.321 1609.46,341.321 1620.43,341.321 1631.41,341.321 1642.38,341.321 1653.35,341.321 1664.32,309.804 1675.3,279.675 1686.27,673.559 
  1697.24,383.741 1708.22,341.583 1719.19,348.838 1730.16,221.923 1741.13,490.272 1752.11,238.858 1763.08,124.958 1774.05,341.321 1785.02,341.321 1796,341.321 
  1806.97,341.321 1817.94,341.321 1828.91,341.321 1839.89,341.321 1850.86,341.321 1861.83,341.321 1872.8,341.321 1883.78,341.321 1894.75,341.321 1905.72,341.321 
  1916.69,341.321 1927.67,341.321 1938.64,341.321 1949.61,341.321 1960.58,341.321 1971.56,341.321 1982.53,341.321 1993.5,341.321 2004.48,341.321 2015.45,341.321 
  2026.42,341.321 2037.39,341.321 2048.37,341.321 2059.34,341.321 2070.31,341.321 2081.28,341.321 2092.26,341.321 2103.23,341.321 2114.2,341.321 2125.17,341.321 
  2136.15,341.321 2147.12,341.321 2158.09,341.321 2169.06,341.321 2180.04,341.321 2191.01,341.321 2201.98,341.321 2212.95,341.321 2223.93,341.321 2234.9,341.321 
  2245.87,341.321 2256.84,341.321 2267.82,341.321 2278.79,341.321 2289.76,341.321 2300.73,341.321 2311.71,341.321 2322.68,341.321 2333.65,341.321 2344.63,341.321 
  2355.6,341.321 2366.57,341.321 2377.54,341.321 2388.52,332.03 2399.49,323.148 2410.46,439.267 2421.43,353.827 2432.41,341.398 2443.38,343.537 2454.35,306.122 
  2465.32,385.233 2476.3,311.115 2487.27,277.536 2498.24,341.321 2509.21,341.321 2520.19,341.321 2531.16,341.321 2542.13,341.321 2553.1,341.321 2564.08,341.321 
  2575.05,341.321 2586.02,341.321 2596.99,341.321 2607.97,341.321 2618.94,341.321 2629.91,341.321 2640.88,341.321 2651.86,341.321 2662.83,341.321 2673.8,341.321 
  2684.78,341.321 2695.75,341.321 2706.72,341.321 2717.69,341.321 2728.67,341.321 2739.64,341.321 2750.61,341.321 2761.58,341.321 2772.56,341.321 2783.53,341.321 
  2794.5,341.321 2805.47,341.321 2816.45,341.321 2827.42,341.321 2838.39,341.321 2849.36,341.321 2860.34,341.321 2871.31,341.321 2882.28,341.321 2893.25,341.321 
  2904.23,341.321 2915.2,341.321 2926.17,341.321 2937.14,341.321 2948.12,341.321 2959.09,341.321 2970.06,341.321 2981.03,341.321 2992.01,341.321 3002.98,341.321 
  3013.95,341.321 3024.93,341.321 3035.9,341.321 3046.87,341.321 3057.84,341.321 3068.82,341.321 
  "/>
<polyline clip-path="url(#clip202)" style="stroke:#add8e6; stroke-linecap:butt; stroke-linejoin:round; stroke-width:8; stroke-opacity:1; fill:none" points="
  270.807,341.566 281.779,341.732 292.752,340.708 303.725,340.688 314.697,341.823 325.67,341.29 336.642,341.221 347.615,340.629 358.588,341.097 369.56,341.441 
  380.533,341.156 391.505,341.361 402.478,341.619 413.45,341.345 424.423,341.3 435.396,341.359 446.368,341.772 457.341,341.23 468.313,341.612 479.286,341.421 
  490.259,341.459 501.231,340.791 512.204,341.495 523.176,341.58 534.149,341.273 545.121,341.227 556.094,341.161 567.067,341.11 578.039,340.986 589.012,340.729 
  599.984,341.274 610.957,340.898 621.93,341.311 632.902,340.92 643.875,341.381 654.847,340.872 665.82,340.934 676.792,341.106 687.765,341.031 698.738,340.977 
  709.71,340.982 720.683,340.959 731.655,341.029 742.628,341.005 753.601,341.198 764.573,341.046 775.546,340.835 786.518,340.844 797.491,341.023 808.463,340.925 
  819.436,340.931 830.409,341.068 841.381,341.094 852.354,341.179 863.326,341.156 874.299,341.113 885.272,341.111 896.244,341.023 907.217,341.04 918.189,341.077 
  929.162,341.284 940.134,341.104 951.107,340.9 962.08,340.855 973.052,341.154 984.025,341.152 994.997,341.265 1005.97,340.85 1016.94,340.671 1027.92,341.271 
  1038.89,341.676 1049.86,341.738 1060.83,341.311 1071.81,341.426 1082.78,341.605 1093.75,341.559 1104.72,341.471 1115.7,341.278 1126.67,340.932 1137.64,341.159 
  1148.61,341.492 1159.59,341.174 1170.56,341.335 1181.53,341.164 1192.5,340.673 1203.48,341.706 1214.45,341.634 1225.42,341.133 1236.39,341.228 1247.37,340.449 
  1258.34,342.017 1269.31,341.511 1280.28,341.849 1291.26,341.128 1302.23,340.929 1313.2,341.089 1324.17,341.404 1335.15,341.375 1346.12,341.676 1357.09,341.291 
  1368.07,341.299 1379.04,341.329 1390.01,340.361 1400.98,341.344 1411.96,341.34 1422.93,340.914 1433.9,341.456 1444.87,341.706 1455.85,342.253 1466.82,341.965 
  1477.79,340.455 1488.76,341.162 1499.74,340.877 1510.71,340.221 1521.68,344.833 1532.65,342.215 1543.63,342.124 1554.6,340.383 1565.57,339.23 1576.54,341.956 
  1587.52,338.635 1598.49,343.127 1609.46,343.038 1620.43,335.535 1631.41,341.82 1642.38,340.534 1653.35,340.17 1664.32,306.867 1675.3,287.266 1686.27,678.482 
  1697.24,379.695 1708.22,342.786 1719.19,343.609 1730.16,216.717 1741.13,480.108 1752.11,254.196 1763.08,145.004 1774.05,342.937 1785.02,342.277 1796,340.287 
  1806.97,340.459 1817.94,340.862 1828.91,338.514 1839.89,338.84 1850.86,341.401 1861.83,336.958 1872.8,338.169 1883.78,342.472 1894.75,341.215 1905.72,342.281 
  1916.69,340.724 1927.67,341.914 1938.64,342.773 1949.61,341.376 1960.58,341.94 1971.56,342.344 1982.53,342.4 1993.5,343.204 2004.48,341.538 2015.45,341.291 
  2026.42,340.738 2037.39,342.019 2048.37,341.609 2059.34,341.499 2070.31,340.966 2081.28,341.851 2092.26,341.522 2103.23,341.737 2114.2,341.519 2125.17,341.314 
  2136.15,341.299 2147.12,341.142 2158.09,341.455 2169.06,340.975 2180.04,341.16 2191.01,341.039 2201.98,341.239 2212.95,341.146 2223.93,341.308 2234.9,341.031 
  2245.87,341.015 2256.84,340.926 2267.82,341.255 2278.79,340.988 2289.76,341.137 2300.73,341.135 2311.71,341.564 2322.68,341.042 2333.65,341.018 2344.63,341.035 
  2355.6,341.198 2366.57,341.15 2377.54,341.172 2388.52,341.102 2399.49,341.225 2410.46,341.126 2421.43,341.123 2432.41,341.094 2443.38,341.09 2454.35,341.055 
  2465.32,341.155 2476.3,341.054 2487.27,341.058 2498.24,341.094 2509.21,341.017 2520.19,341.142 2531.16,341.13 2542.13,341.15 2553.1,341.091 2564.08,341.17 
  2575.05,341.145 2586.02,341.067 2596.99,341.093 2607.97,341.103 2618.94,341.131 2629.91,341.139 2640.88,341.059 2651.86,341.131 2662.83,341.112 2673.8,341.174 
  2684.78,341.181 2695.75,341.128 2706.72,341.087 2717.69,341.011 2728.67,341.212 2739.64,341.056 2750.61,341.008 2761.58,341.104 2772.56,340.976 2783.53,341.203 
  2794.5,341.213 2805.47,341.324 2816.45,341.134 2827.42,341.349 2838.39,341.287 2849.36,341.134 2860.34,341.122 2871.31,341.161 2882.28,341.258 2893.25,341.252 
  2904.23,341.092 2915.2,341.14 2926.17,341.045 2937.14,341.294 2948.12,341.15 2959.09,341.156 2970.06,341.141 2981.03,341.256 2992.01,340.965 3002.98,340.888 
  3013.95,341.23 3024.93,341.138 3035.9,341.139 3046.87,341.185 3057.84,341.307 3068.82,340.547 
  "/>
<path clip-path="url(#clip200)" d="
M2590.48 283.43 L3053.89 283.43 L3053.89 127.91 L2590.48 127.91  Z
  " fill="#ffffff" fill-rule="evenodd" fill-opacity="1"/>
<polyline clip-path="url(#clip200)" style="stroke:#000000; stroke-linecap:butt; stroke-linejoin:round; stroke-width:4; stroke-opacity:1; fill:none" points="
  2590.48,283.43 3053.89,283.43 3053.89,127.91 2590.48,127.91 2590.48,283.43 
  "/>
<polyline clip-path="url(#clip200)" style="stroke:#ff0000; stroke-linecap:butt; stroke-linejoin:round; stroke-width:4; stroke-opacity:1; fill:none" points="
  2623.44,179.75 2821.16,179.75 
  "/>
<path clip-path="url(#clip200)" d="M2878.77 171.104 L2869.4 183.72 L2879.26 197.03 L2874.23 197.03 L2866.69 186.845 L2859.14 197.03 L2854.12 197.03 L2864.19 183.465 L2854.98 171.104 L2860 171.104 L2866.87 180.34 L2873.75 171.104 L2878.77 171.104 Z" fill="#000000" fill-rule="evenodd" fill-opacity="1" /><path clip-path="url(#clip200)" d="M2904.98 204.9 L2904.98 208.21 L2880.35 208.21 L2880.35 204.9 L2904.98 204.9 Z" fill="#000000" fill-rule="evenodd" fill-opacity="1" /><path clip-path="url(#clip200)" d="M2908.98 171.104 L2913.24 171.104 L2913.24 197.493 Q2913.24 202.447 2911.34 204.669 Q2909.47 206.891 2905.28 206.891 L2903.66 206.891 L2903.66 203.28 L2904.79 203.28 Q2907.22 203.28 2908.1 202.146 Q2908.98 201.035 2908.98 197.493 L2908.98 171.104 M2908.98 161.012 L2913.24 161.012 L2913.24 166.405 L2908.98 166.405 L2908.98 161.012 Z" fill="#000000" fill-rule="evenodd" fill-opacity="1" /><polyline clip-path="url(#clip200)" style="stroke:#add8e6; stroke-linecap:butt; stroke-linejoin:round; stroke-width:4; stroke-opacity:1; fill:none" points="
  2623.44,231.59 2821.16,231.59 
  "/>
<path clip-path="url(#clip200)" d="M2875.83 233.222 L2875.83 248.87 L2871.57 248.87 L2871.57 233.361 Q2871.57 229.68 2870.14 227.852 Q2868.7 226.023 2865.83 226.023 Q2862.38 226.023 2860.39 228.222 Q2858.4 230.421 2858.4 234.217 L2858.4 248.87 L2854.12 248.87 L2854.12 212.852 L2858.4 212.852 L2858.4 226.972 Q2859.93 224.634 2861.99 223.477 Q2864.07 222.319 2866.78 222.319 Q2871.25 222.319 2873.54 225.097 Q2875.83 227.852 2875.83 233.222 Z" fill="#000000" fill-rule="evenodd" fill-opacity="1" /><path clip-path="url(#clip200)" d="M2896.11 235.838 Q2890.95 235.838 2888.96 237.018 Q2886.97 238.199 2886.97 241.046 Q2886.97 243.314 2888.45 244.657 Q2889.95 245.976 2892.52 245.976 Q2896.06 245.976 2898.19 243.476 Q2900.35 240.953 2900.35 236.787 L2900.35 235.838 L2896.11 235.838 M2904.61 234.078 L2904.61 248.87 L2900.35 248.87 L2900.35 244.935 Q2898.89 247.296 2896.71 248.43 Q2894.54 249.541 2891.39 249.541 Q2887.41 249.541 2885.05 247.319 Q2882.71 245.074 2882.71 241.324 Q2882.71 236.949 2885.62 234.727 Q2888.56 232.504 2894.37 232.504 L2900.35 232.504 L2900.35 232.088 Q2900.35 229.148 2898.4 227.551 Q2896.48 225.93 2892.98 225.93 Q2890.76 225.93 2888.66 226.463 Q2886.55 226.995 2884.61 228.06 L2884.61 224.125 Q2886.94 223.222 2889.14 222.782 Q2891.34 222.319 2893.42 222.319 Q2899.05 222.319 2901.83 225.236 Q2904.61 228.153 2904.61 234.078 Z" fill="#000000" fill-rule="evenodd" fill-opacity="1" /><path clip-path="url(#clip200)" d="M2917.59 215.583 L2917.59 222.944 L2926.36 222.944 L2926.36 226.254 L2917.59 226.254 L2917.59 240.328 Q2917.59 243.5 2918.45 244.402 Q2919.33 245.305 2921.99 245.305 L2926.36 245.305 L2926.36 248.87 L2921.99 248.87 Q2917.06 248.87 2915.18 247.041 Q2913.31 245.189 2913.31 240.328 L2913.31 226.254 L2910.18 226.254 L2910.18 222.944 L2913.31 222.944 L2913.31 215.583 L2917.59 215.583 Z" fill="#000000" fill-rule="evenodd" fill-opacity="1" /><path clip-path="url(#clip200)" d="M2953.52 222.944 L2944.14 235.56 L2954 248.87 L2948.98 248.87 L2941.43 238.685 L2933.89 248.87 L2928.86 248.87 L2938.93 235.305 L2929.72 222.944 L2934.74 222.944 L2941.62 232.18 L2948.49 222.944 L2953.52 222.944 Z" fill="#000000" fill-rule="evenodd" fill-opacity="1" /><path clip-path="url(#clip200)" d="M2979.72 256.74 L2979.72 260.05 L2955.09 260.05 L2955.09 256.74 L2979.72 256.74 Z" fill="#000000" fill-rule="evenodd" fill-opacity="1" /><path clip-path="url(#clip200)" d="M2983.73 222.944 L2987.98 222.944 L2987.98 249.333 Q2987.98 254.287 2986.09 256.509 Q2984.21 258.731 2980.02 258.731 L2978.4 258.731 L2978.4 255.12 L2979.54 255.12 Q2981.97 255.12 2982.85 253.986 Q2983.73 252.875 2983.73 249.333 L2983.73 222.944 M2983.73 212.852 L2987.98 212.852 L2987.98 218.245 L2983.73 218.245 L2983.73 212.852 Z" fill="#000000" fill-rule="evenodd" fill-opacity="1" /><path clip-path="url(#clip200)" d="
M186.867 1495.09 L3152.76 1495.09 L3152.76 908.352 L186.867 908.352  Z
  " fill="#ffffff" fill-rule="evenodd" fill-opacity="1"/>
<defs>
  <clipPath id="clip203">
    <rect x="186" y="908" width="2967" height="588"/>
  </clipPath>
</defs>
<polyline clip-path="url(#clip203)" style="stroke:#000000; stroke-linecap:butt; stroke-linejoin:round; stroke-width:2; stroke-opacity:0.1; fill:none" points="
  259.834,1495.09 259.834,908.352 
  "/>
<polyline clip-path="url(#clip203)" style="stroke:#000000; stroke-linecap:butt; stroke-linejoin:round; stroke-width:2; stroke-opacity:0.1; fill:none" points="
  808.463,1495.09 808.463,908.352 
  "/>
<polyline clip-path="url(#clip203)" style="stroke:#000000; stroke-linecap:butt; stroke-linejoin:round; stroke-width:2; stroke-opacity:0.1; fill:none" points="
  1357.09,1495.09 1357.09,908.352 
  "/>
<polyline clip-path="url(#clip203)" style="stroke:#000000; stroke-linecap:butt; stroke-linejoin:round; stroke-width:2; stroke-opacity:0.1; fill:none" points="
  1905.72,1495.09 1905.72,908.352 
  "/>
<polyline clip-path="url(#clip203)" style="stroke:#000000; stroke-linecap:butt; stroke-linejoin:round; stroke-width:2; stroke-opacity:0.1; fill:none" points="
  2454.35,1495.09 2454.35,908.352 
  "/>
<polyline clip-path="url(#clip203)" style="stroke:#000000; stroke-linecap:butt; stroke-linejoin:round; stroke-width:2; stroke-opacity:0.1; fill:none" points="
  3002.98,1495.09 3002.98,908.352 
  "/>
<polyline clip-path="url(#clip200)" style="stroke:#000000; stroke-linecap:butt; stroke-linejoin:round; stroke-width:4; stroke-opacity:1; fill:none" points="
  186.867,1495.09 3152.76,1495.09 
  "/>
<polyline clip-path="url(#clip200)" style="stroke:#000000; stroke-linecap:butt; stroke-linejoin:round; stroke-width:4; stroke-opacity:1; fill:none" points="
  259.834,1495.09 259.834,1476.19 
  "/>
<polyline clip-path="url(#clip200)" style="stroke:#000000; stroke-linecap:butt; stroke-linejoin:round; stroke-width:4; stroke-opacity:1; fill:none" points="
  808.463,1495.09 808.463,1476.19 
  "/>
<polyline clip-path="url(#clip200)" style="stroke:#000000; stroke-linecap:butt; stroke-linejoin:round; stroke-width:4; stroke-opacity:1; fill:none" points="
  1357.09,1495.09 1357.09,1476.19 
  "/>
<polyline clip-path="url(#clip200)" style="stroke:#000000; stroke-linecap:butt; stroke-linejoin:round; stroke-width:4; stroke-opacity:1; fill:none" points="
  1905.72,1495.09 1905.72,1476.19 
  "/>
<polyline clip-path="url(#clip200)" style="stroke:#000000; stroke-linecap:butt; stroke-linejoin:round; stroke-width:4; stroke-opacity:1; fill:none" points="
  2454.35,1495.09 2454.35,1476.19 
  "/>
<polyline clip-path="url(#clip200)" style="stroke:#000000; stroke-linecap:butt; stroke-linejoin:round; stroke-width:4; stroke-opacity:1; fill:none" points="
  3002.98,1495.09 3002.98,1476.19 
  "/>
<path clip-path="url(#clip200)" d="M259.834 1532.41 Q256.223 1532.41 254.395 1535.97 Q252.589 1539.51 252.589 1546.64 Q252.589 1553.75 254.395 1557.31 Q256.223 1560.86 259.834 1560.86 Q263.469 1560.86 265.274 1557.31 Q267.103 1553.75 267.103 1546.64 Q267.103 1539.51 265.274 1535.97 Q263.469 1532.41 259.834 1532.41 M259.834 1528.7 Q265.644 1528.7 268.7 1533.31 Q271.779 1537.89 271.779 1546.64 Q271.779 1555.37 268.7 1559.98 Q265.644 1564.56 259.834 1564.56 Q254.024 1564.56 250.945 1559.98 Q247.89 1555.37 247.89 1546.64 Q247.89 1537.89 250.945 1533.31 Q254.024 1528.7 259.834 1528.7 Z" fill="#000000" fill-rule="evenodd" fill-opacity="1" /><path clip-path="url(#clip200)" d="M783.163 1529.33 L801.519 1529.33 L801.519 1533.26 L787.445 1533.26 L787.445 1541.74 Q788.464 1541.39 789.482 1541.23 Q790.501 1541.04 791.519 1541.04 Q797.306 1541.04 800.686 1544.21 Q804.065 1547.38 804.065 1552.8 Q804.065 1558.38 800.593 1561.48 Q797.121 1564.56 790.802 1564.56 Q788.626 1564.56 786.357 1564.19 Q784.112 1563.82 781.704 1563.08 L781.704 1558.38 Q783.788 1559.51 786.01 1560.07 Q788.232 1560.62 790.709 1560.62 Q794.714 1560.62 797.052 1558.52 Q799.389 1556.41 799.389 1552.8 Q799.389 1549.19 797.052 1547.08 Q794.714 1544.98 790.709 1544.98 Q788.834 1544.98 786.959 1545.39 Q785.107 1545.81 783.163 1546.69 L783.163 1529.33 Z" fill="#000000" fill-rule="evenodd" fill-opacity="1" /><path clip-path="url(#clip200)" d="M823.278 1532.41 Q819.667 1532.41 817.838 1535.97 Q816.033 1539.51 816.033 1546.64 Q816.033 1553.75 817.838 1557.31 Q819.667 1560.86 823.278 1560.86 Q826.912 1560.86 828.718 1557.31 Q830.547 1553.75 830.547 1546.64 Q830.547 1539.51 828.718 1535.97 Q826.912 1532.41 823.278 1532.41 M823.278 1528.7 Q829.088 1528.7 832.144 1533.31 Q835.223 1537.89 835.223 1546.64 Q835.223 1555.37 832.144 1559.98 Q829.088 1564.56 823.278 1564.56 Q817.468 1564.56 814.389 1559.98 Q811.334 1555.37 811.334 1546.64 Q811.334 1537.89 814.389 1533.31 Q817.468 1528.7 823.278 1528.7 Z" fill="#000000" fill-rule="evenodd" fill-opacity="1" /><path clip-path="url(#clip200)" d="M1316.7 1559.95 L1324.34 1559.95 L1324.34 1533.59 L1316.03 1535.25 L1316.03 1530.99 L1324.29 1529.33 L1328.97 1529.33 L1328.97 1559.95 L1336.61 1559.95 L1336.61 1563.89 L1316.7 1563.89 L1316.7 1559.95 Z" fill="#000000" fill-rule="evenodd" fill-opacity="1" /><path clip-path="url(#clip200)" d="M1356.05 1532.41 Q1352.44 1532.41 1350.61 1535.97 Q1348.81 1539.51 1348.81 1546.64 Q1348.81 1553.75 1350.61 1557.31 Q1352.44 1560.86 1356.05 1560.86 Q1359.69 1560.86 1361.49 1557.31 Q1363.32 1553.75 1363.32 1546.64 Q1363.32 1539.51 1361.49 1535.97 Q1359.69 1532.41 1356.05 1532.41 M1356.05 1528.7 Q1361.86 1528.7 1364.92 1533.31 Q1368 1537.89 1368 1546.64 Q1368 1555.37 1364.92 1559.98 Q1361.86 1564.56 1356.05 1564.56 Q1350.24 1564.56 1347.16 1559.98 Q1344.11 1555.37 1344.11 1546.64 Q1344.11 1537.89 1347.16 1533.31 Q1350.24 1528.7 1356.05 1528.7 Z" fill="#000000" fill-rule="evenodd" fill-opacity="1" /><path clip-path="url(#clip200)" d="M1386.21 1532.41 Q1382.6 1532.41 1380.77 1535.97 Q1378.97 1539.51 1378.97 1546.64 Q1378.97 1553.75 1380.77 1557.31 Q1382.6 1560.86 1386.21 1560.86 Q1389.85 1560.86 1391.65 1557.31 Q1393.48 1553.75 1393.48 1546.64 Q1393.48 1539.51 1391.65 1535.97 Q1389.85 1532.41 1386.21 1532.41 M1386.21 1528.7 Q1392.02 1528.7 1395.08 1533.31 Q1398.16 1537.89 1398.16 1546.64 Q1398.16 1555.37 1395.08 1559.98 Q1392.02 1564.56 1386.21 1564.56 Q1380.4 1564.56 1377.32 1559.98 Q1374.27 1555.37 1374.27 1546.64 Q1374.27 1537.89 1377.32 1533.31 Q1380.4 1528.7 1386.21 1528.7 Z" fill="#000000" fill-rule="evenodd" fill-opacity="1" /><path clip-path="url(#clip200)" d="M1865.33 1559.95 L1872.97 1559.95 L1872.97 1533.59 L1864.66 1535.25 L1864.66 1530.99 L1872.92 1529.33 L1877.6 1529.33 L1877.6 1559.95 L1885.24 1559.95 L1885.24 1563.89 L1865.33 1563.89 L1865.33 1559.95 Z" fill="#000000" fill-rule="evenodd" fill-opacity="1" /><path clip-path="url(#clip200)" d="M1894.73 1529.33 L1913.08 1529.33 L1913.08 1533.26 L1899.01 1533.26 L1899.01 1541.74 Q1900.03 1541.39 1901.05 1541.23 Q1902.06 1541.04 1903.08 1541.04 Q1908.87 1541.04 1912.25 1544.21 Q1915.63 1547.38 1915.63 1552.8 Q1915.63 1558.38 1912.16 1561.48 Q1908.68 1564.56 1902.37 1564.56 Q1900.19 1564.56 1897.92 1564.19 Q1895.68 1563.82 1893.27 1563.08 L1893.27 1558.38 Q1895.35 1559.51 1897.57 1560.07 Q1899.8 1560.62 1902.27 1560.62 Q1906.28 1560.62 1908.62 1558.52 Q1910.95 1556.41 1910.95 1552.8 Q1910.95 1549.19 1908.62 1547.08 Q1906.28 1544.98 1902.27 1544.98 Q1900.4 1544.98 1898.52 1545.39 Q1896.67 1545.81 1894.73 1546.69 L1894.73 1529.33 Z" fill="#000000" fill-rule="evenodd" fill-opacity="1" /><path clip-path="url(#clip200)" d="M1934.84 1532.41 Q1931.23 1532.41 1929.4 1535.97 Q1927.6 1539.51 1927.6 1546.64 Q1927.6 1553.75 1929.4 1557.31 Q1931.23 1560.86 1934.84 1560.86 Q1938.48 1560.86 1940.28 1557.31 Q1942.11 1553.75 1942.11 1546.64 Q1942.11 1539.51 1940.28 1535.97 Q1938.48 1532.41 1934.84 1532.41 M1934.84 1528.7 Q1940.65 1528.7 1943.71 1533.31 Q1946.79 1537.89 1946.79 1546.64 Q1946.79 1555.37 1943.71 1559.98 Q1940.65 1564.56 1934.84 1564.56 Q1929.03 1564.56 1925.95 1559.98 Q1922.9 1555.37 1922.9 1546.64 Q1922.9 1537.89 1925.95 1533.31 Q1929.03 1528.7 1934.84 1528.7 Z" fill="#000000" fill-rule="evenodd" fill-opacity="1" /><path clip-path="url(#clip200)" d="M2418.04 1559.95 L2434.36 1559.95 L2434.36 1563.89 L2412.42 1563.89 L2412.42 1559.95 Q2415.08 1557.2 2419.66 1552.57 Q2424.27 1547.92 2425.45 1546.57 Q2427.7 1544.05 2428.58 1542.31 Q2429.48 1540.55 2429.48 1538.86 Q2429.48 1536.11 2427.53 1534.37 Q2425.61 1532.64 2422.51 1532.64 Q2420.31 1532.64 2417.86 1533.4 Q2415.43 1534.17 2412.65 1535.72 L2412.65 1530.99 Q2415.47 1529.86 2417.93 1529.28 Q2420.38 1528.7 2422.42 1528.7 Q2427.79 1528.7 2430.98 1531.39 Q2434.18 1534.07 2434.18 1538.56 Q2434.18 1540.69 2433.37 1542.61 Q2432.58 1544.51 2430.47 1547.11 Q2429.9 1547.78 2426.79 1550.99 Q2423.69 1554.19 2418.04 1559.95 Z" fill="#000000" fill-rule="evenodd" fill-opacity="1" /><path clip-path="url(#clip200)" d="M2454.18 1532.41 Q2450.57 1532.41 2448.74 1535.97 Q2446.93 1539.51 2446.93 1546.64 Q2446.93 1553.75 2448.74 1557.31 Q2450.57 1560.86 2454.18 1560.86 Q2457.81 1560.86 2459.62 1557.31 Q2461.45 1553.75 2461.45 1546.64 Q2461.45 1539.51 2459.62 1535.97 Q2457.81 1532.41 2454.18 1532.41 M2454.18 1528.7 Q2459.99 1528.7 2463.04 1533.31 Q2466.12 1537.89 2466.12 1546.64 Q2466.12 1555.37 2463.04 1559.98 Q2459.99 1564.56 2454.18 1564.56 Q2448.37 1564.56 2445.29 1559.98 Q2442.23 1555.37 2442.23 1546.64 Q2442.23 1537.89 2445.29 1533.31 Q2448.37 1528.7 2454.18 1528.7 Z" fill="#000000" fill-rule="evenodd" fill-opacity="1" /><path clip-path="url(#clip200)" d="M2484.34 1532.41 Q2480.73 1532.41 2478.9 1535.97 Q2477.09 1539.51 2477.09 1546.64 Q2477.09 1553.75 2478.9 1557.31 Q2480.73 1560.86 2484.34 1560.86 Q2487.97 1560.86 2489.78 1557.31 Q2491.61 1553.75 2491.61 1546.64 Q2491.61 1539.51 2489.78 1535.97 Q2487.97 1532.41 2484.34 1532.41 M2484.34 1528.7 Q2490.15 1528.7 2493.2 1533.31 Q2496.28 1537.89 2496.28 1546.64 Q2496.28 1555.37 2493.2 1559.98 Q2490.15 1564.56 2484.34 1564.56 Q2478.53 1564.56 2475.45 1559.98 Q2472.39 1555.37 2472.39 1546.64 Q2472.39 1537.89 2475.45 1533.31 Q2478.53 1528.7 2484.34 1528.7 Z" fill="#000000" fill-rule="evenodd" fill-opacity="1" /><path clip-path="url(#clip200)" d="M2966.67 1559.95 L2982.99 1559.95 L2982.99 1563.89 L2961.05 1563.89 L2961.05 1559.95 Q2963.71 1557.2 2968.29 1552.57 Q2972.9 1547.92 2974.08 1546.57 Q2976.33 1544.05 2977.2 1542.31 Q2978.11 1540.55 2978.11 1538.86 Q2978.11 1536.11 2976.16 1534.37 Q2974.24 1532.64 2971.14 1532.64 Q2968.94 1532.64 2966.49 1533.4 Q2964.06 1534.17 2961.28 1535.72 L2961.28 1530.99 Q2964.1 1529.86 2966.56 1529.28 Q2969.01 1528.7 2971.05 1528.7 Q2976.42 1528.7 2979.61 1531.39 Q2982.81 1534.07 2982.81 1538.56 Q2982.81 1540.69 2982 1542.61 Q2981.21 1544.51 2979.1 1547.11 Q2978.52 1547.78 2975.42 1550.99 Q2972.32 1554.19 2966.67 1559.95 Z" fill="#000000" fill-rule="evenodd" fill-opacity="1" /><path clip-path="url(#clip200)" d="M2992.85 1529.33 L3011.21 1529.33 L3011.21 1533.26 L2997.14 1533.26 L2997.14 1541.74 Q2998.15 1541.39 2999.17 1541.23 Q3000.19 1541.04 3001.21 1541.04 Q3007 1541.04 3010.38 1544.21 Q3013.76 1547.38 3013.76 1552.8 Q3013.76 1558.38 3010.28 1561.48 Q3006.81 1564.56 3000.49 1564.56 Q2998.32 1564.56 2996.05 1564.19 Q2993.8 1563.82 2991.39 1563.08 L2991.39 1558.38 Q2993.48 1559.51 2995.7 1560.07 Q2997.92 1560.62 3000.4 1560.62 Q3004.4 1560.62 3006.74 1558.52 Q3009.08 1556.41 3009.08 1552.8 Q3009.08 1549.19 3006.74 1547.08 Q3004.4 1544.98 3000.4 1544.98 Q2998.52 1544.98 2996.65 1545.39 Q2994.8 1545.81 2992.85 1546.69 L2992.85 1529.33 Z" fill="#000000" fill-rule="evenodd" fill-opacity="1" /><path clip-path="url(#clip200)" d="M3032.97 1532.41 Q3029.36 1532.41 3027.53 1535.97 Q3025.72 1539.51 3025.72 1546.64 Q3025.72 1553.75 3027.53 1557.31 Q3029.36 1560.86 3032.97 1560.86 Q3036.6 1560.86 3038.41 1557.31 Q3040.24 1553.75 3040.24 1546.64 Q3040.24 1539.51 3038.41 1535.97 Q3036.6 1532.41 3032.97 1532.41 M3032.97 1528.7 Q3038.78 1528.7 3041.83 1533.31 Q3044.91 1537.89 3044.91 1546.64 Q3044.91 1555.37 3041.83 1559.98 Q3038.78 1564.56 3032.97 1564.56 Q3027.16 1564.56 3024.08 1559.98 Q3021.02 1555.37 3021.02 1546.64 Q3021.02 1537.89 3024.08 1533.31 Q3027.16 1528.7 3032.97 1528.7 Z" fill="#000000" fill-rule="evenodd" fill-opacity="1" /><polyline clip-path="url(#clip203)" style="stroke:#000000; stroke-linecap:butt; stroke-linejoin:round; stroke-width:2; stroke-opacity:0.1; fill:none" points="
  186.867,1445.62 3152.76,1445.62 
  "/>
<polyline clip-path="url(#clip203)" style="stroke:#000000; stroke-linecap:butt; stroke-linejoin:round; stroke-width:2; stroke-opacity:0.1; fill:none" points="
  186.867,1306.01 3152.76,1306.01 
  "/>
<polyline clip-path="url(#clip203)" style="stroke:#000000; stroke-linecap:butt; stroke-linejoin:round; stroke-width:2; stroke-opacity:0.1; fill:none" points="
  186.867,1166.4 3152.76,1166.4 
  "/>
<polyline clip-path="url(#clip203)" style="stroke:#000000; stroke-linecap:butt; stroke-linejoin:round; stroke-width:2; stroke-opacity:0.1; fill:none" points="
  186.867,1026.79 3152.76,1026.79 
  "/>
<polyline clip-path="url(#clip200)" style="stroke:#000000; stroke-linecap:butt; stroke-linejoin:round; stroke-width:4; stroke-opacity:1; fill:none" points="
  186.867,1495.09 186.867,908.352 
  "/>
<polyline clip-path="url(#clip200)" style="stroke:#000000; stroke-linecap:butt; stroke-linejoin:round; stroke-width:4; stroke-opacity:1; fill:none" points="
  186.867,1445.62 205.764,1445.62 
  "/>
<polyline clip-path="url(#clip200)" style="stroke:#000000; stroke-linecap:butt; stroke-linejoin:round; stroke-width:4; stroke-opacity:1; fill:none" points="
  186.867,1306.01 205.764,1306.01 
  "/>
<polyline clip-path="url(#clip200)" style="stroke:#000000; stroke-linecap:butt; stroke-linejoin:round; stroke-width:4; stroke-opacity:1; fill:none" points="
  186.867,1166.4 205.764,1166.4 
  "/>
<polyline clip-path="url(#clip200)" style="stroke:#000000; stroke-linecap:butt; stroke-linejoin:round; stroke-width:4; stroke-opacity:1; fill:none" points="
  186.867,1026.79 205.764,1026.79 
  "/>
<path clip-path="url(#clip200)" d="M46.9921 1446.08 L76.6679 1446.08 L76.6679 1450.01 L46.9921 1450.01 L46.9921 1446.08 Z" fill="#000000" fill-rule="evenodd" fill-opacity="1" /><path clip-path="url(#clip200)" d="M87.5706 1458.97 L95.2095 1458.97 L95.2095 1432.6 L86.8993 1434.27 L86.8993 1430.01 L95.1632 1428.34 L99.8391 1428.34 L99.8391 1458.97 L107.478 1458.97 L107.478 1462.9 L87.5706 1462.9 L87.5706 1458.97 Z" fill="#000000" fill-rule="evenodd" fill-opacity="1" /><path clip-path="url(#clip200)" d="M126.922 1431.42 Q123.311 1431.42 121.482 1434.99 Q119.677 1438.53 119.677 1445.66 Q119.677 1452.77 121.482 1456.33 Q123.311 1459.87 126.922 1459.87 Q130.556 1459.87 132.362 1456.33 Q134.191 1452.77 134.191 1445.66 Q134.191 1438.53 132.362 1434.99 Q130.556 1431.42 126.922 1431.42 M126.922 1427.72 Q132.732 1427.72 135.788 1432.33 Q138.867 1436.91 138.867 1445.66 Q138.867 1454.39 135.788 1458.99 Q132.732 1463.58 126.922 1463.58 Q121.112 1463.58 118.033 1458.99 Q114.978 1454.39 114.978 1445.66 Q114.978 1436.91 118.033 1432.33 Q121.112 1427.72 126.922 1427.72 Z" fill="#000000" fill-rule="evenodd" fill-opacity="1" /><path clip-path="url(#clip200)" d="M78.1494 1306.46 L107.825 1306.46 L107.825 1310.4 L78.1494 1310.4 L78.1494 1306.46 Z" fill="#000000" fill-rule="evenodd" fill-opacity="1" /><path clip-path="url(#clip200)" d="M117.964 1288.73 L136.32 1288.73 L136.32 1292.67 L122.246 1292.67 L122.246 1301.14 Q123.265 1300.79 124.283 1300.63 Q125.302 1300.44 126.32 1300.44 Q132.107 1300.44 135.487 1303.62 Q138.867 1306.79 138.867 1312.2 Q138.867 1317.78 135.394 1320.88 Q131.922 1323.96 125.603 1323.96 Q123.427 1323.96 121.158 1323.59 Q118.913 1323.22 116.506 1322.48 L116.506 1317.78 Q118.589 1318.92 120.811 1319.47 Q123.033 1320.03 125.51 1320.03 Q129.515 1320.03 131.853 1317.92 Q134.191 1315.81 134.191 1312.2 Q134.191 1308.59 131.853 1306.49 Q129.515 1304.38 125.51 1304.38 Q123.635 1304.38 121.76 1304.8 Q119.908 1305.21 117.964 1306.09 L117.964 1288.73 Z" fill="#000000" fill-rule="evenodd" fill-opacity="1" /><path clip-path="url(#clip200)" d="M126.922 1152.2 Q123.311 1152.2 121.482 1155.76 Q119.677 1159.3 119.677 1166.43 Q119.677 1173.54 121.482 1177.11 Q123.311 1180.65 126.922 1180.65 Q130.556 1180.65 132.362 1177.11 Q134.191 1173.54 134.191 1166.43 Q134.191 1159.3 132.362 1155.76 Q130.556 1152.2 126.922 1152.2 M126.922 1148.49 Q132.732 1148.49 135.788 1153.1 Q138.867 1157.68 138.867 1166.43 Q138.867 1175.16 135.788 1179.77 Q132.732 1184.35 126.922 1184.35 Q121.112 1184.35 118.033 1179.77 Q114.978 1175.16 114.978 1166.43 Q114.978 1157.68 118.033 1153.1 Q121.112 1148.49 126.922 1148.49 Z" fill="#000000" fill-rule="evenodd" fill-opacity="1" /><path clip-path="url(#clip200)" d="M117.964 1009.51 L136.32 1009.51 L136.32 1013.44 L122.246 1013.44 L122.246 1021.91 Q123.265 1021.57 124.283 1021.4 Q125.302 1021.22 126.32 1021.22 Q132.107 1021.22 135.487 1024.39 Q138.867 1027.56 138.867 1032.98 Q138.867 1038.56 135.394 1041.66 Q131.922 1044.74 125.603 1044.74 Q123.427 1044.74 121.158 1044.37 Q118.913 1044 116.506 1043.26 L116.506 1038.56 Q118.589 1039.69 120.811 1040.25 Q123.033 1040.8 125.51 1040.8 Q129.515 1040.8 131.853 1038.7 Q134.191 1036.59 134.191 1032.98 Q134.191 1029.37 131.853 1027.26 Q129.515 1025.15 125.51 1025.15 Q123.635 1025.15 121.76 1025.57 Q119.908 1025.99 117.964 1026.87 L117.964 1009.51 Z" fill="#000000" fill-rule="evenodd" fill-opacity="1" /><path clip-path="url(#clip200)" d="M1186.46 834.173 Q1185.2 833.444 1183.7 833.12 Q1182.24 832.756 1180.46 832.756 Q1174.14 832.756 1170.74 836.888 Q1167.38 840.979 1167.38 848.676 L1167.38 872.576 L1159.88 872.576 L1159.88 827.206 L1167.38 827.206 L1167.38 834.254 Q1169.73 830.123 1173.49 828.138 Q1177.26 826.112 1182.65 826.112 Q1183.42 826.112 1184.35 826.234 Q1185.28 826.315 1186.42 826.517 L1186.46 834.173 Z" fill="#000000" fill-rule="evenodd" fill-opacity="1" /><path clip-path="url(#clip200)" d="M1231.26 848.028 L1231.26 851.673 L1196.99 851.673 Q1197.48 859.37 1201.61 863.421 Q1205.78 867.431 1213.19 867.431 Q1217.49 867.431 1221.5 866.378 Q1225.55 865.325 1229.52 863.218 L1229.52 870.267 Q1225.51 871.968 1221.3 872.86 Q1217.08 873.751 1212.75 873.751 Q1201.89 873.751 1195.53 867.431 Q1189.21 861.112 1189.21 850.337 Q1189.21 839.197 1195.21 832.675 Q1201.24 826.112 1211.45 826.112 Q1220.61 826.112 1225.91 832.026 Q1231.26 837.9 1231.26 848.028 M1223.81 845.84 Q1223.73 839.723 1220.36 836.077 Q1217.04 832.432 1211.53 832.432 Q1205.29 832.432 1201.53 835.956 Q1197.8 839.48 1197.23 845.881 L1223.81 845.84 Z" fill="#000000" fill-rule="evenodd" fill-opacity="1" /><path clip-path="url(#clip200)" d="M1276.14 828.948 L1276.14 835.915 Q1272.98 834.173 1269.78 833.323 Q1266.62 832.432 1263.38 832.432 Q1256.13 832.432 1252.12 837.05 Q1248.11 841.627 1248.11 849.931 Q1248.11 858.236 1252.12 862.854 Q1256.13 867.431 1263.38 867.431 Q1266.62 867.431 1269.78 866.581 Q1272.98 865.689 1276.14 863.948 L1276.14 870.834 Q1273.03 872.292 1269.66 873.022 Q1266.34 873.751 1262.57 873.751 Q1252.33 873.751 1246.29 867.31 Q1240.25 860.869 1240.25 849.931 Q1240.25 838.832 1246.33 832.472 Q1252.45 826.112 1263.06 826.112 Q1266.5 826.112 1269.78 826.841 Q1273.07 827.53 1276.14 828.948 Z" fill="#000000" fill-rule="evenodd" fill-opacity="1" /><path clip-path="url(#clip200)" d="M1306.69 832.432 Q1300.69 832.432 1297.21 837.131 Q1293.73 841.789 1293.73 849.931 Q1293.73 858.074 1297.17 862.773 Q1300.65 867.431 1306.69 867.431 Q1312.64 867.431 1316.13 862.732 Q1319.61 858.033 1319.61 849.931 Q1319.61 841.87 1316.13 837.171 Q1312.64 832.432 1306.69 832.432 M1306.69 826.112 Q1316.41 826.112 1321.96 832.432 Q1327.51 838.751 1327.51 849.931 Q1327.51 861.071 1321.96 867.431 Q1316.41 873.751 1306.69 873.751 Q1296.93 873.751 1291.38 867.431 Q1285.87 861.071 1285.87 849.931 Q1285.87 838.751 1291.38 832.432 Q1296.93 826.112 1306.69 826.112 Z" fill="#000000" fill-rule="evenodd" fill-opacity="1" /><path clip-path="url(#clip200)" d="M1377.58 845.192 L1377.58 872.576 L1370.13 872.576 L1370.13 845.435 Q1370.13 838.994 1367.61 835.794 Q1365.1 832.594 1360.08 832.594 Q1354.04 832.594 1350.56 836.442 Q1347.08 840.29 1347.08 846.934 L1347.08 872.576 L1339.58 872.576 L1339.58 827.206 L1347.08 827.206 L1347.08 834.254 Q1349.75 830.163 1353.35 828.138 Q1357 826.112 1361.74 826.112 Q1369.56 826.112 1373.57 830.973 Q1377.58 835.794 1377.58 845.192 Z" fill="#000000" fill-rule="evenodd" fill-opacity="1" /><path clip-path="url(#clip200)" d="M1421.37 828.543 L1421.37 835.591 Q1418.21 833.971 1414.81 833.161 Q1411.4 832.351 1407.76 832.351 Q1402.21 832.351 1399.41 834.052 Q1396.66 835.753 1396.66 839.156 Q1396.66 841.749 1398.64 843.247 Q1400.63 844.706 1406.62 846.043 L1409.18 846.61 Q1417.12 848.311 1420.44 851.43 Q1423.8 854.509 1423.8 860.059 Q1423.8 866.378 1418.78 870.064 Q1413.79 873.751 1405.04 873.751 Q1401.4 873.751 1397.43 873.022 Q1393.5 872.333 1389.12 870.915 L1389.12 863.218 Q1393.26 865.365 1397.27 866.459 Q1401.28 867.512 1405.21 867.512 Q1410.47 867.512 1413.31 865.73 Q1416.14 863.907 1416.14 860.626 Q1416.14 857.588 1414.08 855.967 Q1412.05 854.347 1405.13 852.848 L1402.53 852.24 Q1395.61 850.782 1392.53 847.784 Q1389.45 844.746 1389.45 839.48 Q1389.45 833.08 1393.99 829.596 Q1398.52 826.112 1406.87 826.112 Q1411 826.112 1414.64 826.72 Q1418.29 827.327 1421.37 828.543 Z" fill="#000000" fill-rule="evenodd" fill-opacity="1" /><path clip-path="url(#clip200)" d="M1443.04 814.324 L1443.04 827.206 L1458.39 827.206 L1458.39 832.999 L1443.04 832.999 L1443.04 857.628 Q1443.04 863.178 1444.54 864.758 Q1446.08 866.338 1450.74 866.338 L1458.39 866.338 L1458.39 872.576 L1450.74 872.576 Q1442.11 872.576 1438.83 869.376 Q1435.55 866.135 1435.55 857.628 L1435.55 832.999 L1430.08 832.999 L1430.08 827.206 L1435.55 827.206 L1435.55 814.324 L1443.04 814.324 Z" fill="#000000" fill-rule="evenodd" fill-opacity="1" /><path clip-path="url(#clip200)" d="M1494.49 834.173 Q1493.23 833.444 1491.73 833.12 Q1490.28 832.756 1488.49 832.756 Q1482.17 832.756 1478.77 836.888 Q1475.41 840.979 1475.41 848.676 L1475.41 872.576 L1467.91 872.576 L1467.91 827.206 L1475.41 827.206 L1475.41 834.254 Q1477.76 830.123 1481.53 828.138 Q1485.29 826.112 1490.68 826.112 Q1491.45 826.112 1492.38 826.234 Q1493.31 826.315 1494.45 826.517 L1494.49 834.173 Z" fill="#000000" fill-rule="evenodd" fill-opacity="1" /><path clip-path="url(#clip200)" d="M1501.54 854.671 L1501.54 827.206 L1508.99 827.206 L1508.99 854.387 Q1508.99 860.828 1511.5 864.069 Q1514.01 867.269 1519.04 867.269 Q1525.07 867.269 1528.56 863.421 Q1532.08 859.573 1532.08 852.929 L1532.08 827.206 L1539.53 827.206 L1539.53 872.576 L1532.08 872.576 L1532.08 865.608 Q1529.37 869.74 1525.76 871.766 Q1522.2 873.751 1517.46 873.751 Q1509.64 873.751 1505.59 868.89 Q1501.54 864.029 1501.54 854.671 M1520.29 826.112 L1520.29 826.112 Z" fill="#000000" fill-rule="evenodd" fill-opacity="1" /><path clip-path="url(#clip200)" d="M1587.54 828.948 L1587.54 835.915 Q1584.38 834.173 1581.18 833.323 Q1578.02 832.432 1574.78 832.432 Q1567.53 832.432 1563.52 837.05 Q1559.51 841.627 1559.51 849.931 Q1559.51 858.236 1563.52 862.854 Q1567.53 867.431 1574.78 867.431 Q1578.02 867.431 1581.18 866.581 Q1584.38 865.689 1587.54 863.948 L1587.54 870.834 Q1584.42 872.292 1581.06 873.022 Q1577.73 873.751 1573.97 873.751 Q1563.72 873.751 1557.68 867.31 Q1551.65 860.869 1551.65 849.931 Q1551.65 838.832 1557.72 832.472 Q1563.84 826.112 1574.45 826.112 Q1577.9 826.112 1581.18 826.841 Q1584.46 827.53 1587.54 828.948 Z" fill="#000000" fill-rule="evenodd" fill-opacity="1" /><path clip-path="url(#clip200)" d="M1607.87 814.324 L1607.87 827.206 L1623.23 827.206 L1623.23 832.999 L1607.87 832.999 L1607.87 857.628 Q1607.87 863.178 1609.37 864.758 Q1610.91 866.338 1615.57 866.338 L1623.23 866.338 L1623.23 872.576 L1615.57 872.576 Q1606.94 872.576 1603.66 869.376 Q1600.38 866.135 1600.38 857.628 L1600.38 832.999 L1594.91 832.999 L1594.91 827.206 L1600.38 827.206 L1600.38 814.324 L1607.87 814.324 Z" fill="#000000" fill-rule="evenodd" fill-opacity="1" /><path clip-path="url(#clip200)" d="M1680.02 849.769 Q1670.99 849.769 1667.5 851.835 Q1664.02 853.901 1664.02 858.884 Q1664.02 862.854 1666.61 865.203 Q1669.24 867.512 1673.74 867.512 Q1679.94 867.512 1683.67 863.137 Q1687.43 858.722 1687.43 851.43 L1687.43 849.769 L1680.02 849.769 M1694.89 846.691 L1694.89 872.576 L1687.43 872.576 L1687.43 865.689 Q1684.88 869.821 1681.07 871.806 Q1677.26 873.751 1671.76 873.751 Q1664.79 873.751 1660.66 869.862 Q1656.56 865.933 1656.56 859.37 Q1656.56 851.714 1661.67 847.825 Q1666.81 843.936 1676.98 843.936 L1687.43 843.936 L1687.43 843.207 Q1687.43 838.062 1684.03 835.267 Q1680.67 832.432 1674.55 832.432 Q1670.66 832.432 1666.98 833.363 Q1663.29 834.295 1659.89 836.158 L1659.89 829.272 Q1663.98 827.692 1667.83 826.922 Q1671.67 826.112 1675.32 826.112 Q1685.16 826.112 1690.03 831.216 Q1694.89 836.32 1694.89 846.691 Z" fill="#000000" fill-rule="evenodd" fill-opacity="1" /><path clip-path="url(#clip200)" d="M1747.95 845.192 L1747.95 872.576 L1740.5 872.576 L1740.5 845.435 Q1740.5 838.994 1737.99 835.794 Q1735.48 832.594 1730.45 832.594 Q1724.42 832.594 1720.93 836.442 Q1717.45 840.29 1717.45 846.934 L1717.45 872.576 L1709.96 872.576 L1709.96 827.206 L1717.45 827.206 L1717.45 834.254 Q1720.12 830.163 1723.73 828.138 Q1727.37 826.112 1732.11 826.112 Q1739.93 826.112 1743.94 830.973 Q1747.95 835.794 1747.95 845.192 Z" fill="#000000" fill-rule="evenodd" fill-opacity="1" /><path clip-path="url(#clip200)" d="M1792.68 834.092 L1792.68 809.544 L1800.13 809.544 L1800.13 872.576 L1792.68 872.576 L1792.68 865.77 Q1790.33 869.821 1786.72 871.806 Q1783.16 873.751 1778.13 873.751 Q1769.91 873.751 1764.72 867.188 Q1759.58 860.626 1759.58 849.931 Q1759.58 839.237 1764.72 832.675 Q1769.91 826.112 1778.13 826.112 Q1783.16 826.112 1786.72 828.097 Q1790.33 830.042 1792.68 834.092 M1767.28 849.931 Q1767.28 858.155 1770.64 862.854 Q1774.04 867.512 1779.96 867.512 Q1785.87 867.512 1789.27 862.854 Q1792.68 858.155 1792.68 849.931 Q1792.68 841.708 1789.27 837.05 Q1785.87 832.351 1779.96 832.351 Q1774.04 832.351 1770.64 837.05 Q1767.28 841.708 1767.28 849.931 Z" fill="#000000" fill-rule="evenodd" fill-opacity="1" /><path clip-path="url(#clip200)" d="M1868.14 834.173 Q1866.89 833.444 1865.39 833.12 Q1863.93 832.756 1862.15 832.756 Q1855.83 832.756 1852.43 836.888 Q1849.06 840.979 1849.06 848.676 L1849.06 872.576 L1841.57 872.576 L1841.57 827.206 L1849.06 827.206 L1849.06 834.254 Q1851.41 830.123 1855.18 828.138 Q1858.95 826.112 1864.34 826.112 Q1865.11 826.112 1866.04 826.234 Q1866.97 826.315 1868.1 826.517 L1868.14 834.173 Z" fill="#000000" fill-rule="evenodd" fill-opacity="1" /><path clip-path="url(#clip200)" d="M1912.95 848.028 L1912.95 851.673 L1878.68 851.673 Q1879.16 859.37 1883.29 863.421 Q1887.47 867.431 1894.88 867.431 Q1899.17 867.431 1903.18 866.378 Q1907.23 865.325 1911.2 863.218 L1911.2 870.267 Q1907.19 871.968 1902.98 872.86 Q1898.77 873.751 1894.43 873.751 Q1883.58 873.751 1877.22 867.431 Q1870.9 861.112 1870.9 850.337 Q1870.9 839.197 1876.89 832.675 Q1882.93 826.112 1893.14 826.112 Q1902.29 826.112 1907.6 832.026 Q1912.95 837.9 1912.95 848.028 M1905.49 845.84 Q1905.41 839.723 1902.05 836.077 Q1898.73 832.432 1893.22 832.432 Q1886.98 832.432 1883.21 835.956 Q1879.49 839.48 1878.92 845.881 L1905.49 845.84 Z" fill="#000000" fill-rule="evenodd" fill-opacity="1" /><path clip-path="url(#clip200)" d="M1955.04 834.092 L1955.04 809.544 L1962.49 809.544 L1962.49 872.576 L1955.04 872.576 L1955.04 865.77 Q1952.69 869.821 1949.08 871.806 Q1945.52 873.751 1940.49 873.751 Q1932.27 873.751 1927.08 867.188 Q1921.94 860.626 1921.94 849.931 Q1921.94 839.237 1927.08 832.675 Q1932.27 826.112 1940.49 826.112 Q1945.52 826.112 1949.08 828.097 Q1952.69 830.042 1955.04 834.092 M1929.64 849.931 Q1929.64 858.155 1933 862.854 Q1936.4 867.512 1942.32 867.512 Q1948.23 867.512 1951.63 862.854 Q1955.04 858.155 1955.04 849.931 Q1955.04 841.708 1951.63 837.05 Q1948.23 832.351 1942.32 832.351 Q1936.4 832.351 1933 837.05 Q1929.64 841.708 1929.64 849.931 Z" fill="#000000" fill-rule="evenodd" fill-opacity="1" /><path clip-path="url(#clip200)" d="M1998.46 849.769 Q1989.43 849.769 1985.94 851.835 Q1982.46 853.901 1982.46 858.884 Q1982.46 862.854 1985.05 865.203 Q1987.69 867.512 1992.18 867.512 Q1998.38 867.512 2002.11 863.137 Q2005.87 858.722 2005.87 851.43 L2005.87 849.769 L1998.46 849.769 M2013.33 846.691 L2013.33 872.576 L2005.87 872.576 L2005.87 865.689 Q2003.32 869.821 1999.51 871.806 Q1995.71 873.751 1990.2 873.751 Q1983.23 873.751 1979.1 869.862 Q1975.01 865.933 1975.01 859.37 Q1975.01 851.714 1980.11 847.825 Q1985.26 843.936 1995.42 843.936 L2005.87 843.936 L2005.87 843.207 Q2005.87 838.062 2002.47 835.267 Q1999.11 832.432 1992.99 832.432 Q1989.1 832.432 1985.42 833.363 Q1981.73 834.295 1978.33 836.158 L1978.33 829.272 Q1982.42 827.692 1986.27 826.922 Q1990.12 826.112 1993.76 826.112 Q2003.61 826.112 2008.47 831.216 Q2013.33 836.32 2013.33 846.691 Z" fill="#000000" fill-rule="evenodd" fill-opacity="1" /><path clip-path="url(#clip200)" d="M2036.05 814.324 L2036.05 827.206 L2051.41 827.206 L2051.41 832.999 L2036.05 832.999 L2036.05 857.628 Q2036.05 863.178 2037.55 864.758 Q2039.09 866.338 2043.75 866.338 L2051.41 866.338 L2051.41 872.576 L2043.75 872.576 Q2035.12 872.576 2031.84 869.376 Q2028.56 866.135 2028.56 857.628 L2028.56 832.999 L2023.09 832.999 L2023.09 827.206 L2028.56 827.206 L2028.56 814.324 L2036.05 814.324 Z" fill="#000000" fill-rule="evenodd" fill-opacity="1" /><path clip-path="url(#clip200)" d="M2060.44 854.671 L2060.44 827.206 L2067.89 827.206 L2067.89 854.387 Q2067.89 860.828 2070.41 864.069 Q2072.92 867.269 2077.94 867.269 Q2083.98 867.269 2087.46 863.421 Q2090.98 859.573 2090.98 852.929 L2090.98 827.206 L2098.44 827.206 L2098.44 872.576 L2090.98 872.576 L2090.98 865.608 Q2088.27 869.74 2084.66 871.766 Q2081.1 873.751 2076.36 873.751 Q2068.54 873.751 2064.49 868.89 Q2060.44 864.029 2060.44 854.671 M2079.2 826.112 L2079.2 826.112 Z" fill="#000000" fill-rule="evenodd" fill-opacity="1" /><path clip-path="url(#clip200)" d="M2149.11 835.915 Q2151.91 830.892 2155.8 828.502 Q2159.69 826.112 2164.95 826.112 Q2172.04 826.112 2175.89 831.095 Q2179.74 836.037 2179.74 845.192 L2179.74 872.576 L2172.24 872.576 L2172.24 845.435 Q2172.24 838.913 2169.94 835.753 Q2167.63 832.594 2162.89 832.594 Q2157.09 832.594 2153.73 836.442 Q2150.37 840.29 2150.37 846.934 L2150.37 872.576 L2142.88 872.576 L2142.88 845.435 Q2142.88 838.872 2140.57 835.753 Q2138.26 832.594 2133.44 832.594 Q2127.73 832.594 2124.36 836.482 Q2121 840.331 2121 846.934 L2121 872.576 L2113.51 872.576 L2113.51 827.206 L2121 827.206 L2121 834.254 Q2123.55 830.082 2127.12 828.097 Q2130.68 826.112 2135.58 826.112 Q2140.53 826.112 2143.97 828.624 Q2147.45 831.135 2149.11 835.915 Z" fill="#000000" fill-rule="evenodd" fill-opacity="1" /><polyline clip-path="url(#clip203)" style="stroke:#ff0000; stroke-linecap:butt; stroke-linejoin:round; stroke-width:8; stroke-opacity:1; fill:none" points="
  270.807,1166.4 281.779,1166.4 292.752,1166.4 303.725,1166.4 314.697,1166.4 325.67,1166.4 336.642,1166.4 347.615,1166.4 358.588,1166.4 369.56,1166.4 
  380.533,1166.4 391.505,1166.4 402.478,1166.4 413.45,1166.4 424.423,1166.4 435.396,1166.4 446.368,1166.4 457.341,1166.4 468.313,1166.4 479.286,1166.4 
  490.259,1166.4 501.231,1166.4 512.204,1166.4 523.176,1166.4 534.149,1166.4 545.121,1166.4 556.094,1166.4 567.067,1166.4 578.039,1166.4 589.012,1166.4 
  599.984,1166.4 610.957,1166.4 621.93,1166.4 632.902,1166.4 643.875,1166.4 654.847,1166.4 665.82,1166.4 676.792,1166.4 687.765,1166.4 698.738,1166.4 
  709.71,1166.4 720.683,1166.4 731.655,1166.4 742.628,1166.4 753.601,1166.4 764.573,1166.4 775.546,1166.4 786.518,1166.4 797.491,1166.4 808.463,1166.4 
  819.436,1166.4 830.409,1166.4 841.381,1166.4 852.354,1166.4 863.326,1166.4 874.299,1166.4 885.272,1166.4 896.244,1166.4 907.217,1166.4 918.189,1166.4 
  929.162,1166.4 940.134,1166.4 951.107,1166.4 962.08,1166.4 973.052,1166.4 984.025,1166.4 994.997,1166.4 1005.97,1166.4 1016.94,1166.4 1027.92,1166.4 
  1038.89,1166.4 1049.86,1166.4 1060.83,1166.4 1071.81,1166.4 1082.78,1166.4 1093.75,1166.4 1104.72,1166.4 1115.7,1166.4 1126.67,1166.4 1137.64,1166.4 
  1148.61,1166.4 1159.59,1166.4 1170.56,1166.4 1181.53,1166.4 1192.5,1166.4 1203.48,1166.4 1214.45,1166.4 1225.42,1166.4 1236.39,1166.4 1247.37,1166.4 
  1258.34,1166.4 1269.31,1166.4 1280.28,1166.4 1291.26,1166.4 1302.23,1166.4 1313.2,1166.4 1324.17,1166.4 1335.15,1166.4 1346.12,1166.4 1357.09,1166.4 
  1368.07,1166.4 1379.04,1166.4 1390.01,1166.4 1400.98,1166.4 1411.96,1166.4 1422.93,1166.4 1433.9,1166.4 1444.87,1166.4 1455.85,1166.4 1466.82,1166.4 
  1477.79,1166.4 1488.76,1166.4 1499.74,1166.4 1510.71,1166.4 1521.68,1166.4 1532.65,1166.4 1543.63,1166.4 1554.6,1166.4 1565.57,1166.4 1576.54,1166.4 
  1587.52,1166.4 1598.49,1166.4 1609.46,1166.4 1620.43,1166.4 1631.41,1166.4 1642.38,1166.4 1653.35,1166.4 1664.32,1250.06 1675.3,1089.76 1686.27,1073.52 
  1697.24,1263.52 1708.22,1139.05 1719.19,1309.28 1730.16,998.724 1741.13,1248.54 1752.11,1155.95 1763.08,1210.28 1774.05,1153.04 1785.02,1227.44 1796,1149.01 
  1806.97,1101.86 1817.94,924.958 1828.91,1234.94 1839.89,1142.24 1850.86,1135.81 1861.83,1305.98 1872.8,1214.01 1883.78,1166.4 1894.75,1166.4 1905.72,1166.4 
  1916.69,1166.4 1927.67,1166.4 1938.64,1166.4 1949.61,1166.4 1960.58,1166.4 1971.56,1166.4 1982.53,1166.4 1993.5,1166.4 2004.48,1166.4 2015.45,1166.4 
  2026.42,1166.4 2037.39,1166.4 2048.37,1166.4 2059.34,1166.4 2070.31,1166.4 2081.28,1166.4 2092.26,1166.4 2103.23,1166.4 2114.2,1166.4 2125.17,1166.4 
  2136.15,1166.4 2147.12,1166.4 2158.09,1166.4 2169.06,1166.4 2180.04,1166.4 2191.01,1166.4 2201.98,1166.4 2212.95,1166.4 2223.93,1166.4 2234.9,1166.4 
  2245.87,1166.4 2256.84,1166.4 2267.82,1166.4 2278.79,1166.4 2289.76,1166.4 2300.73,1166.4 2311.71,1166.4 2322.68,1166.4 2333.65,1166.4 2344.63,1166.4 
  2355.6,1166.4 2366.57,1166.4 2377.54,1166.4 2388.52,1191.06 2399.49,1143.8 2410.46,1139.02 2421.43,1195.03 2432.41,1158.34 2443.38,1208.52 2454.35,1116.97 
  2465.32,1190.62 2476.3,1163.32 2487.27,1179.33 2498.24,1162.46 2509.21,1184.39 2520.19,1161.27 2531.16,1147.37 2542.13,1095.22 2553.1,1186.61 2564.08,1159.28 
  2575.05,1157.38 2586.02,1207.55 2596.99,1180.44 2607.97,1166.4 2618.94,1166.4 2629.91,1166.4 2640.88,1166.4 2651.86,1166.4 2662.83,1166.4 2673.8,1166.4 
  2684.78,1166.4 2695.75,1166.4 2706.72,1166.4 2717.69,1166.4 2728.67,1166.4 2739.64,1166.4 2750.61,1166.4 2761.58,1166.4 2772.56,1166.4 2783.53,1166.4 
  2794.5,1166.4 2805.47,1166.4 2816.45,1166.4 2827.42,1166.4 2838.39,1166.4 2849.36,1166.4 2860.34,1166.4 2871.31,1166.4 2882.28,1166.4 2893.25,1166.4 
  2904.23,1166.4 2915.2,1166.4 2926.17,1166.4 2937.14,1166.4 2948.12,1166.4 2959.09,1166.4 2970.06,1166.4 2981.03,1166.4 2992.01,1166.4 3002.98,1166.4 
  3013.95,1166.4 3024.93,1166.4 3035.9,1166.4 3046.87,1166.4 3057.84,1166.4 3068.82,1166.4 
  "/>
<polyline clip-path="url(#clip203)" style="stroke:#add8e6; stroke-linecap:butt; stroke-linejoin:round; stroke-width:8; stroke-opacity:1; fill:none" points="
  270.807,1166.5 281.779,1165.98 292.752,1166.5 303.725,1165.65 314.697,1166.8 325.67,1166.68 336.642,1166.59 347.615,1165.96 358.588,1166.17 369.56,1166.08 
  380.533,1165.38 391.505,1166.28 402.478,1166.48 413.45,1166.82 424.423,1166.82 435.396,1165.97 446.368,1166.74 457.341,1166.16 468.313,1166.48 479.286,1166.48 
  490.259,1166.25 501.231,1166.85 512.204,1167.23 523.176,1166.88 534.149,1166.6 545.121,1166.78 556.094,1166.13 567.067,1165.71 578.039,1165.83 589.012,1165.87 
  599.984,1166.47 610.957,1166.66 621.93,1167.06 632.902,1165.84 643.875,1166.63 654.847,1166.82 665.82,1166.5 676.792,1165.84 687.765,1166.49 698.738,1166.39 
  709.71,1166.29 720.683,1165.93 731.655,1166.19 742.628,1166.55 753.601,1166.84 764.573,1166.24 775.546,1166.04 786.518,1166.36 797.491,1166.4 808.463,1166.23 
  819.436,1166.43 830.409,1166.4 841.381,1166.71 852.354,1166.37 863.326,1166.23 874.299,1166.31 885.272,1165.95 896.244,1166.09 907.217,1166.07 918.189,1166.08 
  929.162,1166.24 940.134,1166.26 951.107,1166.09 962.08,1165.83 973.052,1166.89 984.025,1166.78 994.997,1167 1005.97,1166.37 1016.94,1166.27 1027.92,1166.57 
  1038.89,1167 1049.86,1166.81 1060.83,1166.15 1071.81,1166.35 1082.78,1166.38 1093.75,1166.09 1104.72,1165.93 1115.7,1166.54 1126.67,1166.36 1137.64,1166.33 
  1148.61,1165.34 1159.59,1165.76 1170.56,1166.77 1181.53,1166.89 1192.5,1167.31 1203.48,1168.39 1214.45,1168.38 1225.42,1166.15 1236.39,1167.66 1247.37,1164.92 
  1258.34,1165.62 1269.31,1166.32 1280.28,1167.34 1291.26,1163.81 1302.23,1165.55 1313.2,1163.96 1324.17,1167.41 1335.15,1167.17 1346.12,1164.48 1357.09,1166.4 
  1368.07,1165.44 1379.04,1168.56 1390.01,1164.16 1400.98,1164.85 1411.96,1166.3 1422.93,1167.94 1433.9,1167.59 1444.87,1166.29 1455.85,1166.09 1466.82,1169.71 
  1477.79,1163.87 1488.76,1165.39 1499.74,1168.73 1510.71,1165.87 1521.68,1172.57 1532.65,1166.67 1543.63,1169.12 1554.6,1162.93 1565.57,1157.14 1576.54,1163.08 
  1587.52,1166.75 1598.49,1162.04 1609.46,1184.27 1620.43,1159.92 1631.41,1164.75 1642.38,1157.14 1653.35,1173.29 1664.32,1145.41 1675.3,1091.95 1686.27,1478.48 
  1697.24,1215.24 1708.22,1158.18 1719.19,1172.48 1730.16,1046.79 1741.13,1298.34 1752.11,1081.43 1763.08,942.753 1774.05,1171.99 1785.02,1166.97 1796,1159.71 
  1806.97,1200.39 1817.94,1189.75 1828.91,1195.94 1839.89,1147.13 1850.86,1167.49 1861.83,1180.6 1872.8,1140.21 1883.78,1160.51 1894.75,1166.15 1905.72,1164.21 
  1916.69,1160.87 1927.67,1166.71 1938.64,1166.58 1949.61,1168.36 1960.58,1168.79 1971.56,1166.15 1982.53,1165.9 1993.5,1167.81 2004.48,1166.86 2015.45,1166.24 
  2026.42,1166.67 2037.39,1167.02 2048.37,1167.4 2059.34,1166.6 2070.31,1166.46 2081.28,1167.46 2092.26,1166.74 2103.23,1166.47 2114.2,1166.06 2125.17,1165.92 
  2136.15,1165.85 2147.12,1166.65 2158.09,1166.87 2169.06,1165.69 2180.04,1167.52 2191.01,1166.53 2201.98,1166.13 2212.95,1167.41 2223.93,1166.09 2234.9,1165.67 
  2245.87,1166.01 2256.84,1165.2 2267.82,1166.56 2278.79,1166.62 2289.76,1167.32 2300.73,1166.05 2311.71,1166.79 2322.68,1165.79 2333.65,1165.97 2344.63,1165.73 
  2355.6,1166.02 2366.57,1166.19 2377.54,1166.27 2388.52,1165.9 2399.49,1166.22 2410.46,1166.19 2421.43,1166.1 2432.41,1166.21 2443.38,1166.28 2454.35,1166.29 
  2465.32,1166.39 2476.3,1166.24 2487.27,1166.33 2498.24,1166.38 2509.21,1166.39 2520.19,1166.27 2531.16,1166.26 2542.13,1166.28 2553.1,1166.1 2564.08,1166.05 
  2575.05,1166.13 2586.02,1166.22 2596.99,1166.45 2607.97,1166.16 2618.94,1166.07 2629.91,1166.35 2640.88,1166.32 2651.86,1166.29 2662.83,1166.34 2673.8,1166.37 
  2684.78,1166.47 2695.75,1166.13 2706.72,1166.1 2717.69,1166.09 2728.67,1166.05 2739.64,1166.19 2750.61,1166.26 2761.58,1166.41 2772.56,1166.47 2783.53,1166.48 
  2794.5,1166.27 2805.47,1165.54 2816.45,1166.1 2827.42,1166.35 2838.39,1166.56 2849.36,1165.9 2860.34,1166.41 2871.31,1166.29 2882.28,1166.51 2893.25,1166.6 
  2904.23,1166.98 2915.2,1167.27 2926.17,1166.08 2937.14,1166.22 2948.12,1165.52 2959.09,1166.99 2970.06,1165.86 2981.03,1166.88 2992.01,1165.66 3002.98,1166.27 
  3013.95,1165.83 3024.93,1165.95 3035.9,1165.53 3046.87,1166.4 3057.84,1166.65 3068.82,1166.88 
  "/>
<path clip-path="url(#clip200)" d="
M2577.31 1083.43 L3053.89 1083.43 L3053.89 927.91 L2577.31 927.91  Z
  " fill="#ffffff" fill-rule="evenodd" fill-opacity="1"/>
<polyline clip-path="url(#clip200)" style="stroke:#000000; stroke-linecap:butt; stroke-linejoin:round; stroke-width:4; stroke-opacity:1; fill:none" points="
  2577.31,1083.43 3053.89,1083.43 3053.89,927.91 2577.31,927.91 2577.31,1083.43 
  "/>
<polyline clip-path="url(#clip200)" style="stroke:#ff0000; stroke-linecap:butt; stroke-linejoin:round; stroke-width:4; stroke-opacity:1; fill:none" points="
  2610.27,979.75 2807.99,979.75 
  "/>
<path clip-path="url(#clip200)" d="M2865.6 971.104 L2856.23 983.72 L2866.09 997.03 L2861.06 997.03 L2853.52 986.845 L2845.97 997.03 L2840.95 997.03 L2851.02 983.465 L2841.8 971.104 L2846.83 971.104 L2853.7 980.34 L2860.58 971.104 L2865.6 971.104 Z" fill="#000000" fill-rule="evenodd" fill-opacity="1" /><path clip-path="url(#clip200)" d="M2891.8 1004.9 L2891.8 1008.21 L2867.17 1008.21 L2867.17 1004.9 L2891.8 1004.9 Z" fill="#000000" fill-rule="evenodd" fill-opacity="1" /><path clip-path="url(#clip200)" d="M2895.81 971.104 L2900.07 971.104 L2900.07 997.493 Q2900.07 1002.45 2898.17 1004.67 Q2896.29 1006.89 2892.11 1006.89 L2890.48 1006.89 L2890.48 1003.28 L2891.62 1003.28 Q2894.05 1003.28 2894.93 1002.15 Q2895.81 1001.03 2895.81 997.493 L2895.81 971.104 M2895.81 961.012 L2900.07 961.012 L2900.07 966.405 L2895.81 966.405 L2895.81 961.012 Z" fill="#000000" fill-rule="evenodd" fill-opacity="1" /><path clip-path="url(#clip200)" d="M2908.98 971.104 L2913.24 971.104 L2913.24 997.03 L2908.98 997.03 L2908.98 971.104 M2908.98 961.012 L2913.24 961.012 L2913.24 966.405 L2908.98 966.405 L2908.98 961.012 Z" fill="#000000" fill-rule="evenodd" fill-opacity="1" /><polyline clip-path="url(#clip200)" style="stroke:#add8e6; stroke-linecap:butt; stroke-linejoin:round; stroke-width:4; stroke-opacity:1; fill:none" points="
  2610.27,1031.59 2807.99,1031.59 
  "/>
<path clip-path="url(#clip200)" d="M2862.66 1033.22 L2862.66 1048.87 L2858.4 1048.87 L2858.4 1033.36 Q2858.4 1029.68 2856.97 1027.85 Q2855.53 1026.02 2852.66 1026.02 Q2849.21 1026.02 2847.22 1028.22 Q2845.23 1030.42 2845.23 1034.22 L2845.23 1048.87 L2840.95 1048.87 L2840.95 1012.85 L2845.23 1012.85 L2845.23 1026.97 Q2846.76 1024.63 2848.82 1023.48 Q2850.9 1022.32 2853.61 1022.32 Q2858.08 1022.32 2860.37 1025.1 Q2862.66 1027.85 2862.66 1033.22 Z" fill="#000000" fill-rule="evenodd" fill-opacity="1" /><path clip-path="url(#clip200)" d="M2882.94 1035.84 Q2877.78 1035.84 2875.79 1037.02 Q2873.8 1038.2 2873.8 1041.05 Q2873.8 1043.31 2875.28 1044.66 Q2876.78 1045.98 2879.35 1045.98 Q2882.89 1045.98 2885.02 1043.48 Q2887.17 1040.95 2887.17 1036.79 L2887.17 1035.84 L2882.94 1035.84 M2891.43 1034.08 L2891.43 1048.87 L2887.17 1048.87 L2887.17 1044.93 Q2885.72 1047.3 2883.54 1048.43 Q2881.36 1049.54 2878.22 1049.54 Q2874.23 1049.54 2871.87 1047.32 Q2869.54 1045.07 2869.54 1041.32 Q2869.54 1036.95 2872.45 1034.73 Q2875.39 1032.5 2881.2 1032.5 L2887.17 1032.5 L2887.17 1032.09 Q2887.17 1029.15 2885.23 1027.55 Q2883.31 1025.93 2879.81 1025.93 Q2877.59 1025.93 2875.48 1026.46 Q2873.38 1027 2871.43 1028.06 L2871.43 1024.12 Q2873.77 1023.22 2875.97 1022.78 Q2878.17 1022.32 2880.25 1022.32 Q2885.88 1022.32 2888.66 1025.24 Q2891.43 1028.15 2891.43 1034.08 Z" fill="#000000" fill-rule="evenodd" fill-opacity="1" /><path clip-path="url(#clip200)" d="M2904.42 1015.58 L2904.42 1022.94 L2913.19 1022.94 L2913.19 1026.25 L2904.42 1026.25 L2904.42 1040.33 Q2904.42 1043.5 2905.28 1044.4 Q2906.16 1045.31 2908.82 1045.31 L2913.19 1045.31 L2913.19 1048.87 L2908.82 1048.87 Q2903.89 1048.87 2902.01 1047.04 Q2900.14 1045.19 2900.14 1040.33 L2900.14 1026.25 L2897.01 1026.25 L2897.01 1022.94 L2900.14 1022.94 L2900.14 1015.58 L2904.42 1015.58 Z" fill="#000000" fill-rule="evenodd" fill-opacity="1" /><path clip-path="url(#clip200)" d="M2940.35 1022.94 L2930.97 1035.56 L2940.83 1048.87 L2935.81 1048.87 L2928.26 1038.68 L2920.72 1048.87 L2915.69 1048.87 L2925.76 1035.31 L2916.55 1022.94 L2921.57 1022.94 L2928.45 1032.18 L2935.32 1022.94 L2940.35 1022.94 Z" fill="#000000" fill-rule="evenodd" fill-opacity="1" /><path clip-path="url(#clip200)" d="M2966.55 1056.74 L2966.55 1060.05 L2941.92 1060.05 L2941.92 1056.74 L2966.55 1056.74 Z" fill="#000000" fill-rule="evenodd" fill-opacity="1" /><path clip-path="url(#clip200)" d="M2970.55 1022.94 L2974.81 1022.94 L2974.81 1049.33 Q2974.81 1054.29 2972.91 1056.51 Q2971.04 1058.73 2966.85 1058.73 L2965.23 1058.73 L2965.23 1055.12 L2966.36 1055.12 Q2968.79 1055.12 2969.67 1053.99 Q2970.55 1052.87 2970.55 1049.33 L2970.55 1022.94 M2970.55 1012.85 L2974.81 1012.85 L2974.81 1018.25 L2970.55 1018.25 L2970.55 1012.85 Z" fill="#000000" fill-rule="evenodd" fill-opacity="1" /><path clip-path="url(#clip200)" d="M2983.73 1022.94 L2987.98 1022.94 L2987.98 1048.87 L2983.73 1048.87 L2983.73 1022.94 M2983.73 1012.85 L2987.98 1012.85 L2987.98 1018.25 L2983.73 1018.25 L2983.73 1012.85 Z" fill="#000000" fill-rule="evenodd" fill-opacity="1" /></svg>
