<?xml version="1.0" encoding="utf-8"?>
<svg xmlns="http://www.w3.org/2000/svg" xmlns:xlink="http://www.w3.org/1999/xlink" width="600" height="400" viewBox="0 0 2400 1600">
<defs>
  <clipPath id="clip080">
    <rect x="0" y="0" width="2400" height="1600"/>
  </clipPath>
</defs>
<path clip-path="url(#clip080)" d="
M0 1600 L2400 1600 L2400 0 L0 0  Z
  " fill="#ffffff" fill-rule="evenodd" fill-opacity="1"/>
<defs>
  <clipPath id="clip081">
    <rect x="480" y="0" width="1681" height="1600"/>
  </clipPath>
</defs>
<path clip-path="url(#clip080)" d="
M156.598 1486.45 L2352.76 1486.45 L2352.76 123.472 L156.598 123.472  Z
  " fill="#ffffff" fill-rule="evenodd" fill-opacity="1"/>
<defs>
  <clipPath id="clip082">
    <rect x="156" y="123" width="2197" height="1364"/>
  </clipPath>
</defs>
<polyline clip-path="url(#clip082)" style="stroke:#000000; stroke-linecap:butt; stroke-linejoin:round; stroke-width:2; stroke-opacity:0.1; fill:none" points="
  216.966,1486.45 216.966,123.472 
  "/>
<polyline clip-path="url(#clip082)" style="stroke:#000000; stroke-linecap:butt; stroke-linejoin:round; stroke-width:2; stroke-opacity:0.1; fill:none" points="
  663.87,1486.45 663.87,123.472 
  "/>
<polyline clip-path="url(#clip082)" style="stroke:#000000; stroke-linecap:butt; stroke-linejoin:round; stroke-width:2; stroke-opacity:0.1; fill:none" points="
  1110.77,1486.45 1110.77,123.472 
  "/>
<polyline clip-path="url(#clip082)" style="stroke:#000000; stroke-linecap:butt; stroke-linejoin:round; stroke-width:2; stroke-opacity:0.1; fill:none" points="
  1557.68,1486.45 1557.68,123.472 
  "/>
<polyline clip-path="url(#clip082)" style="stroke:#000000; stroke-linecap:butt; stroke-linejoin:round; stroke-width:2; stroke-opacity:0.1; fill:none" points="
  2004.58,1486.45 2004.58,123.472 
  "/>
<polyline clip-path="url(#clip080)" style="stroke:#000000; stroke-linecap:butt; stroke-linejoin:round; stroke-width:4; stroke-opacity:1; fill:none" points="
  156.598,1486.45 2352.76,1486.45 
  "/>
<polyline clip-path="url(#clip080)" style="stroke:#000000; stroke-linecap:butt; stroke-linejoin:round; stroke-width:4; stroke-opacity:1; fill:none" points="
  216.966,1486.45 216.966,1467.55 
  "/>
<polyline clip-path="url(#clip080)" style="stroke:#000000; stroke-linecap:butt; stroke-linejoin:round; stroke-width:4; stroke-opacity:1; fill:none" points="
  663.87,1486.45 663.87,1467.55 
  "/>
<polyline clip-path="url(#clip080)" style="stroke:#000000; stroke-linecap:butt; stroke-linejoin:round; stroke-width:4; stroke-opacity:1; fill:none" points="
  1110.77,1486.45 1110.77,1467.55 
  "/>
<polyline clip-path="url(#clip080)" style="stroke:#000000; stroke-linecap:butt; stroke-linejoin:round; stroke-width:4; stroke-opacity:1; fill:none" points="
  1557.68,1486.45 1557.68,1467.55 
  "/>
<polyline clip-path="url(#clip080)" style="stroke:#000000; stroke-linecap:butt; stroke-linejoin:round; stroke-width:4; stroke-opacity:1; fill:none" points="
  2004.58,1486.45 2004.58,1467.55 
  "/>
<path clip-path="url(#clip080)" d="M216.966 1517.37 Q213.355 1517.37 211.526 1520.93 Q209.721 1524.47 209.721 1531.6 Q209.721 1538.71 211.526 1542.27 Q213.355 1545.82 216.966 1545.82 Q220.6 1545.82 222.406 1542.27 Q224.235 1538.71 224.235 1531.6 Q224.235 1524.47 222.406 1520.93 Q220.6 1517.37 216.966 1517.37 M216.966 1513.66 Q222.776 1513.66 225.832 1518.27 Q228.91 1522.85 228.91 1531.6 Q228.91 1540.33 225.832 1544.94 Q222.776 1549.52 216.966 1549.52 Q211.156 1549.52 208.077 1544.94 Q205.022 1540.33 205.022 1531.6 Q205.022 1522.85 208.077 1518.27 Q211.156 1513.66 216.966 1513.66 Z" fill="#000000" fill-rule="evenodd" fill-opacity="1" /><path clip-path="url(#clip080)" d="M627.562 1544.91 L643.882 1544.91 L643.882 1548.85 L621.937 1548.85 L621.937 1544.91 Q624.599 1542.16 629.183 1537.53 Q633.789 1532.88 634.97 1531.53 Q637.215 1529.01 638.095 1527.27 Q638.997 1525.51 638.997 1523.82 Q638.997 1521.07 637.053 1519.33 Q635.132 1517.6 632.03 1517.6 Q629.831 1517.6 627.377 1518.36 Q624.947 1519.13 622.169 1520.68 L622.169 1515.95 Q624.993 1514.82 627.447 1514.24 Q629.9 1513.66 631.937 1513.66 Q637.308 1513.66 640.502 1516.35 Q643.697 1519.03 643.697 1523.52 Q643.697 1525.65 642.886 1527.57 Q642.099 1529.47 639.993 1532.07 Q639.414 1532.74 636.312 1535.95 Q633.21 1539.15 627.562 1544.91 Z" fill="#000000" fill-rule="evenodd" fill-opacity="1" /><path clip-path="url(#clip080)" d="M653.743 1514.29 L672.099 1514.29 L672.099 1518.22 L658.025 1518.22 L658.025 1526.7 Q659.044 1526.35 660.062 1526.19 Q661.081 1526 662.099 1526 Q667.886 1526 671.266 1529.17 Q674.645 1532.34 674.645 1537.76 Q674.645 1543.34 671.173 1546.44 Q667.701 1549.52 661.382 1549.52 Q659.206 1549.52 656.937 1549.15 Q654.692 1548.78 652.284 1548.04 L652.284 1543.34 Q654.368 1544.47 656.59 1545.03 Q658.812 1545.58 661.289 1545.58 Q665.294 1545.58 667.632 1543.48 Q669.97 1541.37 669.97 1537.76 Q669.97 1534.15 667.632 1532.04 Q665.294 1529.94 661.289 1529.94 Q659.414 1529.94 657.539 1530.35 Q655.687 1530.77 653.743 1531.65 L653.743 1514.29 Z" fill="#000000" fill-rule="evenodd" fill-opacity="1" /><path clip-path="url(#clip080)" d="M693.858 1517.37 Q690.247 1517.37 688.418 1520.93 Q686.613 1524.47 686.613 1531.6 Q686.613 1538.71 688.418 1542.27 Q690.247 1545.82 693.858 1545.82 Q697.493 1545.82 699.298 1542.27 Q701.127 1538.71 701.127 1531.6 Q701.127 1524.47 699.298 1520.93 Q697.493 1517.37 693.858 1517.37 M693.858 1513.66 Q699.668 1513.66 702.724 1518.27 Q705.803 1522.85 705.803 1531.6 Q705.803 1540.33 702.724 1544.94 Q699.668 1549.52 693.858 1549.52 Q688.048 1549.52 684.969 1544.94 Q681.914 1540.33 681.914 1531.6 Q681.914 1522.85 684.969 1518.27 Q688.048 1513.66 693.858 1513.66 Z" fill="#000000" fill-rule="evenodd" fill-opacity="1" /><path clip-path="url(#clip080)" d="M1070.39 1514.29 L1088.75 1514.29 L1088.75 1518.22 L1074.67 1518.22 L1074.67 1526.7 Q1075.69 1526.35 1076.71 1526.19 Q1077.73 1526 1078.75 1526 Q1084.54 1526 1087.92 1529.17 Q1091.29 1532.34 1091.29 1537.76 Q1091.29 1543.34 1087.82 1546.44 Q1084.35 1549.52 1078.03 1549.52 Q1075.86 1549.52 1073.59 1549.15 Q1071.34 1548.78 1068.93 1548.04 L1068.93 1543.34 Q1071.02 1544.47 1073.24 1545.03 Q1075.46 1545.58 1077.94 1545.58 Q1081.94 1545.58 1084.28 1543.48 Q1086.62 1541.37 1086.62 1537.76 Q1086.62 1534.15 1084.28 1532.04 Q1081.94 1529.94 1077.94 1529.94 Q1076.06 1529.94 1074.19 1530.35 Q1072.34 1530.77 1070.39 1531.65 L1070.39 1514.29 Z" fill="#000000" fill-rule="evenodd" fill-opacity="1" /><path clip-path="url(#clip080)" d="M1110.51 1517.37 Q1106.9 1517.37 1105.07 1520.93 Q1103.26 1524.47 1103.26 1531.6 Q1103.26 1538.71 1105.07 1542.27 Q1106.9 1545.82 1110.51 1545.82 Q1114.14 1545.82 1115.95 1542.27 Q1117.78 1538.71 1117.78 1531.6 Q1117.78 1524.47 1115.95 1520.93 Q1114.14 1517.37 1110.51 1517.37 M1110.51 1513.66 Q1116.32 1513.66 1119.37 1518.27 Q1122.45 1522.85 1122.45 1531.6 Q1122.45 1540.33 1119.37 1544.94 Q1116.32 1549.52 1110.51 1549.52 Q1104.7 1549.52 1101.62 1544.94 Q1098.56 1540.33 1098.56 1531.6 Q1098.56 1522.85 1101.62 1518.27 Q1104.7 1513.66 1110.51 1513.66 Z" fill="#000000" fill-rule="evenodd" fill-opacity="1" /><path clip-path="url(#clip080)" d="M1140.67 1517.37 Q1137.06 1517.37 1135.23 1520.93 Q1133.42 1524.47 1133.42 1531.6 Q1133.42 1538.71 1135.23 1542.27 Q1137.06 1545.82 1140.67 1545.82 Q1144.3 1545.82 1146.11 1542.27 Q1147.94 1538.71 1147.94 1531.6 Q1147.94 1524.47 1146.11 1520.93 Q1144.3 1517.37 1140.67 1517.37 M1140.67 1513.66 Q1146.48 1513.66 1149.54 1518.27 Q1152.61 1522.85 1152.61 1531.6 Q1152.61 1540.33 1149.54 1544.94 Q1146.48 1549.52 1140.67 1549.52 Q1134.86 1549.52 1131.78 1544.94 Q1128.73 1540.33 1128.73 1531.6 Q1128.73 1522.85 1131.78 1518.27 Q1134.86 1513.66 1140.67 1513.66 Z" fill="#000000" fill-rule="evenodd" fill-opacity="1" /><path clip-path="url(#clip080)" d="M1515.95 1514.29 L1538.18 1514.29 L1538.18 1516.28 L1525.63 1548.85 L1520.75 1548.85 L1532.55 1518.22 L1515.95 1518.22 L1515.95 1514.29 Z" fill="#000000" fill-rule="evenodd" fill-opacity="1" /><path clip-path="url(#clip080)" d="M1547.34 1514.29 L1565.7 1514.29 L1565.7 1518.22 L1551.62 1518.22 L1551.62 1526.7 Q1552.64 1526.35 1553.66 1526.19 Q1554.68 1526 1555.7 1526 Q1561.49 1526 1564.87 1529.17 Q1568.25 1532.34 1568.25 1537.76 Q1568.25 1543.34 1564.77 1546.44 Q1561.3 1549.52 1554.98 1549.52 Q1552.81 1549.52 1550.54 1549.15 Q1548.29 1548.78 1545.88 1548.04 L1545.88 1543.34 Q1547.97 1544.47 1550.19 1545.03 Q1552.41 1545.58 1554.89 1545.58 Q1558.89 1545.58 1561.23 1543.48 Q1563.57 1541.37 1563.57 1537.76 Q1563.57 1534.15 1561.23 1532.04 Q1558.89 1529.94 1554.89 1529.94 Q1553.01 1529.94 1551.14 1530.35 Q1549.29 1530.77 1547.34 1531.65 L1547.34 1514.29 Z" fill="#000000" fill-rule="evenodd" fill-opacity="1" /><path clip-path="url(#clip080)" d="M1587.46 1517.37 Q1583.85 1517.37 1582.02 1520.93 Q1580.21 1524.47 1580.21 1531.6 Q1580.21 1538.71 1582.02 1542.27 Q1583.85 1545.82 1587.46 1545.82 Q1591.09 1545.82 1592.9 1542.27 Q1594.73 1538.71 1594.73 1531.6 Q1594.73 1524.47 1592.9 1520.93 Q1591.09 1517.37 1587.46 1517.37 M1587.46 1513.66 Q1593.27 1513.66 1596.32 1518.27 Q1599.4 1522.85 1599.4 1531.6 Q1599.4 1540.33 1596.32 1544.94 Q1593.27 1549.52 1587.46 1549.52 Q1581.65 1549.52 1578.57 1544.94 Q1575.51 1540.33 1575.51 1531.6 Q1575.51 1522.85 1578.57 1518.27 Q1581.65 1513.66 1587.46 1513.66 Z" fill="#000000" fill-rule="evenodd" fill-opacity="1" /><path clip-path="url(#clip080)" d="M1949.11 1544.91 L1956.75 1544.91 L1956.75 1518.55 L1948.44 1520.21 L1948.44 1515.95 L1956.7 1514.29 L1961.38 1514.29 L1961.38 1544.91 L1969.02 1544.91 L1969.02 1548.85 L1949.11 1548.85 L1949.11 1544.91 Z" fill="#000000" fill-rule="evenodd" fill-opacity="1" /><path clip-path="url(#clip080)" d="M1988.46 1517.37 Q1984.85 1517.37 1983.02 1520.93 Q1981.21 1524.47 1981.21 1531.6 Q1981.21 1538.71 1983.02 1542.27 Q1984.85 1545.82 1988.46 1545.82 Q1992.09 1545.82 1993.9 1542.27 Q1995.73 1538.71 1995.73 1531.6 Q1995.73 1524.47 1993.9 1520.93 Q1992.09 1517.37 1988.46 1517.37 M1988.46 1513.66 Q1994.27 1513.66 1997.33 1518.27 Q2000.4 1522.85 2000.4 1531.6 Q2000.4 1540.33 1997.33 1544.94 Q1994.27 1549.52 1988.46 1549.52 Q1982.65 1549.52 1979.57 1544.94 Q1976.51 1540.33 1976.51 1531.6 Q1976.51 1522.85 1979.57 1518.27 Q1982.65 1513.66 1988.46 1513.66 Z" fill="#000000" fill-rule="evenodd" fill-opacity="1" /><path clip-path="url(#clip080)" d="M2018.62 1517.37 Q2015.01 1517.37 2013.18 1520.93 Q2011.38 1524.47 2011.38 1531.6 Q2011.38 1538.71 2013.18 1542.27 Q2015.01 1545.82 2018.62 1545.82 Q2022.26 1545.82 2024.06 1542.27 Q2025.89 1538.71 2025.89 1531.6 Q2025.89 1524.47 2024.06 1520.93 Q2022.26 1517.37 2018.62 1517.37 M2018.62 1513.66 Q2024.43 1513.66 2027.49 1518.27 Q2030.57 1522.85 2030.57 1531.6 Q2030.57 1540.33 2027.49 1544.94 Q2024.43 1549.52 2018.62 1549.52 Q2012.81 1549.52 2009.73 1544.94 Q2006.68 1540.33 2006.68 1531.6 Q2006.68 1522.85 2009.73 1518.27 Q2012.81 1513.66 2018.62 1513.66 Z" fill="#000000" fill-rule="evenodd" fill-opacity="1" /><path clip-path="url(#clip080)" d="M2048.78 1517.37 Q2045.17 1517.37 2043.34 1520.93 Q2041.54 1524.47 2041.54 1531.6 Q2041.54 1538.71 2043.34 1542.27 Q2045.17 1545.82 2048.78 1545.82 Q2052.42 1545.82 2054.22 1542.27 Q2056.05 1538.71 2056.05 1531.6 Q2056.05 1524.47 2054.22 1520.93 Q2052.42 1517.37 2048.78 1517.37 M2048.78 1513.66 Q2054.59 1513.66 2057.65 1518.27 Q2060.73 1522.85 2060.73 1531.6 Q2060.73 1540.33 2057.65 1544.94 Q2054.59 1549.52 2048.78 1549.52 Q2042.97 1549.52 2039.89 1544.94 Q2036.84 1540.33 2036.84 1531.6 Q2036.84 1522.85 2039.89 1518.27 Q2042.97 1513.66 2048.78 1513.66 Z" fill="#000000" fill-rule="evenodd" fill-opacity="1" /><polyline clip-path="url(#clip082)" style="stroke:#000000; stroke-linecap:butt; stroke-linejoin:round; stroke-width:2; stroke-opacity:0.1; fill:none" points="
  156.598,1352.59 2352.76,1352.59 
  "/>
<polyline clip-path="url(#clip082)" style="stroke:#000000; stroke-linecap:butt; stroke-linejoin:round; stroke-width:2; stroke-opacity:0.1; fill:none" points="
  156.598,1062.07 2352.76,1062.07 
  "/>
<polyline clip-path="url(#clip082)" style="stroke:#000000; stroke-linecap:butt; stroke-linejoin:round; stroke-width:2; stroke-opacity:0.1; fill:none" points="
  156.598,771.553 2352.76,771.553 
  "/>
<polyline clip-path="url(#clip082)" style="stroke:#000000; stroke-linecap:butt; stroke-linejoin:round; stroke-width:2; stroke-opacity:0.1; fill:none" points="
  156.598,481.032 2352.76,481.032 
  "/>
<polyline clip-path="url(#clip082)" style="stroke:#000000; stroke-linecap:butt; stroke-linejoin:round; stroke-width:2; stroke-opacity:0.1; fill:none" points="
  156.598,190.511 2352.76,190.511 
  "/>
<polyline clip-path="url(#clip080)" style="stroke:#000000; stroke-linecap:butt; stroke-linejoin:round; stroke-width:4; stroke-opacity:1; fill:none" points="
  156.598,1486.45 156.598,123.472 
  "/>
<polyline clip-path="url(#clip080)" style="stroke:#000000; stroke-linecap:butt; stroke-linejoin:round; stroke-width:4; stroke-opacity:1; fill:none" points="
  156.598,1352.59 175.496,1352.59 
  "/>
<polyline clip-path="url(#clip080)" style="stroke:#000000; stroke-linecap:butt; stroke-linejoin:round; stroke-width:4; stroke-opacity:1; fill:none" points="
  156.598,1062.07 175.496,1062.07 
  "/>
<polyline clip-path="url(#clip080)" style="stroke:#000000; stroke-linecap:butt; stroke-linejoin:round; stroke-width:4; stroke-opacity:1; fill:none" points="
  156.598,771.553 175.496,771.553 
  "/>
<polyline clip-path="url(#clip080)" style="stroke:#000000; stroke-linecap:butt; stroke-linejoin:round; stroke-width:4; stroke-opacity:1; fill:none" points="
  156.598,481.032 175.496,481.032 
  "/>
<polyline clip-path="url(#clip080)" style="stroke:#000000; stroke-linecap:butt; stroke-linejoin:round; stroke-width:4; stroke-opacity:1; fill:none" points="
  156.598,190.511 175.496,190.511 
  "/>
<path clip-path="url(#clip080)" d="M65.0198 1338.39 Q61.4087 1338.39 59.58 1341.96 Q57.7745 1345.5 57.7745 1352.63 Q57.7745 1359.74 59.58 1363.3 Q61.4087 1366.84 65.0198 1366.84 Q68.6541 1366.84 70.4596 1363.3 Q72.2883 1359.74 72.2883 1352.63 Q72.2883 1345.5 70.4596 1341.96 Q68.6541 1338.39 65.0198 1338.39 M65.0198 1334.69 Q70.83 1334.69 73.8855 1339.3 Q76.9642 1343.88 76.9642 1352.63 Q76.9642 1361.36 73.8855 1365.96 Q70.83 1370.55 65.0198 1370.55 Q59.2097 1370.55 56.131 1365.96 Q53.0754 1361.36 53.0754 1352.63 Q53.0754 1343.88 56.131 1339.3 Q59.2097 1334.69 65.0198 1334.69 Z" fill="#000000" fill-rule="evenodd" fill-opacity="1" /><path clip-path="url(#clip080)" d="M85.1818 1363.99 L90.066 1363.99 L90.066 1369.87 L85.1818 1369.87 L85.1818 1363.99 Z" fill="#000000" fill-rule="evenodd" fill-opacity="1" /><path clip-path="url(#clip080)" d="M104.279 1365.94 L120.598 1365.94 L120.598 1369.87 L98.6539 1369.87 L98.6539 1365.94 Q101.316 1363.18 105.899 1358.55 Q110.506 1353.9 111.686 1352.56 Q113.932 1350.04 114.811 1348.3 Q115.714 1346.54 115.714 1344.85 Q115.714 1342.1 113.77 1340.36 Q111.848 1338.62 108.746 1338.62 Q106.547 1338.62 104.094 1339.39 Q101.663 1340.15 98.8854 1341.7 L98.8854 1336.98 Q101.709 1335.85 104.163 1335.27 Q106.617 1334.69 108.654 1334.69 Q114.024 1334.69 117.219 1337.37 Q120.413 1340.06 120.413 1344.55 Q120.413 1346.68 119.603 1348.6 Q118.816 1350.5 116.709 1353.09 Q116.131 1353.76 113.029 1356.98 Q109.927 1360.18 104.279 1365.94 Z" fill="#000000" fill-rule="evenodd" fill-opacity="1" /><path clip-path="url(#clip080)" d="M62.9365 1047.87 Q59.3254 1047.87 57.4967 1051.44 Q55.6912 1054.98 55.6912 1062.11 Q55.6912 1069.21 57.4967 1072.78 Q59.3254 1076.32 62.9365 1076.32 Q66.5707 1076.32 68.3763 1072.78 Q70.205 1069.21 70.205 1062.11 Q70.205 1054.98 68.3763 1051.44 Q66.5707 1047.87 62.9365 1047.87 M62.9365 1044.17 Q68.7467 1044.17 71.8022 1048.78 Q74.8809 1053.36 74.8809 1062.11 Q74.8809 1070.84 71.8022 1075.44 Q68.7467 1080.02 62.9365 1080.02 Q57.1264 1080.02 54.0477 1075.44 Q50.9921 1070.84 50.9921 1062.11 Q50.9921 1053.36 54.0477 1048.78 Q57.1264 1044.17 62.9365 1044.17 Z" fill="#000000" fill-rule="evenodd" fill-opacity="1" /><path clip-path="url(#clip080)" d="M83.0984 1073.47 L87.9827 1073.47 L87.9827 1079.35 L83.0984 1079.35 L83.0984 1073.47 Z" fill="#000000" fill-rule="evenodd" fill-opacity="1" /><path clip-path="url(#clip080)" d="M111.015 1048.87 L99.2095 1067.32 L111.015 1067.32 L111.015 1048.87 M109.788 1044.79 L115.668 1044.79 L115.668 1067.32 L120.598 1067.32 L120.598 1071.21 L115.668 1071.21 L115.668 1079.35 L111.015 1079.35 L111.015 1071.21 L95.4132 1071.21 L95.4132 1066.69 L109.788 1044.79 Z" fill="#000000" fill-rule="evenodd" fill-opacity="1" /><path clip-path="url(#clip080)" d="M63.2606 757.351 Q59.6495 757.351 57.8208 760.916 Q56.0152 764.458 56.0152 771.588 Q56.0152 778.694 57.8208 782.259 Q59.6495 785.8 63.2606 785.8 Q66.8948 785.8 68.7004 782.259 Q70.5291 778.694 70.5291 771.588 Q70.5291 764.458 68.7004 760.916 Q66.8948 757.351 63.2606 757.351 M63.2606 753.648 Q69.0707 753.648 72.1263 758.254 Q75.205 762.838 75.205 771.588 Q75.205 780.314 72.1263 784.921 Q69.0707 789.504 63.2606 789.504 Q57.4504 789.504 54.3717 784.921 Q51.3162 780.314 51.3162 771.588 Q51.3162 762.838 54.3717 758.254 Q57.4504 753.648 63.2606 753.648 Z" fill="#000000" fill-rule="evenodd" fill-opacity="1" /><path clip-path="url(#clip080)" d="M83.4225 782.953 L88.3067 782.953 L88.3067 788.833 L83.4225 788.833 L83.4225 782.953 Z" fill="#000000" fill-rule="evenodd" fill-opacity="1" /><path clip-path="url(#clip080)" d="M109.071 769.689 Q105.922 769.689 104.071 771.842 Q102.242 773.995 102.242 777.745 Q102.242 781.472 104.071 783.648 Q105.922 785.8 109.071 785.8 Q112.219 785.8 114.047 783.648 Q115.899 781.472 115.899 777.745 Q115.899 773.995 114.047 771.842 Q112.219 769.689 109.071 769.689 M118.353 755.037 L118.353 759.296 Q116.594 758.463 114.788 758.023 Q113.006 757.583 111.246 757.583 Q106.617 757.583 104.163 760.708 Q101.733 763.833 101.385 770.152 Q102.751 768.138 104.811 767.074 Q106.871 765.986 109.348 765.986 Q114.557 765.986 117.566 769.157 Q120.598 772.305 120.598 777.745 Q120.598 783.069 117.45 786.287 Q114.302 789.504 109.071 789.504 Q103.075 789.504 99.9039 784.921 Q96.7326 780.314 96.7326 771.588 Q96.7326 763.393 100.621 758.532 Q104.51 753.648 111.061 753.648 Q112.82 753.648 114.603 753.995 Q116.408 754.342 118.353 755.037 Z" fill="#000000" fill-rule="evenodd" fill-opacity="1" /><path clip-path="url(#clip080)" d="M63.5152 466.831 Q59.9041 466.831 58.0754 470.396 Q56.2699 473.937 56.2699 481.067 Q56.2699 488.173 58.0754 491.738 Q59.9041 495.28 63.5152 495.28 Q67.1494 495.28 68.955 491.738 Q70.7837 488.173 70.7837 481.067 Q70.7837 473.937 68.955 470.396 Q67.1494 466.831 63.5152 466.831 M63.5152 463.127 Q69.3254 463.127 72.3809 467.733 Q75.4596 472.317 75.4596 481.067 Q75.4596 489.794 72.3809 494.4 Q69.3254 498.983 63.5152 498.983 Q57.7051 498.983 54.6264 494.4 Q51.5708 489.794 51.5708 481.067 Q51.5708 472.317 54.6264 467.733 Q57.7051 463.127 63.5152 463.127 Z" fill="#000000" fill-rule="evenodd" fill-opacity="1" /><path clip-path="url(#clip080)" d="M83.6771 492.432 L88.5614 492.432 L88.5614 498.312 L83.6771 498.312 L83.6771 492.432 Z" fill="#000000" fill-rule="evenodd" fill-opacity="1" /><path clip-path="url(#clip080)" d="M108.746 481.9 Q105.413 481.9 103.492 483.682 Q101.594 485.465 101.594 488.59 Q101.594 491.715 103.492 493.497 Q105.413 495.28 108.746 495.28 Q112.08 495.28 114.001 493.497 Q115.922 491.692 115.922 488.59 Q115.922 485.465 114.001 483.682 Q112.103 481.9 108.746 481.9 M104.071 479.909 Q101.061 479.169 99.3715 477.108 Q97.7048 475.048 97.7048 472.085 Q97.7048 467.942 100.645 465.534 Q103.608 463.127 108.746 463.127 Q113.908 463.127 116.848 465.534 Q119.788 467.942 119.788 472.085 Q119.788 475.048 118.098 477.108 Q116.432 479.169 113.445 479.909 Q116.825 480.696 118.7 482.988 Q120.598 485.28 120.598 488.59 Q120.598 493.613 117.52 496.298 Q114.464 498.983 108.746 498.983 Q103.029 498.983 99.9502 496.298 Q96.8947 493.613 96.8947 488.59 Q96.8947 485.28 98.7928 482.988 Q100.691 480.696 104.071 479.909 M102.358 472.525 Q102.358 475.21 104.024 476.715 Q105.714 478.22 108.746 478.22 Q111.756 478.22 113.445 476.715 Q115.158 475.21 115.158 472.525 Q115.158 469.84 113.445 468.335 Q111.756 466.831 108.746 466.831 Q105.714 466.831 104.024 468.335 Q102.358 469.84 102.358 472.525 Z" fill="#000000" fill-rule="evenodd" fill-opacity="1" /><path clip-path="url(#clip080)" d="M54.2328 203.856 L61.8717 203.856 L61.8717 177.49 L53.5616 179.157 L53.5616 174.898 L61.8254 173.231 L66.5013 173.231 L66.5013 203.856 L74.1402 203.856 L74.1402 207.791 L54.2328 207.791 L54.2328 203.856 Z" fill="#000000" fill-rule="evenodd" fill-opacity="1" /><path clip-path="url(#clip080)" d="M83.5845 201.912 L88.4688 201.912 L88.4688 207.791 L83.5845 207.791 L83.5845 201.912 Z" fill="#000000" fill-rule="evenodd" fill-opacity="1" /><path clip-path="url(#clip080)" d="M108.654 176.31 Q105.043 176.31 103.214 179.875 Q101.409 183.416 101.409 190.546 Q101.409 197.652 103.214 201.217 Q105.043 204.759 108.654 204.759 Q112.288 204.759 114.094 201.217 Q115.922 197.652 115.922 190.546 Q115.922 183.416 114.094 179.875 Q112.288 176.31 108.654 176.31 M108.654 172.606 Q114.464 172.606 117.52 177.213 Q120.598 181.796 120.598 190.546 Q120.598 199.273 117.52 203.879 Q114.464 208.463 108.654 208.463 Q102.844 208.463 99.765 203.879 Q96.7095 199.273 96.7095 190.546 Q96.7095 181.796 99.765 177.213 Q102.844 172.606 108.654 172.606 Z" fill="#000000" fill-rule="evenodd" fill-opacity="1" /><path clip-path="url(#clip080)" d="M1180.48 9.54393 L1187.94 9.54393 L1187.94 72.576 L1180.48 72.576 L1180.48 9.54393 Z" fill="#000000" fill-rule="evenodd" fill-opacity="1" /><path clip-path="url(#clip080)" d="M1221.12 32.4315 Q1215.12 32.4315 1211.64 37.1306 Q1208.15 41.7891 1208.15 49.9314 Q1208.15 58.0738 1211.6 62.7728 Q1215.08 67.4314 1221.12 67.4314 Q1227.07 67.4314 1230.55 62.7323 Q1234.04 58.0333 1234.04 49.9314 Q1234.04 41.8701 1230.55 37.1711 Q1227.07 32.4315 1221.12 32.4315 M1221.12 26.1121 Q1230.84 26.1121 1236.39 32.4315 Q1241.94 38.7509 1241.94 49.9314 Q1241.94 61.0714 1236.39 67.4314 Q1230.84 73.7508 1221.12 73.7508 Q1211.35 73.7508 1205.8 67.4314 Q1200.29 61.0714 1200.29 49.9314 Q1200.29 38.7509 1205.8 32.4315 Q1211.35 26.1121 1221.12 26.1121 Z" fill="#000000" fill-rule="evenodd" fill-opacity="1" /><path clip-path="url(#clip080)" d="M1283.22 28.5427 L1283.22 35.5912 Q1280.06 33.9709 1276.65 33.1607 Q1273.25 32.3505 1269.6 32.3505 Q1264.05 32.3505 1261.26 34.0519 Q1258.51 35.7533 1258.51 39.156 Q1258.51 41.7486 1260.49 43.2475 Q1262.48 44.7058 1268.47 46.0426 L1271.02 46.6097 Q1278.96 48.3111 1282.28 51.4303 Q1285.65 54.509 1285.65 60.0587 Q1285.65 66.3781 1280.62 70.0644 Q1275.64 73.7508 1266.89 73.7508 Q1263.24 73.7508 1259.27 73.0216 Q1255.35 72.3329 1250.97 70.9151 L1250.97 63.2184 Q1255.1 65.3654 1259.11 66.4591 Q1263.12 67.5124 1267.05 67.5124 Q1272.32 67.5124 1275.15 65.73 Q1277.99 63.9071 1277.99 60.6258 Q1277.99 57.5877 1275.92 55.9673 Q1273.9 54.3469 1266.97 52.8481 L1264.38 52.2405 Q1257.45 50.7821 1254.37 47.7845 Q1251.29 44.7463 1251.29 39.4801 Q1251.29 33.0797 1255.83 29.5959 Q1260.37 26.1121 1268.71 26.1121 Q1272.85 26.1121 1276.49 26.7198 Q1280.14 27.3274 1283.22 28.5427 Z" fill="#000000" fill-rule="evenodd" fill-opacity="1" /><path clip-path="url(#clip080)" d="M1326.44 28.5427 L1326.44 35.5912 Q1323.28 33.9709 1319.88 33.1607 Q1316.47 32.3505 1312.83 32.3505 Q1307.28 32.3505 1304.48 34.0519 Q1301.73 35.7533 1301.73 39.156 Q1301.73 41.7486 1303.71 43.2475 Q1305.7 44.7058 1311.69 46.0426 L1314.25 46.6097 Q1322.19 48.3111 1325.51 51.4303 Q1328.87 54.509 1328.87 60.0587 Q1328.87 66.3781 1323.85 70.0644 Q1318.86 73.7508 1310.11 73.7508 Q1306.47 73.7508 1302.5 73.0216 Q1298.57 72.3329 1294.19 70.9151 L1294.19 63.2184 Q1298.33 65.3654 1302.34 66.4591 Q1306.35 67.5124 1310.28 67.5124 Q1315.54 67.5124 1318.38 65.73 Q1321.21 63.9071 1321.21 60.6258 Q1321.21 57.5877 1319.15 55.9673 Q1317.12 54.3469 1310.19 52.8481 L1307.6 52.2405 Q1300.68 50.7821 1297.6 47.7845 Q1294.52 44.7463 1294.52 39.4801 Q1294.52 33.0797 1299.05 29.5959 Q1303.59 26.1121 1311.94 26.1121 Q1316.07 26.1121 1319.71 26.7198 Q1323.36 27.3274 1326.44 28.5427 Z" fill="#000000" fill-rule="evenodd" fill-opacity="1" /><polyline clip-path="url(#clip082)" style="stroke:#009af9; stroke-linecap:butt; stroke-linejoin:round; stroke-width:4; stroke-opacity:1; fill:none" points="
  218.754,182.179 220.541,168.027 222.329,169.236 224.116,163.043 225.904,170.4 227.692,172.294 229.479,177.457 231.267,184.618 233.055,186.76 234.842,186.914 
  236.63,189.973 238.417,189.54 240.205,189.375 241.993,191.94 243.78,192.407 245.568,192.987 247.355,193.639 249.143,194.471 250.931,195.59 252.718,196.091 
  254.506,197.931 256.294,198.531 258.081,200.631 259.869,203.176 261.656,205.698 263.444,207.398 265.232,210.596 267.019,215.656 268.807,218.046 270.595,223.241 
  272.382,228.265 274.17,233.249 275.957,239.394 277.745,244.165 279.533,250.865 281.32,257.182 283.108,265.234 284.895,274.303 286.683,281.141 288.471,289.103 
  290.258,296.45 292.046,305.951 293.834,314.304 295.621,328.559 297.409,337.241 299.196,353.31 300.984,359.344 302.772,374.146 304.559,394.65 306.347,408.967 
  308.134,426.571 309.922,439.894 311.71,453.032 313.497,473.225 315.285,489.553 317.073,502.868 318.86,518.977 320.648,543.016 322.435,550.149 324.223,562.622 
  326.011,583.087 327.798,601.529 329.586,616.81 331.373,626.044 333.161,645.133 334.949,656.554 336.736,663.634 338.524,680.691 340.312,692.428 342.099,699.553 
  343.887,704.842 345.674,724.432 347.462,727.381 349.25,757.564 351.037,767.803 352.825,770.421 354.612,806.589 356.4,787.678 358.188,827.554 359.975,825.933 
  361.763,836.418 363.551,859.039 365.338,868.675 367.126,867.934 368.913,889.034 370.701,893.008 372.489,911.785 374.276,921.327 376.064,945.599 377.851,925.026 
  379.639,951.348 381.427,949.371 383.214,950.904 385.002,977.944 386.79,975.849 388.577,981.87 390.365,969.69 392.152,1004.77 393.94,996.616 395.728,1001.07 
  397.515,1008.76 399.303,1019.43 401.09,1028.18 402.878,1025.09 404.666,1038.52 406.453,1030.59 408.241,1041.26 410.029,1054.62 411.816,1073.24 413.604,1058.39 
  415.391,1052.7 417.179,1085.5 418.967,1068.34 420.754,1093.4 422.542,1092.7 424.329,1088.56 426.117,1104.69 427.905,1123.49 429.692,1127.3 431.48,1092.26 
  433.268,1112.97 435.055,1136.78 436.843,1115.45 438.63,1145.77 440.418,1140.92 442.206,1146.07 443.993,1151.52 445.781,1160.23 447.568,1177.23 449.356,1162.28 
  451.144,1186.93 452.931,1198.09 454.719,1171 456.507,1191.93 458.294,1191.63 460.082,1126.94 461.869,1190.79 463.657,1172.31 465.445,1193.04 467.232,1207.49 
  469.02,1217.53 470.807,1222.11 472.595,1230.94 474.383,1215.84 476.17,1215.47 477.958,1228.27 479.746,1220.4 481.533,1220.37 483.321,1217.79 485.108,1217.65 
  486.896,1228.35 488.684,1237.81 490.471,1262.69 492.259,1241.51 494.046,1247.75 495.834,1255.34 497.622,1257.61 499.409,1265.34 501.197,1273.08 502.985,1272.65 
  504.772,1258.87 506.56,1258.01 508.347,1240.21 510.135,1280.02 511.923,1288.15 513.71,1277.32 515.498,1271.68 517.286,1282.29 519.073,1291.62 520.861,1281.62 
  522.648,1277.3 524.436,1261.55 526.224,1292.64 528.011,1279.01 529.799,1299.09 531.586,1303.85 533.374,1294.43 535.162,1299.89 536.949,1302.25 538.737,1311.42 
  540.525,1285.38 542.312,1300.58 544.1,1311.05 545.887,1303.78 547.675,1300.78 549.463,1319.39 551.25,1309.56 553.038,1300.14 554.825,1312.41 556.613,1295.33 
  558.401,1309.71 560.188,1316.41 561.976,1298.78 563.764,1312.47 565.551,1313.91 567.339,1310.2 569.126,1325.82 570.914,1313.13 572.702,1318.04 574.489,1315.07 
  576.277,1330.83 578.064,1326.2 579.852,1323.7 581.64,1325.78 583.427,1315.28 585.215,1333.63 587.003,1323.59 588.79,1331.05 590.578,1341.32 592.365,1341.39 
  594.153,1327.23 595.941,1334.21 597.728,1322.18 599.516,1331.7 601.303,1348.69 603.091,1332.16 604.879,1329.38 606.666,1352.46 608.454,1335.08 610.242,1342.85 
  612.029,1334.17 613.817,1330.51 615.604,1334.42 617.392,1339.16 619.18,1336.87 620.967,1326.53 622.755,1342.8 624.542,1339.9 626.33,1361.48 628.118,1344.08 
  629.905,1336.38 631.693,1356.38 633.481,1340.62 635.268,1343.8 637.056,1337.43 638.843,1346.86 640.631,1342.33 642.419,1328.1 644.206,1335.22 645.994,1343.37 
  647.781,1358.64 649.569,1355.05 651.357,1342.8 653.144,1341.11 654.932,1342.45 656.72,1351.26 658.507,1352.35 660.295,1341.36 662.082,1355.35 663.87,1348.03 
  665.658,1347.93 667.445,1354.96 669.233,1340.43 671.02,1320.79 672.808,1350.58 674.596,1338.39 676.383,1354.44 678.171,1346.01 679.959,1345.15 681.746,1336.15 
  683.534,1358.03 685.321,1357.41 687.109,1345.86 688.897,1343.43 690.684,1344.98 692.472,1351.5 694.259,1356.18 696.047,1358.93 697.835,1363.9 699.622,1339.74 
  701.41,1364.71 703.198,1352.07 704.985,1337.46 706.773,1350.42 708.56,1366.61 710.348,1345.47 712.136,1362.01 713.923,1352.74 715.711,1331.48 717.498,1337.17 
  719.286,1345.93 721.074,1333.72 722.861,1363.64 724.649,1333.41 726.437,1338.8 728.224,1366.34 730.012,1343.06 731.799,1345.19 733.587,1361.77 735.375,1354.23 
  737.162,1363.31 738.95,1343.95 740.737,1350.67 742.525,1361.71 744.313,1355.5 746.1,1359.07 747.888,1360.73 749.676,1374.3 751.463,1367.39 753.251,1357.75 
  755.038,1360.31 756.826,1350.6 758.614,1359.63 760.401,1356.05 762.189,1359.68 763.976,1342.22 765.764,1364.25 767.552,1350.41 769.339,1358.39 771.127,1338.79 
  772.915,1349.68 774.702,1340.24 776.49,1376.14 778.277,1337.39 780.065,1342.98 781.853,1332.19 783.64,1359.72 785.428,1336.08 787.216,1360.57 789.003,1363.26 
  790.791,1359.77 792.578,1349.9 794.366,1347.56 796.154,1366.45 797.941,1360.25 799.729,1382.82 801.516,1356.29 803.304,1365.23 805.092,1359.37 806.879,1351.25 
  808.667,1357.71 810.455,1342.93 812.242,1373.51 814.03,1361.19 815.817,1360.63 817.605,1360.45 819.393,1365.52 821.18,1384.19 822.968,1376.01 824.755,1366.85 
  826.543,1360.56 828.331,1366.34 830.118,1368.83 831.906,1361.31 833.694,1361.45 835.481,1349.86 837.269,1367.64 839.056,1364.86 840.844,1352.74 842.632,1366.36 
  844.419,1365.33 846.207,1365.36 847.994,1356.75 849.782,1374.02 851.57,1371.36 853.357,1360.67 855.145,1356.17 856.933,1368.77 858.72,1367.21 860.508,1359.12 
  862.295,1360.72 864.083,1371.79 865.871,1363.03 867.658,1363.01 869.446,1353.34 871.233,1350.62 873.021,1349.15 874.809,1367.87 876.596,1361.71 878.384,1362.49 
  880.172,1372.12 881.959,1357.03 883.747,1356.23 885.534,1357.4 887.322,1360.57 889.11,1368.49 890.897,1353.46 892.685,1357.87 894.472,1341.75 896.26,1340.47 
  898.048,1385.99 899.835,1380.39 901.623,1364.97 903.411,1350.15 905.198,1363.95 906.986,1374.7 908.773,1367.35 910.561,1377.36 912.349,1357.58 914.136,1362.59 
  915.924,1346.47 917.711,1365.92 919.499,1362.78 921.287,1366.1 923.074,1349.05 924.862,1369.92 926.65,1379.62 928.437,1347.9 930.225,1366.7 932.012,1359.59 
  933.8,1357.26 935.588,1357.43 937.375,1363.84 939.163,1358.9 940.95,1359.7 942.738,1355.43 944.526,1379.57 946.313,1370.77 948.101,1369.52 949.889,1364.35 
  951.676,1358.56 953.464,1371.83 955.251,1361.32 957.039,1365.84 958.827,1377.13 960.614,1368.61 962.402,1358.6 964.189,1352.19 965.977,1379.84 967.765,1357.09 
  969.552,1365.75 971.34,1357.27 973.128,1371.52 974.915,1367.99 976.703,1372.62 978.49,1361.27 980.278,1364.32 982.066,1357.35 983.853,1396.48 985.641,1352.92 
  987.428,1377.81 989.216,1373.45 991.004,1351.5 992.791,1384.95 994.579,1363.53 996.367,1358.71 998.154,1353.32 999.942,1367.82 1001.73,1388.03 1003.52,1381.15 
  1005.3,1372.49 1007.09,1378.99 1008.88,1377.69 1010.67,1355.09 1012.46,1354.72 1014.24,1377.18 1016.03,1356.79 1017.82,1354.4 1019.61,1370.39 1021.39,1350.79 
  1023.18,1369.76 1024.97,1383.65 1026.76,1364.59 1028.54,1372.47 1030.33,1367.99 1032.12,1361.5 1033.91,1369.4 1035.69,1379.64 1037.48,1366.77 1039.27,1354 
  1041.06,1371.09 1042.84,1365.72 1044.63,1368.69 1046.42,1366.21 1048.21,1386.54 1050,1348.36 1051.78,1366.73 1053.57,1366.44 1055.36,1369.99 1057.15,1378.8 
  1058.93,1381.65 1060.72,1384.13 1062.51,1389.89 1064.3,1377.77 1066.08,1382.03 1067.87,1363.2 1069.66,1372.97 1071.45,1363.29 1073.23,1347.27 1075.02,1378.64 
  1076.81,1385.4 1078.6,1392.56 1080.38,1383.95 1082.17,1357.32 1083.96,1375.06 1085.75,1368.65 1087.53,1367.51 1089.32,1388.14 1091.11,1362.7 1092.9,1377.61 
  1094.69,1353.97 1096.47,1358.9 1098.26,1380.08 1100.05,1360.47 1101.84,1372.57 1103.62,1368.85 1105.41,1396.14 1107.2,1385.21 1108.99,1376.19 1110.77,1358.06 
  1112.56,1357.09 1114.35,1384.46 1116.14,1370.38 1117.92,1367.96 1119.71,1385.47 1121.5,1368.21 1123.29,1381.24 1125.07,1378.26 1126.86,1350.88 1128.65,1358.82 
  1130.44,1383.87 1132.23,1380.22 1134.01,1377.71 1135.8,1364.61 1137.59,1358.94 1139.38,1385.88 1141.16,1359.13 1142.95,1375.16 1144.74,1381.35 1146.53,1370.24 
  1148.31,1374.59 1150.1,1383.49 1151.89,1373.64 1153.68,1376.54 1155.46,1381.09 1157.25,1387.19 1159.04,1385.01 1160.83,1394.37 1162.61,1388.78 1164.4,1360.34 
  1166.19,1363.33 1167.98,1389.99 1169.77,1371.43 1171.55,1379.91 1173.34,1374.99 1175.13,1389.44 1176.92,1367 1178.7,1384.25 1180.49,1373.18 1182.28,1375.75 
  1184.07,1376.09 1185.85,1378.04 1187.64,1360.74 1189.43,1373.93 1191.22,1380.53 1193,1367.79 1194.79,1395.39 1196.58,1388.88 1198.37,1378.96 1200.15,1376.85 
  1201.94,1400.25 1203.73,1365.94 1205.52,1360.53 1207.31,1383.07 1209.09,1380.51 1210.88,1381.29 1212.67,1362.74 1214.46,1382.04 1216.24,1395.36 1218.03,1367.81 
  1219.82,1379.38 1221.61,1384.5 1223.39,1366.69 1225.18,1382.59 1226.97,1377.9 1228.76,1367.65 1230.54,1390.98 1232.33,1384.99 1234.12,1375.04 1235.91,1388.28 
  1237.69,1365.19 1239.48,1379.16 1241.27,1373.04 1243.06,1380.26 1244.85,1397.22 1246.63,1383.29 1248.42,1401.16 1250.21,1400.96 1252,1365.83 1253.78,1388.64 
  1255.57,1381.44 1257.36,1365.37 1259.15,1366.44 1260.93,1395.08 1262.72,1399.75 1264.51,1389.54 1266.3,1373.33 1268.08,1382.76 1269.87,1374.18 1271.66,1394.65 
  1273.45,1369.83 1275.23,1388.1 1277.02,1385.99 1278.81,1385.04 1280.6,1395.48 1282.39,1377.43 1284.17,1398.9 1285.96,1376.7 1287.75,1369.63 1289.54,1391.49 
  1291.32,1374.35 1293.11,1401.49 1294.9,1391.28 1296.69,1389.81 1298.47,1382.46 1300.26,1382.21 1302.05,1365.37 1303.84,1400.08 1305.62,1378.38 1307.41,1370.6 
  1309.2,1384.42 1310.99,1369.25 1312.77,1396.41 1314.56,1384.88 1316.35,1385.53 1318.14,1360.68 1319.93,1385.06 1321.71,1397.15 1323.5,1393.78 1325.29,1386.29 
  1327.08,1379.52 1328.86,1404.39 1330.65,1378.57 1332.44,1380.37 1334.23,1393.92 1336.01,1373.81 1337.8,1372.52 1339.59,1397.8 1341.38,1392.95 1343.16,1380.39 
  1344.95,1377.38 1346.74,1402.17 1348.53,1392.11 1350.31,1392.31 1352.1,1381.57 1353.89,1399.91 1355.68,1389.74 1357.46,1396.27 1359.25,1386.84 1361.04,1377.12 
  1362.83,1388.31 1364.62,1381.75 1366.4,1381.27 1368.19,1391.06 1369.98,1387.19 1371.77,1373.12 1373.55,1374.22 1375.34,1379.63 1377.13,1370.19 1378.92,1384.93 
  1380.7,1384.13 1382.49,1384.64 1384.28,1394.45 1386.07,1389.14 1387.85,1383.27 1389.64,1390.6 1391.43,1384.87 1393.22,1397.44 1395,1386.92 1396.79,1389.26 
  1398.58,1374.99 1400.37,1386.54 1402.16,1397.99 1403.94,1368.99 1405.73,1393.09 1407.52,1402.55 1409.31,1376.68 1411.09,1377.46 1412.88,1399.96 1414.67,1374.72 
  1416.46,1385.85 1418.24,1392.7 1420.03,1390.26 1421.82,1395.27 1423.61,1391.85 1425.39,1373.58 1427.18,1394.16 1428.97,1402.32 1430.76,1391.77 1432.54,1395.59 
  1434.33,1401.54 1436.12,1387.49 1437.91,1385.46 1439.7,1404.8 1441.48,1380.98 1443.27,1386.02 1445.06,1408.59 1446.85,1399.8 1448.63,1390.48 1450.42,1389.03 
  1452.21,1392.21 1454,1388.71 1455.78,1396.83 1457.57,1390.11 1459.36,1389.33 1461.15,1404.07 1462.93,1397.38 1464.72,1388.46 1466.51,1396.08 1468.3,1388.84 
  1470.08,1385.76 1471.87,1384.25 1473.66,1403.52 1475.45,1398.8 1477.24,1391.69 1479.02,1396.35 1480.81,1392.48 1482.6,1405.62 1484.39,1407.84 1486.17,1394.34 
  1487.96,1399.65 1489.75,1383.57 1491.54,1387.67 1493.32,1390.33 1495.11,1391.94 1496.9,1399.94 1498.69,1402.08 1500.47,1391.31 1502.26,1384.03 1504.05,1383.06 
  1505.84,1388.95 1507.62,1392.88 1509.41,1395.04 1511.2,1393.31 1512.99,1401.39 1514.78,1378.8 1516.56,1402.67 1518.35,1391.46 1520.14,1404.38 1521.93,1403.54 
  1523.71,1399.57 1525.5,1391.9 1527.29,1395.73 1529.08,1392.58 1530.86,1390.6 1532.65,1392.69 1534.44,1390.11 1536.23,1387.94 1538.01,1403.53 1539.8,1384.84 
  1541.59,1396.2 1543.38,1369.75 1545.16,1377.66 1546.95,1390.08 1548.74,1407.4 1550.53,1397.86 1552.32,1396.3 1554.1,1399.38 1555.89,1388.33 1557.68,1393.13 
  1559.47,1380.72 1561.25,1411.12 1563.04,1399.45 1564.83,1382.97 1566.62,1391.03 1568.4,1388.19 1570.19,1398.45 1571.98,1384.2 1573.77,1372.3 1575.55,1395.43 
  1577.34,1388.09 1579.13,1403.46 1580.92,1411.13 1582.7,1391.84 1584.49,1406.92 1586.28,1398.76 1588.07,1391.51 1589.86,1388.93 1591.64,1388.75 1593.43,1401.88 
  1595.22,1399.22 1597.01,1402.24 1598.79,1395.94 1600.58,1404.6 1602.37,1403.63 1604.16,1396.86 1605.94,1398.44 1607.73,1397.61 1609.52,1403.5 1611.31,1400.56 
  1613.09,1389.85 1614.88,1387.1 1616.67,1404.81 1618.46,1401.15 1620.24,1393.15 1622.03,1395.34 1623.82,1386.7 1625.61,1393.38 1627.39,1417.63 1629.18,1413.24 
  1630.97,1392.25 1632.76,1406.05 1634.55,1398.93 1636.33,1406.2 1638.12,1398.21 1639.91,1397.71 1641.7,1405.41 1643.48,1411.94 1645.27,1407.49 1647.06,1406.25 
  1648.85,1388.12 1650.63,1392.77 1652.42,1396.82 1654.21,1386.3 1656,1413.13 1657.78,1383.35 1659.57,1392.88 1661.36,1396.93 1663.15,1399.25 1664.93,1405.46 
  1666.72,1412.2 1668.51,1410.21 1670.3,1384.92 1672.09,1409.72 1673.87,1420.13 1675.66,1403.75 1677.45,1400.34 1679.24,1384.07 1681.02,1404.81 1682.81,1399.55 
  1684.6,1415.08 1686.39,1390.33 1688.17,1409.27 1689.96,1408.01 1691.75,1428.85 1693.54,1388.64 1695.32,1390.07 1697.11,1393.16 1698.9,1401.44 1700.69,1389.95 
  1702.47,1394.54 1704.26,1395.03 1706.05,1404.03 1707.84,1401.85 1709.63,1399.42 1711.41,1407.66 1713.2,1410.37 1714.99,1411.77 1716.78,1403.47 1718.56,1410.94 
  1720.35,1399.85 1722.14,1404.78 1723.93,1397.72 1725.71,1412.96 1727.5,1399.43 1729.29,1404.16 1731.08,1416 1732.86,1414.96 1734.65,1384.13 1736.44,1395.29 
  1738.23,1398.74 1740.01,1394.61 1741.8,1405.32 1743.59,1400.63 1745.38,1392.13 1747.17,1420.18 1748.95,1407.99 1750.74,1399.75 1752.53,1426.78 1754.32,1395.75 
  1756.1,1399.5 1757.89,1403.4 1759.68,1399.57 1761.47,1403.9 1763.25,1409.08 1765.04,1409.9 1766.83,1413.96 1768.62,1407.32 1770.4,1412.44 1772.19,1397.47 
  1773.98,1387.45 1775.77,1407.44 1777.55,1402.67 1779.34,1405.15 1781.13,1410.76 1782.92,1414.73 1784.71,1406.69 1786.49,1410.62 1788.28,1401.9 1790.07,1405.6 
  1791.86,1415.19 1793.64,1411.13 1795.43,1402.8 1797.22,1395.44 1799.01,1416.13 1800.79,1403.64 1802.58,1402.79 1804.37,1407.47 1806.16,1397.01 1807.94,1414.07 
  1809.73,1400.57 1811.52,1401.58 1813.31,1397.92 1815.09,1396.87 1816.88,1396.42 1818.67,1399.09 1820.46,1409.87 1822.25,1403.27 1824.03,1411.45 1825.82,1409.11 
  1827.61,1418.83 1829.4,1419.42 1831.18,1401.37 1832.97,1427.33 1834.76,1394.04 1836.55,1418.21 1838.33,1401.55 1840.12,1417.72 1841.91,1411.6 1843.7,1401.9 
  1845.48,1388.37 1847.27,1428.48 1849.06,1405.45 1850.85,1388.48 1852.63,1420.24 1854.42,1400.03 1856.21,1396.85 1858,1416.04 1859.79,1396.13 1861.57,1404.65 
  1863.36,1410.05 1865.15,1410.36 1866.94,1398.8 1868.72,1412.53 1870.51,1430.24 1872.3,1411.29 1874.09,1407.03 1875.87,1409.22 1877.66,1407.27 1879.45,1436.5 
  1881.24,1395.38 1883.02,1411.11 1884.81,1389.27 1886.6,1403.64 1888.39,1423.51 1890.17,1423.03 1891.96,1415.99 1893.75,1429 1895.54,1412.84 1897.32,1401.3 
  1899.11,1415.06 1900.9,1416.95 1902.69,1415.97 1904.48,1408.03 1906.26,1407.63 1908.05,1409.06 1909.84,1396.76 1911.63,1403.1 1913.41,1403.86 1915.2,1411.24 
  1916.99,1411.78 1918.78,1412.06 1920.56,1425.15 1922.35,1409.05 1924.14,1415.75 1925.93,1418.76 1927.71,1424.61 1929.5,1421.08 1931.29,1417.56 1933.08,1410.88 
  1934.86,1415.5 1936.65,1427.96 1938.44,1411.07 1940.23,1419.23 1942.02,1432.01 1943.8,1402.26 1945.59,1412.83 1947.38,1410.49 1949.17,1426.55 1950.95,1397.79 
  1952.74,1418.74 1954.53,1417.55 1956.32,1417.94 1958.1,1420.67 1959.89,1414.22 1961.68,1407.49 1963.47,1421.04 1965.25,1411.9 1967.04,1420.08 1968.83,1429.02 
  1970.62,1436.63 1972.4,1415.94 1974.19,1420.83 1975.98,1431.07 1977.77,1408.23 1979.56,1404.58 1981.34,1446.29 1983.13,1409.96 1984.92,1403.87 1986.71,1431.07 
  1988.49,1439.61 1990.28,1409.41 1992.07,1413.91 1993.86,1406.68 1995.64,1411.84 1997.43,1424.91 1999.22,1407.72 2001.01,1430.71 2002.79,1423.99 2004.58,1414.81 
  2006.37,1424.46 2008.16,1414.32 2009.94,1407.14 2011.73,1426.76 2013.52,1424.41 2015.31,1415.08 2017.1,1422.55 2018.88,1415.61 2020.67,1420.63 2022.46,1415.3 
  2024.25,1422.21 2026.03,1426.02 2027.82,1439.3 2029.61,1420.13 2031.4,1432.34 2033.18,1432.8 2034.97,1415.86 2036.76,1422.81 2038.55,1421.1 2040.33,1423.53 
  2042.12,1417.41 2043.91,1447.87 2045.7,1427.94 2047.48,1413.07 2049.27,1423.1 2051.06,1439.48 2052.85,1415.31 2054.64,1417.44 2056.42,1422.45 2058.21,1423.25 
  2060,1412.59 2061.79,1421.08 2063.57,1413.58 2065.36,1422.42 2067.15,1416.37 2068.94,1435.73 2070.72,1424.78 2072.51,1414.1 2074.3,1437.72 2076.09,1426.41 
  2077.87,1421.97 2079.66,1422.54 2081.45,1421.42 2083.24,1419.55 2085.02,1425.56 2086.81,1414.41 2088.6,1425.83 2090.39,1433.74 2092.18,1412.87 2093.96,1425.95 
  2095.75,1429.45 2097.54,1426.25 2099.33,1418.02 2101.11,1427.85 2102.9,1428.64 2104.69,1426.07 2106.48,1416.05 2108.26,1430.39 2110.05,1426.67 2111.84,1429.98 
  2113.63,1446.46 2115.41,1430.8 2117.2,1434.41 2118.99,1425.75 2120.78,1425.46 2122.56,1431.75 2124.35,1423.75 2126.14,1433.79 2127.93,1424.77 2129.72,1420.31 
  2131.5,1407.13 2133.29,1411.85 2135.08,1433.86 2136.87,1428.97 2138.65,1411.29 2140.44,1423.99 2142.23,1431.21 2144.02,1429.88 2145.8,1428.66 2147.59,1420.09 
  2149.38,1439.22 2151.17,1445.11 2152.95,1426.76 2154.74,1417.79 2156.53,1425.21 2158.32,1428.38 2160.1,1432.67 2161.89,1422.52 2163.68,1424.92 2165.47,1429.47 
  2167.26,1415.99 2169.04,1425.24 2170.83,1419.74 2172.62,1414.61 2174.41,1424.94 2176.19,1432.06 2177.98,1429.74 2179.77,1436.62 2181.56,1425.36 2183.34,1438.99 
  2185.13,1426.56 2186.92,1425.87 2188.71,1422.97 2190.49,1432.5 2192.28,1436.45 2194.07,1425.27 2195.86,1423.88 2197.64,1427.65 2199.43,1439.51 2201.22,1408.33 
  2203.01,1444.28 2204.79,1436.82 2206.58,1425.3 2208.37,1430.1 2210.16,1434.08 2211.95,1426.57 2213.73,1419.9 2215.52,1435.3 2217.31,1411.19 2219.1,1421.72 
  2220.88,1417.11 2222.67,1430.19 2224.46,1411.45 2226.25,1429.1 2228.03,1428.91 2229.82,1442.5 2231.61,1436.77 2233.4,1424.18 2235.18,1430.61 2236.97,1428.97 
  2238.76,1421.12 2240.55,1429.7 2242.33,1427.01 2244.12,1426.92 2245.91,1440.73 2247.7,1433.46 2249.49,1417.24 2251.27,1426.11 2253.06,1418.74 2254.85,1430.24 
  2256.64,1438.52 2258.42,1416.07 2260.21,1416.51 2262,1410.75 2263.79,1440.29 2265.57,1431.11 2267.36,1437.71 2269.15,1418.82 2270.94,1431.74 2272.72,1421.96 
  2274.51,1417.2 2276.3,1435.96 2278.09,1435.8 2279.87,1425.21 2281.66,1426.18 2283.45,1426.32 2285.24,1437.45 2287.03,1432.02 2288.81,1435.41 2290.6,1426.49 
  
  "/>
<polyline clip-path="url(#clip082)" style="stroke:#e26f46; stroke-linecap:butt; stroke-linejoin:round; stroke-width:4; stroke-opacity:1; fill:none" points="
  218.754,182.572 220.541,168.039 222.329,167.868 224.116,162.047 225.904,170.074 227.692,172.733 229.479,177.911 231.267,184.873 233.055,184.512 234.842,185.442 
  236.63,188.991 238.417,189.315 240.205,189.667 241.993,190.718 243.78,191.725 245.568,192.289 247.355,193.016 249.143,193.726 250.931,194.55 252.718,195.441 
  254.506,196.715 256.294,198.215 258.081,199.826 259.869,201.726 261.656,204.145 263.444,207.011 265.232,210.349 267.019,214.177 268.807,218.534 270.595,223.116 
  272.382,227.998 274.17,233.443 275.957,239.212 277.745,245.527 279.533,252.222 281.32,259.125 283.108,266.511 284.895,274.329 286.683,282.465 288.471,290.479 
  290.258,298.89 292.046,308.174 293.834,318.403 295.621,328.736 297.409,339.927 299.196,352.123 300.984,360.933 302.772,378.587 304.559,396.283 306.347,412.091 
  308.134,425.922 309.922,440.045 311.71,456.062 313.497,472.28 315.285,487.141 317.073,503.081 318.86,519.415 320.648,536.321 322.435,552.206 324.223,565.446 
  326.011,580.913 327.798,597.078 329.586,608.092 331.373,623.804 333.161,633.694 334.949,648.155 336.736,660.907 338.524,671.52 340.312,687.574 342.099,696.844 
  343.887,703.365 345.674,718.463 347.462,726.463 349.25,749.585 351.037,761.299 352.825,765.453 354.612,795.948 356.4,776.88 358.188,812.583 359.975,822.092 
  361.763,836.087 363.551,847.49 365.338,856.16 367.126,869.002 368.913,890.393 370.701,892.919 372.489,892.574 374.276,913.556 376.064,923.526 377.851,918.734 
  379.639,946.559 381.427,936.005 383.214,947.279 385.002,961.381 386.79,962.887 388.577,972.024 390.365,968.054 392.152,987.87 393.94,989.293 395.728,993.085 
  397.515,1000.5 399.303,1009.84 401.09,1016.32 402.878,1013.39 404.666,1025.55 406.453,1020.73 408.241,1043.23 410.029,1035.64 411.816,1055.07 413.604,1046.03 
  415.391,1052.86 417.179,1066.69 418.967,1070.26 420.754,1085.75 422.542,1080.95 424.329,1085.79 426.117,1100.98 427.905,1105.36 429.692,1105.56 431.48,1095.79 
  433.268,1100.43 435.055,1123 436.843,1117.95 438.63,1127.86 440.418,1129.79 442.206,1143.76 443.993,1136.83 445.781,1152.39 447.568,1157.21 449.356,1165.49 
  451.144,1170.36 452.931,1178.02 454.719,1178.89 456.507,1182.92 458.294,1176.84 460.082,1125.74 461.869,1159.59 463.657,1151.77 465.445,1196.23 467.232,1198.37 
  469.02,1205.26 470.807,1212.5 472.595,1214.65 474.383,1217.5 476.17,1224.29 477.958,1216.88 479.746,1217.18 481.533,1228.47 483.321,1198.29 485.108,1221.27 
  486.896,1231.84 488.684,1238.35 490.471,1239.29 492.259,1240.65 494.046,1236.23 495.834,1251.54 497.622,1250.29 499.409,1254.19 501.197,1251.87 502.985,1248.58 
  504.772,1255.13 506.56,1249.45 508.347,1261.06 510.135,1262.28 511.923,1261.81 513.71,1265.09 515.498,1269.41 517.286,1276.97 519.073,1274.56 520.861,1279.59 
  522.648,1270.7 524.436,1267.99 526.224,1278.76 528.011,1280.16 529.799,1286.84 531.586,1287.81 533.374,1284.31 535.162,1282.56 536.949,1290.8 538.737,1286.9 
  540.525,1294.89 542.312,1297.94 544.1,1295.06 545.887,1294.93 547.675,1300.18 549.463,1297.42 551.25,1295.74 553.038,1294.85 554.825,1304.02 556.613,1297.08 
  558.401,1295.54 560.188,1304.72 561.976,1299.34 563.764,1307.37 565.551,1306.96 567.339,1304.69 569.126,1311.22 570.914,1307.72 572.702,1309.92 574.489,1307.13 
  576.277,1310.64 578.064,1305.79 579.852,1314.98 581.64,1311.11 583.427,1317.15 585.215,1322.58 587.003,1313.18 588.79,1312.03 590.578,1314.35 592.365,1317.09 
  594.153,1320.18 595.941,1322.09 597.728,1321.54 599.516,1325.99 601.303,1323.56 603.091,1322.43 604.879,1325.93 606.666,1320.99 608.454,1320.57 610.242,1323.04 
  612.029,1314.98 613.817,1316.89 615.604,1326.71 617.392,1333.2 619.18,1325.13 620.967,1327.58 622.755,1332.13 624.542,1326.7 626.33,1332.96 628.118,1330.32 
  629.905,1332.21 631.693,1329.4 633.481,1334.45 635.268,1332.01 637.056,1332.58 638.843,1334.52 640.631,1333.01 642.419,1330.39 644.206,1335.97 645.994,1336.76 
  647.781,1335.62 649.569,1332.99 651.357,1335 653.144,1332.64 654.932,1331.13 656.72,1335.98 658.507,1336.58 660.295,1336.51 662.082,1337.17 663.87,1334.12 
  665.658,1339.67 667.445,1340.45 669.233,1340.38 671.02,1333.27 672.808,1340.09 674.596,1336.41 676.383,1340.32 678.171,1340.3 679.959,1341.92 681.746,1339.57 
  683.534,1338.03 685.321,1337.8 687.109,1339.81 688.897,1337.82 690.684,1343.83 692.472,1339.51 694.259,1345.57 696.047,1340.18 697.835,1344.09 699.622,1338.94 
  701.41,1344.59 703.198,1340.37 704.985,1347.25 706.773,1342.23 708.56,1347.62 710.348,1338.52 712.136,1345.73 713.923,1340.92 715.711,1340.96 717.498,1337.8 
  719.286,1341.13 721.074,1338.84 722.861,1342.18 724.649,1343.8 726.437,1345.31 728.224,1346.54 730.012,1345 731.799,1344.34 733.587,1350.02 735.375,1338.11 
  737.162,1350.54 738.95,1342.3 740.737,1350 742.525,1345.28 744.313,1344.27 746.1,1348.13 747.888,1346.62 749.676,1346.12 751.463,1351.7 753.251,1346.43 
  755.038,1350.07 756.826,1346.36 758.614,1352.46 760.401,1351.7 762.189,1349.18 763.976,1347.75 765.764,1343.55 767.552,1346.04 769.339,1349.04 771.127,1348.43 
  772.915,1348.73 774.702,1341.93 776.49,1350.84 778.277,1344.18 780.065,1351.31 781.853,1337.23 783.64,1351.74 785.428,1340.25 787.216,1349.35 789.003,1344.51 
  790.791,1347.78 792.578,1346.51 794.366,1347.04 796.154,1350.74 797.941,1350.01 799.729,1354.38 801.516,1347.2 803.304,1354.15 805.092,1351.37 806.879,1353.67 
  808.667,1351.14 810.455,1353.77 812.242,1354.14 814.03,1345.83 815.817,1346.48 817.605,1353.76 819.393,1346.79 821.18,1356.04 822.968,1356.08 824.755,1352.35 
  826.543,1350.48 828.331,1352.87 830.118,1350.22 831.906,1352.2 833.694,1354.29 835.481,1347.57 837.269,1353.46 839.056,1350.17 840.844,1349.9 842.632,1346.22 
  844.419,1353.56 846.207,1346.18 847.994,1355.35 849.782,1347.95 851.57,1354.05 853.357,1352.77 855.145,1352.37 856.933,1352.26 858.72,1354.04 860.508,1351.41 
  862.295,1353.99 864.083,1354.58 865.871,1352.19 867.658,1356.28 869.446,1354.16 871.233,1355.52 873.021,1353.65 874.809,1354.76 876.596,1357.93 878.384,1358.16 
  880.172,1356.37 881.959,1353.27 883.747,1353.08 885.534,1353.22 887.322,1353.65 889.11,1354.13 890.897,1351.76 892.685,1348.61 894.472,1341.88 896.26,1345.52 
  898.048,1358.09 899.835,1348.07 901.623,1352.11 903.411,1353.98 905.198,1358.34 906.986,1358.74 908.773,1355.05 910.561,1354.38 912.349,1354.17 914.136,1358.42 
  915.924,1357.55 917.711,1355.87 919.499,1351.3 921.287,1355.61 923.074,1348.83 924.862,1354.68 926.65,1357.35 928.437,1350.5 930.225,1354.55 932.012,1350.01 
  933.8,1354.33 935.588,1341.51 937.375,1348.75 939.163,1349.73 940.95,1351.51 942.738,1355.57 944.526,1359.85 946.313,1356.7 948.101,1356.61 949.889,1355.37 
  951.676,1351.88 953.464,1349.2 955.251,1355.67 957.039,1361.33 958.827,1355.81 960.614,1358.9 962.402,1354.2 964.189,1350.85 965.977,1356.52 967.765,1349.3 
  969.552,1351.61 971.34,1357.64 973.128,1357.53 974.915,1354.51 976.703,1356.87 978.49,1349.42 980.278,1354.81 982.066,1353.6 983.853,1362.25 985.641,1349.96 
  987.428,1353.1 989.216,1354.32 991.004,1347.69 992.791,1361.75 994.579,1357.32 996.367,1358.6 998.154,1358.12 999.942,1355.5 1001.73,1360.63 1003.52,1358 
  1005.3,1355.55 1007.09,1357.66 1008.88,1354.61 1010.67,1356.4 1012.46,1354.34 1014.24,1364.39 1016.03,1363.17 1017.82,1358.47 1019.61,1354.86 1021.39,1354.56 
  1023.18,1362.2 1024.97,1361.24 1026.76,1356.2 1028.54,1358.59 1030.33,1352.75 1032.12,1359.31 1033.91,1359.12 1035.69,1362.73 1037.48,1363.46 1039.27,1355.24 
  1041.06,1359.92 1042.84,1358.4 1044.63,1356.99 1046.42,1355.6 1048.21,1357 1050,1354.43 1051.78,1357.57 1053.57,1358.06 1055.36,1354.82 1057.15,1358.8 
  1058.93,1360.61 1060.72,1366.45 1062.51,1363.32 1064.3,1361.08 1066.08,1363.38 1067.87,1360.06 1069.66,1363.2 1071.45,1355.51 1073.23,1356.82 1075.02,1354.21 
  1076.81,1364.46 1078.6,1363.08 1080.38,1361.17 1082.17,1362.39 1083.96,1360.78 1085.75,1362.74 1087.53,1364.1 1089.32,1367.77 1091.11,1364.26 1092.9,1363.29 
  1094.69,1359.8 1096.47,1370.26 1098.26,1361.12 1100.05,1360.26 1101.84,1363.64 1103.62,1360.97 1105.41,1362.23 1107.2,1364.02 1108.99,1366.01 1110.77,1362.58 
  1112.56,1365.31 1114.35,1366.29 1116.14,1364.27 1117.92,1359.11 1119.71,1368.04 1121.5,1361.61 1123.29,1361.84 1125.07,1365.04 1126.86,1364.26 1128.65,1361.59 
  1130.44,1363.5 1132.23,1371.22 1134.01,1362.92 1135.8,1366.96 1137.59,1361.93 1139.38,1364.9 1141.16,1364.28 1142.95,1360.49 1144.74,1373.5 1146.53,1367.64 
  1148.31,1369.38 1150.1,1367.56 1151.89,1362.31 1153.68,1361.28 1155.46,1365.79 1157.25,1366.06 1159.04,1367.44 1160.83,1368.86 1162.61,1367.8 1164.4,1365.06 
  1166.19,1363.42 1167.98,1364.82 1169.77,1370.29 1171.55,1368.91 1173.34,1368.67 1175.13,1367.3 1176.92,1368.63 1178.7,1369.38 1180.49,1363.47 1182.28,1363.26 
  1184.07,1368.42 1185.85,1368 1187.64,1363.87 1189.43,1366.63 1191.22,1368.41 1193,1362.4 1194.79,1367.75 1196.58,1370.42 1198.37,1366.65 1200.15,1369.74 
  1201.94,1371.62 1203.73,1367.15 1205.52,1369.72 1207.31,1368.45 1209.09,1370.29 1210.88,1367.4 1212.67,1371.37 1214.46,1373.68 1216.24,1368.06 1218.03,1372.55 
  1219.82,1371.67 1221.61,1365.32 1223.39,1366.43 1225.18,1370.92 1226.97,1371.18 1228.76,1365.38 1230.54,1369.99 1232.33,1364.11 1234.12,1363.61 1235.91,1357.67 
  1237.69,1365.24 1239.48,1369.93 1241.27,1369.99 1243.06,1368.39 1244.85,1374.06 1246.63,1371.06 1248.42,1371.78 1250.21,1373.17 1252,1369.53 1253.78,1371.27 
  1255.57,1374.71 1257.36,1372.49 1259.15,1371.74 1260.93,1373.34 1262.72,1375.68 1264.51,1373.44 1266.3,1373.1 1268.08,1371.85 1269.87,1375.89 1271.66,1373.76 
  1273.45,1375.95 1275.23,1370.99 1277.02,1368.79 1278.81,1375.16 1280.6,1375.5 1282.39,1372.97 1284.17,1374.86 1285.96,1369.39 1287.75,1367.28 1289.54,1372.49 
  1291.32,1367.62 1293.11,1373.38 1294.9,1376.46 1296.69,1371.56 1298.47,1367.26 1300.26,1370.16 1302.05,1366.54 1303.84,1369.43 1305.62,1370.75 1307.41,1373.94 
  1309.2,1376.1 1310.99,1369.31 1312.77,1374.64 1314.56,1372.91 1316.35,1371.51 1318.14,1375.77 1319.93,1376.19 1321.71,1370.41 1323.5,1370.24 1325.29,1372.13 
  1327.08,1373.19 1328.86,1377.25 1330.65,1374.37 1332.44,1369.91 1334.23,1371.79 1336.01,1374.66 1337.8,1373.58 1339.59,1373.36 1341.38,1375.2 1343.16,1372.97 
  1344.95,1370.59 1346.74,1376.45 1348.53,1378.33 1350.31,1377.47 1352.1,1376.51 1353.89,1375.38 1355.68,1374.76 1357.46,1375.2 1359.25,1378.33 1361.04,1375.1 
  1362.83,1371.62 1364.62,1375.25 1366.4,1375.96 1368.19,1378.35 1369.98,1379.71 1371.77,1373.21 1373.55,1375.42 1375.34,1378.63 1377.13,1375.96 1378.92,1377.13 
  1380.7,1376.44 1382.49,1376.29 1384.28,1378.09 1386.07,1375.78 1387.85,1375.81 1389.64,1378.47 1391.43,1377.19 1393.22,1375.31 1395,1374.28 1396.79,1371.76 
  1398.58,1374.9 1400.37,1379.95 1402.16,1379.68 1403.94,1376.74 1405.73,1381.13 1407.52,1381.35 1409.31,1379.36 1411.09,1377.42 1412.88,1378.18 1414.67,1380.59 
  1416.46,1378.34 1418.24,1372.01 1420.03,1376.08 1421.82,1378.29 1423.61,1376.22 1425.39,1377.65 1427.18,1381.89 1428.97,1382.21 1430.76,1379.52 1432.54,1381.08 
  1434.33,1380.76 1436.12,1376.65 1437.91,1377.86 1439.7,1377.87 1441.48,1379.08 1443.27,1378.7 1445.06,1379.13 1446.85,1375.89 1448.63,1379.55 1450.42,1379.72 
  1452.21,1378.06 1454,1381.61 1455.78,1378.8 1457.57,1379.65 1459.36,1383.11 1461.15,1380.11 1462.93,1379.01 1464.72,1371.1 1466.51,1377.86 1468.3,1379.44 
  1470.08,1378.17 1471.87,1379.48 1473.66,1382.86 1475.45,1381.62 1477.24,1380.2 1479.02,1379.2 1480.81,1378.33 1482.6,1381.29 1484.39,1382.01 1486.17,1380.2 
  1487.96,1385.28 1489.75,1386.37 1491.54,1383.4 1493.32,1377.47 1495.11,1379.29 1496.9,1383.51 1498.69,1385.75 1500.47,1379.49 1502.26,1378.04 1504.05,1381.08 
  1505.84,1382.77 1507.62,1382.73 1509.41,1382.12 1511.2,1381.67 1512.99,1378.18 1514.78,1376.34 1516.56,1377.05 1518.35,1377.68 1520.14,1383.28 1521.93,1383.78 
  1523.71,1382.38 1525.5,1385.68 1527.29,1385.14 1529.08,1383.89 1530.86,1381.75 1532.65,1384.61 1534.44,1380.7 1536.23,1380.75 1538.01,1375.51 1539.8,1375.43 
  1541.59,1380.51 1543.38,1377.81 1545.16,1380.7 1546.95,1384.17 1548.74,1384.95 1550.53,1383.54 1552.32,1380.93 1554.1,1382.33 1555.89,1382.58 1557.68,1383.24 
  1559.47,1383.67 1561.25,1386.44 1563.04,1388.25 1564.83,1382.65 1566.62,1381.48 1568.4,1380.38 1570.19,1380.2 1571.98,1383.61 1573.77,1385.55 1575.55,1385.87 
  1577.34,1383.26 1579.13,1388.49 1580.92,1387.32 1582.7,1384.04 1584.49,1377.94 1586.28,1377.67 1588.07,1383.48 1589.86,1385.55 1591.64,1386.84 1593.43,1381.11 
  1595.22,1387.27 1597.01,1385.58 1598.79,1385.71 1600.58,1385.97 1602.37,1382.79 1604.16,1385.3 1605.94,1384.3 1607.73,1386.14 1609.52,1385.49 1611.31,1387.16 
  1613.09,1384.03 1614.88,1382.87 1616.67,1385.98 1618.46,1385.98 1620.24,1386.86 1622.03,1386.81 1623.82,1384.45 1625.61,1384.71 1627.39,1386.73 1629.18,1384.66 
  1630.97,1384.5 1632.76,1385.81 1634.55,1388.18 1636.33,1387.98 1638.12,1386.6 1639.91,1383.95 1641.7,1382.94 1643.48,1386.37 1645.27,1380.19 1647.06,1387.64 
  1648.85,1386.96 1650.63,1385.37 1652.42,1388.82 1654.21,1387.06 1656,1385.44 1657.78,1384.96 1659.57,1383.82 1661.36,1384.49 1663.15,1386.08 1664.93,1388.44 
  1666.72,1382.99 1668.51,1380.3 1670.3,1384.6 1672.09,1384.81 1673.87,1382.87 1675.66,1385.68 1677.45,1386.68 1679.24,1387.96 1681.02,1387.98 1682.81,1389.06 
  1684.6,1388.96 1686.39,1387.37 1688.17,1385.22 1689.96,1385.79 1691.75,1388.82 1693.54,1387.15 1695.32,1390.54 1697.11,1388.98 1698.9,1389.16 1700.69,1384.44 
  1702.47,1385.69 1704.26,1382.65 1706.05,1386.94 1707.84,1390.68 1709.63,1393.95 1711.41,1392.39 1713.2,1387.66 1714.99,1391.77 1716.78,1390.77 1718.56,1388.35 
  1720.35,1385.98 1722.14,1389.35 1723.93,1390.38 1725.71,1389.78 1727.5,1389.09 1729.29,1386.96 1731.08,1391.86 1732.86,1389.64 1734.65,1390.13 1736.44,1389.84 
  1738.23,1388.34 1740.01,1389.05 1741.8,1388.82 1743.59,1390.02 1745.38,1388.29 1747.17,1392.27 1748.95,1389.86 1750.74,1385.34 1752.53,1388.94 1754.32,1391.03 
  1756.1,1391.07 1757.89,1389.41 1759.68,1384.13 1761.47,1391.27 1763.25,1392.5 1765.04,1391.56 1766.83,1396.13 1768.62,1391.92 1770.4,1390.66 1772.19,1387.24 
  1773.98,1389.49 1775.77,1393.02 1777.55,1391.67 1779.34,1392.39 1781.13,1390.35 1782.92,1391.05 1784.71,1393.77 1786.49,1393.35 1788.28,1391.46 1790.07,1389.75 
  1791.86,1385.6 1793.64,1391.11 1795.43,1392.52 1797.22,1391.69 1799.01,1391.8 1800.79,1393.5 1802.58,1390.05 1804.37,1389.17 1806.16,1391.88 1807.94,1395.33 
  1809.73,1391.15 1811.52,1392.26 1813.31,1390.38 1815.09,1389.43 1816.88,1390.26 1818.67,1393.82 1820.46,1394.74 1822.25,1396.32 1824.03,1395.85 1825.82,1390.27 
  1827.61,1395.67 1829.4,1396.83 1831.18,1395.96 1832.97,1395.63 1834.76,1395.96 1836.55,1397.08 1838.33,1396.95 1840.12,1395.5 1841.91,1394.4 1843.7,1392.05 
  1845.48,1390.88 1847.27,1397.32 1849.06,1398.02 1850.85,1396.47 1852.63,1396.58 1854.42,1390.34 1856.21,1391.86 1858,1397.93 1859.79,1399.08 1861.57,1395.84 
  1863.36,1396.23 1865.15,1395.28 1866.94,1391.66 1868.72,1395.92 1870.51,1398.73 1872.3,1396.2 1874.09,1392.96 1875.87,1397.05 1877.66,1397.54 1879.45,1396.79 
  1881.24,1396.86 1883.02,1398.99 1884.81,1396.34 1886.6,1397.66 1888.39,1398.12 1890.17,1396.14 1891.96,1396.14 1893.75,1399.08 1895.54,1399.8 1897.32,1397.55 
  1899.11,1395.56 1900.9,1397.94 1902.69,1397.13 1904.48,1399.03 1906.26,1402.39 1908.05,1397.55 1909.84,1397.32 1911.63,1401.61 1913.41,1399.74 1915.2,1396.01 
  1916.99,1398.77 1918.78,1401.91 1920.56,1399.4 1922.35,1399.57 1924.14,1398.88 1925.93,1398.15 1927.71,1397.6 1929.5,1398.88 1931.29,1399.62 1933.08,1399.07 
  1934.86,1399.87 1936.65,1397.8 1938.44,1399.21 1940.23,1401.33 1942.02,1399.58 1943.8,1398.78 1945.59,1398.69 1947.38,1400.3 1949.17,1398.75 1950.95,1397.55 
  1952.74,1401.51 1954.53,1397.34 1956.32,1400.33 1958.1,1399.3 1959.89,1397.64 1961.68,1400.45 1963.47,1401.5 1965.25,1401.6 1967.04,1403.27 1968.83,1398.93 
  1970.62,1400.74 1972.4,1397.28 1974.19,1398.82 1975.98,1399.7 1977.77,1401.03 1979.56,1401.16 1981.34,1398.37 1983.13,1396.33 1984.92,1396.53 1986.71,1403.05 
  1988.49,1402.68 1990.28,1400.65 1992.07,1397.36 1993.86,1397.73 1995.64,1403.01 1997.43,1399.25 1999.22,1398.69 2001.01,1404.81 2002.79,1405.26 2004.58,1402.18 
  2006.37,1400.81 2008.16,1401.33 2009.94,1405.06 2011.73,1402.86 2013.52,1402.22 2015.31,1401.83 2017.1,1403.66 2018.88,1403.95 2020.67,1402.91 2022.46,1399.36 
  2024.25,1404.52 2026.03,1404.37 2027.82,1403.86 2029.61,1405.19 2031.4,1404.94 2033.18,1402.12 2034.97,1402.89 2036.76,1402.97 2038.55,1404.65 2040.33,1404 
  2042.12,1403.27 2043.91,1405.51 2045.7,1405.4 2047.48,1405.22 2049.27,1403.49 2051.06,1401.56 2052.85,1401.33 2054.64,1400.78 2056.42,1401.68 2058.21,1405.46 
  2060,1406.43 2061.79,1404.36 2063.57,1406.79 2065.36,1408.32 2067.15,1406.82 2068.94,1407.6 2070.72,1406.14 2072.51,1403.25 2074.3,1407.68 2076.09,1406.05 
  2077.87,1404.1 2079.66,1405.39 2081.45,1404.87 2083.24,1407.93 2085.02,1406.49 2086.81,1407.25 2088.6,1407.84 2090.39,1409.92 2092.18,1407.15 2093.96,1402.94 
  2095.75,1402.14 2097.54,1409.31 2099.33,1404.84 2101.11,1405.02 2102.9,1403.58 2104.69,1407.96 2106.48,1411.85 2108.26,1409.77 2110.05,1405.81 2111.84,1406 
  2113.63,1406 2115.41,1408.13 2117.2,1405.82 2118.99,1405.51 2120.78,1405.35 2122.56,1406.94 2124.35,1412.59 2126.14,1411.52 2127.93,1407.39 2129.72,1405.43 
  2131.5,1411.47 2133.29,1408.1 2135.08,1404.86 2136.87,1404.53 2138.65,1405.82 2140.44,1409.39 2142.23,1408.03 2144.02,1410.31 2145.8,1410.58 2147.59,1409.91 
  2149.38,1412.89 2151.17,1415.58 2152.95,1411.86 2154.74,1408.21 2156.53,1406.08 2158.32,1404.1 2160.1,1405.2 2161.89,1408.52 2163.68,1409.61 2165.47,1410.15 
  2167.26,1408.23 2169.04,1410.57 2170.83,1412.24 2172.62,1403.46 2174.41,1404.5 2176.19,1406.61 2177.98,1406.33 2179.77,1410.55 2181.56,1409.32 2183.34,1409.1 
  2185.13,1409.52 2186.92,1406.66 2188.71,1406.91 2190.49,1410.69 2192.28,1411.92 2194.07,1412.91 2195.86,1411.23 2197.64,1413.75 2199.43,1411.52 2201.22,1408.97 
  2203.01,1412.42 2204.79,1411.55 2206.58,1406.34 2208.37,1411.59 2210.16,1411.81 2211.95,1408.11 2213.73,1413.03 2215.52,1412.54 2217.31,1409.41 2219.1,1411.8 
  2220.88,1409.27 2222.67,1408.41 2224.46,1409.94 2226.25,1411.64 2228.03,1414.84 2229.82,1414.47 2231.61,1411.29 2233.4,1409.65 2235.18,1413 2236.97,1414.22 
  2238.76,1413.67 2240.55,1411.05 2242.33,1411.95 2244.12,1412.31 2245.91,1413.82 2247.7,1412.85 2249.49,1411.98 2251.27,1410.75 2253.06,1409.76 2254.85,1414.58 
  2256.64,1411.81 2258.42,1409.61 2260.21,1408.33 2262,1408.26 2263.79,1410.33 2265.57,1412.87 2267.36,1410.19 2269.15,1408.14 2270.94,1413.9 2272.72,1412.81 
  2274.51,1414.92 2276.3,1414.49 2278.09,1413.94 2279.87,1412.58 2281.66,1411.59 2283.45,1414.08 2285.24,1413.41 2287.03,1414.5 2288.81,1417.58 2290.6,1418.76 
  
  "/>
<path clip-path="url(#clip080)" d="
M1822.13 324.425 L2279.55 324.425 L2279.55 168.905 L1822.13 168.905  Z
  " fill="#ffffff" fill-rule="evenodd" fill-opacity="1"/>
<polyline clip-path="url(#clip080)" style="stroke:#000000; stroke-linecap:butt; stroke-linejoin:round; stroke-width:4; stroke-opacity:1; fill:none" points="
  1822.13,324.425 2279.55,324.425 2279.55,168.905 1822.13,168.905 1822.13,324.425 
  "/>
<polyline clip-path="url(#clip080)" style="stroke:#009af9; stroke-linecap:butt; stroke-linejoin:round; stroke-width:4; stroke-opacity:1; fill:none" points="
  1846.53,220.745 1992.94,220.745 
  "/>
<path clip-path="url(#clip080)" d="M2024.75 204.738 L2024.75 212.099 L2033.53 212.099 L2033.53 215.409 L2024.75 215.409 L2024.75 229.483 Q2024.75 232.654 2025.61 233.557 Q2026.49 234.46 2029.15 234.46 L2033.53 234.46 L2033.53 238.025 L2029.15 238.025 Q2024.22 238.025 2022.35 236.196 Q2020.47 234.344 2020.47 229.483 L2020.47 215.409 L2017.35 215.409 L2017.35 212.099 L2020.47 212.099 L2020.47 204.738 L2024.75 204.738 Z" fill="#000000" fill-rule="evenodd" fill-opacity="1" /><path clip-path="url(#clip080)" d="M2054.15 216.08 Q2053.43 215.664 2052.58 215.478 Q2051.74 215.27 2050.72 215.27 Q2047.11 215.27 2045.17 217.631 Q2043.25 219.969 2043.25 224.367 L2043.25 238.025 L2038.97 238.025 L2038.97 212.099 L2043.25 212.099 L2043.25 216.127 Q2044.59 213.766 2046.74 212.631 Q2048.9 211.474 2051.97 211.474 Q2052.41 211.474 2052.95 211.543 Q2053.48 211.59 2054.13 211.705 L2054.15 216.08 Z" fill="#000000" fill-rule="evenodd" fill-opacity="1" /><path clip-path="url(#clip080)" d="M2070.4 224.992 Q2065.24 224.992 2063.25 226.173 Q2061.26 227.353 2061.26 230.201 Q2061.26 232.469 2062.74 233.812 Q2064.24 235.131 2066.81 235.131 Q2070.35 235.131 2072.48 232.631 Q2074.64 230.108 2074.64 225.941 L2074.64 224.992 L2070.4 224.992 M2078.9 223.233 L2078.9 238.025 L2074.64 238.025 L2074.64 234.089 Q2073.18 236.451 2071 237.585 Q2068.83 238.696 2065.68 238.696 Q2061.7 238.696 2059.34 236.474 Q2057 234.228 2057 230.478 Q2057 226.103 2059.91 223.881 Q2062.85 221.659 2068.66 221.659 L2074.64 221.659 L2074.64 221.242 Q2074.64 218.303 2072.69 216.705 Q2070.77 215.085 2067.28 215.085 Q2065.05 215.085 2062.95 215.617 Q2060.84 216.15 2058.9 217.215 L2058.9 213.279 Q2061.23 212.377 2063.43 211.937 Q2065.63 211.474 2067.72 211.474 Q2073.34 211.474 2076.12 214.391 Q2078.9 217.307 2078.9 223.233 Z" fill="#000000" fill-rule="evenodd" fill-opacity="1" /><path clip-path="url(#clip080)" d="M2087.67 212.099 L2091.93 212.099 L2091.93 238.025 L2087.67 238.025 L2087.67 212.099 M2087.67 202.006 L2091.93 202.006 L2091.93 207.4 L2087.67 207.4 L2087.67 202.006 Z" fill="#000000" fill-rule="evenodd" fill-opacity="1" /><path clip-path="url(#clip080)" d="M2122.39 222.377 L2122.39 238.025 L2118.13 238.025 L2118.13 222.515 Q2118.13 218.835 2116.7 217.006 Q2115.26 215.178 2112.39 215.178 Q2108.94 215.178 2106.95 217.377 Q2104.96 219.576 2104.96 223.372 L2104.96 238.025 L2100.68 238.025 L2100.68 212.099 L2104.96 212.099 L2104.96 216.127 Q2106.49 213.789 2108.55 212.631 Q2110.63 211.474 2113.34 211.474 Q2117.81 211.474 2120.1 214.252 Q2122.39 217.006 2122.39 222.377 Z" fill="#000000" fill-rule="evenodd" fill-opacity="1" /><path clip-path="url(#clip080)" d="M2145.96 202.006 L2150.22 202.006 L2150.22 238.025 L2145.96 238.025 L2145.96 202.006 Z" fill="#000000" fill-rule="evenodd" fill-opacity="1" /><path clip-path="url(#clip080)" d="M2169.17 215.085 Q2165.75 215.085 2163.76 217.77 Q2161.77 220.432 2161.77 225.085 Q2161.77 229.738 2163.73 232.423 Q2165.72 235.085 2169.17 235.085 Q2172.58 235.085 2174.57 232.4 Q2176.56 229.715 2176.56 225.085 Q2176.56 220.478 2174.57 217.793 Q2172.58 215.085 2169.17 215.085 M2169.17 211.474 Q2174.73 211.474 2177.9 215.085 Q2181.07 218.696 2181.07 225.085 Q2181.07 231.451 2177.9 235.085 Q2174.73 238.696 2169.17 238.696 Q2163.59 238.696 2160.42 235.085 Q2157.28 231.451 2157.28 225.085 Q2157.28 218.696 2160.42 215.085 Q2163.59 211.474 2169.17 211.474 Z" fill="#000000" fill-rule="evenodd" fill-opacity="1" /><path clip-path="url(#clip080)" d="M2204.66 212.863 L2204.66 216.891 Q2202.85 215.965 2200.91 215.502 Q2198.96 215.039 2196.88 215.039 Q2193.71 215.039 2192.11 216.011 Q2190.54 216.983 2190.54 218.928 Q2190.54 220.409 2191.67 221.265 Q2192.81 222.099 2196.23 222.863 L2197.69 223.187 Q2202.23 224.159 2204.13 225.941 Q2206.05 227.701 2206.05 230.872 Q2206.05 234.483 2203.18 236.589 Q2200.33 238.696 2195.33 238.696 Q2193.25 238.696 2190.98 238.279 Q2188.73 237.886 2186.23 237.076 L2186.23 232.677 Q2188.59 233.904 2190.89 234.529 Q2193.18 235.131 2195.42 235.131 Q2198.43 235.131 2200.05 234.113 Q2201.67 233.071 2201.67 231.196 Q2201.67 229.46 2200.49 228.534 Q2199.34 227.608 2195.38 226.752 L2193.9 226.404 Q2189.94 225.571 2188.18 223.858 Q2186.42 222.122 2186.42 219.113 Q2186.42 215.455 2189.01 213.465 Q2191.6 211.474 2196.37 211.474 Q2198.73 211.474 2200.82 211.821 Q2202.9 212.168 2204.66 212.863 Z" fill="#000000" fill-rule="evenodd" fill-opacity="1" /><path clip-path="url(#clip080)" d="M2229.36 212.863 L2229.36 216.891 Q2227.55 215.965 2225.61 215.502 Q2223.66 215.039 2221.58 215.039 Q2218.41 215.039 2216.81 216.011 Q2215.24 216.983 2215.24 218.928 Q2215.24 220.409 2216.37 221.265 Q2217.51 222.099 2220.93 222.863 L2222.39 223.187 Q2226.93 224.159 2228.83 225.941 Q2230.75 227.701 2230.75 230.872 Q2230.75 234.483 2227.88 236.589 Q2225.03 238.696 2220.03 238.696 Q2217.95 238.696 2215.68 238.279 Q2213.43 237.886 2210.93 237.076 L2210.93 232.677 Q2213.29 233.904 2215.59 234.529 Q2217.88 235.131 2220.12 235.131 Q2223.13 235.131 2224.75 234.113 Q2226.37 233.071 2226.37 231.196 Q2226.37 229.46 2225.19 228.534 Q2224.03 227.608 2220.08 226.752 L2218.59 226.404 Q2214.64 225.571 2212.88 223.858 Q2211.12 222.122 2211.12 219.113 Q2211.12 215.455 2213.71 213.465 Q2216.3 211.474 2221.07 211.474 Q2223.43 211.474 2225.52 211.821 Q2227.6 212.168 2229.36 212.863 Z" fill="#000000" fill-rule="evenodd" fill-opacity="1" /><polyline clip-path="url(#clip080)" style="stroke:#e26f46; stroke-linecap:butt; stroke-linejoin:round; stroke-width:4; stroke-opacity:1; fill:none" points="
  1846.53,272.585 1992.94,272.585 
  "/>
<path clip-path="url(#clip080)" d="M2024.75 256.578 L2024.75 263.939 L2033.53 263.939 L2033.53 267.249 L2024.75 267.249 L2024.75 281.323 Q2024.75 284.494 2025.61 285.397 Q2026.49 286.3 2029.15 286.3 L2033.53 286.3 L2033.53 289.865 L2029.15 289.865 Q2024.22 289.865 2022.35 288.036 Q2020.47 286.184 2020.47 281.323 L2020.47 267.249 L2017.35 267.249 L2017.35 263.939 L2020.47 263.939 L2020.47 256.578 L2024.75 256.578 Z" fill="#000000" fill-rule="evenodd" fill-opacity="1" /><path clip-path="url(#clip080)" d="M2061.3 275.837 L2061.3 277.92 L2041.72 277.92 Q2042 282.318 2044.36 284.633 Q2046.74 286.925 2050.98 286.925 Q2053.43 286.925 2055.72 286.323 Q2058.04 285.721 2060.31 284.517 L2060.31 288.545 Q2058.02 289.517 2055.61 290.027 Q2053.2 290.536 2050.72 290.536 Q2044.52 290.536 2040.89 286.925 Q2037.28 283.314 2037.28 277.156 Q2037.28 270.791 2040.7 267.064 Q2044.15 263.314 2049.98 263.314 Q2055.22 263.314 2058.25 266.693 Q2061.3 270.05 2061.3 275.837 M2057.04 274.587 Q2057 271.092 2055.08 269.008 Q2053.18 266.925 2050.03 266.925 Q2046.47 266.925 2044.31 268.939 Q2042.18 270.953 2041.86 274.61 L2057.04 274.587 Z" fill="#000000" fill-rule="evenodd" fill-opacity="1" /><path clip-path="url(#clip080)" d="M2084.82 264.703 L2084.82 268.731 Q2083.02 267.805 2081.07 267.342 Q2079.13 266.879 2077.04 266.879 Q2073.87 266.879 2072.28 267.851 Q2070.7 268.823 2070.7 270.768 Q2070.7 272.249 2071.84 273.105 Q2072.97 273.939 2076.4 274.703 L2077.85 275.027 Q2082.39 275.999 2084.29 277.781 Q2086.21 279.541 2086.21 282.712 Q2086.21 286.323 2083.34 288.429 Q2080.49 290.536 2075.49 290.536 Q2073.41 290.536 2071.14 290.119 Q2068.9 289.726 2066.4 288.916 L2066.4 284.517 Q2068.76 285.744 2071.05 286.369 Q2073.34 286.971 2075.59 286.971 Q2078.6 286.971 2080.22 285.953 Q2081.84 284.911 2081.84 283.036 Q2081.84 281.3 2080.66 280.374 Q2079.5 279.448 2075.54 278.592 L2074.06 278.244 Q2070.1 277.411 2068.34 275.698 Q2066.58 273.962 2066.58 270.953 Q2066.58 267.295 2069.17 265.305 Q2071.77 263.314 2076.54 263.314 Q2078.9 263.314 2080.98 263.661 Q2083.06 264.008 2084.82 264.703 Z" fill="#000000" fill-rule="evenodd" fill-opacity="1" /><path clip-path="url(#clip080)" d="M2097.21 256.578 L2097.21 263.939 L2105.98 263.939 L2105.98 267.249 L2097.21 267.249 L2097.21 281.323 Q2097.21 284.494 2098.06 285.397 Q2098.94 286.3 2101.6 286.3 L2105.98 286.3 L2105.98 289.865 L2101.6 289.865 Q2096.67 289.865 2094.8 288.036 Q2092.92 286.184 2092.92 281.323 L2092.92 267.249 L2089.8 267.249 L2089.8 263.939 L2092.92 263.939 L2092.92 256.578 L2097.21 256.578 Z" fill="#000000" fill-rule="evenodd" fill-opacity="1" /><path clip-path="url(#clip080)" d="M2126.65 253.846 L2130.91 253.846 L2130.91 289.865 L2126.65 289.865 L2126.65 253.846 Z" fill="#000000" fill-rule="evenodd" fill-opacity="1" /><path clip-path="url(#clip080)" d="M2149.87 266.925 Q2146.44 266.925 2144.45 269.61 Q2142.46 272.272 2142.46 276.925 Q2142.46 281.578 2144.43 284.263 Q2146.42 286.925 2149.87 286.925 Q2153.27 286.925 2155.26 284.24 Q2157.25 281.555 2157.25 276.925 Q2157.25 272.318 2155.26 269.633 Q2153.27 266.925 2149.87 266.925 M2149.87 263.314 Q2155.42 263.314 2158.59 266.925 Q2161.77 270.536 2161.77 276.925 Q2161.77 283.291 2158.59 286.925 Q2155.42 290.536 2149.87 290.536 Q2144.29 290.536 2141.12 286.925 Q2137.97 283.291 2137.97 276.925 Q2137.97 270.536 2141.12 266.925 Q2144.29 263.314 2149.87 263.314 Z" fill="#000000" fill-rule="evenodd" fill-opacity="1" /><path clip-path="url(#clip080)" d="M2185.35 264.703 L2185.35 268.731 Q2183.55 267.805 2181.6 267.342 Q2179.66 266.879 2177.58 266.879 Q2174.4 266.879 2172.81 267.851 Q2171.23 268.823 2171.23 270.768 Q2171.23 272.249 2172.37 273.105 Q2173.5 273.939 2176.93 274.703 L2178.39 275.027 Q2182.92 275.999 2184.82 277.781 Q2186.74 279.541 2186.74 282.712 Q2186.74 286.323 2183.87 288.429 Q2181.03 290.536 2176.03 290.536 Q2173.94 290.536 2171.67 290.119 Q2169.43 289.726 2166.93 288.916 L2166.93 284.517 Q2169.29 285.744 2171.58 286.369 Q2173.87 286.971 2176.12 286.971 Q2179.13 286.971 2180.75 285.953 Q2182.37 284.911 2182.37 283.036 Q2182.37 281.3 2181.19 280.374 Q2180.03 279.448 2176.07 278.592 L2174.59 278.244 Q2170.63 277.411 2168.87 275.698 Q2167.11 273.962 2167.11 270.953 Q2167.11 267.295 2169.71 265.305 Q2172.3 263.314 2177.07 263.314 Q2179.43 263.314 2181.51 263.661 Q2183.59 264.008 2185.35 264.703 Z" fill="#000000" fill-rule="evenodd" fill-opacity="1" /><path clip-path="url(#clip080)" d="M2210.05 264.703 L2210.05 268.731 Q2208.25 267.805 2206.3 267.342 Q2204.36 266.879 2202.28 266.879 Q2199.1 266.879 2197.51 267.851 Q2195.93 268.823 2195.93 270.768 Q2195.93 272.249 2197.07 273.105 Q2198.2 273.939 2201.63 274.703 L2203.09 275.027 Q2207.62 275.999 2209.52 277.781 Q2211.44 279.541 2211.44 282.712 Q2211.44 286.323 2208.57 288.429 Q2205.72 290.536 2200.72 290.536 Q2198.64 290.536 2196.37 290.119 Q2194.13 289.726 2191.63 288.916 L2191.63 284.517 Q2193.99 285.744 2196.28 286.369 Q2198.57 286.971 2200.82 286.971 Q2203.83 286.971 2205.45 285.953 Q2207.07 284.911 2207.07 283.036 Q2207.07 281.3 2205.89 280.374 Q2204.73 279.448 2200.77 278.592 L2199.29 278.244 Q2195.33 277.411 2193.57 275.698 Q2191.81 273.962 2191.81 270.953 Q2191.81 267.295 2194.4 265.305 Q2197 263.314 2201.77 263.314 Q2204.13 263.314 2206.21 263.661 Q2208.29 264.008 2210.05 264.703 Z" fill="#000000" fill-rule="evenodd" fill-opacity="1" /></svg>
