<?xml version="1.0" encoding="utf-8"?>
<svg xmlns="http://www.w3.org/2000/svg" xmlns:xlink="http://www.w3.org/1999/xlink" width="800" height="400" viewBox="0 0 3200 1600">
<defs>
  <clipPath id="clip160">
    <rect x="0" y="0" width="3200" height="1600"/>
  </clipPath>
</defs>
<path clip-path="url(#clip160)" d="
M0 1600 L3200 1600 L3200 0 L0 0  Z
  " fill="#ffffff" fill-rule="evenodd" fill-opacity="1"/>
<defs>
  <clipPath id="clip161">
    <rect x="640" y="0" width="2241" height="1600"/>
  </clipPath>
</defs>
<path clip-path="url(#clip160)" d="
M186.867 695.088 L3152.76 695.088 L3152.76 108.352 L186.867 108.352  Z
  " fill="#ffffff" fill-rule="evenodd" fill-opacity="1"/>
<defs>
  <clipPath id="clip162">
    <rect x="186" y="108" width="2967" height="588"/>
  </clipPath>
</defs>
<polyline clip-path="url(#clip162)" style="stroke:#000000; stroke-linecap:butt; stroke-linejoin:round; stroke-width:2; stroke-opacity:0.1; fill:none" points="
  259.834,695.088 259.834,108.352 
  "/>
<polyline clip-path="url(#clip162)" style="stroke:#000000; stroke-linecap:butt; stroke-linejoin:round; stroke-width:2; stroke-opacity:0.1; fill:none" points="
  808.463,695.088 808.463,108.352 
  "/>
<polyline clip-path="url(#clip162)" style="stroke:#000000; stroke-linecap:butt; stroke-linejoin:round; stroke-width:2; stroke-opacity:0.1; fill:none" points="
  1357.09,695.088 1357.09,108.352 
  "/>
<polyline clip-path="url(#clip162)" style="stroke:#000000; stroke-linecap:butt; stroke-linejoin:round; stroke-width:2; stroke-opacity:0.1; fill:none" points="
  1905.72,695.088 1905.72,108.352 
  "/>
<polyline clip-path="url(#clip162)" style="stroke:#000000; stroke-linecap:butt; stroke-linejoin:round; stroke-width:2; stroke-opacity:0.1; fill:none" points="
  2454.35,695.088 2454.35,108.352 
  "/>
<polyline clip-path="url(#clip162)" style="stroke:#000000; stroke-linecap:butt; stroke-linejoin:round; stroke-width:2; stroke-opacity:0.1; fill:none" points="
  3002.98,695.088 3002.98,108.352 
  "/>
<polyline clip-path="url(#clip160)" style="stroke:#000000; stroke-linecap:butt; stroke-linejoin:round; stroke-width:4; stroke-opacity:1; fill:none" points="
  186.867,695.088 3152.76,695.088 
  "/>
<polyline clip-path="url(#clip160)" style="stroke:#000000; stroke-linecap:butt; stroke-linejoin:round; stroke-width:4; stroke-opacity:1; fill:none" points="
  259.834,695.088 259.834,676.19 
  "/>
<polyline clip-path="url(#clip160)" style="stroke:#000000; stroke-linecap:butt; stroke-linejoin:round; stroke-width:4; stroke-opacity:1; fill:none" points="
  808.463,695.088 808.463,676.19 
  "/>
<polyline clip-path="url(#clip160)" style="stroke:#000000; stroke-linecap:butt; stroke-linejoin:round; stroke-width:4; stroke-opacity:1; fill:none" points="
  1357.09,695.088 1357.09,676.19 
  "/>
<polyline clip-path="url(#clip160)" style="stroke:#000000; stroke-linecap:butt; stroke-linejoin:round; stroke-width:4; stroke-opacity:1; fill:none" points="
  1905.72,695.088 1905.72,676.19 
  "/>
<polyline clip-path="url(#clip160)" style="stroke:#000000; stroke-linecap:butt; stroke-linejoin:round; stroke-width:4; stroke-opacity:1; fill:none" points="
  2454.35,695.088 2454.35,676.19 
  "/>
<polyline clip-path="url(#clip160)" style="stroke:#000000; stroke-linecap:butt; stroke-linejoin:round; stroke-width:4; stroke-opacity:1; fill:none" points="
  3002.98,695.088 3002.98,676.19 
  "/>
<path clip-path="url(#clip160)" d="M259.834 732.407 Q256.223 732.407 254.395 735.971 Q252.589 739.513 252.589 746.643 Q252.589 753.749 254.395 757.314 Q256.223 760.855 259.834 760.855 Q263.469 760.855 265.274 757.314 Q267.103 753.749 267.103 746.643 Q267.103 739.513 265.274 735.971 Q263.469 732.407 259.834 732.407 M259.834 728.703 Q265.644 728.703 268.7 733.309 Q271.779 737.893 271.779 746.643 Q271.779 755.369 268.7 759.976 Q265.644 764.559 259.834 764.559 Q254.024 764.559 250.945 759.976 Q247.89 755.369 247.89 746.643 Q247.89 737.893 250.945 733.309 Q254.024 728.703 259.834 728.703 Z" fill="#000000" fill-rule="evenodd" fill-opacity="1" /><path clip-path="url(#clip160)" d="M783.163 729.328 L801.519 729.328 L801.519 733.263 L787.445 733.263 L787.445 741.735 Q788.464 741.388 789.482 741.226 Q790.501 741.041 791.519 741.041 Q797.306 741.041 800.686 744.212 Q804.065 747.383 804.065 752.8 Q804.065 758.379 800.593 761.48 Q797.121 764.559 790.802 764.559 Q788.626 764.559 786.357 764.189 Q784.112 763.818 781.704 763.078 L781.704 758.379 Q783.788 759.513 786.01 760.068 Q788.232 760.624 790.709 760.624 Q794.714 760.624 797.052 758.518 Q799.389 756.411 799.389 752.8 Q799.389 749.189 797.052 747.082 Q794.714 744.976 790.709 744.976 Q788.834 744.976 786.959 745.393 Q785.107 745.809 783.163 746.689 L783.163 729.328 Z" fill="#000000" fill-rule="evenodd" fill-opacity="1" /><path clip-path="url(#clip160)" d="M823.278 732.407 Q819.667 732.407 817.838 735.971 Q816.033 739.513 816.033 746.643 Q816.033 753.749 817.838 757.314 Q819.667 760.855 823.278 760.855 Q826.912 760.855 828.718 757.314 Q830.547 753.749 830.547 746.643 Q830.547 739.513 828.718 735.971 Q826.912 732.407 823.278 732.407 M823.278 728.703 Q829.088 728.703 832.144 733.309 Q835.223 737.893 835.223 746.643 Q835.223 755.369 832.144 759.976 Q829.088 764.559 823.278 764.559 Q817.468 764.559 814.389 759.976 Q811.334 755.369 811.334 746.643 Q811.334 737.893 814.389 733.309 Q817.468 728.703 823.278 728.703 Z" fill="#000000" fill-rule="evenodd" fill-opacity="1" /><path clip-path="url(#clip160)" d="M1316.7 759.953 L1324.34 759.953 L1324.34 733.587 L1316.03 735.254 L1316.03 730.995 L1324.29 729.328 L1328.97 729.328 L1328.97 759.953 L1336.61 759.953 L1336.61 763.888 L1316.7 763.888 L1316.7 759.953 Z" fill="#000000" fill-rule="evenodd" fill-opacity="1" /><path clip-path="url(#clip160)" d="M1356.05 732.407 Q1352.44 732.407 1350.61 735.971 Q1348.81 739.513 1348.81 746.643 Q1348.81 753.749 1350.61 757.314 Q1352.44 760.855 1356.05 760.855 Q1359.69 760.855 1361.49 757.314 Q1363.32 753.749 1363.32 746.643 Q1363.32 739.513 1361.49 735.971 Q1359.69 732.407 1356.05 732.407 M1356.05 728.703 Q1361.86 728.703 1364.92 733.309 Q1368 737.893 1368 746.643 Q1368 755.369 1364.92 759.976 Q1361.86 764.559 1356.05 764.559 Q1350.24 764.559 1347.16 759.976 Q1344.11 755.369 1344.11 746.643 Q1344.11 737.893 1347.16 733.309 Q1350.24 728.703 1356.05 728.703 Z" fill="#000000" fill-rule="evenodd" fill-opacity="1" /><path clip-path="url(#clip160)" d="M1386.21 732.407 Q1382.6 732.407 1380.77 735.971 Q1378.97 739.513 1378.97 746.643 Q1378.97 753.749 1380.77 757.314 Q1382.6 760.855 1386.21 760.855 Q1389.85 760.855 1391.65 757.314 Q1393.48 753.749 1393.48 746.643 Q1393.48 739.513 1391.65 735.971 Q1389.85 732.407 1386.21 732.407 M1386.21 728.703 Q1392.02 728.703 1395.08 733.309 Q1398.16 737.893 1398.16 746.643 Q1398.16 755.369 1395.08 759.976 Q1392.02 764.559 1386.21 764.559 Q1380.4 764.559 1377.32 759.976 Q1374.27 755.369 1374.27 746.643 Q1374.27 737.893 1377.32 733.309 Q1380.4 728.703 1386.21 728.703 Z" fill="#000000" fill-rule="evenodd" fill-opacity="1" /><path clip-path="url(#clip160)" d="M1865.33 759.953 L1872.97 759.953 L1872.97 733.587 L1864.66 735.254 L1864.66 730.995 L1872.92 729.328 L1877.6 729.328 L1877.6 759.953 L1885.24 759.953 L1885.24 763.888 L1865.33 763.888 L1865.33 759.953 Z" fill="#000000" fill-rule="evenodd" fill-opacity="1" /><path clip-path="url(#clip160)" d="M1894.73 729.328 L1913.08 729.328 L1913.08 733.263 L1899.01 733.263 L1899.01 741.735 Q1900.03 741.388 1901.05 741.226 Q1902.06 741.041 1903.08 741.041 Q1908.87 741.041 1912.25 744.212 Q1915.63 747.383 1915.63 752.8 Q1915.63 758.379 1912.16 761.48 Q1908.68 764.559 1902.37 764.559 Q1900.19 764.559 1897.92 764.189 Q1895.68 763.818 1893.27 763.078 L1893.27 758.379 Q1895.35 759.513 1897.57 760.068 Q1899.8 760.624 1902.27 760.624 Q1906.28 760.624 1908.62 758.518 Q1910.95 756.411 1910.95 752.8 Q1910.95 749.189 1908.62 747.082 Q1906.28 744.976 1902.27 744.976 Q1900.4 744.976 1898.52 745.393 Q1896.67 745.809 1894.73 746.689 L1894.73 729.328 Z" fill="#000000" fill-rule="evenodd" fill-opacity="1" /><path clip-path="url(#clip160)" d="M1934.84 732.407 Q1931.23 732.407 1929.4 735.971 Q1927.6 739.513 1927.6 746.643 Q1927.6 753.749 1929.4 757.314 Q1931.23 760.855 1934.84 760.855 Q1938.48 760.855 1940.28 757.314 Q1942.11 753.749 1942.11 746.643 Q1942.11 739.513 1940.28 735.971 Q1938.48 732.407 1934.84 732.407 M1934.84 728.703 Q1940.65 728.703 1943.71 733.309 Q1946.79 737.893 1946.79 746.643 Q1946.79 755.369 1943.71 759.976 Q1940.65 764.559 1934.84 764.559 Q1929.03 764.559 1925.95 759.976 Q1922.9 755.369 1922.9 746.643 Q1922.9 737.893 1925.95 733.309 Q1929.03 728.703 1934.84 728.703 Z" fill="#000000" fill-rule="evenodd" fill-opacity="1" /><path clip-path="url(#clip160)" d="M2418.04 759.953 L2434.36 759.953 L2434.36 763.888 L2412.42 763.888 L2412.42 759.953 Q2415.08 757.198 2419.66 752.568 Q2424.27 747.916 2425.45 746.573 Q2427.7 744.05 2428.58 742.314 Q2429.48 740.555 2429.48 738.865 Q2429.48 736.11 2427.53 734.374 Q2425.61 732.638 2422.51 732.638 Q2420.31 732.638 2417.86 733.402 Q2415.43 734.166 2412.65 735.717 L2412.65 730.995 Q2415.47 729.86 2417.93 729.282 Q2420.38 728.703 2422.42 728.703 Q2427.79 728.703 2430.98 731.388 Q2434.18 734.073 2434.18 738.564 Q2434.18 740.694 2433.37 742.615 Q2432.58 744.513 2430.47 747.106 Q2429.9 747.777 2426.79 750.994 Q2423.69 754.189 2418.04 759.953 Z" fill="#000000" fill-rule="evenodd" fill-opacity="1" /><path clip-path="url(#clip160)" d="M2454.18 732.407 Q2450.57 732.407 2448.74 735.971 Q2446.93 739.513 2446.93 746.643 Q2446.93 753.749 2448.74 757.314 Q2450.57 760.855 2454.18 760.855 Q2457.81 760.855 2459.62 757.314 Q2461.45 753.749 2461.45 746.643 Q2461.45 739.513 2459.62 735.971 Q2457.81 732.407 2454.18 732.407 M2454.18 728.703 Q2459.99 728.703 2463.04 733.309 Q2466.12 737.893 2466.12 746.643 Q2466.12 755.369 2463.04 759.976 Q2459.99 764.559 2454.18 764.559 Q2448.37 764.559 2445.29 759.976 Q2442.23 755.369 2442.23 746.643 Q2442.23 737.893 2445.29 733.309 Q2448.37 728.703 2454.18 728.703 Z" fill="#000000" fill-rule="evenodd" fill-opacity="1" /><path clip-path="url(#clip160)" d="M2484.34 732.407 Q2480.73 732.407 2478.9 735.971 Q2477.09 739.513 2477.09 746.643 Q2477.09 753.749 2478.9 757.314 Q2480.73 760.855 2484.34 760.855 Q2487.97 760.855 2489.78 757.314 Q2491.61 753.749 2491.61 746.643 Q2491.61 739.513 2489.78 735.971 Q2487.97 732.407 2484.34 732.407 M2484.34 728.703 Q2490.15 728.703 2493.2 733.309 Q2496.28 737.893 2496.28 746.643 Q2496.28 755.369 2493.2 759.976 Q2490.15 764.559 2484.34 764.559 Q2478.53 764.559 2475.45 759.976 Q2472.39 755.369 2472.39 746.643 Q2472.39 737.893 2475.45 733.309 Q2478.53 728.703 2484.34 728.703 Z" fill="#000000" fill-rule="evenodd" fill-opacity="1" /><path clip-path="url(#clip160)" d="M2966.67 759.953 L2982.99 759.953 L2982.99 763.888 L2961.05 763.888 L2961.05 759.953 Q2963.71 757.198 2968.29 752.568 Q2972.9 747.916 2974.08 746.573 Q2976.33 744.05 2977.2 742.314 Q2978.11 740.555 2978.11 738.865 Q2978.11 736.11 2976.16 734.374 Q2974.24 732.638 2971.14 732.638 Q2968.94 732.638 2966.49 733.402 Q2964.06 734.166 2961.28 735.717 L2961.28 730.995 Q2964.1 729.86 2966.56 729.282 Q2969.01 728.703 2971.05 728.703 Q2976.42 728.703 2979.61 731.388 Q2982.81 734.073 2982.81 738.564 Q2982.81 740.694 2982 742.615 Q2981.21 744.513 2979.1 747.106 Q2978.52 747.777 2975.42 750.994 Q2972.32 754.189 2966.67 759.953 Z" fill="#000000" fill-rule="evenodd" fill-opacity="1" /><path clip-path="url(#clip160)" d="M2992.85 729.328 L3011.21 729.328 L3011.21 733.263 L2997.14 733.263 L2997.14 741.735 Q2998.15 741.388 2999.17 741.226 Q3000.19 741.041 3001.21 741.041 Q3007 741.041 3010.38 744.212 Q3013.76 747.383 3013.76 752.8 Q3013.76 758.379 3010.28 761.48 Q3006.81 764.559 3000.49 764.559 Q2998.32 764.559 2996.05 764.189 Q2993.8 763.818 2991.39 763.078 L2991.39 758.379 Q2993.48 759.513 2995.7 760.068 Q2997.92 760.624 3000.4 760.624 Q3004.4 760.624 3006.74 758.518 Q3009.08 756.411 3009.08 752.8 Q3009.08 749.189 3006.74 747.082 Q3004.4 744.976 3000.4 744.976 Q2998.52 744.976 2996.65 745.393 Q2994.8 745.809 2992.85 746.689 L2992.85 729.328 Z" fill="#000000" fill-rule="evenodd" fill-opacity="1" /><path clip-path="url(#clip160)" d="M3032.97 732.407 Q3029.36 732.407 3027.53 735.971 Q3025.72 739.513 3025.72 746.643 Q3025.72 753.749 3027.53 757.314 Q3029.36 760.855 3032.97 760.855 Q3036.6 760.855 3038.41 757.314 Q3040.24 753.749 3040.24 746.643 Q3040.24 739.513 3038.41 735.971 Q3036.6 732.407 3032.97 732.407 M3032.97 728.703 Q3038.78 728.703 3041.83 733.309 Q3044.91 737.893 3044.91 746.643 Q3044.91 755.369 3041.83 759.976 Q3038.78 764.559 3032.97 764.559 Q3027.16 764.559 3024.08 759.976 Q3021.02 755.369 3021.02 746.643 Q3021.02 737.893 3024.08 733.309 Q3027.16 728.703 3032.97 728.703 Z" fill="#000000" fill-rule="evenodd" fill-opacity="1" /><polyline clip-path="url(#clip162)" style="stroke:#000000; stroke-linecap:butt; stroke-linejoin:round; stroke-width:2; stroke-opacity:0.1; fill:none" points="
  186.867,622.233 3152.76,622.233 
  "/>
<polyline clip-path="url(#clip162)" style="stroke:#000000; stroke-linecap:butt; stroke-linejoin:round; stroke-width:2; stroke-opacity:0.1; fill:none" points="
  186.867,547.284 3152.76,547.284 
  "/>
<polyline clip-path="url(#clip162)" style="stroke:#000000; stroke-linecap:butt; stroke-linejoin:round; stroke-width:2; stroke-opacity:0.1; fill:none" points="
  186.867,472.335 3152.76,472.335 
  "/>
<polyline clip-path="url(#clip162)" style="stroke:#000000; stroke-linecap:butt; stroke-linejoin:round; stroke-width:2; stroke-opacity:0.1; fill:none" points="
  186.867,397.385 3152.76,397.385 
  "/>
<polyline clip-path="url(#clip162)" style="stroke:#000000; stroke-linecap:butt; stroke-linejoin:round; stroke-width:2; stroke-opacity:0.1; fill:none" points="
  186.867,322.436 3152.76,322.436 
  "/>
<polyline clip-path="url(#clip162)" style="stroke:#000000; stroke-linecap:butt; stroke-linejoin:round; stroke-width:2; stroke-opacity:0.1; fill:none" points="
  186.867,247.487 3152.76,247.487 
  "/>
<polyline clip-path="url(#clip162)" style="stroke:#000000; stroke-linecap:butt; stroke-linejoin:round; stroke-width:2; stroke-opacity:0.1; fill:none" points="
  186.867,172.538 3152.76,172.538 
  "/>
<polyline clip-path="url(#clip160)" style="stroke:#000000; stroke-linecap:butt; stroke-linejoin:round; stroke-width:4; stroke-opacity:1; fill:none" points="
  186.867,695.088 186.867,108.352 
  "/>
<polyline clip-path="url(#clip160)" style="stroke:#000000; stroke-linecap:butt; stroke-linejoin:round; stroke-width:4; stroke-opacity:1; fill:none" points="
  186.867,622.233 205.764,622.233 
  "/>
<polyline clip-path="url(#clip160)" style="stroke:#000000; stroke-linecap:butt; stroke-linejoin:round; stroke-width:4; stroke-opacity:1; fill:none" points="
  186.867,547.284 205.764,547.284 
  "/>
<polyline clip-path="url(#clip160)" style="stroke:#000000; stroke-linecap:butt; stroke-linejoin:round; stroke-width:4; stroke-opacity:1; fill:none" points="
  186.867,472.335 205.764,472.335 
  "/>
<polyline clip-path="url(#clip160)" style="stroke:#000000; stroke-linecap:butt; stroke-linejoin:round; stroke-width:4; stroke-opacity:1; fill:none" points="
  186.867,397.385 205.764,397.385 
  "/>
<polyline clip-path="url(#clip160)" style="stroke:#000000; stroke-linecap:butt; stroke-linejoin:round; stroke-width:4; stroke-opacity:1; fill:none" points="
  186.867,322.436 205.764,322.436 
  "/>
<polyline clip-path="url(#clip160)" style="stroke:#000000; stroke-linecap:butt; stroke-linejoin:round; stroke-width:4; stroke-opacity:1; fill:none" points="
  186.867,247.487 205.764,247.487 
  "/>
<polyline clip-path="url(#clip160)" style="stroke:#000000; stroke-linecap:butt; stroke-linejoin:round; stroke-width:4; stroke-opacity:1; fill:none" points="
  186.867,172.538 205.764,172.538 
  "/>
<path clip-path="url(#clip160)" d="M76.6679 622.684 L106.344 622.684 L106.344 626.62 L76.6679 626.62 L76.6679 622.684 Z" fill="#000000" fill-rule="evenodd" fill-opacity="1" /><path clip-path="url(#clip160)" d="M129.283 609.027 L117.478 627.476 L129.283 627.476 L129.283 609.027 M128.057 604.953 L133.936 604.953 L133.936 627.476 L138.867 627.476 L138.867 631.365 L133.936 631.365 L133.936 639.513 L129.283 639.513 L129.283 631.365 L113.682 631.365 L113.682 626.851 L128.057 604.953 Z" fill="#000000" fill-rule="evenodd" fill-opacity="1" /><path clip-path="url(#clip160)" d="M78.7512 547.735 L108.427 547.735 L108.427 551.67 L78.7512 551.67 L78.7512 547.735 Z" fill="#000000" fill-rule="evenodd" fill-opacity="1" /><path clip-path="url(#clip160)" d="M122.547 560.629 L138.867 560.629 L138.867 564.564 L116.922 564.564 L116.922 560.629 Q119.584 557.874 124.168 553.245 Q128.774 548.592 129.955 547.249 Q132.2 544.726 133.08 542.99 Q133.982 541.231 133.982 539.541 Q133.982 536.786 132.038 535.05 Q130.117 533.314 127.015 533.314 Q124.816 533.314 122.362 534.078 Q119.932 534.842 117.154 536.393 L117.154 531.671 Q119.978 530.536 122.432 529.958 Q124.885 529.379 126.922 529.379 Q132.293 529.379 135.487 532.064 Q138.681 534.749 138.681 539.24 Q138.681 541.37 137.871 543.291 Q137.084 545.189 134.978 547.782 Q134.399 548.453 131.297 551.67 Q128.195 554.865 122.547 560.629 Z" fill="#000000" fill-rule="evenodd" fill-opacity="1" /><path clip-path="url(#clip160)" d="M126.922 458.133 Q123.311 458.133 121.482 461.698 Q119.677 465.24 119.677 472.369 Q119.677 479.476 121.482 483.041 Q123.311 486.582 126.922 486.582 Q130.556 486.582 132.362 483.041 Q134.191 479.476 134.191 472.369 Q134.191 465.24 132.362 461.698 Q130.556 458.133 126.922 458.133 M126.922 454.43 Q132.732 454.43 135.788 459.036 Q138.867 463.619 138.867 472.369 Q138.867 481.096 135.788 485.703 Q132.732 490.286 126.922 490.286 Q121.112 490.286 118.033 485.703 Q114.978 481.096 114.978 472.369 Q114.978 463.619 118.033 459.036 Q121.112 454.43 126.922 454.43 Z" fill="#000000" fill-rule="evenodd" fill-opacity="1" /><path clip-path="url(#clip160)" d="M122.547 410.73 L138.867 410.73 L138.867 414.665 L116.922 414.665 L116.922 410.73 Q119.584 407.976 124.168 403.346 Q128.774 398.693 129.955 397.351 Q132.2 394.828 133.08 393.092 Q133.982 391.332 133.982 389.642 Q133.982 386.888 132.038 385.152 Q130.117 383.416 127.015 383.416 Q124.816 383.416 122.362 384.18 Q119.932 384.943 117.154 386.494 L117.154 381.772 Q119.978 380.638 122.432 380.059 Q124.885 379.48 126.922 379.48 Q132.293 379.48 135.487 382.166 Q138.681 384.851 138.681 389.342 Q138.681 391.471 137.871 393.392 Q137.084 395.291 134.978 397.883 Q134.399 398.554 131.297 401.772 Q128.195 404.966 122.547 410.73 Z" fill="#000000" fill-rule="evenodd" fill-opacity="1" /><path clip-path="url(#clip160)" d="M129.283 309.23 L117.478 327.679 L129.283 327.679 L129.283 309.23 M128.057 305.156 L133.936 305.156 L133.936 327.679 L138.867 327.679 L138.867 331.568 L133.936 331.568 L133.936 339.716 L129.283 339.716 L129.283 331.568 L113.682 331.568 L113.682 327.054 L128.057 305.156 Z" fill="#000000" fill-rule="evenodd" fill-opacity="1" /><path clip-path="url(#clip160)" d="M127.339 245.624 Q124.191 245.624 122.339 247.776 Q120.51 249.929 120.51 253.679 Q120.51 257.406 122.339 259.582 Q124.191 261.735 127.339 261.735 Q130.487 261.735 132.316 259.582 Q134.168 257.406 134.168 253.679 Q134.168 249.929 132.316 247.776 Q130.487 245.624 127.339 245.624 M136.621 230.971 L136.621 235.23 Q134.862 234.397 133.056 233.957 Q131.274 233.517 129.515 233.517 Q124.885 233.517 122.432 236.642 Q120.001 239.767 119.654 246.087 Q121.02 244.073 123.08 243.008 Q125.14 241.92 127.617 241.92 Q132.825 241.92 135.834 245.091 Q138.867 248.239 138.867 253.679 Q138.867 259.003 135.719 262.221 Q132.57 265.438 127.339 265.438 Q121.344 265.438 118.172 260.855 Q115.001 256.249 115.001 247.522 Q115.001 239.327 118.89 234.466 Q122.779 229.582 129.33 229.582 Q131.089 229.582 132.871 229.929 Q134.677 230.277 136.621 230.971 Z" fill="#000000" fill-rule="evenodd" fill-opacity="1" /><path clip-path="url(#clip160)" d="M127.015 173.406 Q123.682 173.406 121.76 175.188 Q119.862 176.971 119.862 180.096 Q119.862 183.221 121.76 185.003 Q123.682 186.785 127.015 186.785 Q130.348 186.785 132.269 185.003 Q134.191 183.198 134.191 180.096 Q134.191 176.971 132.269 175.188 Q130.371 173.406 127.015 173.406 M122.339 171.415 Q119.33 170.674 117.64 168.614 Q115.973 166.554 115.973 163.591 Q115.973 159.448 118.913 157.04 Q121.876 154.633 127.015 154.633 Q132.177 154.633 135.117 157.04 Q138.056 159.448 138.056 163.591 Q138.056 166.554 136.367 168.614 Q134.7 170.674 131.714 171.415 Q135.094 172.202 136.968 174.494 Q138.867 176.786 138.867 180.096 Q138.867 185.119 135.788 187.804 Q132.732 190.489 127.015 190.489 Q121.297 190.489 118.219 187.804 Q115.163 185.119 115.163 180.096 Q115.163 176.786 117.061 174.494 Q118.959 172.202 122.339 171.415 M120.626 164.031 Q120.626 166.716 122.293 168.221 Q123.982 169.725 127.015 169.725 Q130.024 169.725 131.714 168.221 Q133.427 166.716 133.427 164.031 Q133.427 161.346 131.714 159.841 Q130.024 158.337 127.015 158.337 Q123.982 158.337 122.293 159.841 Q120.626 161.346 120.626 164.031 Z" fill="#000000" fill-rule="evenodd" fill-opacity="1" /><path clip-path="url(#clip160)" d="M1186.46 34.1734 Q1185.2 33.4443 1183.7 33.1202 Q1182.24 32.7556 1180.46 32.7556 Q1174.14 32.7556 1170.74 36.8875 Q1167.38 40.9789 1167.38 48.6757 L1167.38 72.576 L1159.88 72.576 L1159.88 27.2059 L1167.38 27.2059 L1167.38 34.2544 Q1169.73 30.1225 1173.49 28.1376 Q1177.26 26.1121 1182.65 26.1121 Q1183.42 26.1121 1184.35 26.2337 Q1185.28 26.3147 1186.42 26.5172 L1186.46 34.1734 Z" fill="#000000" fill-rule="evenodd" fill-opacity="1" /><path clip-path="url(#clip160)" d="M1231.26 48.0275 L1231.26 51.6733 L1196.99 51.6733 Q1197.48 59.3701 1201.61 63.421 Q1205.78 67.4314 1213.19 67.4314 Q1217.49 67.4314 1221.5 66.3781 Q1225.55 65.3249 1229.52 63.2184 L1229.52 70.267 Q1225.51 71.9684 1221.3 72.8596 Q1217.08 73.7508 1212.75 73.7508 Q1201.89 73.7508 1195.53 67.4314 Q1189.21 61.1119 1189.21 50.3365 Q1189.21 39.1965 1195.21 32.6746 Q1201.24 26.1121 1211.45 26.1121 Q1220.61 26.1121 1225.91 32.0264 Q1231.26 37.9003 1231.26 48.0275 M1223.81 45.84 Q1223.73 39.7232 1220.36 36.0774 Q1217.04 32.4315 1211.53 32.4315 Q1205.29 32.4315 1201.53 35.9558 Q1197.8 39.4801 1197.23 45.8805 L1223.81 45.84 Z" fill="#000000" fill-rule="evenodd" fill-opacity="1" /><path clip-path="url(#clip160)" d="M1276.14 28.9478 L1276.14 35.9153 Q1272.98 34.1734 1269.78 33.3227 Q1266.62 32.4315 1263.38 32.4315 Q1256.13 32.4315 1252.12 37.0496 Q1248.11 41.6271 1248.11 49.9314 Q1248.11 58.2358 1252.12 62.8538 Q1256.13 67.4314 1263.38 67.4314 Q1266.62 67.4314 1269.78 66.5807 Q1272.98 65.6895 1276.14 63.9476 L1276.14 70.8341 Q1273.03 72.2924 1269.66 73.0216 Q1266.34 73.7508 1262.57 73.7508 Q1252.33 73.7508 1246.29 67.3098 Q1240.25 60.8689 1240.25 49.9314 Q1240.25 38.832 1246.33 32.472 Q1252.45 26.1121 1263.06 26.1121 Q1266.5 26.1121 1269.78 26.8413 Q1273.07 27.5299 1276.14 28.9478 Z" fill="#000000" fill-rule="evenodd" fill-opacity="1" /><path clip-path="url(#clip160)" d="M1306.69 32.4315 Q1300.69 32.4315 1297.21 37.1306 Q1293.73 41.7891 1293.73 49.9314 Q1293.73 58.0738 1297.17 62.7728 Q1300.65 67.4314 1306.69 67.4314 Q1312.64 67.4314 1316.13 62.7323 Q1319.61 58.0333 1319.61 49.9314 Q1319.61 41.8701 1316.13 37.1711 Q1312.64 32.4315 1306.69 32.4315 M1306.69 26.1121 Q1316.41 26.1121 1321.96 32.4315 Q1327.51 38.7509 1327.51 49.9314 Q1327.51 61.0714 1321.96 67.4314 Q1316.41 73.7508 1306.69 73.7508 Q1296.93 73.7508 1291.38 67.4314 Q1285.87 61.0714 1285.87 49.9314 Q1285.87 38.7509 1291.38 32.4315 Q1296.93 26.1121 1306.69 26.1121 Z" fill="#000000" fill-rule="evenodd" fill-opacity="1" /><path clip-path="url(#clip160)" d="M1377.58 45.1919 L1377.58 72.576 L1370.13 72.576 L1370.13 45.4349 Q1370.13 38.994 1367.61 35.7938 Q1365.1 32.5936 1360.08 32.5936 Q1354.04 32.5936 1350.56 36.4419 Q1347.08 40.2903 1347.08 46.9338 L1347.08 72.576 L1339.58 72.576 L1339.58 27.2059 L1347.08 27.2059 L1347.08 34.2544 Q1349.75 30.163 1353.35 28.1376 Q1357 26.1121 1361.74 26.1121 Q1369.56 26.1121 1373.57 30.9732 Q1377.58 35.7938 1377.58 45.1919 Z" fill="#000000" fill-rule="evenodd" fill-opacity="1" /><path clip-path="url(#clip160)" d="M1421.37 28.5427 L1421.37 35.5912 Q1418.21 33.9709 1414.81 33.1607 Q1411.4 32.3505 1407.76 32.3505 Q1402.21 32.3505 1399.41 34.0519 Q1396.66 35.7533 1396.66 39.156 Q1396.66 41.7486 1398.64 43.2475 Q1400.63 44.7058 1406.62 46.0426 L1409.18 46.6097 Q1417.12 48.3111 1420.44 51.4303 Q1423.8 54.509 1423.8 60.0587 Q1423.8 66.3781 1418.78 70.0644 Q1413.79 73.7508 1405.04 73.7508 Q1401.4 73.7508 1397.43 73.0216 Q1393.5 72.3329 1389.12 70.9151 L1389.12 63.2184 Q1393.26 65.3654 1397.27 66.4591 Q1401.28 67.5124 1405.21 67.5124 Q1410.47 67.5124 1413.31 65.73 Q1416.14 63.9071 1416.14 60.6258 Q1416.14 57.5877 1414.08 55.9673 Q1412.05 54.3469 1405.13 52.8481 L1402.53 52.2405 Q1395.61 50.7821 1392.53 47.7845 Q1389.45 44.7463 1389.45 39.4801 Q1389.45 33.0797 1393.99 29.5959 Q1398.52 26.1121 1406.87 26.1121 Q1411 26.1121 1414.64 26.7198 Q1418.29 27.3274 1421.37 28.5427 Z" fill="#000000" fill-rule="evenodd" fill-opacity="1" /><path clip-path="url(#clip160)" d="M1443.04 14.324 L1443.04 27.2059 L1458.39 27.2059 L1458.39 32.9987 L1443.04 32.9987 L1443.04 57.6282 Q1443.04 63.1779 1444.54 64.7578 Q1446.08 66.3376 1450.74 66.3376 L1458.39 66.3376 L1458.39 72.576 L1450.74 72.576 Q1442.11 72.576 1438.83 69.3758 Q1435.55 66.1351 1435.55 57.6282 L1435.55 32.9987 L1430.08 32.9987 L1430.08 27.2059 L1435.55 27.2059 L1435.55 14.324 L1443.04 14.324 Z" fill="#000000" fill-rule="evenodd" fill-opacity="1" /><path clip-path="url(#clip160)" d="M1494.49 34.1734 Q1493.23 33.4443 1491.73 33.1202 Q1490.28 32.7556 1488.49 32.7556 Q1482.17 32.7556 1478.77 36.8875 Q1475.41 40.9789 1475.41 48.6757 L1475.41 72.576 L1467.91 72.576 L1467.91 27.2059 L1475.41 27.2059 L1475.41 34.2544 Q1477.76 30.1225 1481.53 28.1376 Q1485.29 26.1121 1490.68 26.1121 Q1491.45 26.1121 1492.38 26.2337 Q1493.31 26.3147 1494.45 26.5172 L1494.49 34.1734 Z" fill="#000000" fill-rule="evenodd" fill-opacity="1" /><path clip-path="url(#clip160)" d="M1501.54 54.671 L1501.54 27.2059 L1508.99 27.2059 L1508.99 54.3874 Q1508.99 60.8284 1511.5 64.0691 Q1514.01 67.2693 1519.04 67.2693 Q1525.07 67.2693 1528.56 63.421 Q1532.08 59.5726 1532.08 52.9291 L1532.08 27.2059 L1539.53 27.2059 L1539.53 72.576 L1532.08 72.576 L1532.08 65.6084 Q1529.37 69.7404 1525.76 71.7658 Q1522.2 73.7508 1517.46 73.7508 Q1509.64 73.7508 1505.59 68.8897 Q1501.54 64.0286 1501.54 54.671 M1520.29 26.1121 L1520.29 26.1121 Z" fill="#000000" fill-rule="evenodd" fill-opacity="1" /><path clip-path="url(#clip160)" d="M1587.54 28.9478 L1587.54 35.9153 Q1584.38 34.1734 1581.18 33.3227 Q1578.02 32.4315 1574.78 32.4315 Q1567.53 32.4315 1563.52 37.0496 Q1559.51 41.6271 1559.51 49.9314 Q1559.51 58.2358 1563.52 62.8538 Q1567.53 67.4314 1574.78 67.4314 Q1578.02 67.4314 1581.18 66.5807 Q1584.38 65.6895 1587.54 63.9476 L1587.54 70.8341 Q1584.42 72.2924 1581.06 73.0216 Q1577.73 73.7508 1573.97 73.7508 Q1563.72 73.7508 1557.68 67.3098 Q1551.65 60.8689 1551.65 49.9314 Q1551.65 38.832 1557.72 32.472 Q1563.84 26.1121 1574.45 26.1121 Q1577.9 26.1121 1581.18 26.8413 Q1584.46 27.5299 1587.54 28.9478 Z" fill="#000000" fill-rule="evenodd" fill-opacity="1" /><path clip-path="url(#clip160)" d="M1607.87 14.324 L1607.87 27.2059 L1623.23 27.2059 L1623.23 32.9987 L1607.87 32.9987 L1607.87 57.6282 Q1607.87 63.1779 1609.37 64.7578 Q1610.91 66.3376 1615.57 66.3376 L1623.23 66.3376 L1623.23 72.576 L1615.57 72.576 Q1606.94 72.576 1603.66 69.3758 Q1600.38 66.1351 1600.38 57.6282 L1600.38 32.9987 L1594.91 32.9987 L1594.91 27.2059 L1600.38 27.2059 L1600.38 14.324 L1607.87 14.324 Z" fill="#000000" fill-rule="evenodd" fill-opacity="1" /><path clip-path="url(#clip160)" d="M1680.02 49.7694 Q1670.99 49.7694 1667.5 51.8354 Q1664.02 53.9013 1664.02 58.8839 Q1664.02 62.8538 1666.61 65.2034 Q1669.24 67.5124 1673.74 67.5124 Q1679.94 67.5124 1683.67 63.1374 Q1687.43 58.7219 1687.43 51.4303 L1687.43 49.7694 L1680.02 49.7694 M1694.89 46.6907 L1694.89 72.576 L1687.43 72.576 L1687.43 65.6895 Q1684.88 69.8214 1681.07 71.8063 Q1677.26 73.7508 1671.76 73.7508 Q1664.79 73.7508 1660.66 69.8619 Q1656.56 65.9325 1656.56 59.3701 Q1656.56 51.7138 1661.67 47.825 Q1666.81 43.9361 1676.98 43.9361 L1687.43 43.9361 L1687.43 43.2069 Q1687.43 38.0623 1684.03 35.2672 Q1680.67 32.4315 1674.55 32.4315 Q1670.66 32.4315 1666.98 33.3632 Q1663.29 34.295 1659.89 36.1584 L1659.89 29.2718 Q1663.98 27.692 1667.83 26.9223 Q1671.67 26.1121 1675.32 26.1121 Q1685.16 26.1121 1690.03 31.2163 Q1694.89 36.3204 1694.89 46.6907 Z" fill="#000000" fill-rule="evenodd" fill-opacity="1" /><path clip-path="url(#clip160)" d="M1747.95 45.1919 L1747.95 72.576 L1740.5 72.576 L1740.5 45.4349 Q1740.5 38.994 1737.99 35.7938 Q1735.48 32.5936 1730.45 32.5936 Q1724.42 32.5936 1720.93 36.4419 Q1717.45 40.2903 1717.45 46.9338 L1717.45 72.576 L1709.96 72.576 L1709.96 27.2059 L1717.45 27.2059 L1717.45 34.2544 Q1720.12 30.163 1723.73 28.1376 Q1727.37 26.1121 1732.11 26.1121 Q1739.93 26.1121 1743.94 30.9732 Q1747.95 35.7938 1747.95 45.1919 Z" fill="#000000" fill-rule="evenodd" fill-opacity="1" /><path clip-path="url(#clip160)" d="M1792.68 34.0924 L1792.68 9.54393 L1800.13 9.54393 L1800.13 72.576 L1792.68 72.576 L1792.68 65.7705 Q1790.33 69.8214 1786.72 71.8063 Q1783.16 73.7508 1778.13 73.7508 Q1769.91 73.7508 1764.72 67.1883 Q1759.58 60.6258 1759.58 49.9314 Q1759.58 39.2371 1764.72 32.6746 Q1769.91 26.1121 1778.13 26.1121 Q1783.16 26.1121 1786.72 28.0971 Q1790.33 30.0415 1792.68 34.0924 M1767.28 49.9314 Q1767.28 58.1548 1770.64 62.8538 Q1774.04 67.5124 1779.96 67.5124 Q1785.87 67.5124 1789.27 62.8538 Q1792.68 58.1548 1792.68 49.9314 Q1792.68 41.7081 1789.27 37.0496 Q1785.87 32.3505 1779.96 32.3505 Q1774.04 32.3505 1770.64 37.0496 Q1767.28 41.7081 1767.28 49.9314 Z" fill="#000000" fill-rule="evenodd" fill-opacity="1" /><path clip-path="url(#clip160)" d="M1868.14 34.1734 Q1866.89 33.4443 1865.39 33.1202 Q1863.93 32.7556 1862.15 32.7556 Q1855.83 32.7556 1852.43 36.8875 Q1849.06 40.9789 1849.06 48.6757 L1849.06 72.576 L1841.57 72.576 L1841.57 27.2059 L1849.06 27.2059 L1849.06 34.2544 Q1851.41 30.1225 1855.18 28.1376 Q1858.95 26.1121 1864.34 26.1121 Q1865.11 26.1121 1866.04 26.2337 Q1866.97 26.3147 1868.1 26.5172 L1868.14 34.1734 Z" fill="#000000" fill-rule="evenodd" fill-opacity="1" /><path clip-path="url(#clip160)" d="M1912.95 48.0275 L1912.95 51.6733 L1878.68 51.6733 Q1879.16 59.3701 1883.29 63.421 Q1887.47 67.4314 1894.88 67.4314 Q1899.17 67.4314 1903.18 66.3781 Q1907.23 65.3249 1911.2 63.2184 L1911.2 70.267 Q1907.19 71.9684 1902.98 72.8596 Q1898.77 73.7508 1894.43 73.7508 Q1883.58 73.7508 1877.22 67.4314 Q1870.9 61.1119 1870.9 50.3365 Q1870.9 39.1965 1876.89 32.6746 Q1882.93 26.1121 1893.14 26.1121 Q1902.29 26.1121 1907.6 32.0264 Q1912.95 37.9003 1912.95 48.0275 M1905.49 45.84 Q1905.41 39.7232 1902.05 36.0774 Q1898.73 32.4315 1893.22 32.4315 Q1886.98 32.4315 1883.21 35.9558 Q1879.49 39.4801 1878.92 45.8805 L1905.49 45.84 Z" fill="#000000" fill-rule="evenodd" fill-opacity="1" /><path clip-path="url(#clip160)" d="M1955.04 34.0924 L1955.04 9.54393 L1962.49 9.54393 L1962.49 72.576 L1955.04 72.576 L1955.04 65.7705 Q1952.69 69.8214 1949.08 71.8063 Q1945.52 73.7508 1940.49 73.7508 Q1932.27 73.7508 1927.08 67.1883 Q1921.94 60.6258 1921.94 49.9314 Q1921.94 39.2371 1927.08 32.6746 Q1932.27 26.1121 1940.49 26.1121 Q1945.52 26.1121 1949.08 28.0971 Q1952.69 30.0415 1955.04 34.0924 M1929.64 49.9314 Q1929.64 58.1548 1933 62.8538 Q1936.4 67.5124 1942.32 67.5124 Q1948.23 67.5124 1951.63 62.8538 Q1955.04 58.1548 1955.04 49.9314 Q1955.04 41.7081 1951.63 37.0496 Q1948.23 32.3505 1942.32 32.3505 Q1936.4 32.3505 1933 37.0496 Q1929.64 41.7081 1929.64 49.9314 Z" fill="#000000" fill-rule="evenodd" fill-opacity="1" /><path clip-path="url(#clip160)" d="M1998.46 49.7694 Q1989.43 49.7694 1985.94 51.8354 Q1982.46 53.9013 1982.46 58.8839 Q1982.46 62.8538 1985.05 65.2034 Q1987.69 67.5124 1992.18 67.5124 Q1998.38 67.5124 2002.11 63.1374 Q2005.87 58.7219 2005.87 51.4303 L2005.87 49.7694 L1998.46 49.7694 M2013.33 46.6907 L2013.33 72.576 L2005.87 72.576 L2005.87 65.6895 Q2003.32 69.8214 1999.51 71.8063 Q1995.71 73.7508 1990.2 73.7508 Q1983.23 73.7508 1979.1 69.8619 Q1975.01 65.9325 1975.01 59.3701 Q1975.01 51.7138 1980.11 47.825 Q1985.26 43.9361 1995.42 43.9361 L2005.87 43.9361 L2005.87 43.2069 Q2005.87 38.0623 2002.47 35.2672 Q1999.11 32.4315 1992.99 32.4315 Q1989.1 32.4315 1985.42 33.3632 Q1981.73 34.295 1978.33 36.1584 L1978.33 29.2718 Q1982.42 27.692 1986.27 26.9223 Q1990.12 26.1121 1993.76 26.1121 Q2003.61 26.1121 2008.47 31.2163 Q2013.33 36.3204 2013.33 46.6907 Z" fill="#000000" fill-rule="evenodd" fill-opacity="1" /><path clip-path="url(#clip160)" d="M2036.05 14.324 L2036.05 27.2059 L2051.41 27.2059 L2051.41 32.9987 L2036.05 32.9987 L2036.05 57.6282 Q2036.05 63.1779 2037.55 64.7578 Q2039.09 66.3376 2043.75 66.3376 L2051.41 66.3376 L2051.41 72.576 L2043.75 72.576 Q2035.12 72.576 2031.84 69.3758 Q2028.56 66.1351 2028.56 57.6282 L2028.56 32.9987 L2023.09 32.9987 L2023.09 27.2059 L2028.56 27.2059 L2028.56 14.324 L2036.05 14.324 Z" fill="#000000" fill-rule="evenodd" fill-opacity="1" /><path clip-path="url(#clip160)" d="M2060.44 54.671 L2060.44 27.2059 L2067.89 27.2059 L2067.89 54.3874 Q2067.89 60.8284 2070.41 64.0691 Q2072.92 67.2693 2077.94 67.2693 Q2083.98 67.2693 2087.46 63.421 Q2090.98 59.5726 2090.98 52.9291 L2090.98 27.2059 L2098.44 27.2059 L2098.44 72.576 L2090.98 72.576 L2090.98 65.6084 Q2088.27 69.7404 2084.66 71.7658 Q2081.1 73.7508 2076.36 73.7508 Q2068.54 73.7508 2064.49 68.8897 Q2060.44 64.0286 2060.44 54.671 M2079.2 26.1121 L2079.2 26.1121 Z" fill="#000000" fill-rule="evenodd" fill-opacity="1" /><path clip-path="url(#clip160)" d="M2149.11 35.9153 Q2151.91 30.8922 2155.8 28.5022 Q2159.69 26.1121 2164.95 26.1121 Q2172.04 26.1121 2175.89 31.0947 Q2179.74 36.0368 2179.74 45.1919 L2179.74 72.576 L2172.24 72.576 L2172.24 45.4349 Q2172.24 38.913 2169.94 35.7533 Q2167.63 32.5936 2162.89 32.5936 Q2157.09 32.5936 2153.73 36.4419 Q2150.37 40.2903 2150.37 46.9338 L2150.37 72.576 L2142.88 72.576 L2142.88 45.4349 Q2142.88 38.8725 2140.57 35.7533 Q2138.26 32.5936 2133.44 32.5936 Q2127.73 32.5936 2124.36 36.4824 Q2121 40.3308 2121 46.9338 L2121 72.576 L2113.51 72.576 L2113.51 27.2059 L2121 27.2059 L2121 34.2544 Q2123.55 30.082 2127.12 28.0971 Q2130.68 26.1121 2135.58 26.1121 Q2140.53 26.1121 2143.97 28.6237 Q2147.45 31.1352 2149.11 35.9153 Z" fill="#000000" fill-rule="evenodd" fill-opacity="1" /><polyline clip-path="url(#clip162)" style="stroke:#ff0000; stroke-linecap:butt; stroke-linejoin:round; stroke-width:8; stroke-opacity:1; fill:none" points="
  270.807,472.335 281.779,472.335 292.752,472.335 303.725,472.335 314.697,472.335 325.67,472.335 336.642,472.335 347.615,472.335 358.588,472.335 369.56,472.335 
  380.533,472.335 391.505,472.335 402.478,472.335 413.45,472.335 424.423,472.335 435.396,472.335 446.368,472.335 457.341,472.335 468.313,472.335 479.286,472.335 
  490.259,472.335 501.231,472.335 512.204,472.335 523.176,472.335 534.149,472.335 545.121,472.335 556.094,472.335 567.067,472.335 578.039,472.335 589.012,472.335 
  599.984,472.335 610.957,472.335 621.93,472.335 632.902,472.335 643.875,472.335 654.847,472.335 665.82,472.335 676.792,472.335 687.765,449.951 698.738,492.84 
  709.71,497.183 720.683,446.351 731.655,479.652 742.628,434.109 753.601,517.195 764.573,450.357 775.546,475.129 786.518,460.596 797.491,475.908 808.463,456.005 
  819.436,476.987 830.409,489.601 841.381,536.931 852.354,453.997 863.326,478.798 874.299,480.519 885.272,434.99 896.244,459.596 907.217,472.335 918.189,472.335 
  929.162,472.335 940.134,472.335 951.107,587.24 962.08,367.076 973.052,344.779 984.025,605.716 994.997,434.77 1005.97,668.561 1016.94,242.05 1027.92,585.151 
  1038.89,457.99 1049.86,532.594 1060.83,453.994 1071.81,556.162 1082.78,448.454 1093.75,383.702 1104.72,140.741 1115.7,566.468 1126.67,439.157 1137.64,430.324 
  1148.61,664.039 1159.59,537.725 1170.56,472.335 1181.53,472.335 1192.5,472.335 1203.48,472.335 1214.45,472.335 1225.42,472.335 1236.39,472.335 1247.37,472.335 
  1258.34,472.335 1269.31,472.335 1280.28,472.335 1291.26,472.335 1302.23,472.335 1313.2,472.335 1324.17,472.335 1335.15,472.335 1346.12,472.335 1357.09,472.335 
  1368.07,472.335 1379.04,472.335 1390.01,472.335 1400.98,472.335 1411.96,472.335 1422.93,472.335 1433.9,472.335 1444.87,472.335 1455.85,472.335 1466.82,472.335 
  1477.79,472.335 1488.76,472.335 1499.74,472.335 1510.71,472.335 1521.68,472.335 1532.65,472.335 1543.63,472.335 1554.6,472.335 1565.57,472.335 1576.54,472.335 
  1587.52,472.335 1598.49,472.335 1609.46,472.335 1620.43,472.335 1631.41,472.335 1642.38,472.335 1653.35,472.335 1664.32,472.335 1675.3,472.335 1686.27,472.335 
  1697.24,472.335 1708.22,472.335 1719.19,472.335 1730.16,472.335 1741.13,472.335 1752.11,472.335 1763.08,472.335 1774.05,472.335 1785.02,472.335 1796,472.335 
  1806.97,472.335 1817.94,472.335 1828.91,472.335 1839.89,472.335 1850.86,472.335 1861.83,472.335 1872.8,472.335 1883.78,472.335 1894.75,472.335 1905.72,472.335 
  1916.69,472.335 1927.67,472.335 1938.64,472.335 1949.61,472.335 1960.58,472.335 1971.56,472.335 1982.53,472.335 1993.5,472.335 2004.48,472.335 2015.45,472.335 
  2026.42,472.335 2037.39,472.335 2048.37,472.335 2059.34,472.335 2070.31,472.335 2081.28,472.335 2092.26,472.335 2103.23,472.335 2114.2,472.335 2125.17,472.335 
  2136.15,472.335 2147.12,472.335 2158.09,472.335 2169.06,472.335 2180.04,472.335 2191.01,472.335 2201.98,472.335 2212.95,472.335 2223.93,472.335 2234.9,472.335 
  2245.87,472.335 2256.84,472.335 2267.82,472.335 2278.79,472.335 2289.76,472.335 2300.73,472.335 2311.71,472.335 2322.68,472.335 2333.65,472.335 2344.63,472.335 
  2355.6,472.335 2366.57,472.335 2377.54,472.335 2388.52,472.335 2399.49,472.335 2410.46,472.335 2421.43,472.335 2432.41,472.335 2443.38,472.335 2454.35,472.335 
  2465.32,472.335 2476.3,472.335 2487.27,472.335 2498.24,472.335 2509.21,472.335 2520.19,472.335 2531.16,472.335 2542.13,472.335 2553.1,472.335 2564.08,472.335 
  2575.05,472.335 2586.02,472.335 2596.99,472.335 2607.97,472.335 2618.94,472.335 2629.91,472.335 2640.88,472.335 2651.86,472.335 2662.83,472.335 2673.8,472.335 
  2684.78,472.335 2695.75,472.335 2706.72,472.335 2717.69,472.335 2728.67,472.335 2739.64,472.335 2750.61,472.335 2761.58,472.335 2772.56,472.335 2783.53,472.335 
  2794.5,472.335 2805.47,472.335 2816.45,472.335 2827.42,472.335 2838.39,472.335 2849.36,472.335 2860.34,472.335 2871.31,472.335 2882.28,472.335 2893.25,472.335 
  2904.23,472.335 2915.2,472.335 2926.17,472.335 2937.14,472.335 2948.12,472.335 2959.09,472.335 2970.06,472.335 2981.03,472.335 2992.01,472.335 3002.98,472.335 
  3013.95,472.335 3024.93,472.335 3035.9,472.335 3046.87,472.335 3057.84,472.335 3068.82,472.335 
  "/>
<polyline clip-path="url(#clip162)" style="stroke:#add8e6; stroke-linecap:butt; stroke-linejoin:round; stroke-width:8; stroke-opacity:1; fill:none" points="
  270.807,473.054 281.779,472.511 292.752,472.816 303.725,472.283 314.697,471.966 325.67,472.181 336.642,472.842 347.615,472.459 358.588,472.686 369.56,472.9 
  380.533,472.227 391.505,472.19 402.478,472.49 413.45,471.961 424.423,472.937 435.396,471.984 446.368,472.89 457.341,472.25 468.313,472.058 479.286,470.865 
  490.259,471.021 501.231,472.062 512.204,472.731 523.176,473.213 534.149,472.014 545.121,472.244 556.094,471.928 567.067,472.24 578.039,472.172 589.012,472.218 
  599.984,472.753 610.957,473.005 621.93,472.411 632.902,472.335 643.875,472.153 654.847,473.874 665.82,472.097 676.792,471.73 687.765,471.798 698.738,472.615 
  709.71,472.653 720.683,472.968 731.655,473.625 742.628,471.139 753.601,472.209 764.573,472.847 775.546,473.6 786.518,473.467 797.491,471.147 808.463,472.373 
  819.436,472.038 830.409,472.668 841.381,475.401 852.354,469.033 863.326,468.884 874.299,474.273 885.272,478.884 896.244,471.474 907.217,467.154 918.189,466.911 
  929.162,466.879 940.134,472.291 951.107,595.998 962.08,366.293 973.052,350.836 984.025,620.076 994.997,436.227 1005.97,678.482 1016.94,222.46 1027.92,584.289 
  1038.89,436.166 1049.86,534.07 1060.83,453.371 1071.81,564.322 1082.78,451.147 1093.75,380.531 1104.72,124.958 1115.7,590.123 1126.67,445.418 1137.64,419.216 
  1148.61,671.065 1159.59,530.187 1170.56,469.02 1181.53,470.735 1192.5,474.246 1203.48,468.039 1214.45,477.662 1225.42,470.457 1236.39,472.105 1247.37,478.857 
  1258.34,467.344 1269.31,469.47 1280.28,475.615 1291.26,475.443 1302.23,470.213 1313.2,474.242 1324.17,473.233 1335.15,472.761 1346.12,473.066 1357.09,472.738 
  1368.07,471.892 1379.04,469.956 1390.01,472.047 1400.98,473.282 1411.96,472.78 1422.93,471.652 1433.9,471.783 1444.87,472.771 1455.85,472.993 1466.82,472.483 
  1477.79,472.771 1488.76,473.165 1499.74,472.187 1510.71,471.947 1521.68,472.357 1532.65,472.506 1543.63,472.214 1554.6,471.771 1565.57,472.204 1576.54,471.923 
  1587.52,471.942 1598.49,472.47 1609.46,472.292 1620.43,472.234 1631.41,472.378 1642.38,472.46 1653.35,472.448 1664.32,472.204 1675.3,472.095 1686.27,472.423 
  1697.24,472.099 1708.22,472.072 1719.19,471.883 1730.16,472.262 1741.13,472.376 1752.11,472.206 1763.08,472.365 1774.05,472.273 1785.02,472.275 1796,472.246 
  1806.97,472.067 1817.94,472.093 1828.91,472.201 1839.89,472.203 1850.86,472.285 1861.83,472.224 1872.8,472.328 1883.78,472.565 1894.75,472.522 1905.72,472.148 
  1916.69,472.318 1927.67,472.26 1938.64,471.963 1949.61,472.158 1960.58,472.187 1971.56,472.403 1982.53,472.419 1993.5,472.236 2004.48,472.14 2015.45,472.297 
  2026.42,472.382 2037.39,472.446 2048.37,472.415 2059.34,472.299 2070.31,472.133 2081.28,472.611 2092.26,472.603 2103.23,472.249 2114.2,472.348 2125.17,472.319 
  2136.15,472.136 2147.12,472.032 2158.09,472.009 2169.06,472.396 2180.04,472.343 2191.01,472.323 2201.98,472.583 2212.95,472.306 2223.93,472.547 2234.9,472.666 
  2245.87,472.528 2256.84,472.369 2267.82,472.652 2278.79,472.44 2289.76,472.044 2300.73,472.121 2311.71,472.194 2322.68,472.473 2333.65,472.685 2344.63,472.283 
  2355.6,472.209 2366.57,472.528 2377.54,472.452 2388.52,472.319 2399.49,472.349 2410.46,472.373 2421.43,472.401 2432.41,472.24 2443.38,472.345 2454.35,472.343 
  2465.32,472.194 2476.3,472.264 2487.27,472.214 2498.24,472.016 2509.21,472.173 2520.19,472.348 2531.16,472.282 2542.13,472.162 2553.1,472.241 2564.08,472.304 
  2575.05,472.288 2586.02,472.318 2596.99,472.13 2607.97,472.251 2618.94,472.296 2629.91,472.23 2640.88,472.321 2651.86,472.305 2662.83,472.297 2673.8,472.247 
  2684.78,472.212 2695.75,472.337 2706.72,472.378 2717.69,472.365 2728.67,472.375 2739.64,472.297 2750.61,472.272 2761.58,472.425 2772.56,472.435 2783.53,472.22 
  2794.5,472.121 2805.47,471.824 2816.45,472.398 2827.42,472.313 2838.39,473.061 2849.36,472.703 2860.34,472.77 2871.31,472.253 2882.28,472.541 2893.25,472.07 
  2904.23,472.221 2915.2,472.948 2926.17,472.304 2937.14,472.243 2948.12,471.771 2959.09,473.026 2970.06,471.912 2981.03,472.36 2992.01,471.665 3002.98,472.701 
  3013.95,472.067 3024.93,472.3 3035.9,472.167 3046.87,472.878 3057.84,471.677 3068.82,473.621 
  "/>
<path clip-path="url(#clip160)" d="
M2590.48 283.43 L3053.89 283.43 L3053.89 127.91 L2590.48 127.91  Z
  " fill="#ffffff" fill-rule="evenodd" fill-opacity="1"/>
<polyline clip-path="url(#clip160)" style="stroke:#000000; stroke-linecap:butt; stroke-linejoin:round; stroke-width:4; stroke-opacity:1; fill:none" points="
  2590.48,283.43 3053.89,283.43 3053.89,127.91 2590.48,127.91 2590.48,283.43 
  "/>
<polyline clip-path="url(#clip160)" style="stroke:#ff0000; stroke-linecap:butt; stroke-linejoin:round; stroke-width:4; stroke-opacity:1; fill:none" points="
  2623.44,179.75 2821.16,179.75 
  "/>
<path clip-path="url(#clip160)" d="M2878.77 171.104 L2869.4 183.72 L2879.26 197.03 L2874.23 197.03 L2866.69 186.845 L2859.14 197.03 L2854.12 197.03 L2864.19 183.465 L2854.98 171.104 L2860 171.104 L2866.87 180.34 L2873.75 171.104 L2878.77 171.104 Z" fill="#000000" fill-rule="evenodd" fill-opacity="1" /><path clip-path="url(#clip160)" d="M2904.98 204.9 L2904.98 208.21 L2880.35 208.21 L2880.35 204.9 L2904.98 204.9 Z" fill="#000000" fill-rule="evenodd" fill-opacity="1" /><path clip-path="url(#clip160)" d="M2908.98 171.104 L2913.24 171.104 L2913.24 197.493 Q2913.24 202.447 2911.34 204.669 Q2909.47 206.891 2905.28 206.891 L2903.66 206.891 L2903.66 203.28 L2904.79 203.28 Q2907.22 203.28 2908.1 202.146 Q2908.98 201.035 2908.98 197.493 L2908.98 171.104 M2908.98 161.012 L2913.24 161.012 L2913.24 166.405 L2908.98 166.405 L2908.98 161.012 Z" fill="#000000" fill-rule="evenodd" fill-opacity="1" /><polyline clip-path="url(#clip160)" style="stroke:#add8e6; stroke-linecap:butt; stroke-linejoin:round; stroke-width:4; stroke-opacity:1; fill:none" points="
  2623.44,231.59 2821.16,231.59 
  "/>
<path clip-path="url(#clip160)" d="M2875.83 233.222 L2875.83 248.87 L2871.57 248.87 L2871.57 233.361 Q2871.57 229.68 2870.14 227.852 Q2868.7 226.023 2865.83 226.023 Q2862.38 226.023 2860.39 228.222 Q2858.4 230.421 2858.4 234.217 L2858.4 248.87 L2854.12 248.87 L2854.12 212.852 L2858.4 212.852 L2858.4 226.972 Q2859.93 224.634 2861.99 223.477 Q2864.07 222.319 2866.78 222.319 Q2871.25 222.319 2873.54 225.097 Q2875.83 227.852 2875.83 233.222 Z" fill="#000000" fill-rule="evenodd" fill-opacity="1" /><path clip-path="url(#clip160)" d="M2896.11 235.838 Q2890.95 235.838 2888.96 237.018 Q2886.97 238.199 2886.97 241.046 Q2886.97 243.314 2888.45 244.657 Q2889.95 245.976 2892.52 245.976 Q2896.06 245.976 2898.19 243.476 Q2900.35 240.953 2900.35 236.787 L2900.35 235.838 L2896.11 235.838 M2904.61 234.078 L2904.61 248.87 L2900.35 248.87 L2900.35 244.935 Q2898.89 247.296 2896.71 248.43 Q2894.54 249.541 2891.39 249.541 Q2887.41 249.541 2885.05 247.319 Q2882.71 245.074 2882.71 241.324 Q2882.71 236.949 2885.62 234.727 Q2888.56 232.504 2894.37 232.504 L2900.35 232.504 L2900.35 232.088 Q2900.35 229.148 2898.4 227.551 Q2896.48 225.93 2892.98 225.93 Q2890.76 225.93 2888.66 226.463 Q2886.55 226.995 2884.61 228.06 L2884.61 224.125 Q2886.94 223.222 2889.14 222.782 Q2891.34 222.319 2893.42 222.319 Q2899.05 222.319 2901.83 225.236 Q2904.61 228.153 2904.61 234.078 Z" fill="#000000" fill-rule="evenodd" fill-opacity="1" /><path clip-path="url(#clip160)" d="M2917.59 215.583 L2917.59 222.944 L2926.36 222.944 L2926.36 226.254 L2917.59 226.254 L2917.59 240.328 Q2917.59 243.5 2918.45 244.402 Q2919.33 245.305 2921.99 245.305 L2926.36 245.305 L2926.36 248.87 L2921.99 248.87 Q2917.06 248.87 2915.18 247.041 Q2913.31 245.189 2913.31 240.328 L2913.31 226.254 L2910.18 226.254 L2910.18 222.944 L2913.31 222.944 L2913.31 215.583 L2917.59 215.583 Z" fill="#000000" fill-rule="evenodd" fill-opacity="1" /><path clip-path="url(#clip160)" d="M2953.52 222.944 L2944.14 235.56 L2954 248.87 L2948.98 248.87 L2941.43 238.685 L2933.89 248.87 L2928.86 248.87 L2938.93 235.305 L2929.72 222.944 L2934.74 222.944 L2941.62 232.18 L2948.49 222.944 L2953.52 222.944 Z" fill="#000000" fill-rule="evenodd" fill-opacity="1" /><path clip-path="url(#clip160)" d="M2979.72 256.74 L2979.72 260.05 L2955.09 260.05 L2955.09 256.74 L2979.72 256.74 Z" fill="#000000" fill-rule="evenodd" fill-opacity="1" /><path clip-path="url(#clip160)" d="M2983.73 222.944 L2987.98 222.944 L2987.98 249.333 Q2987.98 254.287 2986.09 256.509 Q2984.21 258.731 2980.02 258.731 L2978.4 258.731 L2978.4 255.12 L2979.54 255.12 Q2981.97 255.12 2982.85 253.986 Q2983.73 252.875 2983.73 249.333 L2983.73 222.944 M2983.73 212.852 L2987.98 212.852 L2987.98 218.245 L2983.73 218.245 L2983.73 212.852 Z" fill="#000000" fill-rule="evenodd" fill-opacity="1" /><path clip-path="url(#clip160)" d="
M186.867 1495.09 L3152.76 1495.09 L3152.76 908.352 L186.867 908.352  Z
  " fill="#ffffff" fill-rule="evenodd" fill-opacity="1"/>
<defs>
  <clipPath id="clip163">
    <rect x="186" y="908" width="2967" height="588"/>
  </clipPath>
</defs>
<polyline clip-path="url(#clip163)" style="stroke:#000000; stroke-linecap:butt; stroke-linejoin:round; stroke-width:2; stroke-opacity:0.1; fill:none" points="
  259.834,1495.09 259.834,908.352 
  "/>
<polyline clip-path="url(#clip163)" style="stroke:#000000; stroke-linecap:butt; stroke-linejoin:round; stroke-width:2; stroke-opacity:0.1; fill:none" points="
  808.463,1495.09 808.463,908.352 
  "/>
<polyline clip-path="url(#clip163)" style="stroke:#000000; stroke-linecap:butt; stroke-linejoin:round; stroke-width:2; stroke-opacity:0.1; fill:none" points="
  1357.09,1495.09 1357.09,908.352 
  "/>
<polyline clip-path="url(#clip163)" style="stroke:#000000; stroke-linecap:butt; stroke-linejoin:round; stroke-width:2; stroke-opacity:0.1; fill:none" points="
  1905.72,1495.09 1905.72,908.352 
  "/>
<polyline clip-path="url(#clip163)" style="stroke:#000000; stroke-linecap:butt; stroke-linejoin:round; stroke-width:2; stroke-opacity:0.1; fill:none" points="
  2454.35,1495.09 2454.35,908.352 
  "/>
<polyline clip-path="url(#clip163)" style="stroke:#000000; stroke-linecap:butt; stroke-linejoin:round; stroke-width:2; stroke-opacity:0.1; fill:none" points="
  3002.98,1495.09 3002.98,908.352 
  "/>
<polyline clip-path="url(#clip160)" style="stroke:#000000; stroke-linecap:butt; stroke-linejoin:round; stroke-width:4; stroke-opacity:1; fill:none" points="
  186.867,1495.09 3152.76,1495.09 
  "/>
<polyline clip-path="url(#clip160)" style="stroke:#000000; stroke-linecap:butt; stroke-linejoin:round; stroke-width:4; stroke-opacity:1; fill:none" points="
  259.834,1495.09 259.834,1476.19 
  "/>
<polyline clip-path="url(#clip160)" style="stroke:#000000; stroke-linecap:butt; stroke-linejoin:round; stroke-width:4; stroke-opacity:1; fill:none" points="
  808.463,1495.09 808.463,1476.19 
  "/>
<polyline clip-path="url(#clip160)" style="stroke:#000000; stroke-linecap:butt; stroke-linejoin:round; stroke-width:4; stroke-opacity:1; fill:none" points="
  1357.09,1495.09 1357.09,1476.19 
  "/>
<polyline clip-path="url(#clip160)" style="stroke:#000000; stroke-linecap:butt; stroke-linejoin:round; stroke-width:4; stroke-opacity:1; fill:none" points="
  1905.72,1495.09 1905.72,1476.19 
  "/>
<polyline clip-path="url(#clip160)" style="stroke:#000000; stroke-linecap:butt; stroke-linejoin:round; stroke-width:4; stroke-opacity:1; fill:none" points="
  2454.35,1495.09 2454.35,1476.19 
  "/>
<polyline clip-path="url(#clip160)" style="stroke:#000000; stroke-linecap:butt; stroke-linejoin:round; stroke-width:4; stroke-opacity:1; fill:none" points="
  3002.98,1495.09 3002.98,1476.19 
  "/>
<path clip-path="url(#clip160)" d="M259.834 1532.41 Q256.223 1532.41 254.395 1535.97 Q252.589 1539.51 252.589 1546.64 Q252.589 1553.75 254.395 1557.31 Q256.223 1560.86 259.834 1560.86 Q263.469 1560.86 265.274 1557.31 Q267.103 1553.75 267.103 1546.64 Q267.103 1539.51 265.274 1535.97 Q263.469 1532.41 259.834 1532.41 M259.834 1528.7 Q265.644 1528.7 268.7 1533.31 Q271.779 1537.89 271.779 1546.64 Q271.779 1555.37 268.7 1559.98 Q265.644 1564.56 259.834 1564.56 Q254.024 1564.56 250.945 1559.98 Q247.89 1555.37 247.89 1546.64 Q247.89 1537.89 250.945 1533.31 Q254.024 1528.7 259.834 1528.7 Z" fill="#000000" fill-rule="evenodd" fill-opacity="1" /><path clip-path="url(#clip160)" d="M783.163 1529.33 L801.519 1529.33 L801.519 1533.26 L787.445 1533.26 L787.445 1541.74 Q788.464 1541.39 789.482 1541.23 Q790.501 1541.04 791.519 1541.04 Q797.306 1541.04 800.686 1544.21 Q804.065 1547.38 804.065 1552.8 Q804.065 1558.38 800.593 1561.48 Q797.121 1564.56 790.802 1564.56 Q788.626 1564.56 786.357 1564.19 Q784.112 1563.82 781.704 1563.08 L781.704 1558.38 Q783.788 1559.51 786.01 1560.07 Q788.232 1560.62 790.709 1560.62 Q794.714 1560.62 797.052 1558.52 Q799.389 1556.41 799.389 1552.8 Q799.389 1549.19 797.052 1547.08 Q794.714 1544.98 790.709 1544.98 Q788.834 1544.98 786.959 1545.39 Q785.107 1545.81 783.163 1546.69 L783.163 1529.33 Z" fill="#000000" fill-rule="evenodd" fill-opacity="1" /><path clip-path="url(#clip160)" d="M823.278 1532.41 Q819.667 1532.41 817.838 1535.97 Q816.033 1539.51 816.033 1546.64 Q816.033 1553.75 817.838 1557.31 Q819.667 1560.86 823.278 1560.86 Q826.912 1560.86 828.718 1557.31 Q830.547 1553.75 830.547 1546.64 Q830.547 1539.51 828.718 1535.97 Q826.912 1532.41 823.278 1532.41 M823.278 1528.7 Q829.088 1528.7 832.144 1533.31 Q835.223 1537.89 835.223 1546.64 Q835.223 1555.37 832.144 1559.98 Q829.088 1564.56 823.278 1564.56 Q817.468 1564.56 814.389 1559.98 Q811.334 1555.37 811.334 1546.64 Q811.334 1537.89 814.389 1533.31 Q817.468 1528.7 823.278 1528.7 Z" fill="#000000" fill-rule="evenodd" fill-opacity="1" /><path clip-path="url(#clip160)" d="M1316.7 1559.95 L1324.34 1559.95 L1324.34 1533.59 L1316.03 1535.25 L1316.03 1530.99 L1324.29 1529.33 L1328.97 1529.33 L1328.97 1559.95 L1336.61 1559.95 L1336.61 1563.89 L1316.7 1563.89 L1316.7 1559.95 Z" fill="#000000" fill-rule="evenodd" fill-opacity="1" /><path clip-path="url(#clip160)" d="M1356.05 1532.41 Q1352.44 1532.41 1350.61 1535.97 Q1348.81 1539.51 1348.81 1546.64 Q1348.81 1553.75 1350.61 1557.31 Q1352.44 1560.86 1356.05 1560.86 Q1359.69 1560.86 1361.49 1557.31 Q1363.32 1553.75 1363.32 1546.64 Q1363.32 1539.51 1361.49 1535.97 Q1359.69 1532.41 1356.05 1532.41 M1356.05 1528.7 Q1361.86 1528.7 1364.92 1533.31 Q1368 1537.89 1368 1546.64 Q1368 1555.37 1364.92 1559.98 Q1361.86 1564.56 1356.05 1564.56 Q1350.24 1564.56 1347.16 1559.98 Q1344.11 1555.37 1344.11 1546.64 Q1344.11 1537.89 1347.16 1533.31 Q1350.24 1528.7 1356.05 1528.7 Z" fill="#000000" fill-rule="evenodd" fill-opacity="1" /><path clip-path="url(#clip160)" d="M1386.21 1532.41 Q1382.6 1532.41 1380.77 1535.97 Q1378.97 1539.51 1378.97 1546.64 Q1378.97 1553.75 1380.77 1557.31 Q1382.6 1560.86 1386.21 1560.86 Q1389.85 1560.86 1391.65 1557.31 Q1393.48 1553.75 1393.48 1546.64 Q1393.48 1539.51 1391.65 1535.97 Q1389.85 1532.41 1386.21 1532.41 M1386.21 1528.7 Q1392.02 1528.7 1395.08 1533.31 Q1398.16 1537.89 1398.16 1546.64 Q1398.16 1555.37 1395.08 1559.98 Q1392.02 1564.56 1386.21 1564.56 Q1380.4 1564.56 1377.32 1559.98 Q1374.27 1555.37 1374.27 1546.64 Q1374.27 1537.89 1377.32 1533.31 Q1380.4 1528.7 1386.21 1528.7 Z" fill="#000000" fill-rule="evenodd" fill-opacity="1" /><path clip-path="url(#clip160)" d="M1865.33 1559.95 L1872.97 1559.95 L1872.97 1533.59 L1864.66 1535.25 L1864.66 1530.99 L1872.92 1529.33 L1877.6 1529.33 L1877.6 1559.95 L1885.24 1559.95 L1885.24 1563.89 L1865.33 1563.89 L1865.33 1559.95 Z" fill="#000000" fill-rule="evenodd" fill-opacity="1" /><path clip-path="url(#clip160)" d="M1894.73 1529.33 L1913.08 1529.33 L1913.08 1533.26 L1899.01 1533.26 L1899.01 1541.74 Q1900.03 1541.39 1901.05 1541.23 Q1902.06 1541.04 1903.08 1541.04 Q1908.87 1541.04 1912.25 1544.21 Q1915.63 1547.38 1915.63 1552.8 Q1915.63 1558.38 1912.16 1561.48 Q1908.68 1564.56 1902.37 1564.56 Q1900.19 1564.56 1897.92 1564.19 Q1895.68 1563.82 1893.27 1563.08 L1893.27 1558.38 Q1895.35 1559.51 1897.57 1560.07 Q1899.8 1560.62 1902.27 1560.62 Q1906.28 1560.62 1908.62 1558.52 Q1910.95 1556.41 1910.95 1552.8 Q1910.95 1549.19 1908.62 1547.08 Q1906.28 1544.98 1902.27 1544.98 Q1900.4 1544.98 1898.52 1545.39 Q1896.67 1545.81 1894.73 1546.69 L1894.73 1529.33 Z" fill="#000000" fill-rule="evenodd" fill-opacity="1" /><path clip-path="url(#clip160)" d="M1934.84 1532.41 Q1931.23 1532.41 1929.4 1535.97 Q1927.6 1539.51 1927.6 1546.64 Q1927.6 1553.75 1929.4 1557.31 Q1931.23 1560.86 1934.84 1560.86 Q1938.48 1560.86 1940.28 1557.31 Q1942.11 1553.75 1942.11 1546.64 Q1942.11 1539.51 1940.28 1535.97 Q1938.48 1532.41 1934.84 1532.41 M1934.84 1528.7 Q1940.65 1528.7 1943.71 1533.31 Q1946.79 1537.89 1946.79 1546.64 Q1946.79 1555.37 1943.71 1559.98 Q1940.65 1564.56 1934.84 1564.56 Q1929.03 1564.56 1925.95 1559.98 Q1922.9 1555.37 1922.9 1546.64 Q1922.9 1537.89 1925.95 1533.31 Q1929.03 1528.7 1934.84 1528.7 Z" fill="#000000" fill-rule="evenodd" fill-opacity="1" /><path clip-path="url(#clip160)" d="M2418.04 1559.95 L2434.36 1559.95 L2434.36 1563.89 L2412.42 1563.89 L2412.42 1559.95 Q2415.08 1557.2 2419.66 1552.57 Q2424.27 1547.92 2425.45 1546.57 Q2427.7 1544.05 2428.58 1542.31 Q2429.48 1540.55 2429.48 1538.86 Q2429.48 1536.11 2427.53 1534.37 Q2425.61 1532.64 2422.51 1532.64 Q2420.31 1532.64 2417.86 1533.4 Q2415.43 1534.17 2412.65 1535.72 L2412.65 1530.99 Q2415.47 1529.86 2417.93 1529.28 Q2420.38 1528.7 2422.42 1528.7 Q2427.79 1528.7 2430.98 1531.39 Q2434.18 1534.07 2434.18 1538.56 Q2434.18 1540.69 2433.37 1542.61 Q2432.58 1544.51 2430.47 1547.11 Q2429.9 1547.78 2426.79 1550.99 Q2423.69 1554.19 2418.04 1559.95 Z" fill="#000000" fill-rule="evenodd" fill-opacity="1" /><path clip-path="url(#clip160)" d="M2454.18 1532.41 Q2450.57 1532.41 2448.74 1535.97 Q2446.93 1539.51 2446.93 1546.64 Q2446.93 1553.75 2448.74 1557.31 Q2450.57 1560.86 2454.18 1560.86 Q2457.81 1560.86 2459.62 1557.31 Q2461.45 1553.75 2461.45 1546.64 Q2461.45 1539.51 2459.62 1535.97 Q2457.81 1532.41 2454.18 1532.41 M2454.18 1528.7 Q2459.99 1528.7 2463.04 1533.31 Q2466.12 1537.89 2466.12 1546.64 Q2466.12 1555.37 2463.04 1559.98 Q2459.99 1564.56 2454.18 1564.56 Q2448.37 1564.56 2445.29 1559.98 Q2442.23 1555.37 2442.23 1546.64 Q2442.23 1537.89 2445.29 1533.31 Q2448.37 1528.7 2454.18 1528.7 Z" fill="#000000" fill-rule="evenodd" fill-opacity="1" /><path clip-path="url(#clip160)" d="M2484.34 1532.41 Q2480.73 1532.41 2478.9 1535.97 Q2477.09 1539.51 2477.09 1546.64 Q2477.09 1553.75 2478.9 1557.31 Q2480.73 1560.86 2484.34 1560.86 Q2487.97 1560.86 2489.78 1557.31 Q2491.61 1553.75 2491.61 1546.64 Q2491.61 1539.51 2489.78 1535.97 Q2487.97 1532.41 2484.34 1532.41 M2484.34 1528.7 Q2490.15 1528.7 2493.2 1533.31 Q2496.28 1537.89 2496.28 1546.64 Q2496.28 1555.37 2493.2 1559.98 Q2490.15 1564.56 2484.34 1564.56 Q2478.53 1564.56 2475.45 1559.98 Q2472.39 1555.37 2472.39 1546.64 Q2472.39 1537.89 2475.45 1533.31 Q2478.53 1528.7 2484.34 1528.7 Z" fill="#000000" fill-rule="evenodd" fill-opacity="1" /><path clip-path="url(#clip160)" d="M2966.67 1559.95 L2982.99 1559.95 L2982.99 1563.89 L2961.05 1563.89 L2961.05 1559.95 Q2963.71 1557.2 2968.29 1552.57 Q2972.9 1547.92 2974.08 1546.57 Q2976.33 1544.05 2977.2 1542.31 Q2978.11 1540.55 2978.11 1538.86 Q2978.11 1536.11 2976.16 1534.37 Q2974.24 1532.64 2971.14 1532.64 Q2968.94 1532.64 2966.49 1533.4 Q2964.06 1534.17 2961.28 1535.72 L2961.28 1530.99 Q2964.1 1529.86 2966.56 1529.28 Q2969.01 1528.7 2971.05 1528.7 Q2976.42 1528.7 2979.61 1531.39 Q2982.81 1534.07 2982.81 1538.56 Q2982.81 1540.69 2982 1542.61 Q2981.21 1544.51 2979.1 1547.11 Q2978.52 1547.78 2975.42 1550.99 Q2972.32 1554.19 2966.67 1559.95 Z" fill="#000000" fill-rule="evenodd" fill-opacity="1" /><path clip-path="url(#clip160)" d="M2992.85 1529.33 L3011.21 1529.33 L3011.21 1533.26 L2997.14 1533.26 L2997.14 1541.74 Q2998.15 1541.39 2999.17 1541.23 Q3000.19 1541.04 3001.21 1541.04 Q3007 1541.04 3010.38 1544.21 Q3013.76 1547.38 3013.76 1552.8 Q3013.76 1558.38 3010.28 1561.48 Q3006.81 1564.56 3000.49 1564.56 Q2998.32 1564.56 2996.05 1564.19 Q2993.8 1563.82 2991.39 1563.08 L2991.39 1558.38 Q2993.48 1559.51 2995.7 1560.07 Q2997.92 1560.62 3000.4 1560.62 Q3004.4 1560.62 3006.74 1558.52 Q3009.08 1556.41 3009.08 1552.8 Q3009.08 1549.19 3006.74 1547.08 Q3004.4 1544.98 3000.4 1544.98 Q2998.52 1544.98 2996.65 1545.39 Q2994.8 1545.81 2992.85 1546.69 L2992.85 1529.33 Z" fill="#000000" fill-rule="evenodd" fill-opacity="1" /><path clip-path="url(#clip160)" d="M3032.97 1532.41 Q3029.36 1532.41 3027.53 1535.97 Q3025.72 1539.51 3025.72 1546.64 Q3025.72 1553.75 3027.53 1557.31 Q3029.36 1560.86 3032.97 1560.86 Q3036.6 1560.86 3038.41 1557.31 Q3040.24 1553.75 3040.24 1546.64 Q3040.24 1539.51 3038.41 1535.97 Q3036.6 1532.41 3032.97 1532.41 M3032.97 1528.7 Q3038.78 1528.7 3041.83 1533.31 Q3044.91 1537.89 3044.91 1546.64 Q3044.91 1555.37 3041.83 1559.98 Q3038.78 1564.56 3032.97 1564.56 Q3027.16 1564.56 3024.08 1559.98 Q3021.02 1555.37 3021.02 1546.64 Q3021.02 1537.89 3024.08 1533.31 Q3027.16 1528.7 3032.97 1528.7 Z" fill="#000000" fill-rule="evenodd" fill-opacity="1" /><polyline clip-path="url(#clip163)" style="stroke:#000000; stroke-linecap:butt; stroke-linejoin:round; stroke-width:2; stroke-opacity:0.1; fill:none" points="
  186.867,1440.57 3152.76,1440.57 
  "/>
<polyline clip-path="url(#clip163)" style="stroke:#000000; stroke-linecap:butt; stroke-linejoin:round; stroke-width:2; stroke-opacity:0.1; fill:none" points="
  186.867,1301.61 3152.76,1301.61 
  "/>
<polyline clip-path="url(#clip163)" style="stroke:#000000; stroke-linecap:butt; stroke-linejoin:round; stroke-width:2; stroke-opacity:0.1; fill:none" points="
  186.867,1162.66 3152.76,1162.66 
  "/>
<polyline clip-path="url(#clip163)" style="stroke:#000000; stroke-linecap:butt; stroke-linejoin:round; stroke-width:2; stroke-opacity:0.1; fill:none" points="
  186.867,1023.71 3152.76,1023.71 
  "/>
<polyline clip-path="url(#clip160)" style="stroke:#000000; stroke-linecap:butt; stroke-linejoin:round; stroke-width:4; stroke-opacity:1; fill:none" points="
  186.867,1495.09 186.867,908.352 
  "/>
<polyline clip-path="url(#clip160)" style="stroke:#000000; stroke-linecap:butt; stroke-linejoin:round; stroke-width:4; stroke-opacity:1; fill:none" points="
  186.867,1440.57 205.764,1440.57 
  "/>
<polyline clip-path="url(#clip160)" style="stroke:#000000; stroke-linecap:butt; stroke-linejoin:round; stroke-width:4; stroke-opacity:1; fill:none" points="
  186.867,1301.61 205.764,1301.61 
  "/>
<polyline clip-path="url(#clip160)" style="stroke:#000000; stroke-linecap:butt; stroke-linejoin:round; stroke-width:4; stroke-opacity:1; fill:none" points="
  186.867,1162.66 205.764,1162.66 
  "/>
<polyline clip-path="url(#clip160)" style="stroke:#000000; stroke-linecap:butt; stroke-linejoin:round; stroke-width:4; stroke-opacity:1; fill:none" points="
  186.867,1023.71 205.764,1023.71 
  "/>
<path clip-path="url(#clip160)" d="M46.9921 1441.02 L76.6679 1441.02 L76.6679 1444.95 L46.9921 1444.95 L46.9921 1441.02 Z" fill="#000000" fill-rule="evenodd" fill-opacity="1" /><path clip-path="url(#clip160)" d="M87.5706 1453.91 L95.2095 1453.91 L95.2095 1427.54 L86.8993 1429.21 L86.8993 1424.95 L95.1632 1423.29 L99.8391 1423.29 L99.8391 1453.91 L107.478 1453.91 L107.478 1457.85 L87.5706 1457.85 L87.5706 1453.91 Z" fill="#000000" fill-rule="evenodd" fill-opacity="1" /><path clip-path="url(#clip160)" d="M126.922 1426.36 Q123.311 1426.36 121.482 1429.93 Q119.677 1433.47 119.677 1440.6 Q119.677 1447.71 121.482 1451.27 Q123.311 1454.81 126.922 1454.81 Q130.556 1454.81 132.362 1451.27 Q134.191 1447.71 134.191 1440.6 Q134.191 1433.47 132.362 1429.93 Q130.556 1426.36 126.922 1426.36 M126.922 1422.66 Q132.732 1422.66 135.788 1427.27 Q138.867 1431.85 138.867 1440.6 Q138.867 1449.33 135.788 1453.93 Q132.732 1458.52 126.922 1458.52 Q121.112 1458.52 118.033 1453.93 Q114.978 1449.33 114.978 1440.6 Q114.978 1431.85 118.033 1427.27 Q121.112 1422.66 126.922 1422.66 Z" fill="#000000" fill-rule="evenodd" fill-opacity="1" /><path clip-path="url(#clip160)" d="M78.1494 1302.06 L107.825 1302.06 L107.825 1306 L78.1494 1306 L78.1494 1302.06 Z" fill="#000000" fill-rule="evenodd" fill-opacity="1" /><path clip-path="url(#clip160)" d="M117.964 1284.33 L136.32 1284.33 L136.32 1288.27 L122.246 1288.27 L122.246 1296.74 Q123.265 1296.39 124.283 1296.23 Q125.302 1296.05 126.32 1296.05 Q132.107 1296.05 135.487 1299.22 Q138.867 1302.39 138.867 1307.81 Q138.867 1313.38 135.394 1316.49 Q131.922 1319.56 125.603 1319.56 Q123.427 1319.56 121.158 1319.19 Q118.913 1318.82 116.506 1318.08 L116.506 1313.38 Q118.589 1314.52 120.811 1315.07 Q123.033 1315.63 125.51 1315.63 Q129.515 1315.63 131.853 1313.52 Q134.191 1311.42 134.191 1307.81 Q134.191 1304.19 131.853 1302.09 Q129.515 1299.98 125.51 1299.98 Q123.635 1299.98 121.76 1300.4 Q119.908 1300.81 117.964 1301.69 L117.964 1284.33 Z" fill="#000000" fill-rule="evenodd" fill-opacity="1" /><path clip-path="url(#clip160)" d="M126.922 1148.46 Q123.311 1148.46 121.482 1152.02 Q119.677 1155.57 119.677 1162.7 Q119.677 1169.8 121.482 1173.37 Q123.311 1176.91 126.922 1176.91 Q130.556 1176.91 132.362 1173.37 Q134.191 1169.8 134.191 1162.7 Q134.191 1155.57 132.362 1152.02 Q130.556 1148.46 126.922 1148.46 M126.922 1144.76 Q132.732 1144.76 135.788 1149.36 Q138.867 1153.95 138.867 1162.7 Q138.867 1171.42 135.788 1176.03 Q132.732 1180.61 126.922 1180.61 Q121.112 1180.61 118.033 1176.03 Q114.978 1171.42 114.978 1162.7 Q114.978 1153.95 118.033 1149.36 Q121.112 1144.76 126.922 1144.76 Z" fill="#000000" fill-rule="evenodd" fill-opacity="1" /><path clip-path="url(#clip160)" d="M117.964 1006.43 L136.32 1006.43 L136.32 1010.36 L122.246 1010.36 L122.246 1018.84 Q123.265 1018.49 124.283 1018.33 Q125.302 1018.14 126.32 1018.14 Q132.107 1018.14 135.487 1021.31 Q138.867 1024.48 138.867 1029.9 Q138.867 1035.48 135.394 1038.58 Q131.922 1041.66 125.603 1041.66 Q123.427 1041.66 121.158 1041.29 Q118.913 1040.92 116.506 1040.18 L116.506 1035.48 Q118.589 1036.61 120.811 1037.17 Q123.033 1037.73 125.51 1037.73 Q129.515 1037.73 131.853 1035.62 Q134.191 1033.51 134.191 1029.9 Q134.191 1026.29 131.853 1024.18 Q129.515 1022.08 125.51 1022.08 Q123.635 1022.08 121.76 1022.49 Q119.908 1022.91 117.964 1023.79 L117.964 1006.43 Z" fill="#000000" fill-rule="evenodd" fill-opacity="1" /><path clip-path="url(#clip160)" d="M1186.46 834.173 Q1185.2 833.444 1183.7 833.12 Q1182.24 832.756 1180.46 832.756 Q1174.14 832.756 1170.74 836.888 Q1167.38 840.979 1167.38 848.676 L1167.38 872.576 L1159.88 872.576 L1159.88 827.206 L1167.38 827.206 L1167.38 834.254 Q1169.73 830.123 1173.49 828.138 Q1177.26 826.112 1182.65 826.112 Q1183.42 826.112 1184.35 826.234 Q1185.28 826.315 1186.42 826.517 L1186.46 834.173 Z" fill="#000000" fill-rule="evenodd" fill-opacity="1" /><path clip-path="url(#clip160)" d="M1231.26 848.028 L1231.26 851.673 L1196.99 851.673 Q1197.48 859.37 1201.61 863.421 Q1205.78 867.431 1213.19 867.431 Q1217.49 867.431 1221.5 866.378 Q1225.55 865.325 1229.52 863.218 L1229.52 870.267 Q1225.51 871.968 1221.3 872.86 Q1217.08 873.751 1212.75 873.751 Q1201.89 873.751 1195.53 867.431 Q1189.21 861.112 1189.21 850.337 Q1189.21 839.197 1195.21 832.675 Q1201.24 826.112 1211.45 826.112 Q1220.61 826.112 1225.91 832.026 Q1231.26 837.9 1231.26 848.028 M1223.81 845.84 Q1223.73 839.723 1220.36 836.077 Q1217.04 832.432 1211.53 832.432 Q1205.29 832.432 1201.53 835.956 Q1197.8 839.48 1197.23 845.881 L1223.81 845.84 Z" fill="#000000" fill-rule="evenodd" fill-opacity="1" /><path clip-path="url(#clip160)" d="M1276.14 828.948 L1276.14 835.915 Q1272.98 834.173 1269.78 833.323 Q1266.62 832.432 1263.38 832.432 Q1256.13 832.432 1252.12 837.05 Q1248.11 841.627 1248.11 849.931 Q1248.11 858.236 1252.12 862.854 Q1256.13 867.431 1263.38 867.431 Q1266.62 867.431 1269.78 866.581 Q1272.98 865.689 1276.14 863.948 L1276.14 870.834 Q1273.03 872.292 1269.66 873.022 Q1266.34 873.751 1262.57 873.751 Q1252.33 873.751 1246.29 867.31 Q1240.25 860.869 1240.25 849.931 Q1240.25 838.832 1246.33 832.472 Q1252.45 826.112 1263.06 826.112 Q1266.5 826.112 1269.78 826.841 Q1273.07 827.53 1276.14 828.948 Z" fill="#000000" fill-rule="evenodd" fill-opacity="1" /><path clip-path="url(#clip160)" d="M1306.69 832.432 Q1300.69 832.432 1297.21 837.131 Q1293.73 841.789 1293.73 849.931 Q1293.73 858.074 1297.17 862.773 Q1300.65 867.431 1306.69 867.431 Q1312.64 867.431 1316.13 862.732 Q1319.61 858.033 1319.61 849.931 Q1319.61 841.87 1316.13 837.171 Q1312.64 832.432 1306.69 832.432 M1306.69 826.112 Q1316.41 826.112 1321.96 832.432 Q1327.51 838.751 1327.51 849.931 Q1327.51 861.071 1321.96 867.431 Q1316.41 873.751 1306.69 873.751 Q1296.93 873.751 1291.38 867.431 Q1285.87 861.071 1285.87 849.931 Q1285.87 838.751 1291.38 832.432 Q1296.93 826.112 1306.69 826.112 Z" fill="#000000" fill-rule="evenodd" fill-opacity="1" /><path clip-path="url(#clip160)" d="M1377.58 845.192 L1377.58 872.576 L1370.13 872.576 L1370.13 845.435 Q1370.13 838.994 1367.61 835.794 Q1365.1 832.594 1360.08 832.594 Q1354.04 832.594 1350.56 836.442 Q1347.08 840.29 1347.08 846.934 L1347.08 872.576 L1339.58 872.576 L1339.58 827.206 L1347.08 827.206 L1347.08 834.254 Q1349.75 830.163 1353.35 828.138 Q1357 826.112 1361.74 826.112 Q1369.56 826.112 1373.57 830.973 Q1377.58 835.794 1377.58 845.192 Z" fill="#000000" fill-rule="evenodd" fill-opacity="1" /><path clip-path="url(#clip160)" d="M1421.37 828.543 L1421.37 835.591 Q1418.21 833.971 1414.81 833.161 Q1411.4 832.351 1407.76 832.351 Q1402.21 832.351 1399.41 834.052 Q1396.66 835.753 1396.66 839.156 Q1396.66 841.749 1398.64 843.247 Q1400.63 844.706 1406.62 846.043 L1409.18 846.61 Q1417.12 848.311 1420.44 851.43 Q1423.8 854.509 1423.8 860.059 Q1423.8 866.378 1418.78 870.064 Q1413.79 873.751 1405.04 873.751 Q1401.4 873.751 1397.43 873.022 Q1393.5 872.333 1389.12 870.915 L1389.12 863.218 Q1393.26 865.365 1397.27 866.459 Q1401.28 867.512 1405.21 867.512 Q1410.47 867.512 1413.31 865.73 Q1416.14 863.907 1416.14 860.626 Q1416.14 857.588 1414.08 855.967 Q1412.05 854.347 1405.13 852.848 L1402.53 852.24 Q1395.61 850.782 1392.53 847.784 Q1389.45 844.746 1389.45 839.48 Q1389.45 833.08 1393.99 829.596 Q1398.52 826.112 1406.87 826.112 Q1411 826.112 1414.64 826.72 Q1418.29 827.327 1421.37 828.543 Z" fill="#000000" fill-rule="evenodd" fill-opacity="1" /><path clip-path="url(#clip160)" d="M1443.04 814.324 L1443.04 827.206 L1458.39 827.206 L1458.39 832.999 L1443.04 832.999 L1443.04 857.628 Q1443.04 863.178 1444.54 864.758 Q1446.08 866.338 1450.74 866.338 L1458.39 866.338 L1458.39 872.576 L1450.74 872.576 Q1442.11 872.576 1438.83 869.376 Q1435.55 866.135 1435.55 857.628 L1435.55 832.999 L1430.08 832.999 L1430.08 827.206 L1435.55 827.206 L1435.55 814.324 L1443.04 814.324 Z" fill="#000000" fill-rule="evenodd" fill-opacity="1" /><path clip-path="url(#clip160)" d="M1494.49 834.173 Q1493.23 833.444 1491.73 833.12 Q1490.28 832.756 1488.49 832.756 Q1482.17 832.756 1478.77 836.888 Q1475.41 840.979 1475.41 848.676 L1475.41 872.576 L1467.91 872.576 L1467.91 827.206 L1475.41 827.206 L1475.41 834.254 Q1477.76 830.123 1481.53 828.138 Q1485.29 826.112 1490.68 826.112 Q1491.45 826.112 1492.38 826.234 Q1493.31 826.315 1494.45 826.517 L1494.49 834.173 Z" fill="#000000" fill-rule="evenodd" fill-opacity="1" /><path clip-path="url(#clip160)" d="M1501.54 854.671 L1501.54 827.206 L1508.99 827.206 L1508.99 854.387 Q1508.99 860.828 1511.5 864.069 Q1514.01 867.269 1519.04 867.269 Q1525.07 867.269 1528.56 863.421 Q1532.08 859.573 1532.08 852.929 L1532.08 827.206 L1539.53 827.206 L1539.53 872.576 L1532.08 872.576 L1532.08 865.608 Q1529.37 869.74 1525.76 871.766 Q1522.2 873.751 1517.46 873.751 Q1509.64 873.751 1505.59 868.89 Q1501.54 864.029 1501.54 854.671 M1520.29 826.112 L1520.29 826.112 Z" fill="#000000" fill-rule="evenodd" fill-opacity="1" /><path clip-path="url(#clip160)" d="M1587.54 828.948 L1587.54 835.915 Q1584.38 834.173 1581.18 833.323 Q1578.02 832.432 1574.78 832.432 Q1567.53 832.432 1563.52 837.05 Q1559.51 841.627 1559.51 849.931 Q1559.51 858.236 1563.52 862.854 Q1567.53 867.431 1574.78 867.431 Q1578.02 867.431 1581.18 866.581 Q1584.38 865.689 1587.54 863.948 L1587.54 870.834 Q1584.42 872.292 1581.06 873.022 Q1577.73 873.751 1573.97 873.751 Q1563.72 873.751 1557.68 867.31 Q1551.65 860.869 1551.65 849.931 Q1551.65 838.832 1557.72 832.472 Q1563.84 826.112 1574.45 826.112 Q1577.9 826.112 1581.18 826.841 Q1584.46 827.53 1587.54 828.948 Z" fill="#000000" fill-rule="evenodd" fill-opacity="1" /><path clip-path="url(#clip160)" d="M1607.87 814.324 L1607.87 827.206 L1623.23 827.206 L1623.23 832.999 L1607.87 832.999 L1607.87 857.628 Q1607.87 863.178 1609.37 864.758 Q1610.91 866.338 1615.57 866.338 L1623.23 866.338 L1623.23 872.576 L1615.57 872.576 Q1606.94 872.576 1603.66 869.376 Q1600.38 866.135 1600.38 857.628 L1600.38 832.999 L1594.91 832.999 L1594.91 827.206 L1600.38 827.206 L1600.38 814.324 L1607.87 814.324 Z" fill="#000000" fill-rule="evenodd" fill-opacity="1" /><path clip-path="url(#clip160)" d="M1680.02 849.769 Q1670.99 849.769 1667.5 851.835 Q1664.02 853.901 1664.02 858.884 Q1664.02 862.854 1666.61 865.203 Q1669.24 867.512 1673.74 867.512 Q1679.94 867.512 1683.67 863.137 Q1687.43 858.722 1687.43 851.43 L1687.43 849.769 L1680.02 849.769 M1694.89 846.691 L1694.89 872.576 L1687.43 872.576 L1687.43 865.689 Q1684.88 869.821 1681.07 871.806 Q1677.26 873.751 1671.76 873.751 Q1664.79 873.751 1660.66 869.862 Q1656.56 865.933 1656.56 859.37 Q1656.56 851.714 1661.67 847.825 Q1666.81 843.936 1676.98 843.936 L1687.43 843.936 L1687.43 843.207 Q1687.43 838.062 1684.03 835.267 Q1680.67 832.432 1674.55 832.432 Q1670.66 832.432 1666.98 833.363 Q1663.29 834.295 1659.89 836.158 L1659.89 829.272 Q1663.98 827.692 1667.83 826.922 Q1671.67 826.112 1675.32 826.112 Q1685.16 826.112 1690.03 831.216 Q1694.89 836.32 1694.89 846.691 Z" fill="#000000" fill-rule="evenodd" fill-opacity="1" /><path clip-path="url(#clip160)" d="M1747.95 845.192 L1747.95 872.576 L1740.5 872.576 L1740.5 845.435 Q1740.5 838.994 1737.99 835.794 Q1735.48 832.594 1730.45 832.594 Q1724.42 832.594 1720.93 836.442 Q1717.45 840.29 1717.45 846.934 L1717.45 872.576 L1709.96 872.576 L1709.96 827.206 L1717.45 827.206 L1717.45 834.254 Q1720.12 830.163 1723.73 828.138 Q1727.37 826.112 1732.11 826.112 Q1739.93 826.112 1743.94 830.973 Q1747.95 835.794 1747.95 845.192 Z" fill="#000000" fill-rule="evenodd" fill-opacity="1" /><path clip-path="url(#clip160)" d="M1792.68 834.092 L1792.68 809.544 L1800.13 809.544 L1800.13 872.576 L1792.68 872.576 L1792.68 865.77 Q1790.33 869.821 1786.72 871.806 Q1783.16 873.751 1778.13 873.751 Q1769.91 873.751 1764.72 867.188 Q1759.58 860.626 1759.58 849.931 Q1759.58 839.237 1764.72 832.675 Q1769.91 826.112 1778.13 826.112 Q1783.16 826.112 1786.72 828.097 Q1790.33 830.042 1792.68 834.092 M1767.28 849.931 Q1767.28 858.155 1770.64 862.854 Q1774.04 867.512 1779.96 867.512 Q1785.87 867.512 1789.27 862.854 Q1792.68 858.155 1792.68 849.931 Q1792.68 841.708 1789.27 837.05 Q1785.87 832.351 1779.96 832.351 Q1774.04 832.351 1770.64 837.05 Q1767.28 841.708 1767.28 849.931 Z" fill="#000000" fill-rule="evenodd" fill-opacity="1" /><path clip-path="url(#clip160)" d="M1868.14 834.173 Q1866.89 833.444 1865.39 833.12 Q1863.93 832.756 1862.15 832.756 Q1855.83 832.756 1852.43 836.888 Q1849.06 840.979 1849.06 848.676 L1849.06 872.576 L1841.57 872.576 L1841.57 827.206 L1849.06 827.206 L1849.06 834.254 Q1851.41 830.123 1855.18 828.138 Q1858.95 826.112 1864.34 826.112 Q1865.11 826.112 1866.04 826.234 Q1866.97 826.315 1868.1 826.517 L1868.14 834.173 Z" fill="#000000" fill-rule="evenodd" fill-opacity="1" /><path clip-path="url(#clip160)" d="M1912.95 848.028 L1912.95 851.673 L1878.68 851.673 Q1879.16 859.37 1883.29 863.421 Q1887.47 867.431 1894.88 867.431 Q1899.17 867.431 1903.18 866.378 Q1907.23 865.325 1911.2 863.218 L1911.2 870.267 Q1907.19 871.968 1902.98 872.86 Q1898.77 873.751 1894.43 873.751 Q1883.58 873.751 1877.22 867.431 Q1870.9 861.112 1870.9 850.337 Q1870.9 839.197 1876.89 832.675 Q1882.93 826.112 1893.14 826.112 Q1902.29 826.112 1907.6 832.026 Q1912.95 837.9 1912.95 848.028 M1905.49 845.84 Q1905.41 839.723 1902.05 836.077 Q1898.73 832.432 1893.22 832.432 Q1886.98 832.432 1883.21 835.956 Q1879.49 839.48 1878.92 845.881 L1905.49 845.84 Z" fill="#000000" fill-rule="evenodd" fill-opacity="1" /><path clip-path="url(#clip160)" d="M1955.04 834.092 L1955.04 809.544 L1962.49 809.544 L1962.49 872.576 L1955.04 872.576 L1955.04 865.77 Q1952.69 869.821 1949.08 871.806 Q1945.52 873.751 1940.49 873.751 Q1932.27 873.751 1927.08 867.188 Q1921.94 860.626 1921.94 849.931 Q1921.94 839.237 1927.08 832.675 Q1932.27 826.112 1940.49 826.112 Q1945.52 826.112 1949.08 828.097 Q1952.69 830.042 1955.04 834.092 M1929.64 849.931 Q1929.64 858.155 1933 862.854 Q1936.4 867.512 1942.32 867.512 Q1948.23 867.512 1951.63 862.854 Q1955.04 858.155 1955.04 849.931 Q1955.04 841.708 1951.63 837.05 Q1948.23 832.351 1942.32 832.351 Q1936.4 832.351 1933 837.05 Q1929.64 841.708 1929.64 849.931 Z" fill="#000000" fill-rule="evenodd" fill-opacity="1" /><path clip-path="url(#clip160)" d="M1998.46 849.769 Q1989.43 849.769 1985.94 851.835 Q1982.46 853.901 1982.46 858.884 Q1982.46 862.854 1985.05 865.203 Q1987.69 867.512 1992.18 867.512 Q1998.38 867.512 2002.11 863.137 Q2005.87 858.722 2005.87 851.43 L2005.87 849.769 L1998.46 849.769 M2013.33 846.691 L2013.33 872.576 L2005.87 872.576 L2005.87 865.689 Q2003.32 869.821 1999.51 871.806 Q1995.71 873.751 1990.2 873.751 Q1983.23 873.751 1979.1 869.862 Q1975.01 865.933 1975.01 859.37 Q1975.01 851.714 1980.11 847.825 Q1985.26 843.936 1995.42 843.936 L2005.87 843.936 L2005.87 843.207 Q2005.87 838.062 2002.47 835.267 Q1999.11 832.432 1992.99 832.432 Q1989.1 832.432 1985.42 833.363 Q1981.73 834.295 1978.33 836.158 L1978.33 829.272 Q1982.42 827.692 1986.27 826.922 Q1990.12 826.112 1993.76 826.112 Q2003.61 826.112 2008.47 831.216 Q2013.33 836.32 2013.33 846.691 Z" fill="#000000" fill-rule="evenodd" fill-opacity="1" /><path clip-path="url(#clip160)" d="M2036.05 814.324 L2036.05 827.206 L2051.41 827.206 L2051.41 832.999 L2036.05 832.999 L2036.05 857.628 Q2036.05 863.178 2037.55 864.758 Q2039.09 866.338 2043.75 866.338 L2051.41 866.338 L2051.41 872.576 L2043.75 872.576 Q2035.12 872.576 2031.84 869.376 Q2028.56 866.135 2028.56 857.628 L2028.56 832.999 L2023.09 832.999 L2023.09 827.206 L2028.56 827.206 L2028.56 814.324 L2036.05 814.324 Z" fill="#000000" fill-rule="evenodd" fill-opacity="1" /><path clip-path="url(#clip160)" d="M2060.44 854.671 L2060.44 827.206 L2067.89 827.206 L2067.89 854.387 Q2067.89 860.828 2070.41 864.069 Q2072.92 867.269 2077.94 867.269 Q2083.98 867.269 2087.46 863.421 Q2090.98 859.573 2090.98 852.929 L2090.98 827.206 L2098.44 827.206 L2098.44 872.576 L2090.98 872.576 L2090.98 865.608 Q2088.27 869.74 2084.66 871.766 Q2081.1 873.751 2076.36 873.751 Q2068.54 873.751 2064.49 868.89 Q2060.44 864.029 2060.44 854.671 M2079.2 826.112 L2079.2 826.112 Z" fill="#000000" fill-rule="evenodd" fill-opacity="1" /><path clip-path="url(#clip160)" d="M2149.11 835.915 Q2151.91 830.892 2155.8 828.502 Q2159.69 826.112 2164.95 826.112 Q2172.04 826.112 2175.89 831.095 Q2179.74 836.037 2179.74 845.192 L2179.74 872.576 L2172.24 872.576 L2172.24 845.435 Q2172.24 838.913 2169.94 835.753 Q2167.63 832.594 2162.89 832.594 Q2157.09 832.594 2153.73 836.442 Q2150.37 840.29 2150.37 846.934 L2150.37 872.576 L2142.88 872.576 L2142.88 845.435 Q2142.88 838.872 2140.57 835.753 Q2138.26 832.594 2133.44 832.594 Q2127.73 832.594 2124.36 836.482 Q2121 840.331 2121 846.934 L2121 872.576 L2113.51 872.576 L2113.51 827.206 L2121 827.206 L2121 834.254 Q2123.55 830.082 2127.12 828.097 Q2130.68 826.112 2135.58 826.112 Q2140.53 826.112 2143.97 828.624 Q2147.45 831.135 2149.11 835.915 Z" fill="#000000" fill-rule="evenodd" fill-opacity="1" /><polyline clip-path="url(#clip163)" style="stroke:#ff0000; stroke-linecap:butt; stroke-linejoin:round; stroke-width:8; stroke-opacity:1; fill:none" points="
  270.807,1162.66 281.779,1162.66 292.752,1162.66 303.725,1162.66 314.697,1162.66 325.67,1162.66 336.642,1162.66 347.615,1162.66 358.588,1162.66 369.56,1162.66 
  380.533,1162.66 391.505,1162.66 402.478,1162.66 413.45,1162.66 424.423,1162.66 435.396,1162.66 446.368,1162.66 457.341,1162.66 468.313,1162.66 479.286,1162.66 
  490.259,1162.66 501.231,1162.66 512.204,1162.66 523.176,1162.66 534.149,1162.66 545.121,1162.66 556.094,1162.66 567.067,1162.66 578.039,1162.66 589.012,1162.66 
  599.984,1162.66 610.957,1162.66 621.93,1162.66 632.902,1162.66 643.875,1162.66 654.847,1162.66 665.82,1162.66 676.792,1162.66 687.765,1168.5 698.738,1174.08 
  709.71,1101.14 720.683,1154.81 731.655,1162.61 742.628,1161.27 753.601,1184.77 764.573,1135.08 775.546,1181.64 786.518,1202.73 797.491,1162.66 808.463,1162.66 
  819.436,1162.66 830.409,1162.66 841.381,1162.66 852.354,1162.66 863.326,1162.66 874.299,1162.66 885.272,1162.66 896.244,1162.66 907.217,1162.66 918.189,1162.66 
  929.162,1162.66 940.134,1162.66 951.107,1132.7 962.08,1104.06 973.052,1478.48 984.025,1202.99 994.997,1162.91 1005.97,1169.81 1016.94,1049.16 1027.92,1304.25 
  1038.89,1065.26 1049.86,956.989 1060.83,1162.66 1071.81,1162.66 1082.78,1162.66 1093.75,1162.66 1104.72,1162.66 1115.7,1162.66 1126.67,1162.66 1137.64,1162.66 
  1148.61,1162.66 1159.59,1162.66 1170.56,1162.66 1181.53,1162.66 1192.5,1162.66 1203.48,1162.66 1214.45,1162.66 1225.42,1162.66 1236.39,1162.66 1247.37,1162.66 
  1258.34,1162.66 1269.31,1162.66 1280.28,1162.66 1291.26,1162.66 1302.23,1162.66 1313.2,1162.66 1324.17,1162.66 1335.15,1162.66 1346.12,1162.66 1357.09,1162.66 
  1368.07,1162.66 1379.04,1162.66 1390.01,1162.66 1400.98,1162.66 1411.96,1162.66 1422.93,1162.66 1433.9,1162.66 1444.87,1162.66 1455.85,1162.66 1466.82,1162.66 
  1477.79,1162.66 1488.76,1162.66 1499.74,1162.66 1510.71,1162.66 1521.68,1162.66 1532.65,1162.66 1543.63,1162.66 1554.6,1162.66 1565.57,1162.66 1576.54,1162.66 
  1587.52,1162.66 1598.49,1162.66 1609.46,1162.66 1620.43,1162.66 1631.41,1162.66 1642.38,1162.66 1653.35,1162.66 1664.32,1162.66 1675.3,1162.66 1686.27,1162.66 
  1697.24,1162.66 1708.22,1162.66 1719.19,1162.66 1730.16,1162.66 1741.13,1162.66 1752.11,1162.66 1763.08,1162.66 1774.05,1162.66 1785.02,1162.66 1796,1162.66 
  1806.97,1162.66 1817.94,1162.66 1828.91,1162.66 1839.89,1162.66 1850.86,1162.66 1861.83,1162.66 1872.8,1162.66 1883.78,1162.66 1894.75,1162.66 1905.72,1162.66 
  1916.69,1162.66 1927.67,1162.66 1938.64,1162.66 1949.61,1162.66 1960.58,1162.66 1971.56,1162.66 1982.53,1162.66 1993.5,1162.66 2004.48,1162.66 2015.45,1162.66 
  2026.42,1162.66 2037.39,1162.66 2048.37,1162.66 2059.34,1162.66 2070.31,1162.66 2081.28,1162.66 2092.26,1162.66 2103.23,1162.66 2114.2,1162.66 2125.17,1162.66 
  2136.15,1162.66 2147.12,1162.66 2158.09,1162.66 2169.06,1162.66 2180.04,1162.66 2191.01,1162.66 2201.98,1162.66 2212.95,1162.66 2223.93,1162.66 2234.9,1162.66 
  2245.87,1162.66 2256.84,1162.66 2267.82,1162.66 2278.79,1162.66 2289.76,1162.66 2300.73,1162.66 2311.71,1162.66 2322.68,1162.66 2333.65,1162.66 2344.63,1162.66 
  2355.6,1162.66 2366.57,1162.66 2377.54,1162.66 2388.52,1162.66 2399.49,1162.66 2410.46,1162.66 2421.43,1162.66 2432.41,1162.66 2443.38,1162.66 2454.35,1162.66 
  2465.32,1162.66 2476.3,1162.66 2487.27,1162.66 2498.24,1162.66 2509.21,1162.66 2520.19,1162.66 2531.16,1162.66 2542.13,1162.66 2553.1,1162.66 2564.08,1162.66 
  2575.05,1162.66 2586.02,1162.66 2596.99,1162.66 2607.97,1162.66 2618.94,1162.66 2629.91,1162.66 2640.88,1162.66 2651.86,1162.66 2662.83,1162.66 2673.8,1162.66 
  2684.78,1162.66 2695.75,1162.66 2706.72,1162.66 2717.69,1162.66 2728.67,1162.66 2739.64,1162.66 2750.61,1162.66 2761.58,1162.66 2772.56,1162.66 2783.53,1162.66 
  2794.5,1162.66 2805.47,1162.66 2816.45,1162.66 2827.42,1162.66 2838.39,1162.66 2849.36,1162.66 2860.34,1162.66 2871.31,1162.66 2882.28,1162.66 2893.25,1162.66 
  2904.23,1162.66 2915.2,1162.66 2926.17,1162.66 2937.14,1162.66 2948.12,1162.66 2959.09,1162.66 2970.06,1162.66 2981.03,1162.66 2992.01,1162.66 3002.98,1162.66 
  3013.95,1162.66 3024.93,1162.66 3035.9,1162.66 3046.87,1162.66 3057.84,1162.66 3068.82,1162.66 
  "/>
<polyline clip-path="url(#clip163)" style="stroke:#add8e6; stroke-linecap:butt; stroke-linejoin:round; stroke-width:8; stroke-opacity:1; fill:none" points="
  270.807,1161.81 281.779,1167.53 292.752,1162.03 303.725,1160.61 314.697,1164.57 325.67,1163.17 336.642,1163.74 347.615,1159.32 358.588,1161.62 369.56,1163.54 
  380.533,1162.47 391.505,1162.77 402.478,1162.84 413.45,1162.82 424.423,1162.65 435.396,1163.37 446.368,1163.06 457.341,1163.46 468.313,1164.19 479.286,1161.97 
  490.259,1161.77 501.231,1162.73 512.204,1164.19 523.176,1164.66 534.149,1163.21 545.121,1163.53 556.094,1162.96 567.067,1163.66 578.039,1161.17 589.012,1162.77 
  599.984,1162.82 610.957,1163.67 621.93,1161.85 632.902,1161.46 643.875,1163.08 654.847,1162.37 665.82,1165.73 676.792,1161.43 687.765,1157.73 698.738,1163.07 
  709.71,1159.9 720.683,1159.62 731.655,1163.91 742.628,1160.53 753.601,1166.2 764.573,1153.62 775.546,1171.9 786.518,1168.28 797.491,1161.14 808.463,1160.48 
  819.436,1152.2 830.409,1167.36 841.381,1168.67 852.354,1162.07 863.326,1167.3 874.299,1156.75 885.272,1176.46 896.244,1177.56 907.217,1175.68 918.189,1199.3 
  929.162,1165.69 940.134,1171.32 951.107,1178.44 962.08,1093.5 973.052,1142.49 984.025,1154.65 994.997,1129.08 1005.97,1247.5 1016.94,1023.29 1027.92,1397.77 
  1038.89,1263.35 1049.86,1215.31 1060.83,1177.51 1071.81,1121.19 1082.78,1178.19 1093.75,1029.48 1104.72,924.958 1115.7,1202.76 1126.67,1136.11 1137.64,1256.72 
  1148.61,1220.42 1159.59,1195.25 1170.56,1132.51 1181.53,1148.63 1192.5,1159.16 1203.48,1175.18 1214.45,1170.41 1225.42,1158.15 1236.39,1170.02 1247.37,1159.35 
  1258.34,1160.83 1269.31,1169.09 1280.28,1165.18 1291.26,1163.7 1302.23,1165.01 1313.2,1160.73 1324.17,1161.59 1335.15,1158.15 1346.12,1164.43 1357.09,1163.03 
  1368.07,1162.89 1379.04,1160.84 1390.01,1162.75 1400.98,1160.5 1411.96,1161.24 1422.93,1160.82 1433.9,1162.37 1444.87,1161.56 1455.85,1162.83 1466.82,1161.48 
  1477.79,1160.13 1488.76,1160.66 1499.74,1163.1 1510.71,1160.49 1521.68,1162.05 1532.65,1162.11 1543.63,1163.44 1554.6,1161.95 1565.57,1163.6 1576.54,1163.15 
  1587.52,1162.87 1598.49,1161.64 1609.46,1162.54 1620.43,1164.15 1631.41,1162.94 1642.38,1161.87 1653.35,1163.62 1664.32,1163.45 1675.3,1162.44 1686.27,1162.67 
  1697.24,1162.72 1708.22,1162.13 1719.19,1161.45 1730.16,1161.66 1741.13,1162.51 1752.11,1162.17 1763.08,1161.97 1774.05,1161.98 1785.02,1162.82 1796,1161.84 
  1806.97,1162.38 1817.94,1161.82 1828.91,1161.06 1839.89,1160.46 1850.86,1162.24 1861.83,1160.63 1872.8,1161.07 1883.78,1161.37 1894.75,1161.88 1905.72,1162.14 
  1916.69,1160.97 1927.67,1160.59 1938.64,1161.45 1949.61,1161.83 1960.58,1161.92 1971.56,1160.65 1982.53,1161.55 1993.5,1162.06 2004.48,1162.15 2015.45,1162.57 
  2026.42,1162.08 2037.39,1162.76 2048.37,1163.12 2059.34,1162.67 2070.31,1161.33 2081.28,1161.92 2092.26,1164.17 2103.23,1164.28 2114.2,1162.34 2125.17,1162.59 
  2136.15,1161.86 2147.12,1163.26 2158.09,1162.13 2169.06,1161.39 2180.04,1162.06 2191.01,1160.64 2201.98,1162.24 2212.95,1161.06 2223.93,1161.64 2234.9,1161.13 
  2245.87,1161.48 2256.84,1162.07 2267.82,1160.76 2278.79,1160.23 2289.76,1161.41 2300.73,1160.84 2311.71,1160.94 2322.68,1160.77 2333.65,1162.37 2344.63,1161.64 
  2355.6,1160.52 2366.57,1160.73 2377.54,1161.49 2388.52,1161.47 2399.49,1162.14 2410.46,1161.87 2421.43,1162.54 2432.41,1162.4 2443.38,1162.89 2454.35,1162.86 
  2465.32,1162.41 2476.3,1162.07 2487.27,1161.75 2498.24,1162.74 2509.21,1162.07 2520.19,1161.67 2531.16,1162.62 2542.13,1162.74 2553.1,1162.19 2564.08,1162.75 
  2575.05,1162.52 2586.02,1161.77 2596.99,1160.72 2607.97,1161.77 2618.94,1162.76 2629.91,1163.14 2640.88,1162.02 2651.86,1161.96 2662.83,1161.11 2673.8,1162.1 
  2684.78,1161.12 2695.75,1162.11 2706.72,1162.52 2717.69,1162.55 2728.67,1161.54 2739.64,1162.42 2750.61,1161.68 2761.58,1162.54 2772.56,1162.27 2783.53,1162.15 
  2794.5,1161.88 2805.47,1161.42 2816.45,1162.02 2827.42,1161.61 2838.39,1161.2 2849.36,1162.31 2860.34,1162.27 2871.31,1161.92 2882.28,1161.76 2893.25,1162.02 
  2904.23,1162.51 2915.2,1162.52 2926.17,1162.06 2937.14,1162.14 2948.12,1162.59 2959.09,1162.15 2970.06,1162.58 2981.03,1162.91 2992.01,1161.02 3002.98,1161.72 
  3013.95,1162.49 3024.93,1159.65 3035.9,1161.43 3046.87,1164.52 3057.84,1163.02 3068.82,1161.06 
  "/>
<path clip-path="url(#clip160)" d="
M2577.31 1083.43 L3053.89 1083.43 L3053.89 927.91 L2577.31 927.91  Z
  " fill="#ffffff" fill-rule="evenodd" fill-opacity="1"/>
<polyline clip-path="url(#clip160)" style="stroke:#000000; stroke-linecap:butt; stroke-linejoin:round; stroke-width:4; stroke-opacity:1; fill:none" points="
  2577.31,1083.43 3053.89,1083.43 3053.89,927.91 2577.31,927.91 2577.31,1083.43 
  "/>
<polyline clip-path="url(#clip160)" style="stroke:#ff0000; stroke-linecap:butt; stroke-linejoin:round; stroke-width:4; stroke-opacity:1; fill:none" points="
  2610.27,979.75 2807.99,979.75 
  "/>
<path clip-path="url(#clip160)" d="M2865.6 971.104 L2856.23 983.72 L2866.09 997.03 L2861.06 997.03 L2853.52 986.845 L2845.97 997.03 L2840.95 997.03 L2851.02 983.465 L2841.8 971.104 L2846.83 971.104 L2853.7 980.34 L2860.58 971.104 L2865.6 971.104 Z" fill="#000000" fill-rule="evenodd" fill-opacity="1" /><path clip-path="url(#clip160)" d="M2891.8 1004.9 L2891.8 1008.21 L2867.17 1008.21 L2867.17 1004.9 L2891.8 1004.9 Z" fill="#000000" fill-rule="evenodd" fill-opacity="1" /><path clip-path="url(#clip160)" d="M2895.81 971.104 L2900.07 971.104 L2900.07 997.03 L2895.81 997.03 L2895.81 971.104 M2895.81 961.012 L2900.07 961.012 L2900.07 966.405 L2895.81 966.405 L2895.81 961.012 Z" fill="#000000" fill-rule="evenodd" fill-opacity="1" /><path clip-path="url(#clip160)" d="M2908.98 971.104 L2913.24 971.104 L2913.24 997.493 Q2913.24 1002.45 2911.34 1004.67 Q2909.47 1006.89 2905.28 1006.89 L2903.66 1006.89 L2903.66 1003.28 L2904.79 1003.28 Q2907.22 1003.28 2908.1 1002.15 Q2908.98 1001.03 2908.98 997.493 L2908.98 971.104 M2908.98 961.012 L2913.24 961.012 L2913.24 966.405 L2908.98 966.405 L2908.98 961.012 Z" fill="#000000" fill-rule="evenodd" fill-opacity="1" /><polyline clip-path="url(#clip160)" style="stroke:#add8e6; stroke-linecap:butt; stroke-linejoin:round; stroke-width:4; stroke-opacity:1; fill:none" points="
  2610.27,1031.59 2807.99,1031.59 
  "/>
<path clip-path="url(#clip160)" d="M2862.66 1033.22 L2862.66 1048.87 L2858.4 1048.87 L2858.4 1033.36 Q2858.4 1029.68 2856.97 1027.85 Q2855.53 1026.02 2852.66 1026.02 Q2849.21 1026.02 2847.22 1028.22 Q2845.23 1030.42 2845.23 1034.22 L2845.23 1048.87 L2840.95 1048.87 L2840.95 1012.85 L2845.23 1012.85 L2845.23 1026.97 Q2846.76 1024.63 2848.82 1023.48 Q2850.9 1022.32 2853.61 1022.32 Q2858.08 1022.32 2860.37 1025.1 Q2862.66 1027.85 2862.66 1033.22 Z" fill="#000000" fill-rule="evenodd" fill-opacity="1" /><path clip-path="url(#clip160)" d="M2882.94 1035.84 Q2877.78 1035.84 2875.79 1037.02 Q2873.8 1038.2 2873.8 1041.05 Q2873.8 1043.31 2875.28 1044.66 Q2876.78 1045.98 2879.35 1045.98 Q2882.89 1045.98 2885.02 1043.48 Q2887.17 1040.95 2887.17 1036.79 L2887.17 1035.84 L2882.94 1035.84 M2891.43 1034.08 L2891.43 1048.87 L2887.17 1048.87 L2887.17 1044.93 Q2885.72 1047.3 2883.54 1048.43 Q2881.36 1049.54 2878.22 1049.54 Q2874.23 1049.54 2871.87 1047.32 Q2869.54 1045.07 2869.54 1041.32 Q2869.54 1036.95 2872.45 1034.73 Q2875.39 1032.5 2881.2 1032.5 L2887.17 1032.5 L2887.17 1032.09 Q2887.17 1029.15 2885.23 1027.55 Q2883.31 1025.93 2879.81 1025.93 Q2877.59 1025.93 2875.48 1026.46 Q2873.38 1027 2871.43 1028.06 L2871.43 1024.12 Q2873.77 1023.22 2875.97 1022.78 Q2878.17 1022.32 2880.25 1022.32 Q2885.88 1022.32 2888.66 1025.24 Q2891.43 1028.15 2891.43 1034.08 Z" fill="#000000" fill-rule="evenodd" fill-opacity="1" /><path clip-path="url(#clip160)" d="M2904.42 1015.58 L2904.42 1022.94 L2913.19 1022.94 L2913.19 1026.25 L2904.42 1026.25 L2904.42 1040.33 Q2904.42 1043.5 2905.28 1044.4 Q2906.16 1045.31 2908.82 1045.31 L2913.19 1045.31 L2913.19 1048.87 L2908.82 1048.87 Q2903.89 1048.87 2902.01 1047.04 Q2900.14 1045.19 2900.14 1040.33 L2900.14 1026.25 L2897.01 1026.25 L2897.01 1022.94 L2900.14 1022.94 L2900.14 1015.58 L2904.42 1015.58 Z" fill="#000000" fill-rule="evenodd" fill-opacity="1" /><path clip-path="url(#clip160)" d="M2940.35 1022.94 L2930.97 1035.56 L2940.83 1048.87 L2935.81 1048.87 L2928.26 1038.68 L2920.72 1048.87 L2915.69 1048.87 L2925.76 1035.31 L2916.55 1022.94 L2921.57 1022.94 L2928.45 1032.18 L2935.32 1022.94 L2940.35 1022.94 Z" fill="#000000" fill-rule="evenodd" fill-opacity="1" /><path clip-path="url(#clip160)" d="M2966.55 1056.74 L2966.55 1060.05 L2941.92 1060.05 L2941.92 1056.74 L2966.55 1056.74 Z" fill="#000000" fill-rule="evenodd" fill-opacity="1" /><path clip-path="url(#clip160)" d="M2970.55 1022.94 L2974.81 1022.94 L2974.81 1048.87 L2970.55 1048.87 L2970.55 1022.94 M2970.55 1012.85 L2974.81 1012.85 L2974.81 1018.25 L2970.55 1018.25 L2970.55 1012.85 Z" fill="#000000" fill-rule="evenodd" fill-opacity="1" /><path clip-path="url(#clip160)" d="M2983.73 1022.94 L2987.98 1022.94 L2987.98 1049.33 Q2987.98 1054.29 2986.09 1056.51 Q2984.21 1058.73 2980.02 1058.73 L2978.4 1058.73 L2978.4 1055.12 L2979.54 1055.12 Q2981.97 1055.12 2982.85 1053.99 Q2983.73 1052.87 2983.73 1049.33 L2983.73 1022.94 M2983.73 1012.85 L2987.98 1012.85 L2987.98 1018.25 L2983.73 1018.25 L2983.73 1012.85 Z" fill="#000000" fill-rule="evenodd" fill-opacity="1" /></svg>
