<?xml version="1.0" encoding="utf-8"?>
<svg xmlns="http://www.w3.org/2000/svg" xmlns:xlink="http://www.w3.org/1999/xlink" width="800" height="400" viewBox="0 0 3200 1600">
<defs>
  <clipPath id="clip870">
    <rect x="0" y="0" width="3200" height="1600"/>
  </clipPath>
</defs>
<path clip-path="url(#clip870)" d="
M0 1600 L3200 1600 L3200 0 L0 0  Z
  " fill="#ffffff" fill-rule="evenodd" fill-opacity="1"/>
<defs>
  <clipPath id="clip871">
    <rect x="640" y="0" width="2241" height="1600"/>
  </clipPath>
</defs>
<path clip-path="url(#clip870)" d="
M201.936 695.088 L3152.76 695.088 L3152.76 108.352 L201.936 108.352  Z
  " fill="#ffffff" fill-rule="evenodd" fill-opacity="1"/>
<defs>
  <clipPath id="clip872">
    <rect x="201" y="108" width="2952" height="588"/>
  </clipPath>
</defs>
<polyline clip-path="url(#clip872)" style="stroke:#000000; stroke-linecap:butt; stroke-linejoin:round; stroke-width:2; stroke-opacity:0.1; fill:none" points="
  274.533,695.088 274.533,108.352 
  "/>
<polyline clip-path="url(#clip872)" style="stroke:#000000; stroke-linecap:butt; stroke-linejoin:round; stroke-width:2; stroke-opacity:0.1; fill:none" points="
  820.375,695.088 820.375,108.352 
  "/>
<polyline clip-path="url(#clip872)" style="stroke:#000000; stroke-linecap:butt; stroke-linejoin:round; stroke-width:2; stroke-opacity:0.1; fill:none" points="
  1366.22,695.088 1366.22,108.352 
  "/>
<polyline clip-path="url(#clip872)" style="stroke:#000000; stroke-linecap:butt; stroke-linejoin:round; stroke-width:2; stroke-opacity:0.1; fill:none" points="
  1912.06,695.088 1912.06,108.352 
  "/>
<polyline clip-path="url(#clip872)" style="stroke:#000000; stroke-linecap:butt; stroke-linejoin:round; stroke-width:2; stroke-opacity:0.1; fill:none" points="
  2457.9,695.088 2457.9,108.352 
  "/>
<polyline clip-path="url(#clip872)" style="stroke:#000000; stroke-linecap:butt; stroke-linejoin:round; stroke-width:2; stroke-opacity:0.1; fill:none" points="
  3003.74,695.088 3003.74,108.352 
  "/>
<polyline clip-path="url(#clip870)" style="stroke:#000000; stroke-linecap:butt; stroke-linejoin:round; stroke-width:4; stroke-opacity:1; fill:none" points="
  201.936,695.088 3152.76,695.088 
  "/>
<polyline clip-path="url(#clip870)" style="stroke:#000000; stroke-linecap:butt; stroke-linejoin:round; stroke-width:4; stroke-opacity:1; fill:none" points="
  274.533,695.088 274.533,676.19 
  "/>
<polyline clip-path="url(#clip870)" style="stroke:#000000; stroke-linecap:butt; stroke-linejoin:round; stroke-width:4; stroke-opacity:1; fill:none" points="
  820.375,695.088 820.375,676.19 
  "/>
<polyline clip-path="url(#clip870)" style="stroke:#000000; stroke-linecap:butt; stroke-linejoin:round; stroke-width:4; stroke-opacity:1; fill:none" points="
  1366.22,695.088 1366.22,676.19 
  "/>
<polyline clip-path="url(#clip870)" style="stroke:#000000; stroke-linecap:butt; stroke-linejoin:round; stroke-width:4; stroke-opacity:1; fill:none" points="
  1912.06,695.088 1912.06,676.19 
  "/>
<polyline clip-path="url(#clip870)" style="stroke:#000000; stroke-linecap:butt; stroke-linejoin:round; stroke-width:4; stroke-opacity:1; fill:none" points="
  2457.9,695.088 2457.9,676.19 
  "/>
<polyline clip-path="url(#clip870)" style="stroke:#000000; stroke-linecap:butt; stroke-linejoin:round; stroke-width:4; stroke-opacity:1; fill:none" points="
  3003.74,695.088 3003.74,676.19 
  "/>
<path clip-path="url(#clip870)" d="M274.533 732.407 Q270.922 732.407 269.093 735.971 Q267.288 739.513 267.288 746.643 Q267.288 753.749 269.093 757.314 Q270.922 760.855 274.533 760.855 Q278.167 760.855 279.973 757.314 Q281.801 753.749 281.801 746.643 Q281.801 739.513 279.973 735.971 Q278.167 732.407 274.533 732.407 M274.533 728.703 Q280.343 728.703 283.399 733.309 Q286.477 737.893 286.477 746.643 Q286.477 755.369 283.399 759.976 Q280.343 764.559 274.533 764.559 Q268.723 764.559 265.644 759.976 Q262.589 755.369 262.589 746.643 Q262.589 737.893 265.644 733.309 Q268.723 728.703 274.533 728.703 Z" fill="#000000" fill-rule="evenodd" fill-opacity="1" /><path clip-path="url(#clip870)" d="M795.074 729.328 L813.43 729.328 L813.43 733.263 L799.356 733.263 L799.356 741.735 Q800.375 741.388 801.393 741.226 Q802.412 741.041 803.43 741.041 Q809.217 741.041 812.597 744.212 Q815.976 747.383 815.976 752.8 Q815.976 758.379 812.504 761.48 Q809.032 764.559 802.713 764.559 Q800.537 764.559 798.268 764.189 Q796.023 763.818 793.615 763.078 L793.615 758.379 Q795.699 759.513 797.921 760.068 Q800.143 760.624 802.62 760.624 Q806.625 760.624 808.963 758.518 Q811.301 756.411 811.301 752.8 Q811.301 749.189 808.963 747.082 Q806.625 744.976 802.62 744.976 Q800.745 744.976 798.87 745.393 Q797.018 745.809 795.074 746.689 L795.074 729.328 Z" fill="#000000" fill-rule="evenodd" fill-opacity="1" /><path clip-path="url(#clip870)" d="M835.189 732.407 Q831.578 732.407 829.75 735.971 Q827.944 739.513 827.944 746.643 Q827.944 753.749 829.75 757.314 Q831.578 760.855 835.189 760.855 Q838.824 760.855 840.629 757.314 Q842.458 753.749 842.458 746.643 Q842.458 739.513 840.629 735.971 Q838.824 732.407 835.189 732.407 M835.189 728.703 Q840.999 728.703 844.055 733.309 Q847.134 737.893 847.134 746.643 Q847.134 755.369 844.055 759.976 Q840.999 764.559 835.189 764.559 Q829.379 764.559 826.3 759.976 Q823.245 755.369 823.245 746.643 Q823.245 737.893 826.3 733.309 Q829.379 728.703 835.189 728.703 Z" fill="#000000" fill-rule="evenodd" fill-opacity="1" /><path clip-path="url(#clip870)" d="M1325.82 759.953 L1333.46 759.953 L1333.46 733.587 L1325.15 735.254 L1325.15 730.995 L1333.42 729.328 L1338.09 729.328 L1338.09 759.953 L1345.73 759.953 L1345.73 763.888 L1325.82 763.888 L1325.82 759.953 Z" fill="#000000" fill-rule="evenodd" fill-opacity="1" /><path clip-path="url(#clip870)" d="M1365.17 732.407 Q1361.56 732.407 1359.73 735.971 Q1357.93 739.513 1357.93 746.643 Q1357.93 753.749 1359.73 757.314 Q1361.56 760.855 1365.17 760.855 Q1368.81 760.855 1370.61 757.314 Q1372.44 753.749 1372.44 746.643 Q1372.44 739.513 1370.61 735.971 Q1368.81 732.407 1365.17 732.407 M1365.17 728.703 Q1370.98 728.703 1374.04 733.309 Q1377.12 737.893 1377.12 746.643 Q1377.12 755.369 1374.04 759.976 Q1370.98 764.559 1365.17 764.559 Q1359.36 764.559 1356.29 759.976 Q1353.23 755.369 1353.23 746.643 Q1353.23 737.893 1356.29 733.309 Q1359.36 728.703 1365.17 728.703 Z" fill="#000000" fill-rule="evenodd" fill-opacity="1" /><path clip-path="url(#clip870)" d="M1395.34 732.407 Q1391.73 732.407 1389.9 735.971 Q1388.09 739.513 1388.09 746.643 Q1388.09 753.749 1389.9 757.314 Q1391.73 760.855 1395.34 760.855 Q1398.97 760.855 1400.78 757.314 Q1402.6 753.749 1402.6 746.643 Q1402.6 739.513 1400.78 735.971 Q1398.97 732.407 1395.34 732.407 M1395.34 728.703 Q1401.15 728.703 1404.2 733.309 Q1407.28 737.893 1407.28 746.643 Q1407.28 755.369 1404.2 759.976 Q1401.15 764.559 1395.34 764.559 Q1389.53 764.559 1386.45 759.976 Q1383.39 755.369 1383.39 746.643 Q1383.39 737.893 1386.45 733.309 Q1389.53 728.703 1395.34 728.703 Z" fill="#000000" fill-rule="evenodd" fill-opacity="1" /><path clip-path="url(#clip870)" d="M1871.66 759.953 L1879.3 759.953 L1879.3 733.587 L1870.99 735.254 L1870.99 730.995 L1879.26 729.328 L1883.93 729.328 L1883.93 759.953 L1891.57 759.953 L1891.57 763.888 L1871.66 763.888 L1871.66 759.953 Z" fill="#000000" fill-rule="evenodd" fill-opacity="1" /><path clip-path="url(#clip870)" d="M1901.06 729.328 L1919.42 729.328 L1919.42 733.263 L1905.34 733.263 L1905.34 741.735 Q1906.36 741.388 1907.38 741.226 Q1908.4 741.041 1909.42 741.041 Q1915.21 741.041 1918.59 744.212 Q1921.97 747.383 1921.97 752.8 Q1921.97 758.379 1918.49 761.48 Q1915.02 764.559 1908.7 764.559 Q1906.53 764.559 1904.26 764.189 Q1902.01 763.818 1899.6 763.078 L1899.6 758.379 Q1901.69 759.513 1903.91 760.068 Q1906.13 760.624 1908.61 760.624 Q1912.61 760.624 1914.95 758.518 Q1917.29 756.411 1917.29 752.8 Q1917.29 749.189 1914.95 747.082 Q1912.61 744.976 1908.61 744.976 Q1906.73 744.976 1904.86 745.393 Q1903.01 745.809 1901.06 746.689 L1901.06 729.328 Z" fill="#000000" fill-rule="evenodd" fill-opacity="1" /><path clip-path="url(#clip870)" d="M1941.18 732.407 Q1937.57 732.407 1935.74 735.971 Q1933.93 739.513 1933.93 746.643 Q1933.93 753.749 1935.74 757.314 Q1937.57 760.855 1941.18 760.855 Q1944.81 760.855 1946.62 757.314 Q1948.45 753.749 1948.45 746.643 Q1948.45 739.513 1946.62 735.971 Q1944.81 732.407 1941.18 732.407 M1941.18 728.703 Q1946.99 728.703 1950.04 733.309 Q1953.12 737.893 1953.12 746.643 Q1953.12 755.369 1950.04 759.976 Q1946.99 764.559 1941.18 764.559 Q1935.37 764.559 1932.29 759.976 Q1929.23 755.369 1929.23 746.643 Q1929.23 737.893 1932.29 733.309 Q1935.37 728.703 1941.18 728.703 Z" fill="#000000" fill-rule="evenodd" fill-opacity="1" /><path clip-path="url(#clip870)" d="M2421.59 759.953 L2437.91 759.953 L2437.91 763.888 L2415.97 763.888 L2415.97 759.953 Q2418.63 757.198 2423.21 752.568 Q2427.82 747.916 2429 746.573 Q2431.24 744.05 2432.12 742.314 Q2433.03 740.555 2433.03 738.865 Q2433.03 736.11 2431.08 734.374 Q2429.16 732.638 2426.06 732.638 Q2423.86 732.638 2421.41 733.402 Q2418.98 734.166 2416.2 735.717 L2416.2 730.995 Q2419.02 729.86 2421.48 729.282 Q2423.93 728.703 2425.97 728.703 Q2431.34 728.703 2434.53 731.388 Q2437.73 734.073 2437.73 738.564 Q2437.73 740.694 2436.92 742.615 Q2436.13 744.513 2434.02 747.106 Q2433.44 747.777 2430.34 750.994 Q2427.24 754.189 2421.59 759.953 Z" fill="#000000" fill-rule="evenodd" fill-opacity="1" /><path clip-path="url(#clip870)" d="M2457.73 732.407 Q2454.11 732.407 2452.29 735.971 Q2450.48 739.513 2450.48 746.643 Q2450.48 753.749 2452.29 757.314 Q2454.11 760.855 2457.73 760.855 Q2461.36 760.855 2463.17 757.314 Q2464.99 753.749 2464.99 746.643 Q2464.99 739.513 2463.17 735.971 Q2461.36 732.407 2457.73 732.407 M2457.73 728.703 Q2463.54 728.703 2466.59 733.309 Q2469.67 737.893 2469.67 746.643 Q2469.67 755.369 2466.59 759.976 Q2463.54 764.559 2457.73 764.559 Q2451.92 764.559 2448.84 759.976 Q2445.78 755.369 2445.78 746.643 Q2445.78 737.893 2448.84 733.309 Q2451.92 728.703 2457.73 728.703 Z" fill="#000000" fill-rule="evenodd" fill-opacity="1" /><path clip-path="url(#clip870)" d="M2487.89 732.407 Q2484.28 732.407 2482.45 735.971 Q2480.64 739.513 2480.64 746.643 Q2480.64 753.749 2482.45 757.314 Q2484.28 760.855 2487.89 760.855 Q2491.52 760.855 2493.33 757.314 Q2495.16 753.749 2495.16 746.643 Q2495.16 739.513 2493.33 735.971 Q2491.52 732.407 2487.89 732.407 M2487.89 728.703 Q2493.7 728.703 2496.75 733.309 Q2499.83 737.893 2499.83 746.643 Q2499.83 755.369 2496.75 759.976 Q2493.7 764.559 2487.89 764.559 Q2482.08 764.559 2479 759.976 Q2475.94 755.369 2475.94 746.643 Q2475.94 737.893 2479 733.309 Q2482.08 728.703 2487.89 728.703 Z" fill="#000000" fill-rule="evenodd" fill-opacity="1" /><path clip-path="url(#clip870)" d="M2967.43 759.953 L2983.75 759.953 L2983.75 763.888 L2961.81 763.888 L2961.81 759.953 Q2964.47 757.198 2969.05 752.568 Q2973.66 747.916 2974.84 746.573 Q2977.09 744.05 2977.97 742.314 Q2978.87 740.555 2978.87 738.865 Q2978.87 736.11 2976.92 734.374 Q2975 732.638 2971.9 732.638 Q2969.7 732.638 2967.25 733.402 Q2964.82 734.166 2962.04 735.717 L2962.04 730.995 Q2964.86 729.86 2967.32 729.282 Q2969.77 728.703 2971.81 728.703 Q2977.18 728.703 2980.37 731.388 Q2983.57 734.073 2983.57 738.564 Q2983.57 740.694 2982.76 742.615 Q2981.97 744.513 2979.86 747.106 Q2979.29 747.777 2976.18 750.994 Q2973.08 754.189 2967.43 759.953 Z" fill="#000000" fill-rule="evenodd" fill-opacity="1" /><path clip-path="url(#clip870)" d="M2993.61 729.328 L3011.97 729.328 L3011.97 733.263 L2997.9 733.263 L2997.9 741.735 Q2998.91 741.388 2999.93 741.226 Q3000.95 741.041 3001.97 741.041 Q3007.76 741.041 3011.14 744.212 Q3014.52 747.383 3014.52 752.8 Q3014.52 758.379 3011.04 761.48 Q3007.57 764.559 3001.25 764.559 Q2999.08 764.559 2996.81 764.189 Q2994.56 763.818 2992.16 763.078 L2992.16 758.379 Q2994.24 759.513 2996.46 760.068 Q2998.68 760.624 3001.16 760.624 Q3005.16 760.624 3007.5 758.518 Q3009.84 756.411 3009.84 752.8 Q3009.84 749.189 3007.5 747.082 Q3005.16 744.976 3001.16 744.976 Q2999.29 744.976 2997.41 745.393 Q2995.56 745.809 2993.61 746.689 L2993.61 729.328 Z" fill="#000000" fill-rule="evenodd" fill-opacity="1" /><path clip-path="url(#clip870)" d="M3033.73 732.407 Q3030.12 732.407 3028.29 735.971 Q3026.48 739.513 3026.48 746.643 Q3026.48 753.749 3028.29 757.314 Q3030.12 760.855 3033.73 760.855 Q3037.36 760.855 3039.17 757.314 Q3041 753.749 3041 746.643 Q3041 739.513 3039.17 735.971 Q3037.36 732.407 3033.73 732.407 M3033.73 728.703 Q3039.54 728.703 3042.6 733.309 Q3045.67 737.893 3045.67 746.643 Q3045.67 755.369 3042.6 759.976 Q3039.54 764.559 3033.73 764.559 Q3027.92 764.559 3024.84 759.976 Q3021.79 755.369 3021.79 746.643 Q3021.79 737.893 3024.84 733.309 Q3027.92 728.703 3033.73 728.703 Z" fill="#000000" fill-rule="evenodd" fill-opacity="1" /><polyline clip-path="url(#clip872)" style="stroke:#000000; stroke-linecap:butt; stroke-linejoin:round; stroke-width:2; stroke-opacity:0.1; fill:none" points="
  201.936,588.653 3152.76,588.653 
  "/>
<polyline clip-path="url(#clip872)" style="stroke:#000000; stroke-linecap:butt; stroke-linejoin:round; stroke-width:2; stroke-opacity:0.1; fill:none" points="
  201.936,477.974 3152.76,477.974 
  "/>
<polyline clip-path="url(#clip872)" style="stroke:#000000; stroke-linecap:butt; stroke-linejoin:round; stroke-width:2; stroke-opacity:0.1; fill:none" points="
  201.936,367.295 3152.76,367.295 
  "/>
<polyline clip-path="url(#clip872)" style="stroke:#000000; stroke-linecap:butt; stroke-linejoin:round; stroke-width:2; stroke-opacity:0.1; fill:none" points="
  201.936,256.616 3152.76,256.616 
  "/>
<polyline clip-path="url(#clip872)" style="stroke:#000000; stroke-linecap:butt; stroke-linejoin:round; stroke-width:2; stroke-opacity:0.1; fill:none" points="
  201.936,145.937 3152.76,145.937 
  "/>
<polyline clip-path="url(#clip870)" style="stroke:#000000; stroke-linecap:butt; stroke-linejoin:round; stroke-width:4; stroke-opacity:1; fill:none" points="
  201.936,695.088 201.936,108.352 
  "/>
<polyline clip-path="url(#clip870)" style="stroke:#000000; stroke-linecap:butt; stroke-linejoin:round; stroke-width:4; stroke-opacity:1; fill:none" points="
  201.936,588.653 220.834,588.653 
  "/>
<polyline clip-path="url(#clip870)" style="stroke:#000000; stroke-linecap:butt; stroke-linejoin:round; stroke-width:4; stroke-opacity:1; fill:none" points="
  201.936,477.974 220.834,477.974 
  "/>
<polyline clip-path="url(#clip870)" style="stroke:#000000; stroke-linecap:butt; stroke-linejoin:round; stroke-width:4; stroke-opacity:1; fill:none" points="
  201.936,367.295 220.834,367.295 
  "/>
<polyline clip-path="url(#clip870)" style="stroke:#000000; stroke-linecap:butt; stroke-linejoin:round; stroke-width:4; stroke-opacity:1; fill:none" points="
  201.936,256.616 220.834,256.616 
  "/>
<polyline clip-path="url(#clip870)" style="stroke:#000000; stroke-linecap:butt; stroke-linejoin:round; stroke-width:4; stroke-opacity:1; fill:none" points="
  201.936,145.937 220.834,145.937 
  "/>
<path clip-path="url(#clip870)" d="M46.9921 589.104 L76.6679 589.104 L76.6679 593.039 L46.9921 593.039 L46.9921 589.104 Z" fill="#000000" fill-rule="evenodd" fill-opacity="1" /><path clip-path="url(#clip870)" d="M86.8067 571.373 L105.163 571.373 L105.163 575.308 L91.0891 575.308 L91.0891 583.78 Q92.1076 583.433 93.1261 583.271 Q94.1447 583.085 95.1632 583.085 Q100.95 583.085 104.33 586.257 Q107.709 589.428 107.709 594.845 Q107.709 600.423 104.237 603.525 Q100.765 606.604 94.4456 606.604 Q92.2697 606.604 90.0012 606.233 Q87.7558 605.863 85.3484 605.122 L85.3484 600.423 Q87.4317 601.558 89.6539 602.113 Q91.8761 602.669 94.353 602.669 Q98.3576 602.669 100.696 600.562 Q103.033 598.456 103.033 594.845 Q103.033 591.234 100.696 589.127 Q98.3576 587.021 94.353 587.021 Q92.478 587.021 90.603 587.437 Q88.7512 587.854 86.8067 588.734 L86.8067 571.373 Z" fill="#000000" fill-rule="evenodd" fill-opacity="1" /><path clip-path="url(#clip870)" d="M116.922 600.053 L121.807 600.053 L121.807 605.933 L116.922 605.933 L116.922 600.053 Z" fill="#000000" fill-rule="evenodd" fill-opacity="1" /><path clip-path="url(#clip870)" d="M141.992 574.451 Q138.381 574.451 136.552 578.016 Q134.746 581.558 134.746 588.687 Q134.746 595.794 136.552 599.359 Q138.381 602.9 141.992 602.9 Q145.626 602.9 147.431 599.359 Q149.26 595.794 149.26 588.687 Q149.26 581.558 147.431 578.016 Q145.626 574.451 141.992 574.451 M141.992 570.748 Q147.802 570.748 150.857 575.354 Q153.936 579.937 153.936 588.687 Q153.936 597.414 150.857 602.021 Q147.802 606.604 141.992 606.604 Q136.181 606.604 133.103 602.021 Q130.047 597.414 130.047 588.687 Q130.047 579.937 133.103 575.354 Q136.181 570.748 141.992 570.748 Z" fill="#000000" fill-rule="evenodd" fill-opacity="1" /><path clip-path="url(#clip870)" d="M47.9875 478.425 L77.6633 478.425 L77.6633 482.36 L47.9875 482.36 L47.9875 478.425 Z" fill="#000000" fill-rule="evenodd" fill-opacity="1" /><path clip-path="url(#clip870)" d="M91.7836 491.319 L108.103 491.319 L108.103 495.254 L86.1586 495.254 L86.1586 491.319 Q88.8206 488.564 93.4039 483.934 Q98.0104 479.282 99.1909 477.939 Q101.436 475.416 102.316 473.68 Q103.219 471.921 103.219 470.231 Q103.219 467.476 101.274 465.74 Q99.353 464.004 96.2511 464.004 Q94.0521 464.004 91.5984 464.768 Q89.1678 465.532 86.3901 467.083 L86.3901 462.36 Q89.2141 461.226 91.6678 460.647 Q94.1215 460.069 96.1585 460.069 Q101.529 460.069 104.723 462.754 Q107.918 465.439 107.918 469.93 Q107.918 472.059 107.108 473.981 Q106.321 475.879 104.214 478.471 Q103.635 479.143 100.534 482.36 Q97.4317 485.555 91.7836 491.319 Z" fill="#000000" fill-rule="evenodd" fill-opacity="1" /><path clip-path="url(#clip870)" d="M117.918 489.374 L122.802 489.374 L122.802 495.254 L117.918 495.254 L117.918 489.374 Z" fill="#000000" fill-rule="evenodd" fill-opacity="1" /><path clip-path="url(#clip870)" d="M133.033 460.694 L151.39 460.694 L151.39 464.629 L137.316 464.629 L137.316 473.101 Q138.334 472.754 139.353 472.592 Q140.371 472.407 141.39 472.407 Q147.177 472.407 150.556 475.578 Q153.936 478.749 153.936 484.166 Q153.936 489.745 150.464 492.846 Q146.992 495.925 140.672 495.925 Q138.496 495.925 136.228 495.555 Q133.982 495.184 131.575 494.444 L131.575 489.745 Q133.658 490.879 135.881 491.434 Q138.103 491.99 140.58 491.99 Q144.584 491.99 146.922 489.883 Q149.26 487.777 149.26 484.166 Q149.26 480.555 146.922 478.448 Q144.584 476.342 140.58 476.342 Q138.705 476.342 136.83 476.758 Q134.978 477.175 133.033 478.055 L133.033 460.694 Z" fill="#000000" fill-rule="evenodd" fill-opacity="1" /><path clip-path="url(#clip870)" d="M96.7604 353.094 Q93.1493 353.094 91.3206 356.658 Q89.515 360.2 89.515 367.33 Q89.515 374.436 91.3206 378.001 Q93.1493 381.543 96.7604 381.543 Q100.395 381.543 102.2 378.001 Q104.029 374.436 104.029 367.33 Q104.029 360.2 102.2 356.658 Q100.395 353.094 96.7604 353.094 M96.7604 349.39 Q102.571 349.39 105.626 353.996 Q108.705 358.58 108.705 367.33 Q108.705 376.057 105.626 380.663 Q102.571 385.246 96.7604 385.246 Q90.9502 385.246 87.8715 380.663 Q84.816 376.057 84.816 367.33 Q84.816 358.58 87.8715 353.996 Q90.9502 349.39 96.7604 349.39 Z" fill="#000000" fill-rule="evenodd" fill-opacity="1" /><path clip-path="url(#clip870)" d="M116.922 378.695 L121.807 378.695 L121.807 384.575 L116.922 384.575 L116.922 378.695 Z" fill="#000000" fill-rule="evenodd" fill-opacity="1" /><path clip-path="url(#clip870)" d="M141.992 353.094 Q138.381 353.094 136.552 356.658 Q134.746 360.2 134.746 367.33 Q134.746 374.436 136.552 378.001 Q138.381 381.543 141.992 381.543 Q145.626 381.543 147.431 378.001 Q149.26 374.436 149.26 367.33 Q149.26 360.2 147.431 356.658 Q145.626 353.094 141.992 353.094 M141.992 349.39 Q147.802 349.39 150.857 353.996 Q153.936 358.58 153.936 367.33 Q153.936 376.057 150.857 380.663 Q147.802 385.246 141.992 385.246 Q136.181 385.246 133.103 380.663 Q130.047 376.057 130.047 367.33 Q130.047 358.58 133.103 353.996 Q136.181 349.39 141.992 349.39 Z" fill="#000000" fill-rule="evenodd" fill-opacity="1" /><path clip-path="url(#clip870)" d="M91.7836 269.961 L108.103 269.961 L108.103 273.896 L86.1586 273.896 L86.1586 269.961 Q88.8206 267.206 93.4039 262.577 Q98.0104 257.924 99.1909 256.581 Q101.436 254.058 102.316 252.322 Q103.219 250.563 103.219 248.873 Q103.219 246.119 101.274 244.382 Q99.353 242.646 96.2511 242.646 Q94.0521 242.646 91.5984 243.41 Q89.1678 244.174 86.3901 245.725 L86.3901 241.003 Q89.2141 239.869 91.6678 239.29 Q94.1215 238.711 96.1585 238.711 Q101.529 238.711 104.723 241.396 Q107.918 244.082 107.918 248.572 Q107.918 250.702 107.108 252.623 Q106.321 254.521 104.214 257.114 Q103.635 257.785 100.534 261.003 Q97.4317 264.197 91.7836 269.961 Z" fill="#000000" fill-rule="evenodd" fill-opacity="1" /><path clip-path="url(#clip870)" d="M117.918 268.017 L122.802 268.017 L122.802 273.896 L117.918 273.896 L117.918 268.017 Z" fill="#000000" fill-rule="evenodd" fill-opacity="1" /><path clip-path="url(#clip870)" d="M133.033 239.336 L151.39 239.336 L151.39 243.271 L137.316 243.271 L137.316 251.744 Q138.334 251.396 139.353 251.234 Q140.371 251.049 141.39 251.049 Q147.177 251.049 150.556 254.22 Q153.936 257.392 153.936 262.808 Q153.936 268.387 150.464 271.489 Q146.992 274.567 140.672 274.567 Q138.496 274.567 136.228 274.197 Q133.982 273.827 131.575 273.086 L131.575 268.387 Q133.658 269.521 135.881 270.077 Q138.103 270.632 140.58 270.632 Q144.584 270.632 146.922 268.526 Q149.26 266.419 149.26 262.808 Q149.26 259.197 146.922 257.091 Q144.584 254.984 140.58 254.984 Q138.705 254.984 136.83 255.401 Q134.978 255.818 133.033 256.697 L133.033 239.336 Z" fill="#000000" fill-rule="evenodd" fill-opacity="1" /><path clip-path="url(#clip870)" d="M86.8067 128.657 L105.163 128.657 L105.163 132.593 L91.0891 132.593 L91.0891 141.065 Q92.1076 140.718 93.1261 140.555 Q94.1447 140.37 95.1632 140.37 Q100.95 140.37 104.33 143.542 Q107.709 146.713 107.709 152.129 Q107.709 157.708 104.237 160.81 Q100.765 163.889 94.4456 163.889 Q92.2697 163.889 90.0012 163.518 Q87.7558 163.148 85.3484 162.407 L85.3484 157.708 Q87.4317 158.842 89.6539 159.398 Q91.8761 159.954 94.353 159.954 Q98.3576 159.954 100.696 157.847 Q103.033 155.741 103.033 152.129 Q103.033 148.518 100.696 146.412 Q98.3576 144.305 94.353 144.305 Q92.478 144.305 90.603 144.722 Q88.7512 145.139 86.8067 146.018 L86.8067 128.657 Z" fill="#000000" fill-rule="evenodd" fill-opacity="1" /><path clip-path="url(#clip870)" d="M116.922 157.338 L121.807 157.338 L121.807 163.217 L116.922 163.217 L116.922 157.338 Z" fill="#000000" fill-rule="evenodd" fill-opacity="1" /><path clip-path="url(#clip870)" d="M141.992 131.736 Q138.381 131.736 136.552 135.301 Q134.746 138.843 134.746 145.972 Q134.746 153.079 136.552 156.643 Q138.381 160.185 141.992 160.185 Q145.626 160.185 147.431 156.643 Q149.26 153.079 149.26 145.972 Q149.26 138.843 147.431 135.301 Q145.626 131.736 141.992 131.736 M141.992 128.032 Q147.802 128.032 150.857 132.639 Q153.936 137.222 153.936 145.972 Q153.936 154.699 150.857 159.305 Q147.802 163.889 141.992 163.889 Q136.181 163.889 133.103 159.305 Q130.047 154.699 130.047 145.972 Q130.047 137.222 133.103 132.639 Q136.181 128.032 141.992 128.032 Z" fill="#000000" fill-rule="evenodd" fill-opacity="1" /><path clip-path="url(#clip870)" d="M1193.99 34.1734 Q1192.74 33.4443 1191.24 33.1202 Q1189.78 32.7556 1188 32.7556 Q1181.68 32.7556 1178.27 36.8875 Q1174.91 40.9789 1174.91 48.6757 L1174.91 72.576 L1167.42 72.576 L1167.42 27.2059 L1174.91 27.2059 L1174.91 34.2544 Q1177.26 30.1225 1181.03 28.1376 Q1184.8 26.1121 1190.18 26.1121 Q1190.95 26.1121 1191.89 26.2337 Q1192.82 26.3147 1193.95 26.5172 L1193.99 34.1734 Z" fill="#000000" fill-rule="evenodd" fill-opacity="1" /><path clip-path="url(#clip870)" d="M1238.8 48.0275 L1238.8 51.6733 L1204.52 51.6733 Q1205.01 59.3701 1209.14 63.421 Q1213.31 67.4314 1220.73 67.4314 Q1225.02 67.4314 1229.03 66.3781 Q1233.08 65.3249 1237.05 63.2184 L1237.05 70.267 Q1233.04 71.9684 1228.83 72.8596 Q1224.62 73.7508 1220.28 73.7508 Q1209.43 73.7508 1203.07 67.4314 Q1196.75 61.1119 1196.75 50.3365 Q1196.75 39.1965 1202.74 32.6746 Q1208.78 26.1121 1218.99 26.1121 Q1228.14 26.1121 1233.45 32.0264 Q1238.8 37.9003 1238.8 48.0275 M1231.34 45.84 Q1231.26 39.7232 1227.9 36.0774 Q1224.58 32.4315 1219.07 32.4315 Q1212.83 32.4315 1209.06 35.9558 Q1205.33 39.4801 1204.77 45.8805 L1231.34 45.84 Z" fill="#000000" fill-rule="evenodd" fill-opacity="1" /><path clip-path="url(#clip870)" d="M1283.68 28.9478 L1283.68 35.9153 Q1280.52 34.1734 1277.32 33.3227 Q1274.16 32.4315 1270.92 32.4315 Q1263.67 32.4315 1259.66 37.0496 Q1255.65 41.6271 1255.65 49.9314 Q1255.65 58.2358 1259.66 62.8538 Q1263.67 67.4314 1270.92 67.4314 Q1274.16 67.4314 1277.32 66.5807 Q1280.52 65.6895 1283.68 63.9476 L1283.68 70.8341 Q1280.56 72.2924 1277.2 73.0216 Q1273.88 73.7508 1270.11 73.7508 Q1259.86 73.7508 1253.82 67.3098 Q1247.79 60.8689 1247.79 49.9314 Q1247.79 38.832 1253.86 32.472 Q1259.98 26.1121 1270.59 26.1121 Q1274.04 26.1121 1277.32 26.8413 Q1280.6 27.5299 1283.68 28.9478 Z" fill="#000000" fill-rule="evenodd" fill-opacity="1" /><path clip-path="url(#clip870)" d="M1314.22 32.4315 Q1308.23 32.4315 1304.74 37.1306 Q1301.26 41.7891 1301.26 49.9314 Q1301.26 58.0738 1304.7 62.7728 Q1308.19 67.4314 1314.22 67.4314 Q1320.18 67.4314 1323.66 62.7323 Q1327.15 58.0333 1327.15 49.9314 Q1327.15 41.8701 1323.66 37.1711 Q1320.18 32.4315 1314.22 32.4315 M1314.22 26.1121 Q1323.95 26.1121 1329.49 32.4315 Q1335.04 38.7509 1335.04 49.9314 Q1335.04 61.0714 1329.49 67.4314 Q1323.95 73.7508 1314.22 73.7508 Q1304.46 73.7508 1298.91 67.4314 Q1293.4 61.0714 1293.4 49.9314 Q1293.4 38.7509 1298.91 32.4315 Q1304.46 26.1121 1314.22 26.1121 Z" fill="#000000" fill-rule="evenodd" fill-opacity="1" /><path clip-path="url(#clip870)" d="M1385.11 45.1919 L1385.11 72.576 L1377.66 72.576 L1377.66 45.4349 Q1377.66 38.994 1375.15 35.7938 Q1372.64 32.5936 1367.61 32.5936 Q1361.58 32.5936 1358.09 36.4419 Q1354.61 40.2903 1354.61 46.9338 L1354.61 72.576 L1347.12 72.576 L1347.12 27.2059 L1354.61 27.2059 L1354.61 34.2544 Q1357.28 30.163 1360.89 28.1376 Q1364.54 26.1121 1369.27 26.1121 Q1377.09 26.1121 1381.1 30.9732 Q1385.11 35.7938 1385.11 45.1919 Z" fill="#000000" fill-rule="evenodd" fill-opacity="1" /><path clip-path="url(#clip870)" d="M1428.9 28.5427 L1428.9 35.5912 Q1425.74 33.9709 1422.34 33.1607 Q1418.94 32.3505 1415.29 32.3505 Q1409.74 32.3505 1406.95 34.0519 Q1404.19 35.7533 1404.19 39.156 Q1404.19 41.7486 1406.18 43.2475 Q1408.16 44.7058 1414.16 46.0426 L1416.71 46.6097 Q1424.65 48.3111 1427.97 51.4303 Q1431.33 54.509 1431.33 60.0587 Q1431.33 66.3781 1426.31 70.0644 Q1421.33 73.7508 1412.58 73.7508 Q1408.93 73.7508 1404.96 73.0216 Q1401.03 72.3329 1396.66 70.9151 L1396.66 63.2184 Q1400.79 65.3654 1404.8 66.4591 Q1408.81 67.5124 1412.74 67.5124 Q1418.01 67.5124 1420.84 65.73 Q1423.68 63.9071 1423.68 60.6258 Q1423.68 57.5877 1421.61 55.9673 Q1419.59 54.3469 1412.66 52.8481 L1410.07 52.2405 Q1403.14 50.7821 1400.06 47.7845 Q1396.98 44.7463 1396.98 39.4801 Q1396.98 33.0797 1401.52 29.5959 Q1406.06 26.1121 1414.4 26.1121 Q1418.53 26.1121 1422.18 26.7198 Q1425.83 27.3274 1428.9 28.5427 Z" fill="#000000" fill-rule="evenodd" fill-opacity="1" /><path clip-path="url(#clip870)" d="M1450.58 14.324 L1450.58 27.2059 L1465.93 27.2059 L1465.93 32.9987 L1450.58 32.9987 L1450.58 57.6282 Q1450.58 63.1779 1452.08 64.7578 Q1453.61 66.3376 1458.27 66.3376 L1465.93 66.3376 L1465.93 72.576 L1458.27 72.576 Q1449.64 72.576 1446.36 69.3758 Q1443.08 66.1351 1443.08 57.6282 L1443.08 32.9987 L1437.61 32.9987 L1437.61 27.2059 L1443.08 27.2059 L1443.08 14.324 L1450.58 14.324 Z" fill="#000000" fill-rule="evenodd" fill-opacity="1" /><path clip-path="url(#clip870)" d="M1502.02 34.1734 Q1500.77 33.4443 1499.27 33.1202 Q1497.81 32.7556 1496.03 32.7556 Q1489.71 32.7556 1486.31 36.8875 Q1482.94 40.9789 1482.94 48.6757 L1482.94 72.576 L1475.45 72.576 L1475.45 27.2059 L1482.94 27.2059 L1482.94 34.2544 Q1485.29 30.1225 1489.06 28.1376 Q1492.83 26.1121 1498.21 26.1121 Q1498.98 26.1121 1499.92 26.2337 Q1500.85 26.3147 1501.98 26.5172 L1502.02 34.1734 Z" fill="#000000" fill-rule="evenodd" fill-opacity="1" /><path clip-path="url(#clip870)" d="M1509.07 54.671 L1509.07 27.2059 L1516.53 27.2059 L1516.53 54.3874 Q1516.53 60.8284 1519.04 64.0691 Q1521.55 67.2693 1526.57 67.2693 Q1532.61 67.2693 1536.09 63.421 Q1539.62 59.5726 1539.62 52.9291 L1539.62 27.2059 L1547.07 27.2059 L1547.07 72.576 L1539.62 72.576 L1539.62 65.6084 Q1536.9 69.7404 1533.3 71.7658 Q1529.73 73.7508 1524.99 73.7508 Q1517.17 73.7508 1513.12 68.8897 Q1509.07 64.0286 1509.07 54.671 M1527.83 26.1121 L1527.83 26.1121 Z" fill="#000000" fill-rule="evenodd" fill-opacity="1" /><path clip-path="url(#clip870)" d="M1595.07 28.9478 L1595.07 35.9153 Q1591.91 34.1734 1588.71 33.3227 Q1585.55 32.4315 1582.31 32.4315 Q1575.06 32.4315 1571.05 37.0496 Q1567.04 41.6271 1567.04 49.9314 Q1567.04 58.2358 1571.05 62.8538 Q1575.06 67.4314 1582.31 67.4314 Q1585.55 67.4314 1588.71 66.5807 Q1591.91 65.6895 1595.07 63.9476 L1595.07 70.8341 Q1591.95 72.2924 1588.59 73.0216 Q1585.27 73.7508 1581.5 73.7508 Q1571.25 73.7508 1565.22 67.3098 Q1559.18 60.8689 1559.18 49.9314 Q1559.18 38.832 1565.26 32.472 Q1571.37 26.1121 1581.99 26.1121 Q1585.43 26.1121 1588.71 26.8413 Q1591.99 27.5299 1595.07 28.9478 Z" fill="#000000" fill-rule="evenodd" fill-opacity="1" /><path clip-path="url(#clip870)" d="M1615.41 14.324 L1615.41 27.2059 L1630.76 27.2059 L1630.76 32.9987 L1615.41 32.9987 L1615.41 57.6282 Q1615.41 63.1779 1616.91 64.7578 Q1618.45 66.3376 1623.1 66.3376 L1630.76 66.3376 L1630.76 72.576 L1623.1 72.576 Q1614.48 72.576 1611.19 69.3758 Q1607.91 66.1351 1607.91 57.6282 L1607.91 32.9987 L1602.44 32.9987 L1602.44 27.2059 L1607.91 27.2059 L1607.91 14.324 L1615.41 14.324 Z" fill="#000000" fill-rule="evenodd" fill-opacity="1" /><path clip-path="url(#clip870)" d="M1687.55 49.7694 Q1678.52 49.7694 1675.04 51.8354 Q1671.55 53.9013 1671.55 58.8839 Q1671.55 62.8538 1674.15 65.2034 Q1676.78 67.5124 1681.28 67.5124 Q1687.47 67.5124 1691.2 63.1374 Q1694.97 58.7219 1694.97 51.4303 L1694.97 49.7694 L1687.55 49.7694 M1702.42 46.6907 L1702.42 72.576 L1694.97 72.576 L1694.97 65.6895 Q1692.42 69.8214 1688.61 71.8063 Q1684.8 73.7508 1679.29 73.7508 Q1672.32 73.7508 1668.19 69.8619 Q1664.1 65.9325 1664.1 59.3701 Q1664.1 51.7138 1669.2 47.825 Q1674.35 43.9361 1684.52 43.9361 L1694.97 43.9361 L1694.97 43.2069 Q1694.97 38.0623 1691.56 35.2672 Q1688.2 32.4315 1682.09 32.4315 Q1678.2 32.4315 1674.51 33.3632 Q1670.82 34.295 1667.42 36.1584 L1667.42 29.2718 Q1671.51 27.692 1675.36 26.9223 Q1679.21 26.1121 1682.86 26.1121 Q1692.7 26.1121 1697.56 31.2163 Q1702.42 36.3204 1702.42 46.6907 Z" fill="#000000" fill-rule="evenodd" fill-opacity="1" /><path clip-path="url(#clip870)" d="M1755.49 45.1919 L1755.49 72.576 L1748.03 72.576 L1748.03 45.4349 Q1748.03 38.994 1745.52 35.7938 Q1743.01 32.5936 1737.99 32.5936 Q1731.95 32.5936 1728.47 36.4419 Q1724.98 40.2903 1724.98 46.9338 L1724.98 72.576 L1717.49 72.576 L1717.49 27.2059 L1724.98 27.2059 L1724.98 34.2544 Q1727.66 30.163 1731.26 28.1376 Q1734.91 26.1121 1739.65 26.1121 Q1747.47 26.1121 1751.48 30.9732 Q1755.49 35.7938 1755.49 45.1919 Z" fill="#000000" fill-rule="evenodd" fill-opacity="1" /><path clip-path="url(#clip870)" d="M1800.21 34.0924 L1800.21 9.54393 L1807.66 9.54393 L1807.66 72.576 L1800.21 72.576 L1800.21 65.7705 Q1797.86 69.8214 1794.26 71.8063 Q1790.69 73.7508 1785.67 73.7508 Q1777.44 73.7508 1772.26 67.1883 Q1767.11 60.6258 1767.11 49.9314 Q1767.11 39.2371 1772.26 32.6746 Q1777.44 26.1121 1785.67 26.1121 Q1790.69 26.1121 1794.26 28.0971 Q1797.86 30.0415 1800.21 34.0924 M1774.81 49.9314 Q1774.81 58.1548 1778.17 62.8538 Q1781.58 67.5124 1787.49 67.5124 Q1793.4 67.5124 1796.81 62.8538 Q1800.21 58.1548 1800.21 49.9314 Q1800.21 41.7081 1796.81 37.0496 Q1793.4 32.3505 1787.49 32.3505 Q1781.58 32.3505 1778.17 37.0496 Q1774.81 41.7081 1774.81 49.9314 Z" fill="#000000" fill-rule="evenodd" fill-opacity="1" /><path clip-path="url(#clip870)" d="M1875.68 34.1734 Q1874.42 33.4443 1872.92 33.1202 Q1871.47 32.7556 1869.68 32.7556 Q1863.36 32.7556 1859.96 36.8875 Q1856.6 40.9789 1856.6 48.6757 L1856.6 72.576 L1849.1 72.576 L1849.1 27.2059 L1856.6 27.2059 L1856.6 34.2544 Q1858.95 30.1225 1862.72 28.1376 Q1866.48 26.1121 1871.87 26.1121 Q1872.64 26.1121 1873.57 26.2337 Q1874.5 26.3147 1875.64 26.5172 L1875.68 34.1734 Z" fill="#000000" fill-rule="evenodd" fill-opacity="1" /><path clip-path="url(#clip870)" d="M1920.48 48.0275 L1920.48 51.6733 L1886.21 51.6733 Q1886.7 59.3701 1890.83 63.421 Q1895 67.4314 1902.41 67.4314 Q1906.71 67.4314 1910.72 66.3781 Q1914.77 65.3249 1918.74 63.2184 L1918.74 70.267 Q1914.73 71.9684 1910.52 72.8596 Q1906.3 73.7508 1901.97 73.7508 Q1891.11 73.7508 1884.75 67.4314 Q1878.43 61.1119 1878.43 50.3365 Q1878.43 39.1965 1884.43 32.6746 Q1890.46 26.1121 1900.67 26.1121 Q1909.83 26.1121 1915.13 32.0264 Q1920.48 37.9003 1920.48 48.0275 M1913.03 45.84 Q1912.95 39.7232 1909.58 36.0774 Q1906.26 32.4315 1900.75 32.4315 Q1894.51 32.4315 1890.75 35.9558 Q1887.02 39.4801 1886.45 45.8805 L1913.03 45.84 Z" fill="#000000" fill-rule="evenodd" fill-opacity="1" /><path clip-path="url(#clip870)" d="M1962.57 34.0924 L1962.57 9.54393 L1970.02 9.54393 L1970.02 72.576 L1962.57 72.576 L1962.57 65.7705 Q1960.22 69.8214 1956.62 71.8063 Q1953.05 73.7508 1948.03 73.7508 Q1939.8 73.7508 1934.62 67.1883 Q1929.47 60.6258 1929.47 49.9314 Q1929.47 39.2371 1934.62 32.6746 Q1939.8 26.1121 1948.03 26.1121 Q1953.05 26.1121 1956.62 28.0971 Q1960.22 30.0415 1962.57 34.0924 M1937.17 49.9314 Q1937.17 58.1548 1940.53 62.8538 Q1943.94 67.5124 1949.85 67.5124 Q1955.76 67.5124 1959.17 62.8538 Q1962.57 58.1548 1962.57 49.9314 Q1962.57 41.7081 1959.17 37.0496 Q1955.76 32.3505 1949.85 32.3505 Q1943.94 32.3505 1940.53 37.0496 Q1937.17 41.7081 1937.17 49.9314 Z" fill="#000000" fill-rule="evenodd" fill-opacity="1" /><path clip-path="url(#clip870)" d="M2006 49.7694 Q1996.96 49.7694 1993.48 51.8354 Q1989.99 53.9013 1989.99 58.8839 Q1989.99 62.8538 1992.59 65.2034 Q1995.22 67.5124 1999.72 67.5124 Q2005.91 67.5124 2009.64 63.1374 Q2013.41 58.7219 2013.41 51.4303 L2013.41 49.7694 L2006 49.7694 M2020.86 46.6907 L2020.86 72.576 L2013.41 72.576 L2013.41 65.6895 Q2010.86 69.8214 2007.05 71.8063 Q2003.24 73.7508 1997.73 73.7508 Q1990.76 73.7508 1986.63 69.8619 Q1982.54 65.9325 1982.54 59.3701 Q1982.54 51.7138 1987.65 47.825 Q1992.79 43.9361 2002.96 43.9361 L2013.41 43.9361 L2013.41 43.2069 Q2013.41 38.0623 2010.01 35.2672 Q2006.64 32.4315 2000.53 32.4315 Q1996.64 32.4315 1992.95 33.3632 Q1989.27 34.295 1985.86 36.1584 L1985.86 29.2718 Q1989.95 27.692 1993.8 26.9223 Q1997.65 26.1121 2001.3 26.1121 Q2011.14 26.1121 2016 31.2163 Q2020.86 36.3204 2020.86 46.6907 Z" fill="#000000" fill-rule="evenodd" fill-opacity="1" /><path clip-path="url(#clip870)" d="M2043.59 14.324 L2043.59 27.2059 L2058.94 27.2059 L2058.94 32.9987 L2043.59 32.9987 L2043.59 57.6282 Q2043.59 63.1779 2045.09 64.7578 Q2046.63 66.3376 2051.28 66.3376 L2058.94 66.3376 L2058.94 72.576 L2051.28 72.576 Q2042.66 72.576 2039.38 69.3758 Q2036.09 66.1351 2036.09 57.6282 L2036.09 32.9987 L2030.63 32.9987 L2030.63 27.2059 L2036.09 27.2059 L2036.09 14.324 L2043.59 14.324 Z" fill="#000000" fill-rule="evenodd" fill-opacity="1" /><path clip-path="url(#clip870)" d="M2067.97 54.671 L2067.97 27.2059 L2075.43 27.2059 L2075.43 54.3874 Q2075.43 60.8284 2077.94 64.0691 Q2080.45 67.2693 2085.47 67.2693 Q2091.51 67.2693 2094.99 63.421 Q2098.52 59.5726 2098.52 52.9291 L2098.52 27.2059 L2105.97 27.2059 L2105.97 72.576 L2098.52 72.576 L2098.52 65.6084 Q2095.8 69.7404 2092.2 71.7658 Q2088.63 73.7508 2083.89 73.7508 Q2076.08 73.7508 2072.03 68.8897 Q2067.97 64.0286 2067.97 54.671 M2086.73 26.1121 L2086.73 26.1121 Z" fill="#000000" fill-rule="evenodd" fill-opacity="1" /><path clip-path="url(#clip870)" d="M2156.65 35.9153 Q2159.44 30.8922 2163.33 28.5022 Q2167.22 26.1121 2172.49 26.1121 Q2179.58 26.1121 2183.43 31.0947 Q2187.27 36.0368 2187.27 45.1919 L2187.27 72.576 L2179.78 72.576 L2179.78 45.4349 Q2179.78 38.913 2177.47 35.7533 Q2175.16 32.5936 2170.42 32.5936 Q2164.63 32.5936 2161.27 36.4419 Q2157.9 40.2903 2157.9 46.9338 L2157.9 72.576 L2150.41 72.576 L2150.41 45.4349 Q2150.41 38.8725 2148.1 35.7533 Q2145.79 32.5936 2140.97 32.5936 Q2135.26 32.5936 2131.9 36.4824 Q2128.54 40.3308 2128.54 46.9338 L2128.54 72.576 L2121.04 72.576 L2121.04 27.2059 L2128.54 27.2059 L2128.54 34.2544 Q2131.09 30.082 2134.65 28.0971 Q2138.22 26.1121 2143.12 26.1121 Q2148.06 26.1121 2151.5 28.6237 Q2154.99 31.1352 2156.65 35.9153 Z" fill="#000000" fill-rule="evenodd" fill-opacity="1" /><polyline clip-path="url(#clip872)" style="stroke:#ff0000; stroke-linecap:butt; stroke-linejoin:round; stroke-width:8; stroke-opacity:1; fill:none" points="
  285.45,367.295 296.367,367.295 307.283,367.295 318.2,367.295 329.117,367.295 340.034,367.295 350.951,367.295 361.868,367.295 372.784,367.295 383.701,367.295 
  394.618,367.295 405.535,367.295 416.452,367.295 427.369,367.295 438.285,367.295 449.202,367.295 460.119,367.295 471.036,367.295 481.953,367.295 492.87,367.295 
  503.786,367.295 514.703,367.295 525.62,367.295 536.537,367.295 547.454,367.295 558.371,367.295 569.287,367.295 580.204,367.295 591.121,367.295 602.038,367.295 
  612.955,367.295 623.872,367.295 634.788,367.295 645.705,367.295 656.622,367.295 667.539,367.295 678.456,367.295 689.373,367.295 700.289,367.295 711.206,367.295 
  722.123,367.295 733.04,367.295 743.957,367.295 754.874,367.295 765.79,367.295 776.707,367.295 787.624,367.295 798.541,367.295 809.458,367.295 820.375,367.295 
  831.291,367.295 842.208,367.295 853.125,367.295 864.042,367.295 874.959,367.295 885.876,367.295 896.792,367.295 907.709,367.295 918.626,367.295 929.543,367.295 
  940.46,367.295 951.377,367.295 962.293,367.295 973.21,367.295 984.127,367.295 995.044,367.295 1005.96,367.295 1016.88,367.295 1027.79,367.295 1038.71,367.295 
  1049.63,367.295 1060.54,367.295 1071.46,367.295 1082.38,367.295 1093.3,367.295 1104.21,367.295 1115.13,367.295 1126.05,367.295 1136.96,367.295 1147.88,367.295 
  1158.8,367.295 1169.71,367.295 1180.63,367.295 1191.55,367.295 1202.46,367.295 1213.38,367.295 1224.3,367.295 1235.21,367.295 1246.13,367.295 1257.05,367.295 
  1267.96,367.295 1278.88,367.295 1289.8,367.295 1300.72,367.295 1311.63,367.295 1322.55,367.295 1333.47,367.295 1344.38,367.295 1355.3,367.295 1366.22,367.295 
  1377.13,367.295 1388.05,367.295 1398.97,367.295 1409.88,367.295 1420.8,367.295 1431.72,362.063 1442.63,275.415 1453.55,363.381 1464.47,406.075 1475.38,307.199 
  1486.3,321.346 1497.22,241.488 1508.14,373.279 1519.05,317.009 1529.97,285.736 1540.89,447.403 1551.8,387.66 1562.72,432.083 1573.64,407.058 1584.55,341.506 
  1595.47,528.845 1606.39,326.537 1617.3,294.818 1628.22,485.395 1639.14,441.604 1650.05,357.216 1660.97,190.311 1671.89,359.757 1682.8,441.996 1693.72,251.534 
  1704.64,278.786 1715.55,124.958 1726.47,378.823 1737.39,270.43 1748.31,210.191 1759.22,521.604 1770.14,406.524 1781.06,492.094 1791.97,443.889 1802.89,317.618 
  1813.81,678.482 1824.72,288.784 1835.64,227.685 1846.56,594.787 1857.47,510.433 1868.39,367.295 1879.31,367.295 1890.22,367.295 1901.14,367.295 1912.06,367.295 
  1922.97,367.295 1933.89,367.295 1944.81,367.295 1955.73,367.295 1966.64,367.295 1977.56,367.295 1988.48,367.295 1999.39,367.295 2010.31,367.295 2021.23,367.295 
  2032.14,367.295 2043.06,367.295 2053.98,367.295 2064.89,367.295 2075.81,367.295 2086.73,367.295 2097.64,367.295 2108.56,367.295 2119.48,367.295 2130.39,367.295 
  2141.31,367.295 2152.23,367.295 2163.15,367.295 2174.06,367.295 2184.98,367.295 2195.9,367.295 2206.81,367.295 2217.73,367.295 2228.65,367.295 2239.56,367.295 
  2250.48,367.295 2261.4,367.295 2272.31,367.295 2283.23,367.295 2294.15,367.295 2305.06,367.295 2315.98,367.295 2326.9,367.295 2337.81,367.295 2348.73,367.295 
  2359.65,367.295 2370.56,367.295 2381.48,367.295 2392.4,367.295 2403.32,367.295 2414.23,367.295 2425.15,367.295 2436.07,367.295 2446.98,367.295 2457.9,367.295 
  2468.82,367.295 2479.73,367.295 2490.65,367.295 2501.57,367.295 2512.48,367.295 2523.4,367.295 2534.32,367.295 2545.23,367.295 2556.15,367.295 2567.07,367.295 
  2577.98,367.295 2588.9,367.295 2599.82,367.295 2610.74,367.295 2621.65,367.295 2632.57,367.295 2643.49,367.295 2654.4,367.295 2665.32,367.295 2676.24,367.295 
  2687.15,367.295 2698.07,367.295 2708.99,367.295 2719.9,367.295 2730.82,367.295 2741.74,367.295 2752.65,367.295 2763.57,367.295 2774.49,367.295 2785.4,367.295 
  2796.32,367.295 2807.24,367.295 2818.15,367.295 2829.07,367.295 2839.99,367.295 2850.91,367.295 2861.82,367.295 2872.74,367.295 2883.66,367.295 2894.57,367.295 
  2905.49,367.295 2916.41,367.295 2927.32,367.295 2938.24,367.295 2949.16,367.295 2960.07,367.295 2970.99,367.295 2981.91,367.295 2992.82,367.295 3003.74,367.295 
  3014.66,367.295 3025.57,367.295 3036.49,367.295 3047.41,367.295 3058.33,367.295 3069.24,367.295 
  "/>
<polyline clip-path="url(#clip872)" style="stroke:#add8e6; stroke-linecap:butt; stroke-linejoin:round; stroke-width:8; stroke-opacity:1; fill:none" points="
  285.45,368.175 296.367,366.559 307.283,366.867 318.2,366.694 329.117,366.923 340.034,367.768 350.951,368.339 361.868,368.177 372.784,367.717 383.701,367.133 
  394.618,367.527 405.535,367.886 416.452,367.779 427.369,367.625 438.285,367.492 449.202,368.124 460.119,368.096 471.036,367.831 481.953,367.581 492.87,367.83 
  503.786,367.744 514.703,367.844 525.62,368.083 536.537,368.107 547.454,367.645 558.371,367.351 569.287,367.8 580.204,367.74 591.121,367.7 602.038,367.789 
  612.955,368.002 623.872,368.007 634.788,367.696 645.705,367.639 656.622,367.746 667.539,367.65 678.456,367.537 689.373,367.594 700.289,367.619 711.206,367.683 
  722.123,367.64 733.04,367.502 743.957,367.579 754.874,367.494 765.79,367.54 776.707,367.617 787.624,367.603 798.541,367.572 809.458,367.571 820.375,367.549 
  831.291,367.584 842.208,367.603 853.125,367.546 864.042,367.509 874.959,367.521 885.876,367.615 896.792,367.529 907.709,367.546 918.626,367.522 929.543,367.541 
  940.46,367.543 951.377,367.533 962.293,367.56 973.21,367.547 984.127,367.592 995.044,367.523 1005.96,367.611 1016.88,367.585 1027.79,367.548 1038.71,367.574 
  1049.63,367.633 1060.54,367.665 1071.46,367.555 1082.38,367.567 1093.3,367.648 1104.21,367.646 1115.13,367.421 1126.05,367.518 1136.96,367.547 1147.88,367.706 
  1158.8,367.515 1169.71,367.614 1180.63,367.93 1191.55,367.829 1202.46,367.403 1213.38,367.654 1224.3,367.788 1235.21,367.82 1246.13,367.479 1257.05,367.958 
  1267.96,368.12 1278.88,366.897 1289.8,367.764 1300.72,368.933 1311.63,386.292 1322.55,344.144 1333.47,391.168 1344.38,395.328 1355.3,419.26 1366.22,356.464 
  1377.13,364.557 1388.05,391.023 1398.97,331.115 1409.88,313.025 1420.8,320.208 1431.72,359.126 1442.63,353.537 1453.55,246.741 1464.47,391.314 1475.38,402.063 
  1486.3,310.468 1497.22,336.282 1508.14,367.943 1519.05,391.688 1529.97,370.473 1540.89,362.052 1551.8,393.493 1562.72,379.419 1573.64,366.392 1584.55,368.013 
  1595.47,374.741 1606.39,377.456 1617.3,372.856 1628.22,375.286 1639.14,377.51 1650.05,370.091 1660.97,227.031 1671.89,359.846 1682.8,434.361 1693.72,274.252 
  1704.64,296.825 1715.55,158.361 1726.47,385.929 1737.39,266.828 1748.31,224.33 1759.22,506.551 1770.14,405.156 1781.06,473.078 1791.97,440.456 1802.89,323.047 
  1813.81,663.201 1824.72,290.944 1835.64,233.013 1846.56,587.08 1857.47,506.195 1868.39,364.262 1879.31,367.917 1890.22,369.143 1901.14,368.253 1912.06,368.296 
  1922.97,368.182 1933.89,368.004 1944.81,367.663 1955.73,367.734 1966.64,367.405 1977.56,367.853 1988.48,367.125 1999.39,367.318 2010.31,367.807 2021.23,367.441 
  2032.14,367.119 2043.06,367.689 2053.98,368.457 2064.89,367.638 2075.81,368.064 2086.73,367.668 2097.64,367.98 2108.56,368.42 2119.48,367.74 2130.39,367.854 
  2141.31,367.105 2152.23,367.493 2163.15,367.39 2174.06,367.502 2184.98,367.552 2195.9,367.439 2206.81,367.564 2217.73,367.513 2228.65,367.856 2239.56,367.686 
  2250.48,367.831 2261.4,367.647 2272.31,367.889 2283.23,367.821 2294.15,367.574 2305.06,367.745 2315.98,367.476 2326.9,367.548 2337.81,367.45 2348.73,367.479 
  2359.65,367.472 2370.56,367.5 2381.48,367.551 2392.4,367.501 2403.32,367.581 2414.23,367.558 2425.15,367.609 2436.07,367.568 2446.98,367.608 2457.9,367.597 
  2468.82,367.541 2479.73,367.589 2490.65,367.554 2501.57,367.575 2512.48,367.556 2523.4,367.554 2534.32,367.535 2545.23,367.537 2556.15,367.569 2567.07,367.549 
  2577.98,367.544 2588.9,367.509 2599.82,367.549 2610.74,367.578 2621.65,367.568 2632.57,367.535 2643.49,367.543 2654.4,367.561 2665.32,367.559 2676.24,367.584 
  2687.15,367.56 2698.07,367.539 2708.99,367.518 2719.9,367.602 2730.82,367.556 2741.74,367.537 2752.65,367.579 2763.57,367.518 2774.49,367.478 2785.4,367.489 
  2796.32,367.539 2807.24,367.7 2818.15,367.317 2829.07,367.839 2839.99,367.93 2850.91,367.475 2861.82,367.773 2872.74,367.39 2883.66,367.335 2894.57,367.73 
  2905.49,366.86 2916.41,367.718 2927.32,367.861 2938.24,367.799 2949.16,367.169 2960.07,367.314 2970.99,367.765 2981.91,367.01 2992.82,366.568 3003.74,367.852 
  3014.66,367.925 3025.57,367.83 3036.49,368.367 3047.41,368.243 3058.33,369.298 3069.24,367.942 
  "/>
<path clip-path="url(#clip870)" d="
M2592.66 283.43 L3054.4 283.43 L3054.4 127.91 L2592.66 127.91  Z
  " fill="#ffffff" fill-rule="evenodd" fill-opacity="1"/>
<polyline clip-path="url(#clip870)" style="stroke:#000000; stroke-linecap:butt; stroke-linejoin:round; stroke-width:4; stroke-opacity:1; fill:none" points="
  2592.66,283.43 3054.4,283.43 3054.4,127.91 2592.66,127.91 2592.66,283.43 
  "/>
<polyline clip-path="url(#clip870)" style="stroke:#ff0000; stroke-linecap:butt; stroke-linejoin:round; stroke-width:4; stroke-opacity:1; fill:none" points="
  2625.45,179.75 2822.17,179.75 
  "/>
<path clip-path="url(#clip870)" d="M2879.61 171.104 L2870.23 183.72 L2880.1 197.03 L2875.07 197.03 L2867.53 186.845 L2859.98 197.03 L2854.96 197.03 L2865.03 183.465 L2855.81 171.104 L2860.84 171.104 L2867.71 180.34 L2874.59 171.104 L2879.61 171.104 Z" fill="#000000" fill-rule="evenodd" fill-opacity="1" /><path clip-path="url(#clip870)" d="M2905.81 204.9 L2905.81 208.21 L2881.18 208.21 L2881.18 204.9 L2905.81 204.9 Z" fill="#000000" fill-rule="evenodd" fill-opacity="1" /><path clip-path="url(#clip870)" d="M2909.82 171.104 L2914.08 171.104 L2914.08 197.493 Q2914.08 202.447 2912.18 204.669 Q2910.3 206.891 2906.11 206.891 L2904.49 206.891 L2904.49 203.28 L2905.63 203.28 Q2908.06 203.28 2908.94 202.146 Q2909.82 201.035 2909.82 197.493 L2909.82 171.104 M2909.82 161.012 L2914.08 161.012 L2914.08 166.405 L2909.82 166.405 L2909.82 161.012 Z" fill="#000000" fill-rule="evenodd" fill-opacity="1" /><polyline clip-path="url(#clip870)" style="stroke:#add8e6; stroke-linecap:butt; stroke-linejoin:round; stroke-width:4; stroke-opacity:1; fill:none" points="
  2625.45,231.59 2822.17,231.59 
  "/>
<path clip-path="url(#clip870)" d="M2876.67 233.222 L2876.67 248.87 L2872.41 248.87 L2872.41 233.361 Q2872.41 229.68 2870.97 227.852 Q2869.54 226.023 2866.67 226.023 Q2863.22 226.023 2861.23 228.222 Q2859.24 230.421 2859.24 234.217 L2859.24 248.87 L2854.96 248.87 L2854.96 212.852 L2859.24 212.852 L2859.24 226.972 Q2860.77 224.634 2862.83 223.477 Q2864.91 222.319 2867.62 222.319 Q2872.09 222.319 2874.38 225.097 Q2876.67 227.852 2876.67 233.222 Z" fill="#000000" fill-rule="evenodd" fill-opacity="1" /><path clip-path="url(#clip870)" d="M2896.95 235.838 Q2891.78 235.838 2889.79 237.018 Q2887.8 238.199 2887.8 241.046 Q2887.8 243.314 2889.28 244.657 Q2890.79 245.976 2893.36 245.976 Q2896.9 245.976 2899.03 243.476 Q2901.18 240.953 2901.18 236.787 L2901.18 235.838 L2896.95 235.838 M2905.44 234.078 L2905.44 248.87 L2901.18 248.87 L2901.18 244.935 Q2899.72 247.296 2897.55 248.43 Q2895.37 249.541 2892.22 249.541 Q2888.24 249.541 2885.88 247.319 Q2883.54 245.074 2883.54 241.324 Q2883.54 236.949 2886.46 234.727 Q2889.4 232.504 2895.21 232.504 L2901.18 232.504 L2901.18 232.088 Q2901.18 229.148 2899.24 227.551 Q2897.32 225.93 2893.82 225.93 Q2891.6 225.93 2889.49 226.463 Q2887.39 226.995 2885.44 228.06 L2885.44 224.125 Q2887.78 223.222 2889.98 222.782 Q2892.18 222.319 2894.26 222.319 Q2899.89 222.319 2902.66 225.236 Q2905.44 228.153 2905.44 234.078 Z" fill="#000000" fill-rule="evenodd" fill-opacity="1" /><path clip-path="url(#clip870)" d="M2918.43 215.583 L2918.43 222.944 L2927.2 222.944 L2927.2 226.254 L2918.43 226.254 L2918.43 240.328 Q2918.43 243.5 2919.28 244.402 Q2920.16 245.305 2922.83 245.305 L2927.2 245.305 L2927.2 248.87 L2922.83 248.87 Q2917.9 248.87 2916.02 247.041 Q2914.15 245.189 2914.15 240.328 L2914.15 226.254 L2911.02 226.254 L2911.02 222.944 L2914.15 222.944 L2914.15 215.583 L2918.43 215.583 Z" fill="#000000" fill-rule="evenodd" fill-opacity="1" /><path clip-path="url(#clip870)" d="M2954.35 222.944 L2944.98 235.56 L2954.84 248.87 L2949.82 248.87 L2942.27 238.685 L2934.72 248.87 L2929.7 248.87 L2939.77 235.305 L2930.56 222.944 L2935.58 222.944 L2942.46 232.18 L2949.33 222.944 L2954.35 222.944 Z" fill="#000000" fill-rule="evenodd" fill-opacity="1" /><path clip-path="url(#clip870)" d="M2980.56 256.74 L2980.56 260.05 L2955.93 260.05 L2955.93 256.74 L2980.56 256.74 Z" fill="#000000" fill-rule="evenodd" fill-opacity="1" /><path clip-path="url(#clip870)" d="M2984.56 222.944 L2988.82 222.944 L2988.82 249.333 Q2988.82 254.287 2986.92 256.509 Q2985.05 258.731 2980.86 258.731 L2979.24 258.731 L2979.24 255.12 L2980.37 255.12 Q2982.8 255.12 2983.68 253.986 Q2984.56 252.875 2984.56 249.333 L2984.56 222.944 M2984.56 212.852 L2988.82 212.852 L2988.82 218.245 L2984.56 218.245 L2984.56 212.852 Z" fill="#000000" fill-rule="evenodd" fill-opacity="1" /><path clip-path="url(#clip870)" d="
M201.936 1495.09 L3152.76 1495.09 L3152.76 908.352 L201.936 908.352  Z
  " fill="#ffffff" fill-rule="evenodd" fill-opacity="1"/>
<defs>
  <clipPath id="clip873">
    <rect x="201" y="908" width="2952" height="588"/>
  </clipPath>
</defs>
<polyline clip-path="url(#clip873)" style="stroke:#000000; stroke-linecap:butt; stroke-linejoin:round; stroke-width:2; stroke-opacity:0.1; fill:none" points="
  274.533,1495.09 274.533,908.352 
  "/>
<polyline clip-path="url(#clip873)" style="stroke:#000000; stroke-linecap:butt; stroke-linejoin:round; stroke-width:2; stroke-opacity:0.1; fill:none" points="
  820.375,1495.09 820.375,908.352 
  "/>
<polyline clip-path="url(#clip873)" style="stroke:#000000; stroke-linecap:butt; stroke-linejoin:round; stroke-width:2; stroke-opacity:0.1; fill:none" points="
  1366.22,1495.09 1366.22,908.352 
  "/>
<polyline clip-path="url(#clip873)" style="stroke:#000000; stroke-linecap:butt; stroke-linejoin:round; stroke-width:2; stroke-opacity:0.1; fill:none" points="
  1912.06,1495.09 1912.06,908.352 
  "/>
<polyline clip-path="url(#clip873)" style="stroke:#000000; stroke-linecap:butt; stroke-linejoin:round; stroke-width:2; stroke-opacity:0.1; fill:none" points="
  2457.9,1495.09 2457.9,908.352 
  "/>
<polyline clip-path="url(#clip873)" style="stroke:#000000; stroke-linecap:butt; stroke-linejoin:round; stroke-width:2; stroke-opacity:0.1; fill:none" points="
  3003.74,1495.09 3003.74,908.352 
  "/>
<polyline clip-path="url(#clip870)" style="stroke:#000000; stroke-linecap:butt; stroke-linejoin:round; stroke-width:4; stroke-opacity:1; fill:none" points="
  201.936,1495.09 3152.76,1495.09 
  "/>
<polyline clip-path="url(#clip870)" style="stroke:#000000; stroke-linecap:butt; stroke-linejoin:round; stroke-width:4; stroke-opacity:1; fill:none" points="
  274.533,1495.09 274.533,1476.19 
  "/>
<polyline clip-path="url(#clip870)" style="stroke:#000000; stroke-linecap:butt; stroke-linejoin:round; stroke-width:4; stroke-opacity:1; fill:none" points="
  820.375,1495.09 820.375,1476.19 
  "/>
<polyline clip-path="url(#clip870)" style="stroke:#000000; stroke-linecap:butt; stroke-linejoin:round; stroke-width:4; stroke-opacity:1; fill:none" points="
  1366.22,1495.09 1366.22,1476.19 
  "/>
<polyline clip-path="url(#clip870)" style="stroke:#000000; stroke-linecap:butt; stroke-linejoin:round; stroke-width:4; stroke-opacity:1; fill:none" points="
  1912.06,1495.09 1912.06,1476.19 
  "/>
<polyline clip-path="url(#clip870)" style="stroke:#000000; stroke-linecap:butt; stroke-linejoin:round; stroke-width:4; stroke-opacity:1; fill:none" points="
  2457.9,1495.09 2457.9,1476.19 
  "/>
<polyline clip-path="url(#clip870)" style="stroke:#000000; stroke-linecap:butt; stroke-linejoin:round; stroke-width:4; stroke-opacity:1; fill:none" points="
  3003.74,1495.09 3003.74,1476.19 
  "/>
<path clip-path="url(#clip870)" d="M274.533 1532.41 Q270.922 1532.41 269.093 1535.97 Q267.288 1539.51 267.288 1546.64 Q267.288 1553.75 269.093 1557.31 Q270.922 1560.86 274.533 1560.86 Q278.167 1560.86 279.973 1557.31 Q281.801 1553.75 281.801 1546.64 Q281.801 1539.51 279.973 1535.97 Q278.167 1532.41 274.533 1532.41 M274.533 1528.7 Q280.343 1528.7 283.399 1533.31 Q286.477 1537.89 286.477 1546.64 Q286.477 1555.37 283.399 1559.98 Q280.343 1564.56 274.533 1564.56 Q268.723 1564.56 265.644 1559.98 Q262.589 1555.37 262.589 1546.64 Q262.589 1537.89 265.644 1533.31 Q268.723 1528.7 274.533 1528.7 Z" fill="#000000" fill-rule="evenodd" fill-opacity="1" /><path clip-path="url(#clip870)" d="M795.074 1529.33 L813.43 1529.33 L813.43 1533.26 L799.356 1533.26 L799.356 1541.74 Q800.375 1541.39 801.393 1541.23 Q802.412 1541.04 803.43 1541.04 Q809.217 1541.04 812.597 1544.21 Q815.976 1547.38 815.976 1552.8 Q815.976 1558.38 812.504 1561.48 Q809.032 1564.56 802.713 1564.56 Q800.537 1564.56 798.268 1564.19 Q796.023 1563.82 793.615 1563.08 L793.615 1558.38 Q795.699 1559.51 797.921 1560.07 Q800.143 1560.62 802.62 1560.62 Q806.625 1560.62 808.963 1558.52 Q811.301 1556.41 811.301 1552.8 Q811.301 1549.19 808.963 1547.08 Q806.625 1544.98 802.62 1544.98 Q800.745 1544.98 798.87 1545.39 Q797.018 1545.81 795.074 1546.69 L795.074 1529.33 Z" fill="#000000" fill-rule="evenodd" fill-opacity="1" /><path clip-path="url(#clip870)" d="M835.189 1532.41 Q831.578 1532.41 829.75 1535.97 Q827.944 1539.51 827.944 1546.64 Q827.944 1553.75 829.75 1557.31 Q831.578 1560.86 835.189 1560.86 Q838.824 1560.86 840.629 1557.31 Q842.458 1553.75 842.458 1546.64 Q842.458 1539.51 840.629 1535.97 Q838.824 1532.41 835.189 1532.41 M835.189 1528.7 Q840.999 1528.7 844.055 1533.31 Q847.134 1537.89 847.134 1546.64 Q847.134 1555.37 844.055 1559.98 Q840.999 1564.56 835.189 1564.56 Q829.379 1564.56 826.3 1559.98 Q823.245 1555.37 823.245 1546.64 Q823.245 1537.89 826.3 1533.31 Q829.379 1528.7 835.189 1528.7 Z" fill="#000000" fill-rule="evenodd" fill-opacity="1" /><path clip-path="url(#clip870)" d="M1325.82 1559.95 L1333.46 1559.95 L1333.46 1533.59 L1325.15 1535.25 L1325.15 1530.99 L1333.42 1529.33 L1338.09 1529.33 L1338.09 1559.95 L1345.73 1559.95 L1345.73 1563.89 L1325.82 1563.89 L1325.82 1559.95 Z" fill="#000000" fill-rule="evenodd" fill-opacity="1" /><path clip-path="url(#clip870)" d="M1365.17 1532.41 Q1361.56 1532.41 1359.73 1535.97 Q1357.93 1539.51 1357.93 1546.64 Q1357.93 1553.75 1359.73 1557.31 Q1361.56 1560.86 1365.17 1560.86 Q1368.81 1560.86 1370.61 1557.31 Q1372.44 1553.75 1372.44 1546.64 Q1372.44 1539.51 1370.61 1535.97 Q1368.81 1532.41 1365.17 1532.41 M1365.17 1528.7 Q1370.98 1528.7 1374.04 1533.31 Q1377.12 1537.89 1377.12 1546.64 Q1377.12 1555.37 1374.04 1559.98 Q1370.98 1564.56 1365.17 1564.56 Q1359.36 1564.56 1356.29 1559.98 Q1353.23 1555.37 1353.23 1546.64 Q1353.23 1537.89 1356.29 1533.31 Q1359.36 1528.7 1365.17 1528.7 Z" fill="#000000" fill-rule="evenodd" fill-opacity="1" /><path clip-path="url(#clip870)" d="M1395.34 1532.41 Q1391.73 1532.41 1389.9 1535.97 Q1388.09 1539.51 1388.09 1546.64 Q1388.09 1553.75 1389.9 1557.31 Q1391.73 1560.86 1395.34 1560.86 Q1398.97 1560.86 1400.78 1557.31 Q1402.6 1553.75 1402.6 1546.64 Q1402.6 1539.51 1400.78 1535.97 Q1398.97 1532.41 1395.34 1532.41 M1395.34 1528.7 Q1401.15 1528.7 1404.2 1533.31 Q1407.28 1537.89 1407.28 1546.64 Q1407.28 1555.37 1404.2 1559.98 Q1401.15 1564.56 1395.34 1564.56 Q1389.53 1564.56 1386.45 1559.98 Q1383.39 1555.37 1383.39 1546.64 Q1383.39 1537.89 1386.45 1533.31 Q1389.53 1528.7 1395.34 1528.7 Z" fill="#000000" fill-rule="evenodd" fill-opacity="1" /><path clip-path="url(#clip870)" d="M1871.66 1559.95 L1879.3 1559.95 L1879.3 1533.59 L1870.99 1535.25 L1870.99 1530.99 L1879.26 1529.33 L1883.93 1529.33 L1883.93 1559.95 L1891.57 1559.95 L1891.57 1563.89 L1871.66 1563.89 L1871.66 1559.95 Z" fill="#000000" fill-rule="evenodd" fill-opacity="1" /><path clip-path="url(#clip870)" d="M1901.06 1529.33 L1919.42 1529.33 L1919.42 1533.26 L1905.34 1533.26 L1905.34 1541.74 Q1906.36 1541.39 1907.38 1541.23 Q1908.4 1541.04 1909.42 1541.04 Q1915.21 1541.04 1918.59 1544.21 Q1921.97 1547.38 1921.97 1552.8 Q1921.97 1558.38 1918.49 1561.48 Q1915.02 1564.56 1908.7 1564.56 Q1906.53 1564.56 1904.26 1564.19 Q1902.01 1563.82 1899.6 1563.08 L1899.6 1558.38 Q1901.69 1559.51 1903.91 1560.07 Q1906.13 1560.62 1908.61 1560.62 Q1912.61 1560.62 1914.95 1558.52 Q1917.29 1556.41 1917.29 1552.8 Q1917.29 1549.19 1914.95 1547.08 Q1912.61 1544.98 1908.61 1544.98 Q1906.73 1544.98 1904.86 1545.39 Q1903.01 1545.81 1901.06 1546.69 L1901.06 1529.33 Z" fill="#000000" fill-rule="evenodd" fill-opacity="1" /><path clip-path="url(#clip870)" d="M1941.18 1532.41 Q1937.57 1532.41 1935.74 1535.97 Q1933.93 1539.51 1933.93 1546.64 Q1933.93 1553.75 1935.74 1557.31 Q1937.57 1560.86 1941.18 1560.86 Q1944.81 1560.86 1946.62 1557.31 Q1948.45 1553.75 1948.45 1546.64 Q1948.45 1539.51 1946.62 1535.97 Q1944.81 1532.41 1941.18 1532.41 M1941.18 1528.7 Q1946.99 1528.7 1950.04 1533.31 Q1953.12 1537.89 1953.12 1546.64 Q1953.12 1555.37 1950.04 1559.98 Q1946.99 1564.56 1941.18 1564.56 Q1935.37 1564.56 1932.29 1559.98 Q1929.23 1555.37 1929.23 1546.64 Q1929.23 1537.89 1932.29 1533.31 Q1935.37 1528.7 1941.18 1528.7 Z" fill="#000000" fill-rule="evenodd" fill-opacity="1" /><path clip-path="url(#clip870)" d="M2421.59 1559.95 L2437.91 1559.95 L2437.91 1563.89 L2415.97 1563.89 L2415.97 1559.95 Q2418.63 1557.2 2423.21 1552.57 Q2427.82 1547.92 2429 1546.57 Q2431.24 1544.05 2432.12 1542.31 Q2433.03 1540.55 2433.03 1538.86 Q2433.03 1536.11 2431.08 1534.37 Q2429.16 1532.64 2426.06 1532.64 Q2423.86 1532.64 2421.41 1533.4 Q2418.98 1534.17 2416.2 1535.72 L2416.2 1530.99 Q2419.02 1529.86 2421.48 1529.28 Q2423.93 1528.7 2425.97 1528.7 Q2431.34 1528.7 2434.53 1531.39 Q2437.73 1534.07 2437.73 1538.56 Q2437.73 1540.69 2436.92 1542.61 Q2436.13 1544.51 2434.02 1547.11 Q2433.44 1547.78 2430.34 1550.99 Q2427.24 1554.19 2421.59 1559.95 Z" fill="#000000" fill-rule="evenodd" fill-opacity="1" /><path clip-path="url(#clip870)" d="M2457.73 1532.41 Q2454.11 1532.41 2452.29 1535.97 Q2450.48 1539.51 2450.48 1546.64 Q2450.48 1553.75 2452.29 1557.31 Q2454.11 1560.86 2457.73 1560.86 Q2461.36 1560.86 2463.17 1557.31 Q2464.99 1553.75 2464.99 1546.64 Q2464.99 1539.51 2463.17 1535.97 Q2461.36 1532.41 2457.73 1532.41 M2457.73 1528.7 Q2463.54 1528.7 2466.59 1533.31 Q2469.67 1537.89 2469.67 1546.64 Q2469.67 1555.37 2466.59 1559.98 Q2463.54 1564.56 2457.73 1564.56 Q2451.92 1564.56 2448.84 1559.98 Q2445.78 1555.37 2445.78 1546.64 Q2445.78 1537.89 2448.84 1533.31 Q2451.92 1528.7 2457.73 1528.7 Z" fill="#000000" fill-rule="evenodd" fill-opacity="1" /><path clip-path="url(#clip870)" d="M2487.89 1532.41 Q2484.28 1532.41 2482.45 1535.97 Q2480.64 1539.51 2480.64 1546.64 Q2480.64 1553.75 2482.45 1557.31 Q2484.28 1560.86 2487.89 1560.86 Q2491.52 1560.86 2493.33 1557.31 Q2495.16 1553.75 2495.16 1546.64 Q2495.16 1539.51 2493.33 1535.97 Q2491.52 1532.41 2487.89 1532.41 M2487.89 1528.7 Q2493.7 1528.7 2496.75 1533.31 Q2499.83 1537.89 2499.83 1546.64 Q2499.83 1555.37 2496.75 1559.98 Q2493.7 1564.56 2487.89 1564.56 Q2482.08 1564.56 2479 1559.98 Q2475.94 1555.37 2475.94 1546.64 Q2475.94 1537.89 2479 1533.31 Q2482.08 1528.7 2487.89 1528.7 Z" fill="#000000" fill-rule="evenodd" fill-opacity="1" /><path clip-path="url(#clip870)" d="M2967.43 1559.95 L2983.75 1559.95 L2983.75 1563.89 L2961.81 1563.89 L2961.81 1559.95 Q2964.47 1557.2 2969.05 1552.57 Q2973.66 1547.92 2974.84 1546.57 Q2977.09 1544.05 2977.97 1542.31 Q2978.87 1540.55 2978.87 1538.86 Q2978.87 1536.11 2976.92 1534.37 Q2975 1532.64 2971.9 1532.64 Q2969.7 1532.64 2967.25 1533.4 Q2964.82 1534.17 2962.04 1535.72 L2962.04 1530.99 Q2964.86 1529.86 2967.32 1529.28 Q2969.77 1528.7 2971.81 1528.7 Q2977.18 1528.7 2980.37 1531.39 Q2983.57 1534.07 2983.57 1538.56 Q2983.57 1540.69 2982.76 1542.61 Q2981.97 1544.51 2979.86 1547.11 Q2979.29 1547.78 2976.18 1550.99 Q2973.08 1554.19 2967.43 1559.95 Z" fill="#000000" fill-rule="evenodd" fill-opacity="1" /><path clip-path="url(#clip870)" d="M2993.61 1529.33 L3011.97 1529.33 L3011.97 1533.26 L2997.9 1533.26 L2997.9 1541.74 Q2998.91 1541.39 2999.93 1541.23 Q3000.95 1541.04 3001.97 1541.04 Q3007.76 1541.04 3011.14 1544.21 Q3014.52 1547.38 3014.52 1552.8 Q3014.52 1558.38 3011.04 1561.48 Q3007.57 1564.56 3001.25 1564.56 Q2999.08 1564.56 2996.81 1564.19 Q2994.56 1563.82 2992.16 1563.08 L2992.16 1558.38 Q2994.24 1559.51 2996.46 1560.07 Q2998.68 1560.62 3001.16 1560.62 Q3005.16 1560.62 3007.5 1558.52 Q3009.84 1556.41 3009.84 1552.8 Q3009.84 1549.19 3007.5 1547.08 Q3005.16 1544.98 3001.16 1544.98 Q2999.29 1544.98 2997.41 1545.39 Q2995.56 1545.81 2993.61 1546.69 L2993.61 1529.33 Z" fill="#000000" fill-rule="evenodd" fill-opacity="1" /><path clip-path="url(#clip870)" d="M3033.73 1532.41 Q3030.12 1532.41 3028.29 1535.97 Q3026.48 1539.51 3026.48 1546.64 Q3026.48 1553.75 3028.29 1557.31 Q3030.12 1560.86 3033.73 1560.86 Q3037.36 1560.86 3039.17 1557.31 Q3041 1553.75 3041 1546.64 Q3041 1539.51 3039.17 1535.97 Q3037.36 1532.41 3033.73 1532.41 M3033.73 1528.7 Q3039.54 1528.7 3042.6 1533.31 Q3045.67 1537.89 3045.67 1546.64 Q3045.67 1555.37 3042.6 1559.98 Q3039.54 1564.56 3033.73 1564.56 Q3027.92 1564.56 3024.84 1559.98 Q3021.79 1555.37 3021.79 1546.64 Q3021.79 1537.89 3024.84 1533.31 Q3027.92 1528.7 3033.73 1528.7 Z" fill="#000000" fill-rule="evenodd" fill-opacity="1" /><polyline clip-path="url(#clip873)" style="stroke:#000000; stroke-linecap:butt; stroke-linejoin:round; stroke-width:2; stroke-opacity:0.1; fill:none" points="
  201.936,1440.4 3152.76,1440.4 
  "/>
<polyline clip-path="url(#clip873)" style="stroke:#000000; stroke-linecap:butt; stroke-linejoin:round; stroke-width:2; stroke-opacity:0.1; fill:none" points="
  201.936,1362.48 3152.76,1362.48 
  "/>
<polyline clip-path="url(#clip873)" style="stroke:#000000; stroke-linecap:butt; stroke-linejoin:round; stroke-width:2; stroke-opacity:0.1; fill:none" points="
  201.936,1284.56 3152.76,1284.56 
  "/>
<polyline clip-path="url(#clip873)" style="stroke:#000000; stroke-linecap:butt; stroke-linejoin:round; stroke-width:2; stroke-opacity:0.1; fill:none" points="
  201.936,1206.65 3152.76,1206.65 
  "/>
<polyline clip-path="url(#clip873)" style="stroke:#000000; stroke-linecap:butt; stroke-linejoin:round; stroke-width:2; stroke-opacity:0.1; fill:none" points="
  201.936,1128.73 3152.76,1128.73 
  "/>
<polyline clip-path="url(#clip873)" style="stroke:#000000; stroke-linecap:butt; stroke-linejoin:round; stroke-width:2; stroke-opacity:0.1; fill:none" points="
  201.936,1050.81 3152.76,1050.81 
  "/>
<polyline clip-path="url(#clip873)" style="stroke:#000000; stroke-linecap:butt; stroke-linejoin:round; stroke-width:2; stroke-opacity:0.1; fill:none" points="
  201.936,972.893 3152.76,972.893 
  "/>
<polyline clip-path="url(#clip870)" style="stroke:#000000; stroke-linecap:butt; stroke-linejoin:round; stroke-width:4; stroke-opacity:1; fill:none" points="
  201.936,1495.09 201.936,908.352 
  "/>
<polyline clip-path="url(#clip870)" style="stroke:#000000; stroke-linecap:butt; stroke-linejoin:round; stroke-width:4; stroke-opacity:1; fill:none" points="
  201.936,1440.4 220.834,1440.4 
  "/>
<polyline clip-path="url(#clip870)" style="stroke:#000000; stroke-linecap:butt; stroke-linejoin:round; stroke-width:4; stroke-opacity:1; fill:none" points="
  201.936,1362.48 220.834,1362.48 
  "/>
<polyline clip-path="url(#clip870)" style="stroke:#000000; stroke-linecap:butt; stroke-linejoin:round; stroke-width:4; stroke-opacity:1; fill:none" points="
  201.936,1284.56 220.834,1284.56 
  "/>
<polyline clip-path="url(#clip870)" style="stroke:#000000; stroke-linecap:butt; stroke-linejoin:round; stroke-width:4; stroke-opacity:1; fill:none" points="
  201.936,1206.65 220.834,1206.65 
  "/>
<polyline clip-path="url(#clip870)" style="stroke:#000000; stroke-linecap:butt; stroke-linejoin:round; stroke-width:4; stroke-opacity:1; fill:none" points="
  201.936,1128.73 220.834,1128.73 
  "/>
<polyline clip-path="url(#clip870)" style="stroke:#000000; stroke-linecap:butt; stroke-linejoin:round; stroke-width:4; stroke-opacity:1; fill:none" points="
  201.936,1050.81 220.834,1050.81 
  "/>
<polyline clip-path="url(#clip870)" style="stroke:#000000; stroke-linecap:butt; stroke-linejoin:round; stroke-width:4; stroke-opacity:1; fill:none" points="
  201.936,972.893 220.834,972.893 
  "/>
<path clip-path="url(#clip870)" d="M92.0613 1440.85 L121.737 1440.85 L121.737 1444.79 L92.0613 1444.79 L92.0613 1440.85 Z" fill="#000000" fill-rule="evenodd" fill-opacity="1" /><path clip-path="url(#clip870)" d="M142.408 1438.54 Q139.26 1438.54 137.408 1440.69 Q135.58 1442.84 135.58 1446.59 Q135.58 1450.32 137.408 1452.49 Q139.26 1454.65 142.408 1454.65 Q145.556 1454.65 147.385 1452.49 Q149.237 1450.32 149.237 1446.59 Q149.237 1442.84 147.385 1440.69 Q145.556 1438.54 142.408 1438.54 M151.691 1423.88 L151.691 1428.14 Q149.931 1427.31 148.126 1426.87 Q146.343 1426.43 144.584 1426.43 Q139.955 1426.43 137.501 1429.55 Q135.07 1432.68 134.723 1439 Q136.089 1436.98 138.149 1435.92 Q140.209 1434.83 142.686 1434.83 Q147.894 1434.83 150.904 1438 Q153.936 1441.15 153.936 1446.59 Q153.936 1451.91 150.788 1455.13 Q147.64 1458.35 142.408 1458.35 Q136.413 1458.35 133.242 1453.77 Q130.07 1449.16 130.07 1440.43 Q130.07 1432.24 133.959 1427.38 Q137.848 1422.49 144.399 1422.49 Q146.158 1422.49 147.941 1422.84 Q149.746 1423.19 151.691 1423.88 Z" fill="#000000" fill-rule="evenodd" fill-opacity="1" /><path clip-path="url(#clip870)" d="M91.7373 1362.93 L121.413 1362.93 L121.413 1366.87 L91.7373 1366.87 L91.7373 1362.93 Z" fill="#000000" fill-rule="evenodd" fill-opacity="1" /><path clip-path="url(#clip870)" d="M144.353 1349.27 L132.547 1367.72 L144.353 1367.72 L144.353 1349.27 M143.126 1345.2 L149.005 1345.2 L149.005 1367.72 L153.936 1367.72 L153.936 1371.61 L149.005 1371.61 L149.005 1379.76 L144.353 1379.76 L144.353 1371.61 L128.751 1371.61 L128.751 1367.1 L143.126 1345.2 Z" fill="#000000" fill-rule="evenodd" fill-opacity="1" /><path clip-path="url(#clip870)" d="M93.8206 1285.01 L123.496 1285.01 L123.496 1288.95 L93.8206 1288.95 L93.8206 1285.01 Z" fill="#000000" fill-rule="evenodd" fill-opacity="1" /><path clip-path="url(#clip870)" d="M137.617 1297.91 L153.936 1297.91 L153.936 1301.84 L131.992 1301.84 L131.992 1297.91 Q134.654 1295.15 139.237 1290.52 Q143.843 1285.87 145.024 1284.53 Q147.269 1282.01 148.149 1280.27 Q149.052 1278.51 149.052 1276.82 Q149.052 1274.07 147.107 1272.33 Q145.186 1270.59 142.084 1270.59 Q139.885 1270.59 137.431 1271.36 Q135.001 1272.12 132.223 1273.67 L132.223 1268.95 Q135.047 1267.82 137.501 1267.24 Q139.955 1266.66 141.992 1266.66 Q147.362 1266.66 150.556 1269.34 Q153.751 1272.03 153.751 1276.52 Q153.751 1278.65 152.941 1280.57 Q152.154 1282.47 150.047 1285.06 Q149.468 1285.73 146.367 1288.95 Q143.265 1292.14 137.617 1297.91 Z" fill="#000000" fill-rule="evenodd" fill-opacity="1" /><path clip-path="url(#clip870)" d="M141.992 1192.44 Q138.381 1192.44 136.552 1196.01 Q134.746 1199.55 134.746 1206.68 Q134.746 1213.79 136.552 1217.35 Q138.381 1220.89 141.992 1220.89 Q145.626 1220.89 147.431 1217.35 Q149.26 1213.79 149.26 1206.68 Q149.26 1199.55 147.431 1196.01 Q145.626 1192.44 141.992 1192.44 M141.992 1188.74 Q147.802 1188.74 150.857 1193.35 Q153.936 1197.93 153.936 1206.68 Q153.936 1215.41 150.857 1220.01 Q147.802 1224.6 141.992 1224.6 Q136.181 1224.6 133.103 1220.01 Q130.047 1215.41 130.047 1206.68 Q130.047 1197.93 133.103 1193.35 Q136.181 1188.74 141.992 1188.74 Z" fill="#000000" fill-rule="evenodd" fill-opacity="1" /><path clip-path="url(#clip870)" d="M137.617 1142.07 L153.936 1142.07 L153.936 1146.01 L131.992 1146.01 L131.992 1142.07 Q134.654 1139.32 139.237 1134.69 Q143.843 1130.04 145.024 1128.69 Q147.269 1126.17 148.149 1124.43 Q149.052 1122.67 149.052 1120.99 Q149.052 1118.23 147.107 1116.49 Q145.186 1114.76 142.084 1114.76 Q139.885 1114.76 137.431 1115.52 Q135.001 1116.29 132.223 1117.84 L132.223 1113.11 Q135.047 1111.98 137.501 1111.4 Q139.955 1110.82 141.992 1110.82 Q147.362 1110.82 150.556 1113.51 Q153.751 1116.19 153.751 1120.68 Q153.751 1122.81 152.941 1124.73 Q152.154 1126.63 150.047 1129.23 Q149.468 1129.9 146.367 1133.11 Q143.265 1136.31 137.617 1142.07 Z" fill="#000000" fill-rule="evenodd" fill-opacity="1" /><path clip-path="url(#clip870)" d="M144.353 1037.6 L132.547 1056.05 L144.353 1056.05 L144.353 1037.6 M143.126 1033.53 L149.005 1033.53 L149.005 1056.05 L153.936 1056.05 L153.936 1059.94 L149.005 1059.94 L149.005 1068.09 L144.353 1068.09 L144.353 1059.94 L128.751 1059.94 L128.751 1055.43 L143.126 1033.53 Z" fill="#000000" fill-rule="evenodd" fill-opacity="1" /><path clip-path="url(#clip870)" d="M142.408 971.029 Q139.26 971.029 137.408 973.182 Q135.58 975.335 135.58 979.085 Q135.58 982.812 137.408 984.988 Q139.26 987.14 142.408 987.14 Q145.556 987.14 147.385 984.988 Q149.237 982.812 149.237 979.085 Q149.237 975.335 147.385 973.182 Q145.556 971.029 142.408 971.029 M151.691 956.377 L151.691 960.636 Q149.931 959.803 148.126 959.363 Q146.343 958.923 144.584 958.923 Q139.955 958.923 137.501 962.048 Q135.07 965.173 134.723 971.492 Q136.089 969.478 138.149 968.414 Q140.209 967.326 142.686 967.326 Q147.894 967.326 150.904 970.497 Q153.936 973.645 153.936 979.085 Q153.936 984.409 150.788 987.626 Q147.64 990.844 142.408 990.844 Q136.413 990.844 133.242 986.261 Q130.07 981.654 130.07 972.927 Q130.07 964.733 133.959 959.872 Q137.848 954.988 144.399 954.988 Q146.158 954.988 147.941 955.335 Q149.746 955.682 151.691 956.377 Z" fill="#000000" fill-rule="evenodd" fill-opacity="1" /><path clip-path="url(#clip870)" d="M1193.99 834.173 Q1192.74 833.444 1191.24 833.12 Q1189.78 832.756 1188 832.756 Q1181.68 832.756 1178.27 836.888 Q1174.91 840.979 1174.91 848.676 L1174.91 872.576 L1167.42 872.576 L1167.42 827.206 L1174.91 827.206 L1174.91 834.254 Q1177.26 830.123 1181.03 828.138 Q1184.8 826.112 1190.18 826.112 Q1190.95 826.112 1191.89 826.234 Q1192.82 826.315 1193.95 826.517 L1193.99 834.173 Z" fill="#000000" fill-rule="evenodd" fill-opacity="1" /><path clip-path="url(#clip870)" d="M1238.8 848.028 L1238.8 851.673 L1204.52 851.673 Q1205.01 859.37 1209.14 863.421 Q1213.31 867.431 1220.73 867.431 Q1225.02 867.431 1229.03 866.378 Q1233.08 865.325 1237.05 863.218 L1237.05 870.267 Q1233.04 871.968 1228.83 872.86 Q1224.62 873.751 1220.28 873.751 Q1209.43 873.751 1203.07 867.431 Q1196.75 861.112 1196.75 850.337 Q1196.75 839.197 1202.74 832.675 Q1208.78 826.112 1218.99 826.112 Q1228.14 826.112 1233.45 832.026 Q1238.8 837.9 1238.8 848.028 M1231.34 845.84 Q1231.26 839.723 1227.9 836.077 Q1224.58 832.432 1219.07 832.432 Q1212.83 832.432 1209.06 835.956 Q1205.33 839.48 1204.77 845.881 L1231.34 845.84 Z" fill="#000000" fill-rule="evenodd" fill-opacity="1" /><path clip-path="url(#clip870)" d="M1283.68 828.948 L1283.68 835.915 Q1280.52 834.173 1277.32 833.323 Q1274.16 832.432 1270.92 832.432 Q1263.67 832.432 1259.66 837.05 Q1255.65 841.627 1255.65 849.931 Q1255.65 858.236 1259.66 862.854 Q1263.67 867.431 1270.92 867.431 Q1274.16 867.431 1277.32 866.581 Q1280.52 865.689 1283.68 863.948 L1283.68 870.834 Q1280.56 872.292 1277.2 873.022 Q1273.88 873.751 1270.11 873.751 Q1259.86 873.751 1253.82 867.31 Q1247.79 860.869 1247.79 849.931 Q1247.79 838.832 1253.86 832.472 Q1259.98 826.112 1270.59 826.112 Q1274.04 826.112 1277.32 826.841 Q1280.6 827.53 1283.68 828.948 Z" fill="#000000" fill-rule="evenodd" fill-opacity="1" /><path clip-path="url(#clip870)" d="M1314.22 832.432 Q1308.23 832.432 1304.74 837.131 Q1301.26 841.789 1301.26 849.931 Q1301.26 858.074 1304.7 862.773 Q1308.19 867.431 1314.22 867.431 Q1320.18 867.431 1323.66 862.732 Q1327.15 858.033 1327.15 849.931 Q1327.15 841.87 1323.66 837.171 Q1320.18 832.432 1314.22 832.432 M1314.22 826.112 Q1323.95 826.112 1329.49 832.432 Q1335.04 838.751 1335.04 849.931 Q1335.04 861.071 1329.49 867.431 Q1323.95 873.751 1314.22 873.751 Q1304.46 873.751 1298.91 867.431 Q1293.4 861.071 1293.4 849.931 Q1293.4 838.751 1298.91 832.432 Q1304.46 826.112 1314.22 826.112 Z" fill="#000000" fill-rule="evenodd" fill-opacity="1" /><path clip-path="url(#clip870)" d="M1385.11 845.192 L1385.11 872.576 L1377.66 872.576 L1377.66 845.435 Q1377.66 838.994 1375.15 835.794 Q1372.64 832.594 1367.61 832.594 Q1361.58 832.594 1358.09 836.442 Q1354.61 840.29 1354.61 846.934 L1354.61 872.576 L1347.12 872.576 L1347.12 827.206 L1354.61 827.206 L1354.61 834.254 Q1357.28 830.163 1360.89 828.138 Q1364.54 826.112 1369.27 826.112 Q1377.09 826.112 1381.1 830.973 Q1385.11 835.794 1385.11 845.192 Z" fill="#000000" fill-rule="evenodd" fill-opacity="1" /><path clip-path="url(#clip870)" d="M1428.9 828.543 L1428.9 835.591 Q1425.74 833.971 1422.34 833.161 Q1418.94 832.351 1415.29 832.351 Q1409.74 832.351 1406.95 834.052 Q1404.19 835.753 1404.19 839.156 Q1404.19 841.749 1406.18 843.247 Q1408.16 844.706 1414.16 846.043 L1416.71 846.61 Q1424.65 848.311 1427.97 851.43 Q1431.33 854.509 1431.33 860.059 Q1431.33 866.378 1426.31 870.064 Q1421.33 873.751 1412.58 873.751 Q1408.93 873.751 1404.96 873.022 Q1401.03 872.333 1396.66 870.915 L1396.66 863.218 Q1400.79 865.365 1404.8 866.459 Q1408.81 867.512 1412.74 867.512 Q1418.01 867.512 1420.84 865.73 Q1423.68 863.907 1423.68 860.626 Q1423.68 857.588 1421.61 855.967 Q1419.59 854.347 1412.66 852.848 L1410.07 852.24 Q1403.14 850.782 1400.06 847.784 Q1396.98 844.746 1396.98 839.48 Q1396.98 833.08 1401.52 829.596 Q1406.06 826.112 1414.4 826.112 Q1418.53 826.112 1422.18 826.72 Q1425.83 827.327 1428.9 828.543 Z" fill="#000000" fill-rule="evenodd" fill-opacity="1" /><path clip-path="url(#clip870)" d="M1450.58 814.324 L1450.58 827.206 L1465.93 827.206 L1465.93 832.999 L1450.58 832.999 L1450.58 857.628 Q1450.58 863.178 1452.08 864.758 Q1453.61 866.338 1458.27 866.338 L1465.93 866.338 L1465.93 872.576 L1458.27 872.576 Q1449.64 872.576 1446.36 869.376 Q1443.08 866.135 1443.08 857.628 L1443.08 832.999 L1437.61 832.999 L1437.61 827.206 L1443.08 827.206 L1443.08 814.324 L1450.58 814.324 Z" fill="#000000" fill-rule="evenodd" fill-opacity="1" /><path clip-path="url(#clip870)" d="M1502.02 834.173 Q1500.77 833.444 1499.27 833.12 Q1497.81 832.756 1496.03 832.756 Q1489.71 832.756 1486.31 836.888 Q1482.94 840.979 1482.94 848.676 L1482.94 872.576 L1475.45 872.576 L1475.45 827.206 L1482.94 827.206 L1482.94 834.254 Q1485.29 830.123 1489.06 828.138 Q1492.83 826.112 1498.21 826.112 Q1498.98 826.112 1499.92 826.234 Q1500.85 826.315 1501.98 826.517 L1502.02 834.173 Z" fill="#000000" fill-rule="evenodd" fill-opacity="1" /><path clip-path="url(#clip870)" d="M1509.07 854.671 L1509.07 827.206 L1516.53 827.206 L1516.53 854.387 Q1516.53 860.828 1519.04 864.069 Q1521.55 867.269 1526.57 867.269 Q1532.61 867.269 1536.09 863.421 Q1539.62 859.573 1539.62 852.929 L1539.62 827.206 L1547.07 827.206 L1547.07 872.576 L1539.62 872.576 L1539.62 865.608 Q1536.9 869.74 1533.3 871.766 Q1529.73 873.751 1524.99 873.751 Q1517.17 873.751 1513.12 868.89 Q1509.07 864.029 1509.07 854.671 M1527.83 826.112 L1527.83 826.112 Z" fill="#000000" fill-rule="evenodd" fill-opacity="1" /><path clip-path="url(#clip870)" d="M1595.07 828.948 L1595.07 835.915 Q1591.91 834.173 1588.71 833.323 Q1585.55 832.432 1582.31 832.432 Q1575.06 832.432 1571.05 837.05 Q1567.04 841.627 1567.04 849.931 Q1567.04 858.236 1571.05 862.854 Q1575.06 867.431 1582.31 867.431 Q1585.55 867.431 1588.71 866.581 Q1591.91 865.689 1595.07 863.948 L1595.07 870.834 Q1591.95 872.292 1588.59 873.022 Q1585.27 873.751 1581.5 873.751 Q1571.25 873.751 1565.22 867.31 Q1559.18 860.869 1559.18 849.931 Q1559.18 838.832 1565.26 832.472 Q1571.37 826.112 1581.99 826.112 Q1585.43 826.112 1588.71 826.841 Q1591.99 827.53 1595.07 828.948 Z" fill="#000000" fill-rule="evenodd" fill-opacity="1" /><path clip-path="url(#clip870)" d="M1615.41 814.324 L1615.41 827.206 L1630.76 827.206 L1630.76 832.999 L1615.41 832.999 L1615.41 857.628 Q1615.41 863.178 1616.91 864.758 Q1618.45 866.338 1623.1 866.338 L1630.76 866.338 L1630.76 872.576 L1623.1 872.576 Q1614.48 872.576 1611.19 869.376 Q1607.91 866.135 1607.91 857.628 L1607.91 832.999 L1602.44 832.999 L1602.44 827.206 L1607.91 827.206 L1607.91 814.324 L1615.41 814.324 Z" fill="#000000" fill-rule="evenodd" fill-opacity="1" /><path clip-path="url(#clip870)" d="M1687.55 849.769 Q1678.52 849.769 1675.04 851.835 Q1671.55 853.901 1671.55 858.884 Q1671.55 862.854 1674.15 865.203 Q1676.78 867.512 1681.28 867.512 Q1687.47 867.512 1691.2 863.137 Q1694.97 858.722 1694.97 851.43 L1694.97 849.769 L1687.55 849.769 M1702.42 846.691 L1702.42 872.576 L1694.97 872.576 L1694.97 865.689 Q1692.42 869.821 1688.61 871.806 Q1684.8 873.751 1679.29 873.751 Q1672.32 873.751 1668.19 869.862 Q1664.1 865.933 1664.1 859.37 Q1664.1 851.714 1669.2 847.825 Q1674.35 843.936 1684.52 843.936 L1694.97 843.936 L1694.97 843.207 Q1694.97 838.062 1691.56 835.267 Q1688.2 832.432 1682.09 832.432 Q1678.2 832.432 1674.51 833.363 Q1670.82 834.295 1667.42 836.158 L1667.42 829.272 Q1671.51 827.692 1675.36 826.922 Q1679.21 826.112 1682.86 826.112 Q1692.7 826.112 1697.56 831.216 Q1702.42 836.32 1702.42 846.691 Z" fill="#000000" fill-rule="evenodd" fill-opacity="1" /><path clip-path="url(#clip870)" d="M1755.49 845.192 L1755.49 872.576 L1748.03 872.576 L1748.03 845.435 Q1748.03 838.994 1745.52 835.794 Q1743.01 832.594 1737.99 832.594 Q1731.95 832.594 1728.47 836.442 Q1724.98 840.29 1724.98 846.934 L1724.98 872.576 L1717.49 872.576 L1717.49 827.206 L1724.98 827.206 L1724.98 834.254 Q1727.66 830.163 1731.26 828.138 Q1734.91 826.112 1739.65 826.112 Q1747.47 826.112 1751.48 830.973 Q1755.49 835.794 1755.49 845.192 Z" fill="#000000" fill-rule="evenodd" fill-opacity="1" /><path clip-path="url(#clip870)" d="M1800.21 834.092 L1800.21 809.544 L1807.66 809.544 L1807.66 872.576 L1800.21 872.576 L1800.21 865.77 Q1797.86 869.821 1794.26 871.806 Q1790.69 873.751 1785.67 873.751 Q1777.44 873.751 1772.26 867.188 Q1767.11 860.626 1767.11 849.931 Q1767.11 839.237 1772.26 832.675 Q1777.44 826.112 1785.67 826.112 Q1790.69 826.112 1794.26 828.097 Q1797.86 830.042 1800.21 834.092 M1774.81 849.931 Q1774.81 858.155 1778.17 862.854 Q1781.58 867.512 1787.49 867.512 Q1793.4 867.512 1796.81 862.854 Q1800.21 858.155 1800.21 849.931 Q1800.21 841.708 1796.81 837.05 Q1793.4 832.351 1787.49 832.351 Q1781.58 832.351 1778.17 837.05 Q1774.81 841.708 1774.81 849.931 Z" fill="#000000" fill-rule="evenodd" fill-opacity="1" /><path clip-path="url(#clip870)" d="M1875.68 834.173 Q1874.42 833.444 1872.92 833.12 Q1871.47 832.756 1869.68 832.756 Q1863.36 832.756 1859.96 836.888 Q1856.6 840.979 1856.6 848.676 L1856.6 872.576 L1849.1 872.576 L1849.1 827.206 L1856.6 827.206 L1856.6 834.254 Q1858.95 830.123 1862.72 828.138 Q1866.48 826.112 1871.87 826.112 Q1872.64 826.112 1873.57 826.234 Q1874.5 826.315 1875.64 826.517 L1875.68 834.173 Z" fill="#000000" fill-rule="evenodd" fill-opacity="1" /><path clip-path="url(#clip870)" d="M1920.48 848.028 L1920.48 851.673 L1886.21 851.673 Q1886.7 859.37 1890.83 863.421 Q1895 867.431 1902.41 867.431 Q1906.71 867.431 1910.72 866.378 Q1914.77 865.325 1918.74 863.218 L1918.74 870.267 Q1914.73 871.968 1910.52 872.86 Q1906.3 873.751 1901.97 873.751 Q1891.11 873.751 1884.75 867.431 Q1878.43 861.112 1878.43 850.337 Q1878.43 839.197 1884.43 832.675 Q1890.46 826.112 1900.67 826.112 Q1909.83 826.112 1915.13 832.026 Q1920.48 837.9 1920.48 848.028 M1913.03 845.84 Q1912.95 839.723 1909.58 836.077 Q1906.26 832.432 1900.75 832.432 Q1894.51 832.432 1890.75 835.956 Q1887.02 839.48 1886.45 845.881 L1913.03 845.84 Z" fill="#000000" fill-rule="evenodd" fill-opacity="1" /><path clip-path="url(#clip870)" d="M1962.57 834.092 L1962.57 809.544 L1970.02 809.544 L1970.02 872.576 L1962.57 872.576 L1962.57 865.77 Q1960.22 869.821 1956.62 871.806 Q1953.05 873.751 1948.03 873.751 Q1939.8 873.751 1934.62 867.188 Q1929.47 860.626 1929.47 849.931 Q1929.47 839.237 1934.62 832.675 Q1939.8 826.112 1948.03 826.112 Q1953.05 826.112 1956.62 828.097 Q1960.22 830.042 1962.57 834.092 M1937.17 849.931 Q1937.17 858.155 1940.53 862.854 Q1943.94 867.512 1949.85 867.512 Q1955.76 867.512 1959.17 862.854 Q1962.57 858.155 1962.57 849.931 Q1962.57 841.708 1959.17 837.05 Q1955.76 832.351 1949.85 832.351 Q1943.94 832.351 1940.53 837.05 Q1937.17 841.708 1937.17 849.931 Z" fill="#000000" fill-rule="evenodd" fill-opacity="1" /><path clip-path="url(#clip870)" d="M2006 849.769 Q1996.96 849.769 1993.48 851.835 Q1989.99 853.901 1989.99 858.884 Q1989.99 862.854 1992.59 865.203 Q1995.22 867.512 1999.72 867.512 Q2005.91 867.512 2009.64 863.137 Q2013.41 858.722 2013.41 851.43 L2013.41 849.769 L2006 849.769 M2020.86 846.691 L2020.86 872.576 L2013.41 872.576 L2013.41 865.689 Q2010.86 869.821 2007.05 871.806 Q2003.24 873.751 1997.73 873.751 Q1990.76 873.751 1986.63 869.862 Q1982.54 865.933 1982.54 859.37 Q1982.54 851.714 1987.65 847.825 Q1992.79 843.936 2002.96 843.936 L2013.41 843.936 L2013.41 843.207 Q2013.41 838.062 2010.01 835.267 Q2006.64 832.432 2000.53 832.432 Q1996.64 832.432 1992.95 833.363 Q1989.27 834.295 1985.86 836.158 L1985.86 829.272 Q1989.95 827.692 1993.8 826.922 Q1997.65 826.112 2001.3 826.112 Q2011.14 826.112 2016 831.216 Q2020.86 836.32 2020.86 846.691 Z" fill="#000000" fill-rule="evenodd" fill-opacity="1" /><path clip-path="url(#clip870)" d="M2043.59 814.324 L2043.59 827.206 L2058.94 827.206 L2058.94 832.999 L2043.59 832.999 L2043.59 857.628 Q2043.59 863.178 2045.09 864.758 Q2046.63 866.338 2051.28 866.338 L2058.94 866.338 L2058.94 872.576 L2051.28 872.576 Q2042.66 872.576 2039.38 869.376 Q2036.09 866.135 2036.09 857.628 L2036.09 832.999 L2030.63 832.999 L2030.63 827.206 L2036.09 827.206 L2036.09 814.324 L2043.59 814.324 Z" fill="#000000" fill-rule="evenodd" fill-opacity="1" /><path clip-path="url(#clip870)" d="M2067.97 854.671 L2067.97 827.206 L2075.43 827.206 L2075.43 854.387 Q2075.43 860.828 2077.94 864.069 Q2080.45 867.269 2085.47 867.269 Q2091.51 867.269 2094.99 863.421 Q2098.52 859.573 2098.52 852.929 L2098.52 827.206 L2105.97 827.206 L2105.97 872.576 L2098.52 872.576 L2098.52 865.608 Q2095.8 869.74 2092.2 871.766 Q2088.63 873.751 2083.89 873.751 Q2076.08 873.751 2072.03 868.89 Q2067.97 864.029 2067.97 854.671 M2086.73 826.112 L2086.73 826.112 Z" fill="#000000" fill-rule="evenodd" fill-opacity="1" /><path clip-path="url(#clip870)" d="M2156.65 835.915 Q2159.44 830.892 2163.33 828.502 Q2167.22 826.112 2172.49 826.112 Q2179.58 826.112 2183.43 831.095 Q2187.27 836.037 2187.27 845.192 L2187.27 872.576 L2179.78 872.576 L2179.78 845.435 Q2179.78 838.913 2177.47 835.753 Q2175.16 832.594 2170.42 832.594 Q2164.63 832.594 2161.27 836.442 Q2157.9 840.29 2157.9 846.934 L2157.9 872.576 L2150.41 872.576 L2150.41 845.435 Q2150.41 838.872 2148.1 835.753 Q2145.79 832.594 2140.97 832.594 Q2135.26 832.594 2131.9 836.482 Q2128.54 840.331 2128.54 846.934 L2128.54 872.576 L2121.04 872.576 L2121.04 827.206 L2128.54 827.206 L2128.54 834.254 Q2131.09 830.082 2134.65 828.097 Q2138.22 826.112 2143.12 826.112 Q2148.06 826.112 2151.5 828.624 Q2154.99 831.135 2156.65 835.915 Z" fill="#000000" fill-rule="evenodd" fill-opacity="1" /><polyline clip-path="url(#clip873)" style="stroke:#ff0000; stroke-linecap:butt; stroke-linejoin:round; stroke-width:8; stroke-opacity:1; fill:none" points="
  285.45,1206.65 296.367,1206.65 307.283,1206.65 318.2,1206.65 329.117,1206.65 340.034,1206.65 350.951,1206.65 361.868,1206.65 372.784,1206.65 383.701,1206.65 
  394.618,1206.65 405.535,1206.65 416.452,1206.65 427.369,1206.65 438.285,1206.65 449.202,1206.65 460.119,1206.65 471.036,1206.65 481.953,1206.65 492.87,1206.65 
  503.786,1206.65 514.703,1206.65 525.62,1206.65 536.537,1206.65 547.454,1206.65 558.371,1206.65 569.287,1206.65 580.204,1206.65 591.121,1206.65 602.038,1206.65 
  612.955,1206.65 623.872,1206.65 634.788,1206.65 645.705,1206.65 656.622,1206.65 667.539,1206.65 678.456,1206.65 689.373,1206.65 700.289,1206.65 711.206,1206.65 
  722.123,1206.65 733.04,1206.65 743.957,1206.65 754.874,1206.65 765.79,1206.65 776.707,1206.65 787.624,1206.65 798.541,1206.65 809.458,1206.65 820.375,1206.65 
  831.291,1206.65 842.208,1206.65 853.125,1206.65 864.042,1206.65 874.959,1206.65 885.876,1206.65 896.792,1206.65 907.709,1206.65 918.626,1206.65 929.543,1206.65 
  940.46,1206.65 951.377,1206.65 962.293,1206.65 973.21,1206.65 984.127,1206.65 995.044,1206.65 1005.96,1206.65 1016.88,1206.65 1027.79,1206.65 1038.71,1206.65 
  1049.63,1206.65 1060.54,1206.65 1071.46,1206.65 1082.38,1206.65 1093.3,1206.65 1104.21,1206.65 1115.13,1206.65 1126.05,1206.65 1136.96,1206.65 1147.88,1206.65 
  1158.8,1206.65 1169.71,1206.65 1180.63,1206.65 1191.55,1206.65 1202.46,1206.65 1213.38,1206.65 1224.3,1206.65 1235.21,1206.65 1246.13,1206.65 1257.05,1206.65 
  1267.96,1206.65 1278.88,1206.65 1289.8,1206.65 1300.72,1206.65 1311.63,1206.65 1322.55,1206.65 1333.47,1206.65 1344.38,1206.65 1355.3,1206.65 1366.22,1206.65 
  1377.13,1206.65 1388.05,1206.65 1398.97,1206.65 1409.88,1206.65 1420.8,1206.65 1431.72,1161.16 1442.63,1297.76 1453.55,1253.75 1464.47,1275.72 1475.38,1200.85 
  1486.3,1068.13 1497.22,1259.67 1508.14,1347.77 1519.05,1120.54 1529.97,1081.11 1540.89,1206.65 1551.8,1206.65 1562.72,1206.65 1573.64,1206.65 1584.55,1206.65 
  1595.47,1206.65 1606.39,1206.65 1617.3,1206.65 1628.22,1206.65 1639.14,1206.65 1650.05,1119.02 1660.97,1382.16 1671.89,1297.38 1682.8,1339.71 1693.72,1195.48 
  1704.64,939.831 1715.55,1308.79 1726.47,1478.48 1737.39,1040.79 1748.31,964.832 1759.22,1206.65 1770.14,1206.65 1781.06,1206.65 1791.97,1206.65 1802.89,1206.65 
  1813.81,1206.65 1824.72,1206.65 1835.64,1206.65 1846.56,1206.65 1857.47,1206.65 1868.39,1206.65 1879.31,1206.65 1890.22,1206.65 1901.14,1206.65 1912.06,1206.65 
  1922.97,1206.65 1933.89,1206.65 1944.81,1206.65 1955.73,1206.65 1966.64,1206.65 1977.56,1206.65 1988.48,1206.65 1999.39,1206.65 2010.31,1206.65 2021.23,1206.65 
  2032.14,1206.65 2043.06,1206.65 2053.98,1206.65 2064.89,1206.65 2075.81,1206.65 2086.73,1206.65 2097.64,1206.65 2108.56,1206.65 2119.48,1206.65 2130.39,1206.65 
  2141.31,1206.65 2152.23,1206.65 2163.15,1206.65 2174.06,1206.65 2184.98,1206.65 2195.9,1206.65 2206.81,1206.65 2217.73,1206.65 2228.65,1206.65 2239.56,1206.65 
  2250.48,1206.65 2261.4,1206.65 2272.31,1206.65 2283.23,1206.65 2294.15,1206.65 2305.06,1206.65 2315.98,1206.65 2326.9,1206.65 2337.81,1206.65 2348.73,1206.65 
  2359.65,1206.65 2370.56,1206.65 2381.48,1206.65 2392.4,1206.65 2403.32,1206.65 2414.23,1206.65 2425.15,1206.65 2436.07,1206.65 2446.98,1206.65 2457.9,1206.65 
  2468.82,1206.65 2479.73,1206.65 2490.65,1206.65 2501.57,1206.65 2512.48,1206.65 2523.4,1206.65 2534.32,1206.65 2545.23,1206.65 2556.15,1206.65 2567.07,1206.65 
  2577.98,1206.65 2588.9,1206.65 2599.82,1206.65 2610.74,1206.65 2621.65,1206.65 2632.57,1206.65 2643.49,1206.65 2654.4,1206.65 2665.32,1206.65 2676.24,1206.65 
  2687.15,1206.65 2698.07,1206.65 2708.99,1206.65 2719.9,1206.65 2730.82,1206.65 2741.74,1206.65 2752.65,1206.65 2763.57,1206.65 2774.49,1206.65 2785.4,1206.65 
  2796.32,1206.65 2807.24,1206.65 2818.15,1206.65 2829.07,1206.65 2839.99,1206.65 2850.91,1206.65 2861.82,1206.65 2872.74,1206.65 2883.66,1206.65 2894.57,1206.65 
  2905.49,1206.65 2916.41,1206.65 2927.32,1206.65 2938.24,1206.65 2949.16,1206.65 2960.07,1206.65 2970.99,1206.65 2981.91,1206.65 2992.82,1206.65 3003.74,1206.65 
  3014.66,1206.65 3025.57,1206.65 3036.49,1206.65 3047.41,1206.65 3058.33,1206.65 3069.24,1206.65 
  "/>
<polyline clip-path="url(#clip873)" style="stroke:#add8e6; stroke-linecap:butt; stroke-linejoin:round; stroke-width:8; stroke-opacity:1; fill:none" points="
  285.45,1206.74 296.367,1206.82 307.283,1206.39 318.2,1205.96 329.117,1206.39 340.034,1206.96 350.951,1206.91 361.868,1206.76 372.784,1206.68 383.701,1206.49 
  394.618,1206.47 405.535,1206.72 416.452,1206.52 427.369,1206.59 438.285,1206.58 449.202,1206.77 460.119,1207.03 471.036,1206.77 481.953,1206.44 492.87,1206.65 
  503.786,1206.79 514.703,1206.77 525.62,1206.73 536.537,1206.49 547.454,1206.42 558.371,1206.51 569.287,1206.72 580.204,1206.61 591.121,1206.57 602.038,1206.61 
  612.955,1206.64 623.872,1206.69 634.788,1206.73 645.705,1206.68 656.622,1206.57 667.539,1206.73 678.456,1206.66 689.373,1206.59 700.289,1206.73 711.206,1206.57 
  722.123,1206.51 733.04,1206.66 743.957,1206.74 754.874,1206.64 765.79,1206.63 776.707,1206.63 787.624,1206.62 798.541,1206.68 809.458,1206.67 820.375,1206.68 
  831.291,1206.58 842.208,1206.66 853.125,1206.72 864.042,1206.65 874.959,1206.55 885.876,1206.67 896.792,1206.7 907.709,1206.69 918.626,1206.61 929.543,1206.66 
  940.46,1206.69 951.377,1206.67 962.293,1206.66 973.21,1206.64 984.127,1206.65 995.044,1206.66 1005.96,1206.69 1016.88,1206.66 1027.79,1206.66 1038.71,1206.63 
  1049.63,1206.66 1060.54,1206.63 1071.46,1206.6 1082.38,1206.69 1093.3,1206.65 1104.21,1206.71 1115.13,1206.64 1126.05,1206.58 1136.96,1206.74 1147.88,1206.59 
  1158.8,1206.41 1169.71,1206.97 1180.63,1206.98 1191.55,1206.84 1202.46,1206.77 1213.38,1206.76 1224.3,1206.41 1235.21,1206.44 1246.13,1206.34 1257.05,1206.34 
  1267.96,1206.8 1278.88,1206.17 1289.8,1206.16 1300.72,1207.36 1311.63,1207.57 1322.55,1205.63 1333.47,1206.13 1344.38,1207.22 1355.3,1206.04 1366.22,1212.07 
  1377.13,1263.88 1388.05,1103.72 1398.97,1173.85 1409.88,1173.33 1420.8,1208.53 1431.72,1321.35 1442.63,1134.26 1453.55,1050.01 1464.47,1308.73 1475.38,1329.03 
  1486.3,1164.48 1497.22,1184.91 1508.14,1218.16 1519.05,1205.87 1529.97,1204.04 1540.89,1205.98 1551.8,1208.01 1562.72,1205.81 1573.64,1206.16 1584.55,1205.89 
  1595.47,1207.85 1606.39,1207.44 1617.3,1206.89 1628.22,1301.04 1639.14,1072.23 1650.05,1115.1 1660.97,1095.65 1671.89,1247.23 1682.8,1476.48 1693.72,1093.22 
  1704.64,924.958 1715.55,1378.94 1726.47,1446.25 1737.39,1195.99 1748.31,1198.34 1759.22,1201.54 1770.14,1200.56 1781.06,1203.17 1791.97,1208.64 1802.89,1207.04 
  1813.81,1204.64 1824.72,1207.24 1835.64,1205.72 1846.56,1205.63 1857.47,1206.47 1868.39,1206.08 1879.31,1205.38 1890.22,1207.44 1901.14,1206.43 1912.06,1207.79 
  1922.97,1207.13 1933.89,1206.3 1944.81,1207.1 1955.73,1207.23 1966.64,1207.65 1977.56,1206.2 1988.48,1205.83 1999.39,1205.6 2010.31,1206.6 2021.23,1206.33 
  2032.14,1205.97 2043.06,1206.59 2053.98,1206.4 2064.89,1206.76 2075.81,1207.07 2086.73,1206.69 2097.64,1206.32 2108.56,1206.69 2119.48,1206.89 2130.39,1206.89 
  2141.31,1206.34 2152.23,1206.53 2163.15,1206.69 2174.06,1206.56 2184.98,1206.64 2195.9,1206.49 2206.81,1206.41 2217.73,1206.52 2228.65,1206.74 2239.56,1206.68 
  2250.48,1206.79 2261.4,1206.68 2272.31,1206.59 2283.23,1206.86 2294.15,1206.72 2305.06,1206.7 2315.98,1206.54 2326.9,1206.63 2337.81,1206.69 2348.73,1206.62 
  2359.65,1206.68 2370.56,1206.62 2381.48,1206.61 2392.4,1206.66 2403.32,1206.67 2414.23,1206.66 2425.15,1206.73 2436.07,1206.64 2446.98,1206.57 2457.9,1206.72 
  2468.82,1206.7 2479.73,1206.67 2490.65,1206.61 2501.57,1206.68 2512.48,1206.66 2523.4,1206.68 2534.32,1206.69 2545.23,1206.63 2556.15,1206.64 2567.07,1206.66 
  2577.98,1206.74 2588.9,1206.62 2599.82,1206.62 2610.74,1206.65 2621.65,1206.71 2632.57,1206.65 2643.49,1206.63 2654.4,1206.66 2665.32,1206.68 2676.24,1206.66 
  2687.15,1206.65 2698.07,1206.67 2708.99,1206.64 2719.9,1206.66 2730.82,1206.7 2741.74,1206.67 2752.65,1206.6 2763.57,1206.66 2774.49,1206.71 2785.4,1206.65 
  2796.32,1206.64 2807.24,1206.67 2818.15,1206.67 2829.07,1206.62 2839.99,1206.64 2850.91,1206.68 2861.82,1206.68 2872.74,1206.56 2883.66,1206.66 2894.57,1206.62 
  2905.49,1206.48 2916.41,1206.8 2927.32,1206.68 2938.24,1206.83 2949.16,1206.63 2960.07,1206.58 2970.99,1206.6 2981.91,1206.57 2992.82,1206.54 3003.74,1206.9 
  3014.66,1206.86 3025.57,1206.72 3036.49,1206.3 3047.41,1206.8 3058.33,1207.23 3069.24,1206.94 
  "/>
<path clip-path="url(#clip870)" d="
M2579.49 1083.43 L3054.4 1083.43 L3054.4 927.91 L2579.49 927.91  Z
  " fill="#ffffff" fill-rule="evenodd" fill-opacity="1"/>
<polyline clip-path="url(#clip870)" style="stroke:#000000; stroke-linecap:butt; stroke-linejoin:round; stroke-width:4; stroke-opacity:1; fill:none" points="
  2579.49,1083.43 3054.4,1083.43 3054.4,927.91 2579.49,927.91 2579.49,1083.43 
  "/>
<polyline clip-path="url(#clip870)" style="stroke:#ff0000; stroke-linecap:butt; stroke-linejoin:round; stroke-width:4; stroke-opacity:1; fill:none" points="
  2612.28,979.75 2809,979.75 
  "/>
<path clip-path="url(#clip870)" d="M2866.44 971.104 L2857.06 983.72 L2866.92 997.03 L2861.9 997.03 L2854.35 986.845 L2846.81 997.03 L2841.79 997.03 L2851.85 983.465 L2842.64 971.104 L2847.66 971.104 L2854.54 980.34 L2861.41 971.104 L2866.44 971.104 Z" fill="#000000" fill-rule="evenodd" fill-opacity="1" /><path clip-path="url(#clip870)" d="M2892.64 1004.9 L2892.64 1008.21 L2868.01 1008.21 L2868.01 1004.9 L2892.64 1004.9 Z" fill="#000000" fill-rule="evenodd" fill-opacity="1" /><path clip-path="url(#clip870)" d="M2896.65 971.104 L2900.91 971.104 L2900.91 997.03 L2896.65 997.03 L2896.65 971.104 M2896.65 961.012 L2900.91 961.012 L2900.91 966.405 L2896.65 966.405 L2896.65 961.012 Z" fill="#000000" fill-rule="evenodd" fill-opacity="1" /><path clip-path="url(#clip870)" d="M2909.82 971.104 L2914.08 971.104 L2914.08 997.493 Q2914.08 1002.45 2912.18 1004.67 Q2910.3 1006.89 2906.11 1006.89 L2904.49 1006.89 L2904.49 1003.28 L2905.63 1003.28 Q2908.06 1003.28 2908.94 1002.15 Q2909.82 1001.03 2909.82 997.493 L2909.82 971.104 M2909.82 961.012 L2914.08 961.012 L2914.08 966.405 L2909.82 966.405 L2909.82 961.012 Z" fill="#000000" fill-rule="evenodd" fill-opacity="1" /><polyline clip-path="url(#clip870)" style="stroke:#add8e6; stroke-linecap:butt; stroke-linejoin:round; stroke-width:4; stroke-opacity:1; fill:none" points="
  2612.28,1031.59 2809,1031.59 
  "/>
<path clip-path="url(#clip870)" d="M2863.5 1033.22 L2863.5 1048.87 L2859.24 1048.87 L2859.24 1033.36 Q2859.24 1029.68 2857.8 1027.85 Q2856.37 1026.02 2853.5 1026.02 Q2850.05 1026.02 2848.06 1028.22 Q2846.07 1030.42 2846.07 1034.22 L2846.07 1048.87 L2841.79 1048.87 L2841.79 1012.85 L2846.07 1012.85 L2846.07 1026.97 Q2847.6 1024.63 2849.66 1023.48 Q2851.74 1022.32 2854.45 1022.32 Q2858.91 1022.32 2861.21 1025.1 Q2863.5 1027.85 2863.5 1033.22 Z" fill="#000000" fill-rule="evenodd" fill-opacity="1" /><path clip-path="url(#clip870)" d="M2883.78 1035.84 Q2878.61 1035.84 2876.62 1037.02 Q2874.63 1038.2 2874.63 1041.05 Q2874.63 1043.31 2876.11 1044.66 Q2877.62 1045.98 2880.19 1045.98 Q2883.73 1045.98 2885.86 1043.48 Q2888.01 1040.95 2888.01 1036.79 L2888.01 1035.84 L2883.78 1035.84 M2892.27 1034.08 L2892.27 1048.87 L2888.01 1048.87 L2888.01 1044.93 Q2886.55 1047.3 2884.38 1048.43 Q2882.2 1049.54 2879.05 1049.54 Q2875.07 1049.54 2872.71 1047.32 Q2870.37 1045.07 2870.37 1041.32 Q2870.37 1036.95 2873.29 1034.73 Q2876.23 1032.5 2882.04 1032.5 L2888.01 1032.5 L2888.01 1032.09 Q2888.01 1029.15 2886.07 1027.55 Q2884.15 1025.93 2880.65 1025.93 Q2878.43 1025.93 2876.32 1026.46 Q2874.22 1027 2872.27 1028.06 L2872.27 1024.12 Q2874.61 1023.22 2876.81 1022.78 Q2879.01 1022.32 2881.09 1022.32 Q2886.72 1022.32 2889.49 1025.24 Q2892.27 1028.15 2892.27 1034.08 Z" fill="#000000" fill-rule="evenodd" fill-opacity="1" /><path clip-path="url(#clip870)" d="M2905.26 1015.58 L2905.26 1022.94 L2914.03 1022.94 L2914.03 1026.25 L2905.26 1026.25 L2905.26 1040.33 Q2905.26 1043.5 2906.11 1044.4 Q2906.99 1045.31 2909.66 1045.31 L2914.03 1045.31 L2914.03 1048.87 L2909.66 1048.87 Q2904.72 1048.87 2902.85 1047.04 Q2900.97 1045.19 2900.97 1040.33 L2900.97 1026.25 L2897.85 1026.25 L2897.85 1022.94 L2900.97 1022.94 L2900.97 1015.58 L2905.26 1015.58 Z" fill="#000000" fill-rule="evenodd" fill-opacity="1" /><path clip-path="url(#clip870)" d="M2941.18 1022.94 L2931.81 1035.56 L2941.67 1048.87 L2936.65 1048.87 L2929.1 1038.68 L2921.55 1048.87 L2916.53 1048.87 L2926.6 1035.31 L2917.39 1022.94 L2922.41 1022.94 L2929.28 1032.18 L2936.16 1022.94 L2941.18 1022.94 Z" fill="#000000" fill-rule="evenodd" fill-opacity="1" /><path clip-path="url(#clip870)" d="M2967.39 1056.74 L2967.39 1060.05 L2942.76 1060.05 L2942.76 1056.74 L2967.39 1056.74 Z" fill="#000000" fill-rule="evenodd" fill-opacity="1" /><path clip-path="url(#clip870)" d="M2971.39 1022.94 L2975.65 1022.94 L2975.65 1048.87 L2971.39 1048.87 L2971.39 1022.94 M2971.39 1012.85 L2975.65 1012.85 L2975.65 1018.25 L2971.39 1018.25 L2971.39 1012.85 Z" fill="#000000" fill-rule="evenodd" fill-opacity="1" /><path clip-path="url(#clip870)" d="M2984.56 1022.94 L2988.82 1022.94 L2988.82 1049.33 Q2988.82 1054.29 2986.92 1056.51 Q2985.05 1058.73 2980.86 1058.73 L2979.24 1058.73 L2979.24 1055.12 L2980.37 1055.12 Q2982.8 1055.12 2983.68 1053.99 Q2984.56 1052.87 2984.56 1049.33 L2984.56 1022.94 M2984.56 1012.85 L2988.82 1012.85 L2988.82 1018.25 L2984.56 1018.25 L2984.56 1012.85 Z" fill="#000000" fill-rule="evenodd" fill-opacity="1" /></svg>
