<?xml version="1.0" encoding="utf-8"?>
<svg xmlns="http://www.w3.org/2000/svg" xmlns:xlink="http://www.w3.org/1999/xlink" width="800" height="400" viewBox="0 0 3200 1600">
<defs>
  <clipPath id="clip670">
    <rect x="0" y="0" width="3200" height="1600"/>
  </clipPath>
</defs>
<path clip-path="url(#clip670)" d="
M0 1600 L3200 1600 L3200 0 L0 0  Z
  " fill="#ffffff" fill-rule="evenodd" fill-opacity="1"/>
<defs>
  <clipPath id="clip671">
    <rect x="640" y="0" width="2241" height="1600"/>
  </clipPath>
</defs>
<path clip-path="url(#clip670)" d="
M156.867 695.088 L3152.76 695.088 L3152.76 108.352 L156.867 108.352  Z
  " fill="#ffffff" fill-rule="evenodd" fill-opacity="1"/>
<defs>
  <clipPath id="clip672">
    <rect x="156" y="108" width="2997" height="588"/>
  </clipPath>
</defs>
<polyline clip-path="url(#clip672)" style="stroke:#000000; stroke-linecap:butt; stroke-linejoin:round; stroke-width:2; stroke-opacity:0.1; fill:none" points="
  230.573,695.088 230.573,108.352 
  "/>
<polyline clip-path="url(#clip672)" style="stroke:#000000; stroke-linecap:butt; stroke-linejoin:round; stroke-width:2; stroke-opacity:0.1; fill:none" points="
  784.751,695.088 784.751,108.352 
  "/>
<polyline clip-path="url(#clip672)" style="stroke:#000000; stroke-linecap:butt; stroke-linejoin:round; stroke-width:2; stroke-opacity:0.1; fill:none" points="
  1338.93,695.088 1338.93,108.352 
  "/>
<polyline clip-path="url(#clip672)" style="stroke:#000000; stroke-linecap:butt; stroke-linejoin:round; stroke-width:2; stroke-opacity:0.1; fill:none" points="
  1893.11,695.088 1893.11,108.352 
  "/>
<polyline clip-path="url(#clip672)" style="stroke:#000000; stroke-linecap:butt; stroke-linejoin:round; stroke-width:2; stroke-opacity:0.1; fill:none" points="
  2447.29,695.088 2447.29,108.352 
  "/>
<polyline clip-path="url(#clip672)" style="stroke:#000000; stroke-linecap:butt; stroke-linejoin:round; stroke-width:2; stroke-opacity:0.1; fill:none" points="
  3001.47,695.088 3001.47,108.352 
  "/>
<polyline clip-path="url(#clip670)" style="stroke:#000000; stroke-linecap:butt; stroke-linejoin:round; stroke-width:4; stroke-opacity:1; fill:none" points="
  156.867,695.088 3152.76,695.088 
  "/>
<polyline clip-path="url(#clip670)" style="stroke:#000000; stroke-linecap:butt; stroke-linejoin:round; stroke-width:4; stroke-opacity:1; fill:none" points="
  230.573,695.088 230.573,676.19 
  "/>
<polyline clip-path="url(#clip670)" style="stroke:#000000; stroke-linecap:butt; stroke-linejoin:round; stroke-width:4; stroke-opacity:1; fill:none" points="
  784.751,695.088 784.751,676.19 
  "/>
<polyline clip-path="url(#clip670)" style="stroke:#000000; stroke-linecap:butt; stroke-linejoin:round; stroke-width:4; stroke-opacity:1; fill:none" points="
  1338.93,695.088 1338.93,676.19 
  "/>
<polyline clip-path="url(#clip670)" style="stroke:#000000; stroke-linecap:butt; stroke-linejoin:round; stroke-width:4; stroke-opacity:1; fill:none" points="
  1893.11,695.088 1893.11,676.19 
  "/>
<polyline clip-path="url(#clip670)" style="stroke:#000000; stroke-linecap:butt; stroke-linejoin:round; stroke-width:4; stroke-opacity:1; fill:none" points="
  2447.29,695.088 2447.29,676.19 
  "/>
<polyline clip-path="url(#clip670)" style="stroke:#000000; stroke-linecap:butt; stroke-linejoin:round; stroke-width:4; stroke-opacity:1; fill:none" points="
  3001.47,695.088 3001.47,676.19 
  "/>
<path clip-path="url(#clip670)" d="M230.573 732.407 Q226.961 732.407 225.133 735.971 Q223.327 739.513 223.327 746.643 Q223.327 753.749 225.133 757.314 Q226.961 760.855 230.573 760.855 Q234.207 760.855 236.012 757.314 Q237.841 753.749 237.841 746.643 Q237.841 739.513 236.012 735.971 Q234.207 732.407 230.573 732.407 M230.573 728.703 Q236.383 728.703 239.438 733.309 Q242.517 737.893 242.517 746.643 Q242.517 755.369 239.438 759.976 Q236.383 764.559 230.573 764.559 Q224.762 764.559 221.684 759.976 Q218.628 755.369 218.628 746.643 Q218.628 737.893 221.684 733.309 Q224.762 728.703 230.573 728.703 Z" fill="#000000" fill-rule="evenodd" fill-opacity="1" /><path clip-path="url(#clip670)" d="M759.45 729.328 L777.807 729.328 L777.807 733.263 L763.733 733.263 L763.733 741.735 Q764.751 741.388 765.77 741.226 Q766.788 741.041 767.807 741.041 Q773.594 741.041 776.973 744.212 Q780.353 747.383 780.353 752.8 Q780.353 758.379 776.881 761.48 Q773.409 764.559 767.089 764.559 Q764.913 764.559 762.645 764.189 Q760.399 763.818 757.992 763.078 L757.992 758.379 Q760.075 759.513 762.297 760.068 Q764.52 760.624 766.997 760.624 Q771.001 760.624 773.339 758.518 Q775.677 756.411 775.677 752.8 Q775.677 749.189 773.339 747.082 Q771.001 744.976 766.997 744.976 Q765.122 744.976 763.247 745.393 Q761.395 745.809 759.45 746.689 L759.45 729.328 Z" fill="#000000" fill-rule="evenodd" fill-opacity="1" /><path clip-path="url(#clip670)" d="M799.566 732.407 Q795.955 732.407 794.126 735.971 Q792.32 739.513 792.32 746.643 Q792.32 753.749 794.126 757.314 Q795.955 760.855 799.566 760.855 Q803.2 760.855 805.006 757.314 Q806.834 753.749 806.834 746.643 Q806.834 739.513 805.006 735.971 Q803.2 732.407 799.566 732.407 M799.566 728.703 Q805.376 728.703 808.431 733.309 Q811.51 737.893 811.51 746.643 Q811.51 755.369 808.431 759.976 Q805.376 764.559 799.566 764.559 Q793.756 764.559 790.677 759.976 Q787.621 755.369 787.621 746.643 Q787.621 737.893 790.677 733.309 Q793.756 728.703 799.566 728.703 Z" fill="#000000" fill-rule="evenodd" fill-opacity="1" /><path clip-path="url(#clip670)" d="M1298.54 759.953 L1306.18 759.953 L1306.18 733.587 L1297.86 735.254 L1297.86 730.995 L1306.13 729.328 L1310.8 729.328 L1310.8 759.953 L1318.44 759.953 L1318.44 763.888 L1298.54 763.888 L1298.54 759.953 Z" fill="#000000" fill-rule="evenodd" fill-opacity="1" /><path clip-path="url(#clip670)" d="M1337.89 732.407 Q1334.28 732.407 1332.45 735.971 Q1330.64 739.513 1330.64 746.643 Q1330.64 753.749 1332.45 757.314 Q1334.28 760.855 1337.89 760.855 Q1341.52 760.855 1343.33 757.314 Q1345.16 753.749 1345.16 746.643 Q1345.16 739.513 1343.33 735.971 Q1341.52 732.407 1337.89 732.407 M1337.89 728.703 Q1343.7 728.703 1346.75 733.309 Q1349.83 737.893 1349.83 746.643 Q1349.83 755.369 1346.75 759.976 Q1343.7 764.559 1337.89 764.559 Q1332.08 764.559 1329 759.976 Q1325.94 755.369 1325.94 746.643 Q1325.94 737.893 1329 733.309 Q1332.08 728.703 1337.89 728.703 Z" fill="#000000" fill-rule="evenodd" fill-opacity="1" /><path clip-path="url(#clip670)" d="M1368.05 732.407 Q1364.44 732.407 1362.61 735.971 Q1360.8 739.513 1360.8 746.643 Q1360.8 753.749 1362.61 757.314 Q1364.44 760.855 1368.05 760.855 Q1371.68 760.855 1373.49 757.314 Q1375.32 753.749 1375.32 746.643 Q1375.32 739.513 1373.49 735.971 Q1371.68 732.407 1368.05 732.407 M1368.05 728.703 Q1373.86 728.703 1376.92 733.309 Q1379.99 737.893 1379.99 746.643 Q1379.99 755.369 1376.92 759.976 Q1373.86 764.559 1368.05 764.559 Q1362.24 764.559 1359.16 759.976 Q1356.11 755.369 1356.11 746.643 Q1356.11 737.893 1359.16 733.309 Q1362.24 728.703 1368.05 728.703 Z" fill="#000000" fill-rule="evenodd" fill-opacity="1" /><path clip-path="url(#clip670)" d="M1852.71 759.953 L1860.35 759.953 L1860.35 733.587 L1852.04 735.254 L1852.04 730.995 L1860.31 729.328 L1864.98 729.328 L1864.98 759.953 L1872.62 759.953 L1872.62 763.888 L1852.71 763.888 L1852.71 759.953 Z" fill="#000000" fill-rule="evenodd" fill-opacity="1" /><path clip-path="url(#clip670)" d="M1882.11 729.328 L1900.47 729.328 L1900.47 733.263 L1886.4 733.263 L1886.4 741.735 Q1887.41 741.388 1888.43 741.226 Q1889.45 741.041 1890.47 741.041 Q1896.26 741.041 1899.64 744.212 Q1903.02 747.383 1903.02 752.8 Q1903.02 758.379 1899.54 761.48 Q1896.07 764.559 1889.75 764.559 Q1887.58 764.559 1885.31 764.189 Q1883.06 763.818 1880.65 763.078 L1880.65 758.379 Q1882.74 759.513 1884.96 760.068 Q1887.18 760.624 1889.66 760.624 Q1893.66 760.624 1896 758.518 Q1898.34 756.411 1898.34 752.8 Q1898.34 749.189 1896 747.082 Q1893.66 744.976 1889.66 744.976 Q1887.78 744.976 1885.91 745.393 Q1884.06 745.809 1882.11 746.689 L1882.11 729.328 Z" fill="#000000" fill-rule="evenodd" fill-opacity="1" /><path clip-path="url(#clip670)" d="M1922.23 732.407 Q1918.62 732.407 1916.79 735.971 Q1914.98 739.513 1914.98 746.643 Q1914.98 753.749 1916.79 757.314 Q1918.62 760.855 1922.23 760.855 Q1925.86 760.855 1927.67 757.314 Q1929.5 753.749 1929.5 746.643 Q1929.5 739.513 1927.67 735.971 Q1925.86 732.407 1922.23 732.407 M1922.23 728.703 Q1928.04 728.703 1931.09 733.309 Q1934.17 737.893 1934.17 746.643 Q1934.17 755.369 1931.09 759.976 Q1928.04 764.559 1922.23 764.559 Q1916.42 764.559 1913.34 759.976 Q1910.28 755.369 1910.28 746.643 Q1910.28 737.893 1913.34 733.309 Q1916.42 728.703 1922.23 728.703 Z" fill="#000000" fill-rule="evenodd" fill-opacity="1" /><path clip-path="url(#clip670)" d="M2410.98 759.953 L2427.3 759.953 L2427.3 763.888 L2405.35 763.888 L2405.35 759.953 Q2408.02 757.198 2412.6 752.568 Q2417.21 747.916 2418.39 746.573 Q2420.63 744.05 2421.51 742.314 Q2422.41 740.555 2422.41 738.865 Q2422.41 736.11 2420.47 734.374 Q2418.55 732.638 2415.45 732.638 Q2413.25 732.638 2410.79 733.402 Q2408.36 734.166 2405.59 735.717 L2405.59 730.995 Q2408.41 729.86 2410.86 729.282 Q2413.32 728.703 2415.35 728.703 Q2420.72 728.703 2423.92 731.388 Q2427.11 734.073 2427.11 738.564 Q2427.11 740.694 2426.3 742.615 Q2425.52 744.513 2423.41 747.106 Q2422.83 747.777 2419.73 750.994 Q2416.63 754.189 2410.98 759.953 Z" fill="#000000" fill-rule="evenodd" fill-opacity="1" /><path clip-path="url(#clip670)" d="M2447.11 732.407 Q2443.5 732.407 2441.67 735.971 Q2439.87 739.513 2439.87 746.643 Q2439.87 753.749 2441.67 757.314 Q2443.5 760.855 2447.11 760.855 Q2450.75 760.855 2452.55 757.314 Q2454.38 753.749 2454.38 746.643 Q2454.38 739.513 2452.55 735.971 Q2450.75 732.407 2447.11 732.407 M2447.11 728.703 Q2452.92 728.703 2455.98 733.309 Q2459.06 737.893 2459.06 746.643 Q2459.06 755.369 2455.98 759.976 Q2452.92 764.559 2447.11 764.559 Q2441.3 764.559 2438.22 759.976 Q2435.17 755.369 2435.17 746.643 Q2435.17 737.893 2438.22 733.309 Q2441.3 728.703 2447.11 728.703 Z" fill="#000000" fill-rule="evenodd" fill-opacity="1" /><path clip-path="url(#clip670)" d="M2477.27 732.407 Q2473.66 732.407 2471.84 735.971 Q2470.03 739.513 2470.03 746.643 Q2470.03 753.749 2471.84 757.314 Q2473.66 760.855 2477.27 760.855 Q2480.91 760.855 2482.71 757.314 Q2484.54 753.749 2484.54 746.643 Q2484.54 739.513 2482.71 735.971 Q2480.91 732.407 2477.27 732.407 M2477.27 728.703 Q2483.09 728.703 2486.14 733.309 Q2489.22 737.893 2489.22 746.643 Q2489.22 755.369 2486.14 759.976 Q2483.09 764.559 2477.27 764.559 Q2471.46 764.559 2468.39 759.976 Q2465.33 755.369 2465.33 746.643 Q2465.33 737.893 2468.39 733.309 Q2471.46 728.703 2477.27 728.703 Z" fill="#000000" fill-rule="evenodd" fill-opacity="1" /><path clip-path="url(#clip670)" d="M2965.16 759.953 L2981.48 759.953 L2981.48 763.888 L2959.53 763.888 L2959.53 759.953 Q2962.19 757.198 2966.78 752.568 Q2971.38 747.916 2972.56 746.573 Q2974.81 744.05 2975.69 742.314 Q2976.59 740.555 2976.59 738.865 Q2976.59 736.11 2974.65 734.374 Q2972.73 732.638 2969.63 732.638 Q2967.43 732.638 2964.97 733.402 Q2962.54 734.166 2959.76 735.717 L2959.76 730.995 Q2962.59 729.86 2965.04 729.282 Q2967.5 728.703 2969.53 728.703 Q2974.9 728.703 2978.1 731.388 Q2981.29 734.073 2981.29 738.564 Q2981.29 740.694 2980.48 742.615 Q2979.69 744.513 2977.59 747.106 Q2977.01 747.777 2973.91 750.994 Q2970.81 754.189 2965.16 759.953 Z" fill="#000000" fill-rule="evenodd" fill-opacity="1" /><path clip-path="url(#clip670)" d="M2991.34 729.328 L3009.69 729.328 L3009.69 733.263 L2995.62 733.263 L2995.62 741.735 Q2996.64 741.388 2997.66 741.226 Q2998.68 741.041 2999.69 741.041 Q3005.48 741.041 3008.86 744.212 Q3012.24 747.383 3012.24 752.8 Q3012.24 758.379 3008.77 761.48 Q3005.3 764.559 2998.98 764.559 Q2996.8 764.559 2994.53 764.189 Q2992.29 763.818 2989.88 763.078 L2989.88 758.379 Q2991.96 759.513 2994.19 760.068 Q2996.41 760.624 2998.88 760.624 Q3002.89 760.624 3005.23 758.518 Q3007.56 756.411 3007.56 752.8 Q3007.56 749.189 3005.23 747.082 Q3002.89 744.976 2998.88 744.976 Q2997.01 744.976 2995.13 745.393 Q2993.28 745.809 2991.34 746.689 L2991.34 729.328 Z" fill="#000000" fill-rule="evenodd" fill-opacity="1" /><path clip-path="url(#clip670)" d="M3031.45 732.407 Q3027.84 732.407 3026.01 735.971 Q3024.21 739.513 3024.21 746.643 Q3024.21 753.749 3026.01 757.314 Q3027.84 760.855 3031.45 760.855 Q3035.09 760.855 3036.89 757.314 Q3038.72 753.749 3038.72 746.643 Q3038.72 739.513 3036.89 735.971 Q3035.09 732.407 3031.45 732.407 M3031.45 728.703 Q3037.26 728.703 3040.32 733.309 Q3043.4 737.893 3043.4 746.643 Q3043.4 755.369 3040.32 759.976 Q3037.26 764.559 3031.45 764.559 Q3025.64 764.559 3022.56 759.976 Q3019.51 755.369 3019.51 746.643 Q3019.51 737.893 3022.56 733.309 Q3025.64 728.703 3031.45 728.703 Z" fill="#000000" fill-rule="evenodd" fill-opacity="1" /><polyline clip-path="url(#clip672)" style="stroke:#000000; stroke-linecap:butt; stroke-linejoin:round; stroke-width:2; stroke-opacity:0.1; fill:none" points="
  156.867,617.699 3152.76,617.699 
  "/>
<polyline clip-path="url(#clip672)" style="stroke:#000000; stroke-linecap:butt; stroke-linejoin:round; stroke-width:2; stroke-opacity:0.1; fill:none" points="
  156.867,511 3152.76,511 
  "/>
<polyline clip-path="url(#clip672)" style="stroke:#000000; stroke-linecap:butt; stroke-linejoin:round; stroke-width:2; stroke-opacity:0.1; fill:none" points="
  156.867,404.3 3152.76,404.3 
  "/>
<polyline clip-path="url(#clip672)" style="stroke:#000000; stroke-linecap:butt; stroke-linejoin:round; stroke-width:2; stroke-opacity:0.1; fill:none" points="
  156.867,297.601 3152.76,297.601 
  "/>
<polyline clip-path="url(#clip672)" style="stroke:#000000; stroke-linecap:butt; stroke-linejoin:round; stroke-width:2; stroke-opacity:0.1; fill:none" points="
  156.867,190.902 3152.76,190.902 
  "/>
<polyline clip-path="url(#clip670)" style="stroke:#000000; stroke-linecap:butt; stroke-linejoin:round; stroke-width:4; stroke-opacity:1; fill:none" points="
  156.867,695.088 156.867,108.352 
  "/>
<polyline clip-path="url(#clip670)" style="stroke:#000000; stroke-linecap:butt; stroke-linejoin:round; stroke-width:4; stroke-opacity:1; fill:none" points="
  156.867,617.699 175.764,617.699 
  "/>
<polyline clip-path="url(#clip670)" style="stroke:#000000; stroke-linecap:butt; stroke-linejoin:round; stroke-width:4; stroke-opacity:1; fill:none" points="
  156.867,511 175.764,511 
  "/>
<polyline clip-path="url(#clip670)" style="stroke:#000000; stroke-linecap:butt; stroke-linejoin:round; stroke-width:4; stroke-opacity:1; fill:none" points="
  156.867,404.3 175.764,404.3 
  "/>
<polyline clip-path="url(#clip670)" style="stroke:#000000; stroke-linecap:butt; stroke-linejoin:round; stroke-width:4; stroke-opacity:1; fill:none" points="
  156.867,297.601 175.764,297.601 
  "/>
<polyline clip-path="url(#clip670)" style="stroke:#000000; stroke-linecap:butt; stroke-linejoin:round; stroke-width:4; stroke-opacity:1; fill:none" points="
  156.867,190.902 175.764,190.902 
  "/>
<path clip-path="url(#clip670)" d="M46.9921 618.15 L76.6679 618.15 L76.6679 622.085 L46.9921 622.085 L46.9921 618.15 Z" fill="#000000" fill-rule="evenodd" fill-opacity="1" /><path clip-path="url(#clip670)" d="M97.3391 615.835 Q94.1909 615.835 92.3391 617.988 Q90.5104 620.141 90.5104 623.891 Q90.5104 627.617 92.3391 629.793 Q94.1909 631.946 97.3391 631.946 Q100.487 631.946 102.316 629.793 Q104.168 627.617 104.168 623.891 Q104.168 620.141 102.316 617.988 Q100.487 615.835 97.3391 615.835 M106.621 601.182 L106.621 605.442 Q104.862 604.608 103.057 604.168 Q101.274 603.729 99.515 603.729 Q94.8854 603.729 92.4317 606.854 Q90.0012 609.979 89.6539 616.298 Q91.0197 614.284 93.0798 613.219 Q95.14 612.131 97.6169 612.131 Q102.825 612.131 105.834 615.303 Q108.867 618.451 108.867 623.891 Q108.867 629.215 105.719 632.432 Q102.571 635.65 97.3391 635.65 Q91.3437 635.65 88.1725 631.066 Q85.0012 626.46 85.0012 617.733 Q85.0012 609.539 88.89 604.678 Q92.7789 599.794 99.3298 599.794 Q101.089 599.794 102.871 600.141 Q104.677 600.488 106.621 601.182 Z" fill="#000000" fill-rule="evenodd" fill-opacity="1" /><path clip-path="url(#clip670)" d="M47.8023 511.451 L77.4781 511.451 L77.4781 515.386 L47.8023 515.386 L47.8023 511.451 Z" fill="#000000" fill-rule="evenodd" fill-opacity="1" /><path clip-path="url(#clip670)" d="M101.737 509.645 Q105.094 510.363 106.969 512.631 Q108.867 514.9 108.867 518.233 Q108.867 523.349 105.348 526.15 Q101.83 528.951 95.3483 528.951 Q93.1724 528.951 90.8576 528.511 Q88.566 528.094 86.1123 527.238 L86.1123 522.724 Q88.0567 523.858 90.3715 524.437 Q92.6863 525.016 95.2095 525.016 Q99.6076 525.016 101.899 523.28 Q104.214 521.543 104.214 518.233 Q104.214 515.178 102.061 513.465 Q99.9317 511.729 96.1122 511.729 L92.0845 511.729 L92.0845 507.886 L96.2974 507.886 Q99.7465 507.886 101.575 506.52 Q103.404 505.131 103.404 502.539 Q103.404 499.877 101.506 498.465 Q99.6307 497.03 96.1122 497.03 Q94.1909 497.03 91.9919 497.446 Q89.7928 497.863 87.1539 498.743 L87.1539 494.576 Q89.816 493.835 92.1308 493.465 Q94.4687 493.095 96.5289 493.095 Q101.853 493.095 104.955 495.525 Q108.057 497.932 108.057 502.053 Q108.057 504.923 106.413 506.914 Q104.77 508.881 101.737 509.645 Z" fill="#000000" fill-rule="evenodd" fill-opacity="1" /><path clip-path="url(#clip670)" d="M96.9224 390.099 Q93.3113 390.099 91.4826 393.664 Q89.6771 397.206 89.6771 404.335 Q89.6771 411.442 91.4826 415.006 Q93.3113 418.548 96.9224 418.548 Q100.557 418.548 102.362 415.006 Q104.191 411.442 104.191 404.335 Q104.191 397.206 102.362 393.664 Q100.557 390.099 96.9224 390.099 M96.9224 386.395 Q102.733 386.395 105.788 391.002 Q108.867 395.585 108.867 404.335 Q108.867 413.062 105.788 417.668 Q102.733 422.252 96.9224 422.252 Q91.1123 422.252 88.0336 417.668 Q84.978 413.062 84.978 404.335 Q84.978 395.585 88.0336 391.002 Q91.1123 386.395 96.9224 386.395 Z" fill="#000000" fill-rule="evenodd" fill-opacity="1" /><path clip-path="url(#clip670)" d="M101.737 296.247 Q105.094 296.965 106.969 299.233 Q108.867 301.502 108.867 304.835 Q108.867 309.951 105.348 312.752 Q101.83 315.553 95.3483 315.553 Q93.1724 315.553 90.8576 315.113 Q88.566 314.696 86.1123 313.84 L86.1123 309.326 Q88.0567 310.46 90.3715 311.039 Q92.6863 311.618 95.2095 311.618 Q99.6076 311.618 101.899 309.882 Q104.214 308.145 104.214 304.835 Q104.214 301.78 102.061 300.067 Q99.9317 298.331 96.1122 298.331 L92.0845 298.331 L92.0845 294.488 L96.2974 294.488 Q99.7465 294.488 101.575 293.122 Q103.404 291.733 103.404 289.141 Q103.404 286.479 101.506 285.067 Q99.6307 283.632 96.1122 283.632 Q94.1909 283.632 91.9919 284.048 Q89.7928 284.465 87.1539 285.345 L87.1539 281.178 Q89.816 280.437 92.1308 280.067 Q94.4687 279.696 96.5289 279.696 Q101.853 279.696 104.955 282.127 Q108.057 284.534 108.057 288.655 Q108.057 291.525 106.413 293.516 Q104.77 295.483 101.737 296.247 Z" fill="#000000" fill-rule="evenodd" fill-opacity="1" /><path clip-path="url(#clip670)" d="M97.3391 189.039 Q94.1909 189.039 92.3391 191.192 Q90.5104 193.345 90.5104 197.095 Q90.5104 200.821 92.3391 202.997 Q94.1909 205.15 97.3391 205.15 Q100.487 205.15 102.316 202.997 Q104.168 200.821 104.168 197.095 Q104.168 193.345 102.316 191.192 Q100.487 189.039 97.3391 189.039 M106.621 174.386 L106.621 178.646 Q104.862 177.812 103.057 177.372 Q101.274 176.933 99.515 176.933 Q94.8854 176.933 92.4317 180.058 Q90.0012 183.183 89.6539 189.502 Q91.0197 187.488 93.0798 186.423 Q95.14 185.335 97.6169 185.335 Q102.825 185.335 105.834 188.507 Q108.867 191.655 108.867 197.095 Q108.867 202.419 105.719 205.636 Q102.571 208.854 97.3391 208.854 Q91.3437 208.854 88.1725 204.27 Q85.0012 199.664 85.0012 190.937 Q85.0012 182.743 88.89 177.882 Q92.7789 172.997 99.3298 172.997 Q101.089 172.997 102.871 173.345 Q104.677 173.692 106.621 174.386 Z" fill="#000000" fill-rule="evenodd" fill-opacity="1" /><path clip-path="url(#clip670)" d="M1171.46 34.1734 Q1170.2 33.4443 1168.7 33.1202 Q1167.24 32.7556 1165.46 32.7556 Q1159.14 32.7556 1155.74 36.8875 Q1152.38 40.9789 1152.38 48.6757 L1152.38 72.576 L1144.88 72.576 L1144.88 27.2059 L1152.38 27.2059 L1152.38 34.2544 Q1154.73 30.1225 1158.49 28.1376 Q1162.26 26.1121 1167.65 26.1121 Q1168.42 26.1121 1169.35 26.2337 Q1170.28 26.3147 1171.42 26.5172 L1171.46 34.1734 Z" fill="#000000" fill-rule="evenodd" fill-opacity="1" /><path clip-path="url(#clip670)" d="M1216.26 48.0275 L1216.26 51.6733 L1181.99 51.6733 Q1182.48 59.3701 1186.61 63.421 Q1190.78 67.4314 1198.19 67.4314 Q1202.49 67.4314 1206.5 66.3781 Q1210.55 65.3249 1214.52 63.2184 L1214.52 70.267 Q1210.51 71.9684 1206.3 72.8596 Q1202.08 73.7508 1197.75 73.7508 Q1186.89 73.7508 1180.53 67.4314 Q1174.21 61.1119 1174.21 50.3365 Q1174.21 39.1965 1180.21 32.6746 Q1186.24 26.1121 1196.45 26.1121 Q1205.61 26.1121 1210.91 32.0264 Q1216.26 37.9003 1216.26 48.0275 M1208.81 45.84 Q1208.73 39.7232 1205.36 36.0774 Q1202.04 32.4315 1196.53 32.4315 Q1190.29 32.4315 1186.53 35.9558 Q1182.8 39.4801 1182.23 45.8805 L1208.81 45.84 Z" fill="#000000" fill-rule="evenodd" fill-opacity="1" /><path clip-path="url(#clip670)" d="M1261.14 28.9478 L1261.14 35.9153 Q1257.98 34.1734 1254.78 33.3227 Q1251.62 32.4315 1248.38 32.4315 Q1241.13 32.4315 1237.12 37.0496 Q1233.11 41.6271 1233.11 49.9314 Q1233.11 58.2358 1237.12 62.8538 Q1241.13 67.4314 1248.38 67.4314 Q1251.62 67.4314 1254.78 66.5807 Q1257.98 65.6895 1261.14 63.9476 L1261.14 70.8341 Q1258.03 72.2924 1254.66 73.0216 Q1251.34 73.7508 1247.57 73.7508 Q1237.33 73.7508 1231.29 67.3098 Q1225.25 60.8689 1225.25 49.9314 Q1225.25 38.832 1231.33 32.472 Q1237.45 26.1121 1248.06 26.1121 Q1251.5 26.1121 1254.78 26.8413 Q1258.07 27.5299 1261.14 28.9478 Z" fill="#000000" fill-rule="evenodd" fill-opacity="1" /><path clip-path="url(#clip670)" d="M1291.69 32.4315 Q1285.69 32.4315 1282.21 37.1306 Q1278.73 41.7891 1278.73 49.9314 Q1278.73 58.0738 1282.17 62.7728 Q1285.65 67.4314 1291.69 67.4314 Q1297.64 67.4314 1301.13 62.7323 Q1304.61 58.0333 1304.61 49.9314 Q1304.61 41.8701 1301.13 37.1711 Q1297.64 32.4315 1291.69 32.4315 M1291.69 26.1121 Q1301.41 26.1121 1306.96 32.4315 Q1312.51 38.7509 1312.51 49.9314 Q1312.51 61.0714 1306.96 67.4314 Q1301.41 73.7508 1291.69 73.7508 Q1281.93 73.7508 1276.38 67.4314 Q1270.87 61.0714 1270.87 49.9314 Q1270.87 38.7509 1276.38 32.4315 Q1281.93 26.1121 1291.69 26.1121 Z" fill="#000000" fill-rule="evenodd" fill-opacity="1" /><path clip-path="url(#clip670)" d="M1362.58 45.1919 L1362.58 72.576 L1355.13 72.576 L1355.13 45.4349 Q1355.13 38.994 1352.61 35.7938 Q1350.1 32.5936 1345.08 32.5936 Q1339.04 32.5936 1335.56 36.4419 Q1332.08 40.2903 1332.08 46.9338 L1332.08 72.576 L1324.58 72.576 L1324.58 27.2059 L1332.08 27.2059 L1332.08 34.2544 Q1334.75 30.163 1338.35 28.1376 Q1342 26.1121 1346.74 26.1121 Q1354.56 26.1121 1358.57 30.9732 Q1362.58 35.7938 1362.58 45.1919 Z" fill="#000000" fill-rule="evenodd" fill-opacity="1" /><path clip-path="url(#clip670)" d="M1406.37 28.5427 L1406.37 35.5912 Q1403.21 33.9709 1399.81 33.1607 Q1396.4 32.3505 1392.76 32.3505 Q1387.21 32.3505 1384.41 34.0519 Q1381.66 35.7533 1381.66 39.156 Q1381.66 41.7486 1383.64 43.2475 Q1385.63 44.7058 1391.62 46.0426 L1394.18 46.6097 Q1402.12 48.3111 1405.44 51.4303 Q1408.8 54.509 1408.8 60.0587 Q1408.8 66.3781 1403.78 70.0644 Q1398.79 73.7508 1390.04 73.7508 Q1386.4 73.7508 1382.43 73.0216 Q1378.5 72.3329 1374.12 70.9151 L1374.12 63.2184 Q1378.26 65.3654 1382.27 66.4591 Q1386.28 67.5124 1390.21 67.5124 Q1395.47 67.5124 1398.31 65.73 Q1401.14 63.9071 1401.14 60.6258 Q1401.14 57.5877 1399.08 55.9673 Q1397.05 54.3469 1390.13 52.8481 L1387.53 52.2405 Q1380.61 50.7821 1377.53 47.7845 Q1374.45 44.7463 1374.45 39.4801 Q1374.45 33.0797 1378.99 29.5959 Q1383.52 26.1121 1391.87 26.1121 Q1396 26.1121 1399.64 26.7198 Q1403.29 27.3274 1406.37 28.5427 Z" fill="#000000" fill-rule="evenodd" fill-opacity="1" /><path clip-path="url(#clip670)" d="M1428.04 14.324 L1428.04 27.2059 L1443.39 27.2059 L1443.39 32.9987 L1428.04 32.9987 L1428.04 57.6282 Q1428.04 63.1779 1429.54 64.7578 Q1431.08 66.3376 1435.74 66.3376 L1443.39 66.3376 L1443.39 72.576 L1435.74 72.576 Q1427.11 72.576 1423.83 69.3758 Q1420.55 66.1351 1420.55 57.6282 L1420.55 32.9987 L1415.08 32.9987 L1415.08 27.2059 L1420.55 27.2059 L1420.55 14.324 L1428.04 14.324 Z" fill="#000000" fill-rule="evenodd" fill-opacity="1" /><path clip-path="url(#clip670)" d="M1479.49 34.1734 Q1478.23 33.4443 1476.73 33.1202 Q1475.28 32.7556 1473.49 32.7556 Q1467.17 32.7556 1463.77 36.8875 Q1460.41 40.9789 1460.41 48.6757 L1460.41 72.576 L1452.91 72.576 L1452.91 27.2059 L1460.41 27.2059 L1460.41 34.2544 Q1462.76 30.1225 1466.53 28.1376 Q1470.29 26.1121 1475.68 26.1121 Q1476.45 26.1121 1477.38 26.2337 Q1478.31 26.3147 1479.45 26.5172 L1479.49 34.1734 Z" fill="#000000" fill-rule="evenodd" fill-opacity="1" /><path clip-path="url(#clip670)" d="M1486.54 54.671 L1486.54 27.2059 L1493.99 27.2059 L1493.99 54.3874 Q1493.99 60.8284 1496.5 64.0691 Q1499.01 67.2693 1504.04 67.2693 Q1510.07 67.2693 1513.56 63.421 Q1517.08 59.5726 1517.08 52.9291 L1517.08 27.2059 L1524.53 27.2059 L1524.53 72.576 L1517.08 72.576 L1517.08 65.6084 Q1514.37 69.7404 1510.76 71.7658 Q1507.2 73.7508 1502.46 73.7508 Q1494.64 73.7508 1490.59 68.8897 Q1486.54 64.0286 1486.54 54.671 M1505.29 26.1121 L1505.29 26.1121 Z" fill="#000000" fill-rule="evenodd" fill-opacity="1" /><path clip-path="url(#clip670)" d="M1572.54 28.9478 L1572.54 35.9153 Q1569.38 34.1734 1566.18 33.3227 Q1563.02 32.4315 1559.78 32.4315 Q1552.53 32.4315 1548.52 37.0496 Q1544.51 41.6271 1544.51 49.9314 Q1544.51 58.2358 1548.52 62.8538 Q1552.53 67.4314 1559.78 67.4314 Q1563.02 67.4314 1566.18 66.5807 Q1569.38 65.6895 1572.54 63.9476 L1572.54 70.8341 Q1569.42 72.2924 1566.06 73.0216 Q1562.73 73.7508 1558.97 73.7508 Q1548.72 73.7508 1542.68 67.3098 Q1536.65 60.8689 1536.65 49.9314 Q1536.65 38.832 1542.72 32.472 Q1548.84 26.1121 1559.45 26.1121 Q1562.9 26.1121 1566.18 26.8413 Q1569.46 27.5299 1572.54 28.9478 Z" fill="#000000" fill-rule="evenodd" fill-opacity="1" /><path clip-path="url(#clip670)" d="M1592.87 14.324 L1592.87 27.2059 L1608.23 27.2059 L1608.23 32.9987 L1592.87 32.9987 L1592.87 57.6282 Q1592.87 63.1779 1594.37 64.7578 Q1595.91 66.3376 1600.57 66.3376 L1608.23 66.3376 L1608.23 72.576 L1600.57 72.576 Q1591.94 72.576 1588.66 69.3758 Q1585.38 66.1351 1585.38 57.6282 L1585.38 32.9987 L1579.91 32.9987 L1579.91 27.2059 L1585.38 27.2059 L1585.38 14.324 L1592.87 14.324 Z" fill="#000000" fill-rule="evenodd" fill-opacity="1" /><path clip-path="url(#clip670)" d="M1665.02 49.7694 Q1655.99 49.7694 1652.5 51.8354 Q1649.02 53.9013 1649.02 58.8839 Q1649.02 62.8538 1651.61 65.2034 Q1654.24 67.5124 1658.74 67.5124 Q1664.94 67.5124 1668.67 63.1374 Q1672.43 58.7219 1672.43 51.4303 L1672.43 49.7694 L1665.02 49.7694 M1679.89 46.6907 L1679.89 72.576 L1672.43 72.576 L1672.43 65.6895 Q1669.88 69.8214 1666.07 71.8063 Q1662.27 73.7508 1656.76 73.7508 Q1649.79 73.7508 1645.66 69.8619 Q1641.56 65.9325 1641.56 59.3701 Q1641.56 51.7138 1646.67 47.825 Q1651.81 43.9361 1661.98 43.9361 L1672.43 43.9361 L1672.43 43.2069 Q1672.43 38.0623 1669.03 35.2672 Q1665.67 32.4315 1659.55 32.4315 Q1655.66 32.4315 1651.98 33.3632 Q1648.29 34.295 1644.89 36.1584 L1644.89 29.2718 Q1648.98 27.692 1652.83 26.9223 Q1656.67 26.1121 1660.32 26.1121 Q1670.16 26.1121 1675.03 31.2163 Q1679.89 36.3204 1679.89 46.6907 Z" fill="#000000" fill-rule="evenodd" fill-opacity="1" /><path clip-path="url(#clip670)" d="M1732.95 45.1919 L1732.95 72.576 L1725.5 72.576 L1725.5 45.4349 Q1725.5 38.994 1722.99 35.7938 Q1720.48 32.5936 1715.45 32.5936 Q1709.42 32.5936 1705.93 36.4419 Q1702.45 40.2903 1702.45 46.9338 L1702.45 72.576 L1694.96 72.576 L1694.96 27.2059 L1702.45 27.2059 L1702.45 34.2544 Q1705.12 30.163 1708.73 28.1376 Q1712.37 26.1121 1717.11 26.1121 Q1724.93 26.1121 1728.94 30.9732 Q1732.95 35.7938 1732.95 45.1919 Z" fill="#000000" fill-rule="evenodd" fill-opacity="1" /><path clip-path="url(#clip670)" d="M1777.68 34.0924 L1777.68 9.54393 L1785.13 9.54393 L1785.13 72.576 L1777.68 72.576 L1777.68 65.7705 Q1775.33 69.8214 1771.72 71.8063 Q1768.16 73.7508 1763.13 73.7508 Q1754.91 73.7508 1749.72 67.1883 Q1744.58 60.6258 1744.58 49.9314 Q1744.58 39.2371 1749.72 32.6746 Q1754.91 26.1121 1763.13 26.1121 Q1768.16 26.1121 1771.72 28.0971 Q1775.33 30.0415 1777.68 34.0924 M1752.28 49.9314 Q1752.28 58.1548 1755.64 62.8538 Q1759.04 67.5124 1764.96 67.5124 Q1770.87 67.5124 1774.27 62.8538 Q1777.68 58.1548 1777.68 49.9314 Q1777.68 41.7081 1774.27 37.0496 Q1770.87 32.3505 1764.96 32.3505 Q1759.04 32.3505 1755.64 37.0496 Q1752.28 41.7081 1752.28 49.9314 Z" fill="#000000" fill-rule="evenodd" fill-opacity="1" /><path clip-path="url(#clip670)" d="M1853.14 34.1734 Q1851.89 33.4443 1850.39 33.1202 Q1848.93 32.7556 1847.15 32.7556 Q1840.83 32.7556 1837.43 36.8875 Q1834.06 40.9789 1834.06 48.6757 L1834.06 72.576 L1826.57 72.576 L1826.57 27.2059 L1834.06 27.2059 L1834.06 34.2544 Q1836.41 30.1225 1840.18 28.1376 Q1843.95 26.1121 1849.34 26.1121 Q1850.11 26.1121 1851.04 26.2337 Q1851.97 26.3147 1853.1 26.5172 L1853.14 34.1734 Z" fill="#000000" fill-rule="evenodd" fill-opacity="1" /><path clip-path="url(#clip670)" d="M1897.95 48.0275 L1897.95 51.6733 L1863.68 51.6733 Q1864.16 59.3701 1868.29 63.421 Q1872.47 67.4314 1879.88 67.4314 Q1884.17 67.4314 1888.18 66.3781 Q1892.23 65.3249 1896.2 63.2184 L1896.2 70.267 Q1892.19 71.9684 1887.98 72.8596 Q1883.77 73.7508 1879.43 73.7508 Q1868.58 73.7508 1862.22 67.4314 Q1855.9 61.1119 1855.9 50.3365 Q1855.9 39.1965 1861.89 32.6746 Q1867.93 26.1121 1878.14 26.1121 Q1887.29 26.1121 1892.6 32.0264 Q1897.95 37.9003 1897.95 48.0275 M1890.49 45.84 Q1890.41 39.7232 1887.05 36.0774 Q1883.73 32.4315 1878.22 32.4315 Q1871.98 32.4315 1868.21 35.9558 Q1864.49 39.4801 1863.92 45.8805 L1890.49 45.84 Z" fill="#000000" fill-rule="evenodd" fill-opacity="1" /><path clip-path="url(#clip670)" d="M1940.04 34.0924 L1940.04 9.54393 L1947.49 9.54393 L1947.49 72.576 L1940.04 72.576 L1940.04 65.7705 Q1937.69 69.8214 1934.08 71.8063 Q1930.52 73.7508 1925.49 73.7508 Q1917.27 73.7508 1912.08 67.1883 Q1906.94 60.6258 1906.94 49.9314 Q1906.94 39.2371 1912.08 32.6746 Q1917.27 26.1121 1925.49 26.1121 Q1930.52 26.1121 1934.08 28.0971 Q1937.69 30.0415 1940.04 34.0924 M1914.64 49.9314 Q1914.64 58.1548 1918 62.8538 Q1921.4 67.5124 1927.32 67.5124 Q1933.23 67.5124 1936.63 62.8538 Q1940.04 58.1548 1940.04 49.9314 Q1940.04 41.7081 1936.63 37.0496 Q1933.23 32.3505 1927.32 32.3505 Q1921.4 32.3505 1918 37.0496 Q1914.64 41.7081 1914.64 49.9314 Z" fill="#000000" fill-rule="evenodd" fill-opacity="1" /><path clip-path="url(#clip670)" d="M1983.46 49.7694 Q1974.43 49.7694 1970.94 51.8354 Q1967.46 53.9013 1967.46 58.8839 Q1967.46 62.8538 1970.05 65.2034 Q1972.69 67.5124 1977.18 67.5124 Q1983.38 67.5124 1987.11 63.1374 Q1990.87 58.7219 1990.87 51.4303 L1990.87 49.7694 L1983.46 49.7694 M1998.33 46.6907 L1998.33 72.576 L1990.87 72.576 L1990.87 65.6895 Q1988.32 69.8214 1984.51 71.8063 Q1980.71 73.7508 1975.2 73.7508 Q1968.23 73.7508 1964.1 69.8619 Q1960.01 65.9325 1960.01 59.3701 Q1960.01 51.7138 1965.11 47.825 Q1970.26 43.9361 1980.42 43.9361 L1990.87 43.9361 L1990.87 43.2069 Q1990.87 38.0623 1987.47 35.2672 Q1984.11 32.4315 1977.99 32.4315 Q1974.1 32.4315 1970.42 33.3632 Q1966.73 34.295 1963.33 36.1584 L1963.33 29.2718 Q1967.42 27.692 1971.27 26.9223 Q1975.12 26.1121 1978.76 26.1121 Q1988.61 26.1121 1993.47 31.2163 Q1998.33 36.3204 1998.33 46.6907 Z" fill="#000000" fill-rule="evenodd" fill-opacity="1" /><path clip-path="url(#clip670)" d="M2021.05 14.324 L2021.05 27.2059 L2036.41 27.2059 L2036.41 32.9987 L2021.05 32.9987 L2021.05 57.6282 Q2021.05 63.1779 2022.55 64.7578 Q2024.09 66.3376 2028.75 66.3376 L2036.41 66.3376 L2036.41 72.576 L2028.75 72.576 Q2020.12 72.576 2016.84 69.3758 Q2013.56 66.1351 2013.56 57.6282 L2013.56 32.9987 L2008.09 32.9987 L2008.09 27.2059 L2013.56 27.2059 L2013.56 14.324 L2021.05 14.324 Z" fill="#000000" fill-rule="evenodd" fill-opacity="1" /><path clip-path="url(#clip670)" d="M2045.44 54.671 L2045.44 27.2059 L2052.89 27.2059 L2052.89 54.3874 Q2052.89 60.8284 2055.41 64.0691 Q2057.92 67.2693 2062.94 67.2693 Q2068.98 67.2693 2072.46 63.421 Q2075.98 59.5726 2075.98 52.9291 L2075.98 27.2059 L2083.44 27.2059 L2083.44 72.576 L2075.98 72.576 L2075.98 65.6084 Q2073.27 69.7404 2069.66 71.7658 Q2066.1 73.7508 2061.36 73.7508 Q2053.54 73.7508 2049.49 68.8897 Q2045.44 64.0286 2045.44 54.671 M2064.2 26.1121 L2064.2 26.1121 Z" fill="#000000" fill-rule="evenodd" fill-opacity="1" /><path clip-path="url(#clip670)" d="M2134.11 35.9153 Q2136.91 30.8922 2140.8 28.5022 Q2144.69 26.1121 2149.95 26.1121 Q2157.04 26.1121 2160.89 31.0947 Q2164.74 36.0368 2164.74 45.1919 L2164.74 72.576 L2157.25 72.576 L2157.25 45.4349 Q2157.25 38.913 2154.94 35.7533 Q2152.63 32.5936 2147.89 32.5936 Q2142.09 32.5936 2138.73 36.4419 Q2135.37 40.2903 2135.37 46.9338 L2135.37 72.576 L2127.88 72.576 L2127.88 45.4349 Q2127.88 38.8725 2125.57 35.7533 Q2123.26 32.5936 2118.44 32.5936 Q2112.73 32.5936 2109.36 36.4824 Q2106 40.3308 2106 46.9338 L2106 72.576 L2098.51 72.576 L2098.51 27.2059 L2106 27.2059 L2106 34.2544 Q2108.55 30.082 2112.12 28.0971 Q2115.68 26.1121 2120.58 26.1121 Q2125.53 26.1121 2128.97 28.6237 Q2132.45 31.1352 2134.11 35.9153 Z" fill="#000000" fill-rule="evenodd" fill-opacity="1" /><polyline clip-path="url(#clip672)" style="stroke:#ff0000; stroke-linecap:butt; stroke-linejoin:round; stroke-width:8; stroke-opacity:1; fill:none" points="
  241.656,404.3 252.74,404.3 263.823,404.3 274.907,404.3 285.99,404.3 297.074,404.3 308.158,404.3 319.241,404.3 330.325,404.3 341.408,404.3 
  352.492,404.3 363.575,404.3 374.659,404.3 385.743,404.3 396.826,404.3 407.91,404.3 418.993,404.3 430.077,404.3 441.16,404.3 452.244,404.3 
  463.328,404.3 474.411,404.3 485.495,404.3 496.578,404.3 507.662,404.3 518.745,404.3 529.829,404.3 540.913,404.3 551.996,404.3 563.08,404.3 
  574.163,404.3 585.247,404.3 596.33,404.3 607.414,404.3 618.498,404.3 629.581,404.3 640.665,404.3 651.748,404.3 662.832,404.3 673.915,404.3 
  684.999,404.3 696.083,404.3 707.166,404.3 718.25,404.3 729.333,404.3 740.417,404.3 751.5,404.3 762.584,404.3 773.667,404.3 784.751,404.3 
  795.835,404.3 806.918,404.3 818.002,404.3 829.085,404.3 840.169,404.3 851.252,404.3 862.336,404.3 873.42,404.3 884.503,404.3 895.587,404.3 
  906.67,404.3 917.754,404.3 928.837,404.3 939.921,404.3 951.005,404.3 962.088,404.3 973.172,404.3 984.255,404.3 995.339,404.3 1006.42,404.3 
  1017.51,404.3 1028.59,404.3 1039.67,404.3 1050.76,404.3 1061.84,404.3 1072.92,404.3 1084.01,404.3 1095.09,404.3 1106.17,404.3 1117.26,404.3 
  1128.34,404.3 1139.43,404.3 1150.51,404.3 1161.59,404.3 1172.68,404.3 1183.76,404.3 1194.84,404.3 1205.93,404.3 1217.01,404.3 1228.09,404.3 
  1239.18,404.3 1250.26,404.3 1261.34,404.3 1272.43,404.3 1283.51,404.3 1294.6,404.3 1305.68,404.3 1316.76,404.3 1327.85,404.3 1338.93,404.3 
  1350.01,404.3 1361.1,404.3 1372.18,404.3 1383.26,404.3 1394.35,404.3 1405.43,404.3 1416.51,404.3 1427.6,404.3 1438.68,404.3 1449.77,404.3 
  1460.85,404.3 1471.93,404.3 1483.02,404.3 1494.1,404.3 1505.18,404.3 1516.27,404.3 1527.35,404.3 1538.43,404.3 1549.52,404.3 1560.6,404.3 
  1571.68,404.3 1582.77,404.3 1593.85,404.3 1604.94,404.3 1616.02,494.346 1627.1,223.941 1638.19,311.065 1649.27,267.566 1660.35,415.775 1671.44,678.482 
  1682.52,299.34 1693.6,124.958 1704.69,574.74 1715.77,652.791 1726.85,404.3 1737.94,404.3 1749.02,404.3 1760.11,404.3 1771.19,404.3 1782.27,404.3 
  1793.36,404.3 1804.44,404.3 1815.52,404.3 1826.61,404.3 1837.69,404.3 1848.77,404.3 1859.86,404.3 1870.94,404.3 1882.02,404.3 1893.11,404.3 
  1904.19,404.3 1915.28,404.3 1926.36,404.3 1937.44,404.3 1948.53,404.3 1959.61,404.3 1970.69,404.3 1981.78,404.3 1992.86,404.3 2003.94,404.3 
  2015.03,404.3 2026.11,404.3 2037.19,404.3 2048.28,404.3 2059.36,404.3 2070.45,404.3 2081.53,404.3 2092.61,404.3 2103.7,404.3 2114.78,404.3 
  2125.86,404.3 2136.95,404.3 2148.03,404.3 2159.11,404.3 2170.2,404.3 2181.28,404.3 2192.36,404.3 2203.45,404.3 2214.53,404.3 2225.62,404.3 
  2236.7,408.292 2247.78,396.305 2258.87,400.167 2269.95,398.239 2281.03,404.809 2292.12,416.455 2303.2,399.647 2314.28,391.917 2325.37,411.856 2336.45,415.317 
  2347.53,404.3 2358.62,404.3 2369.7,404.3 2380.79,404.3 2391.87,404.3 2402.95,404.3 2414.04,404.3 2425.12,404.3 2436.2,404.3 2447.29,404.3 
  2458.37,404.3 2469.45,404.3 2480.54,404.3 2491.62,404.3 2502.7,404.3 2513.79,404.3 2524.87,404.3 2535.96,404.3 2547.04,404.3 2558.12,404.3 
  2569.21,404.3 2580.29,404.3 2591.37,404.3 2602.46,404.3 2613.54,404.3 2624.62,404.3 2635.71,404.3 2646.79,404.3 2657.87,404.3 2668.96,404.3 
  2680.04,404.3 2691.13,404.3 2702.21,404.3 2713.29,404.3 2724.38,404.3 2735.46,404.3 2746.54,404.3 2757.63,404.3 2768.71,404.3 2779.79,404.3 
  2790.88,404.3 2801.96,404.3 2813.04,404.3 2824.13,404.3 2835.21,404.3 2846.3,404.3 2857.38,404.3 2868.46,404.3 2879.55,404.3 2890.63,404.3 
  2901.71,404.3 2912.8,404.3 2923.88,404.3 2934.96,404.3 2946.05,404.3 2957.13,404.3 2968.21,404.3 2979.3,404.3 2990.38,404.3 3001.47,404.3 
  3012.55,404.3 3023.63,404.3 3034.72,404.3 3045.8,404.3 3056.88,404.3 3067.97,404.3 
  "/>
<polyline clip-path="url(#clip672)" style="stroke:#add8e6; stroke-linecap:butt; stroke-linejoin:round; stroke-width:8; stroke-opacity:1; fill:none" points="
  241.656,403.896 252.74,404.744 263.823,404.594 274.907,404.362 285.99,404.215 297.074,404.385 308.158,404.175 319.241,404.07 330.325,403.834 341.408,404.185 
  352.492,404.119 363.575,403.981 374.659,404.037 385.743,404.221 396.826,404.304 407.91,404.216 418.993,404.06 430.077,404.054 441.16,404 452.244,404.163 
  463.328,404.018 474.411,404.303 485.495,404.127 496.578,404.165 507.662,403.998 518.745,403.929 529.829,403.887 540.913,403.881 551.996,403.929 563.08,403.807 
  574.163,404.06 585.247,404.056 596.33,403.941 607.414,404.056 618.498,403.983 629.581,404.124 640.665,404.014 651.748,404.055 662.832,403.995 673.915,404.012 
  684.999,404.051 696.083,404.136 707.166,404.116 718.25,404.026 729.333,404.041 740.417,404.069 751.5,404.021 762.584,404.043 773.667,404.049 784.751,403.993 
  795.835,404.071 806.918,404.049 818.002,404.043 829.085,404.018 840.169,404.035 851.252,404.021 862.336,404.034 873.42,404.052 884.503,404.026 895.587,404.032 
  906.67,404.009 917.754,404.055 928.837,404.077 939.921,404.031 951.005,404.011 962.088,404.049 973.172,404.097 984.255,404.069 995.339,404.09 1006.42,404.065 
  1017.51,404.04 1028.59,404.036 1039.67,404.083 1050.76,404.054 1061.84,403.998 1072.92,403.996 1084.01,403.996 1095.09,404.013 1106.17,404.048 1117.26,404.038 
  1128.34,403.963 1139.43,404.033 1150.51,404.062 1161.59,404.083 1172.68,404.079 1183.76,404.031 1194.84,403.898 1205.93,404.115 1217.01,404.024 1228.09,404.232 
  1239.18,404.043 1250.26,404.011 1261.34,403.938 1272.43,403.965 1283.51,404.057 1294.6,404.447 1305.68,403.948 1316.76,404.288 1327.85,404.468 1338.93,404.039 
  1350.01,403.755 1361.1,403.559 1372.18,403.964 1383.26,404.091 1394.35,403.737 1405.43,402.923 1416.51,404.087 1427.6,404.058 1438.68,404.801 1449.77,402.913 
  1460.85,402.5 1471.93,403.544 1483.02,405.146 1494.1,404.316 1505.18,402.882 1516.27,404.655 1527.35,404.297 1538.43,406.042 1549.52,403.688 1560.6,399.854 
  1571.68,404.155 1582.77,409.263 1593.85,409.279 1604.94,396.811 1616.02,494.115 1627.1,221.913 1638.19,320.874 1649.27,292.902 1660.35,408.657 1671.44,665.45 
  1682.52,318.848 1693.6,141.581 1704.69,571.27 1715.77,659.009 1726.85,413.12 1737.94,412.05 1749.02,403.49 1760.11,404.807 1771.19,405.093 1782.27,403.109 
  1793.36,405.742 1804.44,403.905 1815.52,405.31 1826.61,403.662 1837.69,403.247 1848.77,403.229 1859.86,403.929 1870.94,403.95 1882.02,404.051 1893.11,403.627 
  1904.19,404.094 1915.28,403.853 1926.36,405.385 1937.44,405.066 1948.53,404.217 1959.61,404.166 1970.69,403.652 1981.78,404.725 1992.86,403.615 2003.94,403.929 
  2015.03,403.831 2026.11,404.57 2037.19,404.349 2048.28,403.973 2059.36,404.301 2070.45,403.998 2081.53,404.057 2092.61,404.119 2103.7,404.086 2114.78,403.909 
  2125.86,403.744 2136.95,404.092 2148.03,403.96 2159.11,404.147 2170.2,403.977 2181.28,404.081 2192.36,403.874 2203.45,403.981 2214.53,404.092 2225.62,404.044 
  2236.7,403.987 2247.78,403.996 2258.87,404.071 2269.95,404.031 2281.03,404.057 2292.12,404.093 2303.2,403.95 2314.28,404.048 2325.37,404.031 2336.45,404.116 
  2347.53,404.062 2358.62,404.073 2369.7,404.02 2380.79,404.068 2391.87,404.109 2402.95,404.03 2414.04,404.098 2425.12,403.997 2436.2,404.069 2447.29,404.07 
  2458.37,404.121 2469.45,404.004 2480.54,403.992 2491.62,404.049 2502.7,404.072 2513.79,404.038 2524.87,404.011 2535.96,404.051 2547.04,403.956 2558.12,404.009 
  2569.21,404.073 2580.29,404.082 2591.37,403.948 2602.46,404.036 2613.54,404.126 2624.62,404.012 2635.71,403.991 2646.79,404.104 2657.87,404.088 2668.96,404.091 
  2680.04,404.06 2691.13,404.118 2702.21,404.078 2713.29,404.052 2724.38,404.114 2735.46,404.089 2746.54,404.078 2757.63,404.007 2768.71,404.048 2779.79,404.039 
  2790.88,403.958 2801.96,404.115 2813.04,403.861 2824.13,404.17 2835.21,404.077 2846.3,404.096 2857.38,403.922 2868.46,403.986 2879.55,404.061 2890.63,404.298 
  2901.71,403.963 2912.8,404.024 2923.88,404.013 2934.96,403.922 2946.05,403.755 2957.13,403.496 2968.21,404.188 2979.3,404.079 2990.38,404.309 3001.47,403.705 
  3012.55,403.864 3023.63,403.541 3034.72,404.096 3045.8,403.932 3056.88,404.144 3067.97,404.173 
  "/>
<path clip-path="url(#clip670)" d="
M2586.15 283.43 L3052.89 283.43 L3052.89 127.91 L2586.15 127.91  Z
  " fill="#ffffff" fill-rule="evenodd" fill-opacity="1"/>
<polyline clip-path="url(#clip670)" style="stroke:#000000; stroke-linecap:butt; stroke-linejoin:round; stroke-width:4; stroke-opacity:1; fill:none" points="
  2586.15,283.43 3052.89,283.43 3052.89,127.91 2586.15,127.91 2586.15,283.43 
  "/>
<polyline clip-path="url(#clip670)" style="stroke:#ff0000; stroke-linecap:butt; stroke-linejoin:round; stroke-width:4; stroke-opacity:1; fill:none" points="
  2619.44,179.75 2819.16,179.75 
  "/>
<path clip-path="url(#clip670)" d="M2877.11 171.104 L2867.73 183.72 L2877.59 197.03 L2872.57 197.03 L2865.02 186.845 L2857.48 197.03 L2852.45 197.03 L2862.52 183.465 L2853.31 171.104 L2858.33 171.104 L2865.21 180.34 L2872.08 171.104 L2877.11 171.104 Z" fill="#000000" fill-rule="evenodd" fill-opacity="1" /><path clip-path="url(#clip670)" d="M2903.31 204.9 L2903.31 208.21 L2878.68 208.21 L2878.68 204.9 L2903.31 204.9 Z" fill="#000000" fill-rule="evenodd" fill-opacity="1" /><path clip-path="url(#clip670)" d="M2907.31 171.104 L2911.57 171.104 L2911.57 197.493 Q2911.57 202.447 2909.67 204.669 Q2907.8 206.891 2903.61 206.891 L2901.99 206.891 L2901.99 203.28 L2903.12 203.28 Q2905.55 203.28 2906.43 202.146 Q2907.31 201.035 2907.31 197.493 L2907.31 171.104 M2907.31 161.012 L2911.57 161.012 L2911.57 166.405 L2907.31 166.405 L2907.31 161.012 Z" fill="#000000" fill-rule="evenodd" fill-opacity="1" /><polyline clip-path="url(#clip670)" style="stroke:#add8e6; stroke-linecap:butt; stroke-linejoin:round; stroke-width:4; stroke-opacity:1; fill:none" points="
  2619.44,231.59 2819.16,231.59 
  "/>
<path clip-path="url(#clip670)" d="M2874.17 233.222 L2874.17 248.87 L2869.91 248.87 L2869.91 233.361 Q2869.91 229.68 2868.47 227.852 Q2867.04 226.023 2864.17 226.023 Q2860.72 226.023 2858.73 228.222 Q2856.73 230.421 2856.73 234.217 L2856.73 248.87 L2852.45 248.87 L2852.45 212.852 L2856.73 212.852 L2856.73 226.972 Q2858.26 224.634 2860.32 223.477 Q2862.41 222.319 2865.11 222.319 Q2869.58 222.319 2871.87 225.097 Q2874.17 227.852 2874.17 233.222 Z" fill="#000000" fill-rule="evenodd" fill-opacity="1" /><path clip-path="url(#clip670)" d="M2894.44 235.838 Q2889.28 235.838 2887.29 237.018 Q2885.3 238.199 2885.3 241.046 Q2885.3 243.314 2886.78 244.657 Q2888.29 245.976 2890.86 245.976 Q2894.4 245.976 2896.53 243.476 Q2898.68 240.953 2898.68 236.787 L2898.68 235.838 L2894.44 235.838 M2902.94 234.078 L2902.94 248.87 L2898.68 248.87 L2898.68 244.935 Q2897.22 247.296 2895.04 248.43 Q2892.87 249.541 2889.72 249.541 Q2885.74 249.541 2883.38 247.319 Q2881.04 245.074 2881.04 241.324 Q2881.04 236.949 2883.96 234.727 Q2886.9 232.504 2892.71 232.504 L2898.68 232.504 L2898.68 232.088 Q2898.68 229.148 2896.73 227.551 Q2894.81 225.93 2891.32 225.93 Q2889.1 225.93 2886.99 226.463 Q2884.88 226.995 2882.94 228.06 L2882.94 224.125 Q2885.28 223.222 2887.48 222.782 Q2889.67 222.319 2891.76 222.319 Q2897.38 222.319 2900.16 225.236 Q2902.94 228.153 2902.94 234.078 Z" fill="#000000" fill-rule="evenodd" fill-opacity="1" /><path clip-path="url(#clip670)" d="M2915.92 215.583 L2915.92 222.944 L2924.7 222.944 L2924.7 226.254 L2915.92 226.254 L2915.92 240.328 Q2915.92 243.5 2916.78 244.402 Q2917.66 245.305 2920.32 245.305 L2924.7 245.305 L2924.7 248.87 L2920.32 248.87 Q2915.39 248.87 2913.52 247.041 Q2911.64 245.189 2911.64 240.328 L2911.64 226.254 L2908.52 226.254 L2908.52 222.944 L2911.64 222.944 L2911.64 215.583 L2915.92 215.583 Z" fill="#000000" fill-rule="evenodd" fill-opacity="1" /><path clip-path="url(#clip670)" d="M2951.85 222.944 L2942.48 235.56 L2952.34 248.87 L2947.31 248.87 L2939.77 238.685 L2932.22 248.87 L2927.2 248.87 L2937.27 235.305 L2928.05 222.944 L2933.08 222.944 L2939.95 232.18 L2946.83 222.944 L2951.85 222.944 Z" fill="#000000" fill-rule="evenodd" fill-opacity="1" /><path clip-path="url(#clip670)" d="M2978.05 256.74 L2978.05 260.05 L2953.42 260.05 L2953.42 256.74 L2978.05 256.74 Z" fill="#000000" fill-rule="evenodd" fill-opacity="1" /><path clip-path="url(#clip670)" d="M2982.06 222.944 L2986.32 222.944 L2986.32 249.333 Q2986.32 254.287 2984.42 256.509 Q2982.54 258.731 2978.35 258.731 L2976.73 258.731 L2976.73 255.12 L2977.87 255.12 Q2980.3 255.12 2981.18 253.986 Q2982.06 252.875 2982.06 249.333 L2982.06 222.944 M2982.06 212.852 L2986.32 212.852 L2986.32 218.245 L2982.06 218.245 L2982.06 212.852 Z" fill="#000000" fill-rule="evenodd" fill-opacity="1" /><path clip-path="url(#clip670)" d="
M156.867 1495.09 L3152.76 1495.09 L3152.76 908.352 L156.867 908.352  Z
  " fill="#ffffff" fill-rule="evenodd" fill-opacity="1"/>
<defs>
  <clipPath id="clip673">
    <rect x="156" y="908" width="2997" height="588"/>
  </clipPath>
</defs>
<polyline clip-path="url(#clip673)" style="stroke:#000000; stroke-linecap:butt; stroke-linejoin:round; stroke-width:2; stroke-opacity:0.1; fill:none" points="
  230.573,1495.09 230.573,908.352 
  "/>
<polyline clip-path="url(#clip673)" style="stroke:#000000; stroke-linecap:butt; stroke-linejoin:round; stroke-width:2; stroke-opacity:0.1; fill:none" points="
  784.751,1495.09 784.751,908.352 
  "/>
<polyline clip-path="url(#clip673)" style="stroke:#000000; stroke-linecap:butt; stroke-linejoin:round; stroke-width:2; stroke-opacity:0.1; fill:none" points="
  1338.93,1495.09 1338.93,908.352 
  "/>
<polyline clip-path="url(#clip673)" style="stroke:#000000; stroke-linecap:butt; stroke-linejoin:round; stroke-width:2; stroke-opacity:0.1; fill:none" points="
  1893.11,1495.09 1893.11,908.352 
  "/>
<polyline clip-path="url(#clip673)" style="stroke:#000000; stroke-linecap:butt; stroke-linejoin:round; stroke-width:2; stroke-opacity:0.1; fill:none" points="
  2447.29,1495.09 2447.29,908.352 
  "/>
<polyline clip-path="url(#clip673)" style="stroke:#000000; stroke-linecap:butt; stroke-linejoin:round; stroke-width:2; stroke-opacity:0.1; fill:none" points="
  3001.47,1495.09 3001.47,908.352 
  "/>
<polyline clip-path="url(#clip670)" style="stroke:#000000; stroke-linecap:butt; stroke-linejoin:round; stroke-width:4; stroke-opacity:1; fill:none" points="
  156.867,1495.09 3152.76,1495.09 
  "/>
<polyline clip-path="url(#clip670)" style="stroke:#000000; stroke-linecap:butt; stroke-linejoin:round; stroke-width:4; stroke-opacity:1; fill:none" points="
  230.573,1495.09 230.573,1476.19 
  "/>
<polyline clip-path="url(#clip670)" style="stroke:#000000; stroke-linecap:butt; stroke-linejoin:round; stroke-width:4; stroke-opacity:1; fill:none" points="
  784.751,1495.09 784.751,1476.19 
  "/>
<polyline clip-path="url(#clip670)" style="stroke:#000000; stroke-linecap:butt; stroke-linejoin:round; stroke-width:4; stroke-opacity:1; fill:none" points="
  1338.93,1495.09 1338.93,1476.19 
  "/>
<polyline clip-path="url(#clip670)" style="stroke:#000000; stroke-linecap:butt; stroke-linejoin:round; stroke-width:4; stroke-opacity:1; fill:none" points="
  1893.11,1495.09 1893.11,1476.19 
  "/>
<polyline clip-path="url(#clip670)" style="stroke:#000000; stroke-linecap:butt; stroke-linejoin:round; stroke-width:4; stroke-opacity:1; fill:none" points="
  2447.29,1495.09 2447.29,1476.19 
  "/>
<polyline clip-path="url(#clip670)" style="stroke:#000000; stroke-linecap:butt; stroke-linejoin:round; stroke-width:4; stroke-opacity:1; fill:none" points="
  3001.47,1495.09 3001.47,1476.19 
  "/>
<path clip-path="url(#clip670)" d="M230.573 1532.41 Q226.961 1532.41 225.133 1535.97 Q223.327 1539.51 223.327 1546.64 Q223.327 1553.75 225.133 1557.31 Q226.961 1560.86 230.573 1560.86 Q234.207 1560.86 236.012 1557.31 Q237.841 1553.75 237.841 1546.64 Q237.841 1539.51 236.012 1535.97 Q234.207 1532.41 230.573 1532.41 M230.573 1528.7 Q236.383 1528.7 239.438 1533.31 Q242.517 1537.89 242.517 1546.64 Q242.517 1555.37 239.438 1559.98 Q236.383 1564.56 230.573 1564.56 Q224.762 1564.56 221.684 1559.98 Q218.628 1555.37 218.628 1546.64 Q218.628 1537.89 221.684 1533.31 Q224.762 1528.7 230.573 1528.7 Z" fill="#000000" fill-rule="evenodd" fill-opacity="1" /><path clip-path="url(#clip670)" d="M759.45 1529.33 L777.807 1529.33 L777.807 1533.26 L763.733 1533.26 L763.733 1541.74 Q764.751 1541.39 765.77 1541.23 Q766.788 1541.04 767.807 1541.04 Q773.594 1541.04 776.973 1544.21 Q780.353 1547.38 780.353 1552.8 Q780.353 1558.38 776.881 1561.48 Q773.409 1564.56 767.089 1564.56 Q764.913 1564.56 762.645 1564.19 Q760.399 1563.82 757.992 1563.08 L757.992 1558.38 Q760.075 1559.51 762.297 1560.07 Q764.52 1560.62 766.997 1560.62 Q771.001 1560.62 773.339 1558.52 Q775.677 1556.41 775.677 1552.8 Q775.677 1549.19 773.339 1547.08 Q771.001 1544.98 766.997 1544.98 Q765.122 1544.98 763.247 1545.39 Q761.395 1545.81 759.45 1546.69 L759.45 1529.33 Z" fill="#000000" fill-rule="evenodd" fill-opacity="1" /><path clip-path="url(#clip670)" d="M799.566 1532.41 Q795.955 1532.41 794.126 1535.97 Q792.32 1539.51 792.32 1546.64 Q792.32 1553.75 794.126 1557.31 Q795.955 1560.86 799.566 1560.86 Q803.2 1560.86 805.006 1557.31 Q806.834 1553.75 806.834 1546.64 Q806.834 1539.51 805.006 1535.97 Q803.2 1532.41 799.566 1532.41 M799.566 1528.7 Q805.376 1528.7 808.431 1533.31 Q811.51 1537.89 811.51 1546.64 Q811.51 1555.37 808.431 1559.98 Q805.376 1564.56 799.566 1564.56 Q793.756 1564.56 790.677 1559.98 Q787.621 1555.37 787.621 1546.64 Q787.621 1537.89 790.677 1533.31 Q793.756 1528.7 799.566 1528.7 Z" fill="#000000" fill-rule="evenodd" fill-opacity="1" /><path clip-path="url(#clip670)" d="M1298.54 1559.95 L1306.18 1559.95 L1306.18 1533.59 L1297.86 1535.25 L1297.86 1530.99 L1306.13 1529.33 L1310.8 1529.33 L1310.8 1559.95 L1318.44 1559.95 L1318.44 1563.89 L1298.54 1563.89 L1298.54 1559.95 Z" fill="#000000" fill-rule="evenodd" fill-opacity="1" /><path clip-path="url(#clip670)" d="M1337.89 1532.41 Q1334.28 1532.41 1332.45 1535.97 Q1330.64 1539.51 1330.64 1546.64 Q1330.64 1553.75 1332.45 1557.31 Q1334.28 1560.86 1337.89 1560.86 Q1341.52 1560.86 1343.33 1557.31 Q1345.16 1553.75 1345.16 1546.64 Q1345.16 1539.51 1343.33 1535.97 Q1341.52 1532.41 1337.89 1532.41 M1337.89 1528.7 Q1343.7 1528.7 1346.75 1533.31 Q1349.83 1537.89 1349.83 1546.64 Q1349.83 1555.37 1346.75 1559.98 Q1343.7 1564.56 1337.89 1564.56 Q1332.08 1564.56 1329 1559.98 Q1325.94 1555.37 1325.94 1546.64 Q1325.94 1537.89 1329 1533.31 Q1332.08 1528.7 1337.89 1528.7 Z" fill="#000000" fill-rule="evenodd" fill-opacity="1" /><path clip-path="url(#clip670)" d="M1368.05 1532.41 Q1364.44 1532.41 1362.61 1535.97 Q1360.8 1539.51 1360.8 1546.64 Q1360.8 1553.75 1362.61 1557.31 Q1364.44 1560.86 1368.05 1560.86 Q1371.68 1560.86 1373.49 1557.31 Q1375.32 1553.75 1375.32 1546.64 Q1375.32 1539.51 1373.49 1535.97 Q1371.68 1532.41 1368.05 1532.41 M1368.05 1528.7 Q1373.86 1528.7 1376.92 1533.31 Q1379.99 1537.89 1379.99 1546.64 Q1379.99 1555.37 1376.92 1559.98 Q1373.86 1564.56 1368.05 1564.56 Q1362.24 1564.56 1359.16 1559.98 Q1356.11 1555.37 1356.11 1546.64 Q1356.11 1537.89 1359.16 1533.31 Q1362.24 1528.7 1368.05 1528.7 Z" fill="#000000" fill-rule="evenodd" fill-opacity="1" /><path clip-path="url(#clip670)" d="M1852.71 1559.95 L1860.35 1559.95 L1860.35 1533.59 L1852.04 1535.25 L1852.04 1530.99 L1860.31 1529.33 L1864.98 1529.33 L1864.98 1559.95 L1872.62 1559.95 L1872.62 1563.89 L1852.71 1563.89 L1852.71 1559.95 Z" fill="#000000" fill-rule="evenodd" fill-opacity="1" /><path clip-path="url(#clip670)" d="M1882.11 1529.33 L1900.47 1529.33 L1900.47 1533.26 L1886.4 1533.26 L1886.4 1541.74 Q1887.41 1541.39 1888.43 1541.23 Q1889.45 1541.04 1890.47 1541.04 Q1896.26 1541.04 1899.64 1544.21 Q1903.02 1547.38 1903.02 1552.8 Q1903.02 1558.38 1899.54 1561.48 Q1896.07 1564.56 1889.75 1564.56 Q1887.58 1564.56 1885.31 1564.19 Q1883.06 1563.82 1880.65 1563.08 L1880.65 1558.38 Q1882.74 1559.51 1884.96 1560.07 Q1887.18 1560.62 1889.66 1560.62 Q1893.66 1560.62 1896 1558.52 Q1898.34 1556.41 1898.34 1552.8 Q1898.34 1549.19 1896 1547.08 Q1893.66 1544.98 1889.66 1544.98 Q1887.78 1544.98 1885.91 1545.39 Q1884.06 1545.81 1882.11 1546.69 L1882.11 1529.33 Z" fill="#000000" fill-rule="evenodd" fill-opacity="1" /><path clip-path="url(#clip670)" d="M1922.23 1532.41 Q1918.62 1532.41 1916.79 1535.97 Q1914.98 1539.51 1914.98 1546.64 Q1914.98 1553.75 1916.79 1557.31 Q1918.62 1560.86 1922.23 1560.86 Q1925.86 1560.86 1927.67 1557.31 Q1929.5 1553.75 1929.5 1546.64 Q1929.5 1539.51 1927.67 1535.97 Q1925.86 1532.41 1922.23 1532.41 M1922.23 1528.7 Q1928.04 1528.7 1931.09 1533.31 Q1934.17 1537.89 1934.17 1546.64 Q1934.17 1555.37 1931.09 1559.98 Q1928.04 1564.56 1922.23 1564.56 Q1916.42 1564.56 1913.34 1559.98 Q1910.28 1555.37 1910.28 1546.64 Q1910.28 1537.89 1913.34 1533.31 Q1916.42 1528.7 1922.23 1528.7 Z" fill="#000000" fill-rule="evenodd" fill-opacity="1" /><path clip-path="url(#clip670)" d="M2410.98 1559.95 L2427.3 1559.95 L2427.3 1563.89 L2405.35 1563.89 L2405.35 1559.95 Q2408.02 1557.2 2412.6 1552.57 Q2417.21 1547.92 2418.39 1546.57 Q2420.63 1544.05 2421.51 1542.31 Q2422.41 1540.55 2422.41 1538.86 Q2422.41 1536.11 2420.47 1534.37 Q2418.55 1532.64 2415.45 1532.64 Q2413.25 1532.64 2410.79 1533.4 Q2408.36 1534.17 2405.59 1535.72 L2405.59 1530.99 Q2408.41 1529.86 2410.86 1529.28 Q2413.32 1528.7 2415.35 1528.7 Q2420.72 1528.7 2423.92 1531.39 Q2427.11 1534.07 2427.11 1538.56 Q2427.11 1540.69 2426.3 1542.61 Q2425.52 1544.51 2423.41 1547.11 Q2422.83 1547.78 2419.73 1550.99 Q2416.63 1554.19 2410.98 1559.95 Z" fill="#000000" fill-rule="evenodd" fill-opacity="1" /><path clip-path="url(#clip670)" d="M2447.11 1532.41 Q2443.5 1532.41 2441.67 1535.97 Q2439.87 1539.51 2439.87 1546.64 Q2439.87 1553.75 2441.67 1557.31 Q2443.5 1560.86 2447.11 1560.86 Q2450.75 1560.86 2452.55 1557.31 Q2454.38 1553.75 2454.38 1546.64 Q2454.38 1539.51 2452.55 1535.97 Q2450.75 1532.41 2447.11 1532.41 M2447.11 1528.7 Q2452.92 1528.7 2455.98 1533.31 Q2459.06 1537.89 2459.06 1546.64 Q2459.06 1555.37 2455.98 1559.98 Q2452.92 1564.56 2447.11 1564.56 Q2441.3 1564.56 2438.22 1559.98 Q2435.17 1555.37 2435.17 1546.64 Q2435.17 1537.89 2438.22 1533.31 Q2441.3 1528.7 2447.11 1528.7 Z" fill="#000000" fill-rule="evenodd" fill-opacity="1" /><path clip-path="url(#clip670)" d="M2477.27 1532.41 Q2473.66 1532.41 2471.84 1535.97 Q2470.03 1539.51 2470.03 1546.64 Q2470.03 1553.75 2471.84 1557.31 Q2473.66 1560.86 2477.27 1560.86 Q2480.91 1560.86 2482.71 1557.31 Q2484.54 1553.75 2484.54 1546.64 Q2484.54 1539.51 2482.71 1535.97 Q2480.91 1532.41 2477.27 1532.41 M2477.27 1528.7 Q2483.09 1528.7 2486.14 1533.31 Q2489.22 1537.89 2489.22 1546.64 Q2489.22 1555.37 2486.14 1559.98 Q2483.09 1564.56 2477.27 1564.56 Q2471.46 1564.56 2468.39 1559.98 Q2465.33 1555.37 2465.33 1546.64 Q2465.33 1537.89 2468.39 1533.31 Q2471.46 1528.7 2477.27 1528.7 Z" fill="#000000" fill-rule="evenodd" fill-opacity="1" /><path clip-path="url(#clip670)" d="M2965.16 1559.95 L2981.48 1559.95 L2981.48 1563.89 L2959.53 1563.89 L2959.53 1559.95 Q2962.19 1557.2 2966.78 1552.57 Q2971.38 1547.92 2972.56 1546.57 Q2974.81 1544.05 2975.69 1542.31 Q2976.59 1540.55 2976.59 1538.86 Q2976.59 1536.11 2974.65 1534.37 Q2972.73 1532.64 2969.63 1532.64 Q2967.43 1532.64 2964.97 1533.4 Q2962.54 1534.17 2959.76 1535.72 L2959.76 1530.99 Q2962.59 1529.86 2965.04 1529.28 Q2967.5 1528.7 2969.53 1528.7 Q2974.9 1528.7 2978.1 1531.39 Q2981.29 1534.07 2981.29 1538.56 Q2981.29 1540.69 2980.48 1542.61 Q2979.69 1544.51 2977.59 1547.11 Q2977.01 1547.78 2973.91 1550.99 Q2970.81 1554.19 2965.16 1559.95 Z" fill="#000000" fill-rule="evenodd" fill-opacity="1" /><path clip-path="url(#clip670)" d="M2991.34 1529.33 L3009.69 1529.33 L3009.69 1533.26 L2995.62 1533.26 L2995.62 1541.74 Q2996.64 1541.39 2997.66 1541.23 Q2998.68 1541.04 2999.69 1541.04 Q3005.48 1541.04 3008.86 1544.21 Q3012.24 1547.38 3012.24 1552.8 Q3012.24 1558.38 3008.77 1561.48 Q3005.3 1564.56 2998.98 1564.56 Q2996.8 1564.56 2994.53 1564.19 Q2992.29 1563.82 2989.88 1563.08 L2989.88 1558.38 Q2991.96 1559.51 2994.19 1560.07 Q2996.41 1560.62 2998.88 1560.62 Q3002.89 1560.62 3005.23 1558.52 Q3007.56 1556.41 3007.56 1552.8 Q3007.56 1549.19 3005.23 1547.08 Q3002.89 1544.98 2998.88 1544.98 Q2997.01 1544.98 2995.13 1545.39 Q2993.28 1545.81 2991.34 1546.69 L2991.34 1529.33 Z" fill="#000000" fill-rule="evenodd" fill-opacity="1" /><path clip-path="url(#clip670)" d="M3031.45 1532.41 Q3027.84 1532.41 3026.01 1535.97 Q3024.21 1539.51 3024.21 1546.64 Q3024.21 1553.75 3026.01 1557.31 Q3027.84 1560.86 3031.45 1560.86 Q3035.09 1560.86 3036.89 1557.31 Q3038.72 1553.75 3038.72 1546.64 Q3038.72 1539.51 3036.89 1535.97 Q3035.09 1532.41 3031.45 1532.41 M3031.45 1528.7 Q3037.26 1528.7 3040.32 1533.31 Q3043.4 1537.89 3043.4 1546.64 Q3043.4 1555.37 3040.32 1559.98 Q3037.26 1564.56 3031.45 1564.56 Q3025.64 1564.56 3022.56 1559.98 Q3019.51 1555.37 3019.51 1546.64 Q3019.51 1537.89 3022.56 1533.31 Q3025.64 1528.7 3031.45 1528.7 Z" fill="#000000" fill-rule="evenodd" fill-opacity="1" /><polyline clip-path="url(#clip673)" style="stroke:#000000; stroke-linecap:butt; stroke-linejoin:round; stroke-width:2; stroke-opacity:0.1; fill:none" points="
  156.867,1438.15 3152.76,1438.15 
  "/>
<polyline clip-path="url(#clip673)" style="stroke:#000000; stroke-linecap:butt; stroke-linejoin:round; stroke-width:2; stroke-opacity:0.1; fill:none" points="
  156.867,1264.55 3152.76,1264.55 
  "/>
<polyline clip-path="url(#clip673)" style="stroke:#000000; stroke-linecap:butt; stroke-linejoin:round; stroke-width:2; stroke-opacity:0.1; fill:none" points="
  156.867,1090.94 3152.76,1090.94 
  "/>
<polyline clip-path="url(#clip673)" style="stroke:#000000; stroke-linecap:butt; stroke-linejoin:round; stroke-width:2; stroke-opacity:0.1; fill:none" points="
  156.867,917.336 3152.76,917.336 
  "/>
<polyline clip-path="url(#clip670)" style="stroke:#000000; stroke-linecap:butt; stroke-linejoin:round; stroke-width:4; stroke-opacity:1; fill:none" points="
  156.867,1495.09 156.867,908.352 
  "/>
<polyline clip-path="url(#clip670)" style="stroke:#000000; stroke-linecap:butt; stroke-linejoin:round; stroke-width:4; stroke-opacity:1; fill:none" points="
  156.867,1438.15 175.764,1438.15 
  "/>
<polyline clip-path="url(#clip670)" style="stroke:#000000; stroke-linecap:butt; stroke-linejoin:round; stroke-width:4; stroke-opacity:1; fill:none" points="
  156.867,1264.55 175.764,1264.55 
  "/>
<polyline clip-path="url(#clip670)" style="stroke:#000000; stroke-linecap:butt; stroke-linejoin:round; stroke-width:4; stroke-opacity:1; fill:none" points="
  156.867,1090.94 175.764,1090.94 
  "/>
<polyline clip-path="url(#clip670)" style="stroke:#000000; stroke-linecap:butt; stroke-linejoin:round; stroke-width:4; stroke-opacity:1; fill:none" points="
  156.867,917.336 175.764,917.336 
  "/>
<path clip-path="url(#clip670)" d="M48.1495 1438.6 L77.8253 1438.6 L77.8253 1442.54 L48.1495 1442.54 L48.1495 1438.6 Z" fill="#000000" fill-rule="evenodd" fill-opacity="1" /><path clip-path="url(#clip670)" d="M87.9641 1420.87 L106.321 1420.87 L106.321 1424.81 L92.2465 1424.81 L92.2465 1433.28 Q93.265 1432.93 94.2835 1432.77 Q95.3021 1432.58 96.3206 1432.58 Q102.108 1432.58 105.487 1435.76 Q108.867 1438.93 108.867 1444.34 Q108.867 1449.92 105.395 1453.02 Q101.922 1456.1 95.603 1456.1 Q93.4271 1456.1 91.1586 1455.73 Q88.9132 1455.36 86.5058 1454.62 L86.5058 1449.92 Q88.5891 1451.06 90.8113 1451.61 Q93.0335 1452.17 95.5104 1452.17 Q99.515 1452.17 101.853 1450.06 Q104.191 1447.96 104.191 1444.34 Q104.191 1440.73 101.853 1438.63 Q99.515 1436.52 95.5104 1436.52 Q93.6354 1436.52 91.7604 1436.94 Q89.9086 1437.35 87.9641 1438.23 L87.9641 1420.87 Z" fill="#000000" fill-rule="evenodd" fill-opacity="1" /><path clip-path="url(#clip670)" d="M96.9224 1250.35 Q93.3113 1250.35 91.4826 1253.91 Q89.6771 1257.45 89.6771 1264.58 Q89.6771 1271.69 91.4826 1275.25 Q93.3113 1278.79 96.9224 1278.79 Q100.557 1278.79 102.362 1275.25 Q104.191 1271.69 104.191 1264.58 Q104.191 1257.45 102.362 1253.91 Q100.557 1250.35 96.9224 1250.35 M96.9224 1246.64 Q102.733 1246.64 105.788 1251.25 Q108.867 1255.83 108.867 1264.58 Q108.867 1273.31 105.788 1277.91 Q102.733 1282.5 96.9224 1282.5 Q91.1123 1282.5 88.0336 1277.91 Q84.978 1273.31 84.978 1264.58 Q84.978 1255.83 88.0336 1251.25 Q91.1123 1246.64 96.9224 1246.64 Z" fill="#000000" fill-rule="evenodd" fill-opacity="1" /><path clip-path="url(#clip670)" d="M87.9641 1073.66 L106.321 1073.66 L106.321 1077.6 L92.2465 1077.6 L92.2465 1086.07 Q93.265 1085.72 94.2835 1085.56 Q95.3021 1085.37 96.3206 1085.37 Q102.108 1085.37 105.487 1088.55 Q108.867 1091.72 108.867 1097.13 Q108.867 1102.71 105.395 1105.81 Q101.922 1108.89 95.603 1108.89 Q93.4271 1108.89 91.1586 1108.52 Q88.9132 1108.15 86.5058 1107.41 L86.5058 1102.71 Q88.5891 1103.85 90.8113 1104.4 Q93.0335 1104.96 95.5104 1104.96 Q99.515 1104.96 101.853 1102.85 Q104.191 1100.74 104.191 1097.13 Q104.191 1093.52 101.853 1091.42 Q99.515 1089.31 95.5104 1089.31 Q93.6354 1089.31 91.7604 1089.73 Q89.9086 1090.14 87.9641 1091.02 L87.9641 1073.66 Z" fill="#000000" fill-rule="evenodd" fill-opacity="1" /><path clip-path="url(#clip670)" d="M57.5708 930.681 L65.2096 930.681 L65.2096 904.316 L56.8995 905.982 L56.8995 901.723 L65.1633 900.056 L69.8392 900.056 L69.8392 930.681 L77.4781 930.681 L77.4781 934.616 L57.5708 934.616 L57.5708 930.681 Z" fill="#000000" fill-rule="evenodd" fill-opacity="1" /><path clip-path="url(#clip670)" d="M96.9224 903.135 Q93.3113 903.135 91.4826 906.7 Q89.6771 910.242 89.6771 917.371 Q89.6771 924.478 91.4826 928.042 Q93.3113 931.584 96.9224 931.584 Q100.557 931.584 102.362 928.042 Q104.191 924.478 104.191 917.371 Q104.191 910.242 102.362 906.7 Q100.557 903.135 96.9224 903.135 M96.9224 899.431 Q102.733 899.431 105.788 904.038 Q108.867 908.621 108.867 917.371 Q108.867 926.098 105.788 930.704 Q102.733 935.288 96.9224 935.288 Q91.1123 935.288 88.0336 930.704 Q84.978 926.098 84.978 917.371 Q84.978 908.621 88.0336 904.038 Q91.1123 899.431 96.9224 899.431 Z" fill="#000000" fill-rule="evenodd" fill-opacity="1" /><path clip-path="url(#clip670)" d="M1171.46 834.173 Q1170.2 833.444 1168.7 833.12 Q1167.24 832.756 1165.46 832.756 Q1159.14 832.756 1155.74 836.888 Q1152.38 840.979 1152.38 848.676 L1152.38 872.576 L1144.88 872.576 L1144.88 827.206 L1152.38 827.206 L1152.38 834.254 Q1154.73 830.123 1158.49 828.138 Q1162.26 826.112 1167.65 826.112 Q1168.42 826.112 1169.35 826.234 Q1170.28 826.315 1171.42 826.517 L1171.46 834.173 Z" fill="#000000" fill-rule="evenodd" fill-opacity="1" /><path clip-path="url(#clip670)" d="M1216.26 848.028 L1216.26 851.673 L1181.99 851.673 Q1182.48 859.37 1186.61 863.421 Q1190.78 867.431 1198.19 867.431 Q1202.49 867.431 1206.5 866.378 Q1210.55 865.325 1214.52 863.218 L1214.52 870.267 Q1210.51 871.968 1206.3 872.86 Q1202.08 873.751 1197.75 873.751 Q1186.89 873.751 1180.53 867.431 Q1174.21 861.112 1174.21 850.337 Q1174.21 839.197 1180.21 832.675 Q1186.24 826.112 1196.45 826.112 Q1205.61 826.112 1210.91 832.026 Q1216.26 837.9 1216.26 848.028 M1208.81 845.84 Q1208.73 839.723 1205.36 836.077 Q1202.04 832.432 1196.53 832.432 Q1190.29 832.432 1186.53 835.956 Q1182.8 839.48 1182.23 845.881 L1208.81 845.84 Z" fill="#000000" fill-rule="evenodd" fill-opacity="1" /><path clip-path="url(#clip670)" d="M1261.14 828.948 L1261.14 835.915 Q1257.98 834.173 1254.78 833.323 Q1251.62 832.432 1248.38 832.432 Q1241.13 832.432 1237.12 837.05 Q1233.11 841.627 1233.11 849.931 Q1233.11 858.236 1237.12 862.854 Q1241.13 867.431 1248.38 867.431 Q1251.62 867.431 1254.78 866.581 Q1257.98 865.689 1261.14 863.948 L1261.14 870.834 Q1258.03 872.292 1254.66 873.022 Q1251.34 873.751 1247.57 873.751 Q1237.33 873.751 1231.29 867.31 Q1225.25 860.869 1225.25 849.931 Q1225.25 838.832 1231.33 832.472 Q1237.45 826.112 1248.06 826.112 Q1251.5 826.112 1254.78 826.841 Q1258.07 827.53 1261.14 828.948 Z" fill="#000000" fill-rule="evenodd" fill-opacity="1" /><path clip-path="url(#clip670)" d="M1291.69 832.432 Q1285.69 832.432 1282.21 837.131 Q1278.73 841.789 1278.73 849.931 Q1278.73 858.074 1282.17 862.773 Q1285.65 867.431 1291.69 867.431 Q1297.64 867.431 1301.13 862.732 Q1304.61 858.033 1304.61 849.931 Q1304.61 841.87 1301.13 837.171 Q1297.64 832.432 1291.69 832.432 M1291.69 826.112 Q1301.41 826.112 1306.96 832.432 Q1312.51 838.751 1312.51 849.931 Q1312.51 861.071 1306.96 867.431 Q1301.41 873.751 1291.69 873.751 Q1281.93 873.751 1276.38 867.431 Q1270.87 861.071 1270.87 849.931 Q1270.87 838.751 1276.38 832.432 Q1281.93 826.112 1291.69 826.112 Z" fill="#000000" fill-rule="evenodd" fill-opacity="1" /><path clip-path="url(#clip670)" d="M1362.58 845.192 L1362.58 872.576 L1355.13 872.576 L1355.13 845.435 Q1355.13 838.994 1352.61 835.794 Q1350.1 832.594 1345.08 832.594 Q1339.04 832.594 1335.56 836.442 Q1332.08 840.29 1332.08 846.934 L1332.08 872.576 L1324.58 872.576 L1324.58 827.206 L1332.08 827.206 L1332.08 834.254 Q1334.75 830.163 1338.35 828.138 Q1342 826.112 1346.74 826.112 Q1354.56 826.112 1358.57 830.973 Q1362.58 835.794 1362.58 845.192 Z" fill="#000000" fill-rule="evenodd" fill-opacity="1" /><path clip-path="url(#clip670)" d="M1406.37 828.543 L1406.37 835.591 Q1403.21 833.971 1399.81 833.161 Q1396.4 832.351 1392.76 832.351 Q1387.21 832.351 1384.41 834.052 Q1381.66 835.753 1381.66 839.156 Q1381.66 841.749 1383.64 843.247 Q1385.63 844.706 1391.62 846.043 L1394.18 846.61 Q1402.12 848.311 1405.44 851.43 Q1408.8 854.509 1408.8 860.059 Q1408.8 866.378 1403.78 870.064 Q1398.79 873.751 1390.04 873.751 Q1386.4 873.751 1382.43 873.022 Q1378.5 872.333 1374.12 870.915 L1374.12 863.218 Q1378.26 865.365 1382.27 866.459 Q1386.28 867.512 1390.21 867.512 Q1395.47 867.512 1398.31 865.73 Q1401.14 863.907 1401.14 860.626 Q1401.14 857.588 1399.08 855.967 Q1397.05 854.347 1390.13 852.848 L1387.53 852.24 Q1380.61 850.782 1377.53 847.784 Q1374.45 844.746 1374.45 839.48 Q1374.45 833.08 1378.99 829.596 Q1383.52 826.112 1391.87 826.112 Q1396 826.112 1399.64 826.72 Q1403.29 827.327 1406.37 828.543 Z" fill="#000000" fill-rule="evenodd" fill-opacity="1" /><path clip-path="url(#clip670)" d="M1428.04 814.324 L1428.04 827.206 L1443.39 827.206 L1443.39 832.999 L1428.04 832.999 L1428.04 857.628 Q1428.04 863.178 1429.54 864.758 Q1431.08 866.338 1435.74 866.338 L1443.39 866.338 L1443.39 872.576 L1435.74 872.576 Q1427.11 872.576 1423.83 869.376 Q1420.55 866.135 1420.55 857.628 L1420.55 832.999 L1415.08 832.999 L1415.08 827.206 L1420.55 827.206 L1420.55 814.324 L1428.04 814.324 Z" fill="#000000" fill-rule="evenodd" fill-opacity="1" /><path clip-path="url(#clip670)" d="M1479.49 834.173 Q1478.23 833.444 1476.73 833.12 Q1475.28 832.756 1473.49 832.756 Q1467.17 832.756 1463.77 836.888 Q1460.41 840.979 1460.41 848.676 L1460.41 872.576 L1452.91 872.576 L1452.91 827.206 L1460.41 827.206 L1460.41 834.254 Q1462.76 830.123 1466.53 828.138 Q1470.29 826.112 1475.68 826.112 Q1476.45 826.112 1477.38 826.234 Q1478.31 826.315 1479.45 826.517 L1479.49 834.173 Z" fill="#000000" fill-rule="evenodd" fill-opacity="1" /><path clip-path="url(#clip670)" d="M1486.54 854.671 L1486.54 827.206 L1493.99 827.206 L1493.99 854.387 Q1493.99 860.828 1496.5 864.069 Q1499.01 867.269 1504.04 867.269 Q1510.07 867.269 1513.56 863.421 Q1517.08 859.573 1517.08 852.929 L1517.08 827.206 L1524.53 827.206 L1524.53 872.576 L1517.08 872.576 L1517.08 865.608 Q1514.37 869.74 1510.76 871.766 Q1507.2 873.751 1502.46 873.751 Q1494.64 873.751 1490.59 868.89 Q1486.54 864.029 1486.54 854.671 M1505.29 826.112 L1505.29 826.112 Z" fill="#000000" fill-rule="evenodd" fill-opacity="1" /><path clip-path="url(#clip670)" d="M1572.54 828.948 L1572.54 835.915 Q1569.38 834.173 1566.18 833.323 Q1563.02 832.432 1559.78 832.432 Q1552.53 832.432 1548.52 837.05 Q1544.51 841.627 1544.51 849.931 Q1544.51 858.236 1548.52 862.854 Q1552.53 867.431 1559.78 867.431 Q1563.02 867.431 1566.18 866.581 Q1569.38 865.689 1572.54 863.948 L1572.54 870.834 Q1569.42 872.292 1566.06 873.022 Q1562.73 873.751 1558.97 873.751 Q1548.72 873.751 1542.68 867.31 Q1536.65 860.869 1536.65 849.931 Q1536.65 838.832 1542.72 832.472 Q1548.84 826.112 1559.45 826.112 Q1562.9 826.112 1566.18 826.841 Q1569.46 827.53 1572.54 828.948 Z" fill="#000000" fill-rule="evenodd" fill-opacity="1" /><path clip-path="url(#clip670)" d="M1592.87 814.324 L1592.87 827.206 L1608.23 827.206 L1608.23 832.999 L1592.87 832.999 L1592.87 857.628 Q1592.87 863.178 1594.37 864.758 Q1595.91 866.338 1600.57 866.338 L1608.23 866.338 L1608.23 872.576 L1600.57 872.576 Q1591.94 872.576 1588.66 869.376 Q1585.38 866.135 1585.38 857.628 L1585.38 832.999 L1579.91 832.999 L1579.91 827.206 L1585.38 827.206 L1585.38 814.324 L1592.87 814.324 Z" fill="#000000" fill-rule="evenodd" fill-opacity="1" /><path clip-path="url(#clip670)" d="M1665.02 849.769 Q1655.99 849.769 1652.5 851.835 Q1649.02 853.901 1649.02 858.884 Q1649.02 862.854 1651.61 865.203 Q1654.24 867.512 1658.74 867.512 Q1664.94 867.512 1668.67 863.137 Q1672.43 858.722 1672.43 851.43 L1672.43 849.769 L1665.02 849.769 M1679.89 846.691 L1679.89 872.576 L1672.43 872.576 L1672.43 865.689 Q1669.88 869.821 1666.07 871.806 Q1662.27 873.751 1656.76 873.751 Q1649.79 873.751 1645.66 869.862 Q1641.56 865.933 1641.56 859.37 Q1641.56 851.714 1646.67 847.825 Q1651.81 843.936 1661.98 843.936 L1672.43 843.936 L1672.43 843.207 Q1672.43 838.062 1669.03 835.267 Q1665.67 832.432 1659.55 832.432 Q1655.66 832.432 1651.98 833.363 Q1648.29 834.295 1644.89 836.158 L1644.89 829.272 Q1648.98 827.692 1652.83 826.922 Q1656.67 826.112 1660.32 826.112 Q1670.16 826.112 1675.03 831.216 Q1679.89 836.32 1679.89 846.691 Z" fill="#000000" fill-rule="evenodd" fill-opacity="1" /><path clip-path="url(#clip670)" d="M1732.95 845.192 L1732.95 872.576 L1725.5 872.576 L1725.5 845.435 Q1725.5 838.994 1722.99 835.794 Q1720.48 832.594 1715.45 832.594 Q1709.42 832.594 1705.93 836.442 Q1702.45 840.29 1702.45 846.934 L1702.45 872.576 L1694.96 872.576 L1694.96 827.206 L1702.45 827.206 L1702.45 834.254 Q1705.12 830.163 1708.73 828.138 Q1712.37 826.112 1717.11 826.112 Q1724.93 826.112 1728.94 830.973 Q1732.95 835.794 1732.95 845.192 Z" fill="#000000" fill-rule="evenodd" fill-opacity="1" /><path clip-path="url(#clip670)" d="M1777.68 834.092 L1777.68 809.544 L1785.13 809.544 L1785.13 872.576 L1777.68 872.576 L1777.68 865.77 Q1775.33 869.821 1771.72 871.806 Q1768.16 873.751 1763.13 873.751 Q1754.91 873.751 1749.72 867.188 Q1744.58 860.626 1744.58 849.931 Q1744.58 839.237 1749.72 832.675 Q1754.91 826.112 1763.13 826.112 Q1768.16 826.112 1771.72 828.097 Q1775.33 830.042 1777.68 834.092 M1752.28 849.931 Q1752.28 858.155 1755.64 862.854 Q1759.04 867.512 1764.96 867.512 Q1770.87 867.512 1774.27 862.854 Q1777.68 858.155 1777.68 849.931 Q1777.68 841.708 1774.27 837.05 Q1770.87 832.351 1764.96 832.351 Q1759.04 832.351 1755.64 837.05 Q1752.28 841.708 1752.28 849.931 Z" fill="#000000" fill-rule="evenodd" fill-opacity="1" /><path clip-path="url(#clip670)" d="M1853.14 834.173 Q1851.89 833.444 1850.39 833.12 Q1848.93 832.756 1847.15 832.756 Q1840.83 832.756 1837.43 836.888 Q1834.06 840.979 1834.06 848.676 L1834.06 872.576 L1826.57 872.576 L1826.57 827.206 L1834.06 827.206 L1834.06 834.254 Q1836.41 830.123 1840.18 828.138 Q1843.95 826.112 1849.34 826.112 Q1850.11 826.112 1851.04 826.234 Q1851.97 826.315 1853.1 826.517 L1853.14 834.173 Z" fill="#000000" fill-rule="evenodd" fill-opacity="1" /><path clip-path="url(#clip670)" d="M1897.95 848.028 L1897.95 851.673 L1863.68 851.673 Q1864.16 859.37 1868.29 863.421 Q1872.47 867.431 1879.88 867.431 Q1884.17 867.431 1888.18 866.378 Q1892.23 865.325 1896.2 863.218 L1896.2 870.267 Q1892.19 871.968 1887.98 872.86 Q1883.77 873.751 1879.43 873.751 Q1868.58 873.751 1862.22 867.431 Q1855.9 861.112 1855.9 850.337 Q1855.9 839.197 1861.89 832.675 Q1867.93 826.112 1878.14 826.112 Q1887.29 826.112 1892.6 832.026 Q1897.95 837.9 1897.95 848.028 M1890.49 845.84 Q1890.41 839.723 1887.05 836.077 Q1883.73 832.432 1878.22 832.432 Q1871.98 832.432 1868.21 835.956 Q1864.49 839.48 1863.92 845.881 L1890.49 845.84 Z" fill="#000000" fill-rule="evenodd" fill-opacity="1" /><path clip-path="url(#clip670)" d="M1940.04 834.092 L1940.04 809.544 L1947.49 809.544 L1947.49 872.576 L1940.04 872.576 L1940.04 865.77 Q1937.69 869.821 1934.08 871.806 Q1930.52 873.751 1925.49 873.751 Q1917.27 873.751 1912.08 867.188 Q1906.94 860.626 1906.94 849.931 Q1906.94 839.237 1912.08 832.675 Q1917.27 826.112 1925.49 826.112 Q1930.52 826.112 1934.08 828.097 Q1937.69 830.042 1940.04 834.092 M1914.64 849.931 Q1914.64 858.155 1918 862.854 Q1921.4 867.512 1927.32 867.512 Q1933.23 867.512 1936.63 862.854 Q1940.04 858.155 1940.04 849.931 Q1940.04 841.708 1936.63 837.05 Q1933.23 832.351 1927.32 832.351 Q1921.4 832.351 1918 837.05 Q1914.64 841.708 1914.64 849.931 Z" fill="#000000" fill-rule="evenodd" fill-opacity="1" /><path clip-path="url(#clip670)" d="M1983.46 849.769 Q1974.43 849.769 1970.94 851.835 Q1967.46 853.901 1967.46 858.884 Q1967.46 862.854 1970.05 865.203 Q1972.69 867.512 1977.18 867.512 Q1983.38 867.512 1987.11 863.137 Q1990.87 858.722 1990.87 851.43 L1990.87 849.769 L1983.46 849.769 M1998.33 846.691 L1998.33 872.576 L1990.87 872.576 L1990.87 865.689 Q1988.32 869.821 1984.51 871.806 Q1980.71 873.751 1975.2 873.751 Q1968.23 873.751 1964.1 869.862 Q1960.01 865.933 1960.01 859.37 Q1960.01 851.714 1965.11 847.825 Q1970.26 843.936 1980.42 843.936 L1990.87 843.936 L1990.87 843.207 Q1990.87 838.062 1987.47 835.267 Q1984.11 832.432 1977.99 832.432 Q1974.1 832.432 1970.42 833.363 Q1966.73 834.295 1963.33 836.158 L1963.33 829.272 Q1967.42 827.692 1971.27 826.922 Q1975.12 826.112 1978.76 826.112 Q1988.61 826.112 1993.47 831.216 Q1998.33 836.32 1998.33 846.691 Z" fill="#000000" fill-rule="evenodd" fill-opacity="1" /><path clip-path="url(#clip670)" d="M2021.05 814.324 L2021.05 827.206 L2036.41 827.206 L2036.41 832.999 L2021.05 832.999 L2021.05 857.628 Q2021.05 863.178 2022.55 864.758 Q2024.09 866.338 2028.75 866.338 L2036.41 866.338 L2036.41 872.576 L2028.75 872.576 Q2020.12 872.576 2016.84 869.376 Q2013.56 866.135 2013.56 857.628 L2013.56 832.999 L2008.09 832.999 L2008.09 827.206 L2013.56 827.206 L2013.56 814.324 L2021.05 814.324 Z" fill="#000000" fill-rule="evenodd" fill-opacity="1" /><path clip-path="url(#clip670)" d="M2045.44 854.671 L2045.44 827.206 L2052.89 827.206 L2052.89 854.387 Q2052.89 860.828 2055.41 864.069 Q2057.92 867.269 2062.94 867.269 Q2068.98 867.269 2072.46 863.421 Q2075.98 859.573 2075.98 852.929 L2075.98 827.206 L2083.44 827.206 L2083.44 872.576 L2075.98 872.576 L2075.98 865.608 Q2073.27 869.74 2069.66 871.766 Q2066.1 873.751 2061.36 873.751 Q2053.54 873.751 2049.49 868.89 Q2045.44 864.029 2045.44 854.671 M2064.2 826.112 L2064.2 826.112 Z" fill="#000000" fill-rule="evenodd" fill-opacity="1" /><path clip-path="url(#clip670)" d="M2134.11 835.915 Q2136.91 830.892 2140.8 828.502 Q2144.69 826.112 2149.95 826.112 Q2157.04 826.112 2160.89 831.095 Q2164.74 836.037 2164.74 845.192 L2164.74 872.576 L2157.25 872.576 L2157.25 845.435 Q2157.25 838.913 2154.94 835.753 Q2152.63 832.594 2147.89 832.594 Q2142.09 832.594 2138.73 836.442 Q2135.37 840.29 2135.37 846.934 L2135.37 872.576 L2127.88 872.576 L2127.88 845.435 Q2127.88 838.872 2125.57 835.753 Q2123.26 832.594 2118.44 832.594 Q2112.73 832.594 2109.36 836.482 Q2106 840.331 2106 846.934 L2106 872.576 L2098.51 872.576 L2098.51 827.206 L2106 827.206 L2106 834.254 Q2108.55 830.082 2112.12 828.097 Q2115.68 826.112 2120.58 826.112 Q2125.53 826.112 2128.97 828.624 Q2132.45 831.135 2134.11 835.915 Z" fill="#000000" fill-rule="evenodd" fill-opacity="1" /><polyline clip-path="url(#clip673)" style="stroke:#ff0000; stroke-linecap:butt; stroke-linejoin:round; stroke-width:8; stroke-opacity:1; fill:none" points="
  241.656,1264.55 252.74,1264.55 263.823,1264.55 274.907,1264.55 285.99,1264.55 297.074,1264.55 308.158,1264.55 319.241,1264.55 330.325,1264.55 341.408,1264.55 
  352.492,1264.55 363.575,1264.55 374.659,1264.55 385.743,1264.55 396.826,1264.55 407.91,1264.55 418.993,1264.55 430.077,1264.55 441.16,1264.55 452.244,1264.55 
  463.328,1264.55 474.411,1264.55 485.495,1264.55 496.578,1264.55 507.662,1264.55 518.745,1264.55 529.829,1264.55 540.913,1264.55 551.996,1264.55 563.08,1264.55 
  574.163,1264.55 585.247,1264.55 596.33,1264.55 607.414,1264.55 618.498,1264.55 629.581,1264.55 640.665,1264.55 651.748,1264.55 662.832,1264.55 673.915,1264.55 
  684.999,1264.55 696.083,1264.55 707.166,1264.55 718.25,1264.55 729.333,1264.55 740.417,1264.55 751.5,1264.55 762.584,1264.55 773.667,1264.55 784.751,1264.55 
  795.835,1264.55 806.918,1264.55 818.002,1264.55 829.085,1264.55 840.169,1264.55 851.252,1264.55 862.336,1264.55 873.42,1264.55 884.503,1264.55 895.587,1264.55 
  906.67,1264.55 917.754,1264.55 928.837,1264.55 939.921,1264.55 951.005,1264.55 962.088,1264.55 973.172,1264.55 984.255,1264.55 995.339,1264.55 1006.42,1264.55 
  1017.51,1264.55 1028.59,1264.55 1039.67,1264.55 1050.76,1264.55 1061.84,1264.55 1072.92,1264.55 1084.01,1264.55 1095.09,1264.55 1106.17,1264.55 1117.26,1264.55 
  1128.34,1264.55 1139.43,1264.55 1150.51,1264.55 1161.59,1264.55 1172.68,1264.55 1183.76,1264.55 1194.84,1264.55 1205.93,1264.55 1217.01,1264.55 1228.09,1264.55 
  1239.18,1264.55 1250.26,1264.55 1261.34,1264.55 1272.43,1264.55 1283.51,1264.55 1294.6,1264.55 1305.68,1264.55 1316.76,1264.55 1327.85,1264.55 1338.93,1264.55 
  1350.01,1264.55 1361.1,1264.55 1372.18,1264.55 1383.26,1264.55 1394.35,1264.55 1405.43,1264.55 1416.51,1264.55 1427.6,1264.55 1438.68,1264.55 1449.77,1264.55 
  1460.85,1264.55 1471.93,1264.55 1483.02,1264.55 1494.1,1264.55 1505.18,1264.55 1516.27,1264.55 1527.35,1264.55 1538.43,1264.55 1549.52,1264.55 1560.6,1264.55 
  1571.68,1264.55 1582.77,1264.55 1593.85,1264.55 1604.94,1264.55 1616.02,1273.44 1627.1,1420.79 1638.19,1271.2 1649.27,1198.6 1660.35,1366.74 1671.44,1342.68 
  1682.52,1478.48 1693.6,1254.37 1704.69,1350.06 1715.77,1403.24 1726.85,1128.32 1737.94,1229.92 1749.02,1154.37 1760.11,1196.93 1771.19,1308.4 1782.27,989.83 
  1793.36,1333.86 1804.44,1387.79 1815.52,1063.72 1826.61,1138.18 1837.69,1264.55 1848.77,1264.55 1859.86,1264.55 1870.94,1264.55 1882.02,1264.55 1893.11,1264.55 
  1904.19,1264.55 1915.28,1264.55 1926.36,1264.55 1937.44,1264.55 1948.53,1264.55 1959.61,1264.55 1970.69,1264.55 1981.78,1264.55 1992.86,1264.55 2003.94,1264.55 
  2015.03,1264.55 2026.11,1264.55 2037.19,1264.55 2048.28,1264.55 2059.36,1264.55 2070.45,1264.55 2081.53,1264.55 2092.61,1264.55 2103.7,1264.55 2114.78,1264.55 
  2125.86,1264.55 2136.95,1264.55 2148.03,1264.55 2159.11,1264.55 2170.2,1264.55 2181.28,1264.55 2192.36,1264.55 2203.45,1264.55 2214.53,1264.55 2225.62,1264.55 
  2236.7,1264.94 2247.78,1271.47 2258.87,1264.84 2269.95,1261.62 2281.03,1269.08 2292.12,1268.01 2303.2,1274.03 2314.28,1264.1 2325.37,1268.34 2336.45,1270.7 
  2347.53,1258.51 2358.62,1263.01 2369.7,1259.66 2380.79,1261.55 2391.87,1266.49 2402.95,1252.37 2414.04,1267.62 2425.12,1270.01 2436.2,1255.64 2447.29,1258.94 
  2458.37,1264.55 2469.45,1264.55 2480.54,1264.55 2491.62,1264.55 2502.7,1264.55 2513.79,1264.55 2524.87,1264.55 2535.96,1264.55 2547.04,1264.55 2558.12,1264.55 
  2569.21,1264.55 2580.29,1264.55 2591.37,1264.55 2602.46,1264.55 2613.54,1264.55 2624.62,1264.55 2635.71,1264.55 2646.79,1264.55 2657.87,1264.55 2668.96,1264.55 
  2680.04,1264.55 2691.13,1264.55 2702.21,1264.55 2713.29,1264.55 2724.38,1264.55 2735.46,1264.55 2746.54,1264.55 2757.63,1264.55 2768.71,1264.55 2779.79,1264.55 
  2790.88,1264.55 2801.96,1264.55 2813.04,1264.55 2824.13,1264.55 2835.21,1264.55 2846.3,1264.55 2857.38,1264.55 2868.46,1264.55 2879.55,1264.55 2890.63,1264.55 
  2901.71,1264.55 2912.8,1264.55 2923.88,1264.55 2934.96,1264.55 2946.05,1264.55 2957.13,1264.55 2968.21,1264.55 2979.3,1264.55 2990.38,1264.55 3001.47,1264.55 
  3012.55,1264.55 3023.63,1264.55 3034.72,1264.55 3045.8,1264.55 3056.88,1264.55 3067.97,1264.55 
  "/>
<polyline clip-path="url(#clip673)" style="stroke:#add8e6; stroke-linecap:butt; stroke-linejoin:round; stroke-width:8; stroke-opacity:1; fill:none" points="
  241.656,1270.24 252.74,1267.91 263.823,1265.4 274.907,1267 285.99,1266.26 297.074,1266.86 308.158,1266.49 319.241,1267.33 330.325,1265.75 341.408,1266.7 
  352.492,1267.5 363.575,1267.39 374.659,1266.06 385.743,1267.77 396.826,1268.93 407.91,1268.05 418.993,1266.57 430.077,1268.21 441.16,1266.54 452.244,1265.94 
  463.328,1266.89 474.411,1266.45 485.495,1266.1 496.578,1268.07 507.662,1266.78 518.745,1266.8 529.829,1267.24 540.913,1266.81 551.996,1266.28 563.08,1266.92 
  574.163,1267.19 585.247,1266.33 596.33,1266.17 607.414,1266.52 618.498,1267.15 629.581,1266.66 640.665,1266.3 651.748,1266.74 662.832,1267.07 673.915,1266.91 
  684.999,1266.82 696.083,1266.74 707.166,1266.45 718.25,1266.71 729.333,1266.94 740.417,1266.74 751.5,1266.35 762.584,1266.75 773.667,1266.58 784.751,1266.41 
  795.835,1266.8 806.918,1266.5 818.002,1266.4 829.085,1266.49 840.169,1266.73 851.252,1266.64 862.336,1266.71 873.42,1266.55 884.503,1266.59 895.587,1266.69 
  906.67,1266.65 917.754,1266.63 928.837,1266.75 939.921,1266.57 951.005,1266.41 962.088,1266.73 973.172,1266.76 984.255,1266.55 995.339,1266.41 1006.42,1266.7 
  1017.51,1266.58 1028.59,1266.65 1039.67,1266.91 1050.76,1266.82 1061.84,1266.36 1072.92,1266.71 1084.01,1266.68 1095.09,1266.49 1106.17,1266.76 1117.26,1266.64 
  1128.34,1266.37 1139.43,1266.73 1150.51,1266.79 1161.59,1266.52 1172.68,1266.61 1183.76,1266.6 1194.84,1266.54 1205.93,1266.74 1217.01,1266.87 1228.09,1266.94 
  1239.18,1266.58 1250.26,1266.75 1261.34,1266.13 1272.43,1265.94 1283.51,1266.49 1294.6,1265.79 1305.68,1266.82 1316.76,1267.52 1327.85,1267.16 1338.93,1266.49 
  1350.01,1268.25 1361.1,1265.42 1372.18,1267.65 1383.26,1265.74 1394.35,1267.94 1405.43,1269.8 1416.51,1265.66 1427.6,1266.35 1438.68,1266.26 1449.77,1268.17 
  1460.85,1272.59 1471.93,1264.44 1483.02,1268.94 1494.1,1269.57 1505.18,1276.93 1516.27,1265.87 1527.35,1257.05 1538.43,1251.24 1549.52,1288.42 1560.6,1276.46 
  1571.68,1289.28 1582.77,1287.43 1593.85,1268.65 1604.94,1267.27 1616.02,1205.72 1627.1,1221.19 1638.19,1345.37 1649.27,1035.99 1660.35,1438.33 1671.44,1359.21 
  1682.52,924.958 1693.6,1196.63 1704.69,1341.05 1715.77,1176.44 1726.85,1028.01 1737.94,1168.22 1749.02,1277.61 1760.11,1285.66 1771.19,1296.04 1782.27,1276.12 
  1793.36,1273.18 1804.44,1283.74 1815.52,1267.59 1826.61,1269.79 1837.69,1287.08 1848.77,1280.33 1859.86,1267.2 1870.94,1265.47 1882.02,1264.82 1893.11,1267.21 
  1904.19,1268.68 1915.28,1265.52 1926.36,1268.36 1937.44,1266.28 1948.53,1266.25 1959.61,1264.7 1970.69,1266.59 1981.78,1264.4 1992.86,1266.46 2003.94,1270 
  2015.03,1267.02 2026.11,1267.84 2037.19,1269.16 2048.28,1267.73 2059.36,1266.08 2070.45,1266.98 2081.53,1267.25 2092.61,1266.59 2103.7,1267.57 2114.78,1267.72 
  2125.86,1266.84 2136.95,1266.56 2148.03,1267.65 2159.11,1266.63 2170.2,1265.96 2181.28,1267.59 2192.36,1266.79 2203.45,1266.13 2214.53,1267.2 2225.62,1266.55 
  2236.7,1266.3 2247.78,1266.44 2258.87,1267.11 2269.95,1266.59 2281.03,1266.72 2292.12,1266.83 2303.2,1266.75 2314.28,1266.76 2325.37,1266.8 2336.45,1266.68 
  2347.53,1266.5 2358.62,1266.71 2369.7,1266.67 2380.79,1266.81 2391.87,1266.79 2402.95,1266.61 2414.04,1266.7 2425.12,1266.76 2436.2,1266.52 2447.29,1266.63 
  2458.37,1266.81 2469.45,1266.53 2480.54,1266.55 2491.62,1266.61 2502.7,1266.95 2513.79,1266.58 2524.87,1266.51 2535.96,1266.69 2547.04,1266.58 2558.12,1266.51 
  2569.21,1266.91 2580.29,1266.69 2591.37,1266.29 2602.46,1266.58 2613.54,1267.11 2624.62,1266.61 2635.71,1266.55 2646.79,1266.92 2657.87,1266.71 2668.96,1266.65 
  2680.04,1266.71 2691.13,1266.87 2702.21,1266.39 2713.29,1266.8 2724.38,1266.94 2735.46,1266.81 2746.54,1266.53 2757.63,1266.72 2768.71,1266.48 2779.79,1266.39 
  2790.88,1265.87 2801.96,1265.67 2813.04,1267.62 2824.13,1269.05 2835.21,1267.6 2846.3,1265.75 2857.38,1266.46 2868.46,1264.97 2879.55,1267.91 2890.63,1267.43 
  2901.71,1264.2 2912.8,1265.15 2923.88,1265.76 2934.96,1266.02 2946.05,1264.83 2957.13,1266.31 2968.21,1268.68 2979.3,1265.08 2990.38,1265.62 3001.47,1267.17 
  3012.55,1266.13 3023.63,1266.15 3034.72,1268.23 3045.8,1265.67 3056.88,1266.82 3067.97,1266.63 
  "/>
<path clip-path="url(#clip670)" d="
M2572.98 1083.43 L3052.89 1083.43 L3052.89 927.91 L2572.98 927.91  Z
  " fill="#ffffff" fill-rule="evenodd" fill-opacity="1"/>
<polyline clip-path="url(#clip670)" style="stroke:#000000; stroke-linecap:butt; stroke-linejoin:round; stroke-width:4; stroke-opacity:1; fill:none" points="
  2572.98,1083.43 3052.89,1083.43 3052.89,927.91 2572.98,927.91 2572.98,1083.43 
  "/>
<polyline clip-path="url(#clip670)" style="stroke:#ff0000; stroke-linecap:butt; stroke-linejoin:round; stroke-width:4; stroke-opacity:1; fill:none" points="
  2606.27,979.75 2805.99,979.75 
  "/>
<path clip-path="url(#clip670)" d="M2863.93 971.104 L2854.56 983.72 L2864.42 997.03 L2859.4 997.03 L2851.85 986.845 L2844.3 997.03 L2839.28 997.03 L2849.35 983.465 L2840.14 971.104 L2845.16 971.104 L2852.04 980.34 L2858.91 971.104 L2863.93 971.104 Z" fill="#000000" fill-rule="evenodd" fill-opacity="1" /><path clip-path="url(#clip670)" d="M2890.14 1004.9 L2890.14 1008.21 L2865.51 1008.21 L2865.51 1004.9 L2890.14 1004.9 Z" fill="#000000" fill-rule="evenodd" fill-opacity="1" /><path clip-path="url(#clip670)" d="M2894.14 971.104 L2898.4 971.104 L2898.4 997.493 Q2898.4 1002.45 2896.5 1004.67 Q2894.63 1006.89 2890.44 1006.89 L2888.82 1006.89 L2888.82 1003.28 L2889.95 1003.28 Q2892.38 1003.28 2893.26 1002.15 Q2894.14 1001.03 2894.14 997.493 L2894.14 971.104 M2894.14 961.012 L2898.4 961.012 L2898.4 966.405 L2894.14 966.405 L2894.14 961.012 Z" fill="#000000" fill-rule="evenodd" fill-opacity="1" /><path clip-path="url(#clip670)" d="M2907.31 971.104 L2911.57 971.104 L2911.57 997.03 L2907.31 997.03 L2907.31 971.104 M2907.31 961.012 L2911.57 961.012 L2911.57 966.405 L2907.31 966.405 L2907.31 961.012 Z" fill="#000000" fill-rule="evenodd" fill-opacity="1" /><polyline clip-path="url(#clip670)" style="stroke:#add8e6; stroke-linecap:butt; stroke-linejoin:round; stroke-width:4; stroke-opacity:1; fill:none" points="
  2606.27,1031.59 2805.99,1031.59 
  "/>
<path clip-path="url(#clip670)" d="M2860.99 1033.22 L2860.99 1048.87 L2856.73 1048.87 L2856.73 1033.36 Q2856.73 1029.68 2855.3 1027.85 Q2853.86 1026.02 2850.99 1026.02 Q2847.55 1026.02 2845.55 1028.22 Q2843.56 1030.42 2843.56 1034.22 L2843.56 1048.87 L2839.28 1048.87 L2839.28 1012.85 L2843.56 1012.85 L2843.56 1026.97 Q2845.09 1024.63 2847.15 1023.48 Q2849.24 1022.32 2851.94 1022.32 Q2856.41 1022.32 2858.7 1025.1 Q2860.99 1027.85 2860.99 1033.22 Z" fill="#000000" fill-rule="evenodd" fill-opacity="1" /><path clip-path="url(#clip670)" d="M2881.27 1035.84 Q2876.11 1035.84 2874.12 1037.02 Q2872.13 1038.2 2872.13 1041.05 Q2872.13 1043.31 2873.61 1044.66 Q2875.11 1045.98 2877.68 1045.98 Q2881.23 1045.98 2883.36 1043.48 Q2885.51 1040.95 2885.51 1036.79 L2885.51 1035.84 L2881.27 1035.84 M2889.77 1034.08 L2889.77 1048.87 L2885.51 1048.87 L2885.51 1044.93 Q2884.05 1047.3 2881.87 1048.43 Q2879.7 1049.54 2876.55 1049.54 Q2872.57 1049.54 2870.21 1047.32 Q2867.87 1045.07 2867.87 1041.32 Q2867.87 1036.95 2870.79 1034.73 Q2873.73 1032.5 2879.54 1032.5 L2885.51 1032.5 L2885.51 1032.09 Q2885.51 1029.15 2883.56 1027.55 Q2881.64 1025.93 2878.15 1025.93 Q2875.92 1025.93 2873.82 1026.46 Q2871.71 1027 2869.77 1028.06 L2869.77 1024.12 Q2872.11 1023.22 2874.3 1022.78 Q2876.5 1022.32 2878.59 1022.32 Q2884.21 1022.32 2886.99 1025.24 Q2889.77 1028.15 2889.77 1034.08 Z" fill="#000000" fill-rule="evenodd" fill-opacity="1" /><path clip-path="url(#clip670)" d="M2902.75 1015.58 L2902.75 1022.94 L2911.53 1022.94 L2911.53 1026.25 L2902.75 1026.25 L2902.75 1040.33 Q2902.75 1043.5 2903.61 1044.4 Q2904.49 1045.31 2907.15 1045.31 L2911.53 1045.31 L2911.53 1048.87 L2907.15 1048.87 Q2902.22 1048.87 2900.35 1047.04 Q2898.47 1045.19 2898.47 1040.33 L2898.47 1026.25 L2895.35 1026.25 L2895.35 1022.94 L2898.47 1022.94 L2898.47 1015.58 L2902.75 1015.58 Z" fill="#000000" fill-rule="evenodd" fill-opacity="1" /><path clip-path="url(#clip670)" d="M2938.68 1022.94 L2929.3 1035.56 L2939.17 1048.87 L2934.14 1048.87 L2926.6 1038.68 L2919.05 1048.87 L2914.03 1048.87 L2924.1 1035.31 L2914.88 1022.94 L2919.91 1022.94 L2926.78 1032.18 L2933.66 1022.94 L2938.68 1022.94 Z" fill="#000000" fill-rule="evenodd" fill-opacity="1" /><path clip-path="url(#clip670)" d="M2964.88 1056.74 L2964.88 1060.05 L2940.25 1060.05 L2940.25 1056.74 L2964.88 1056.74 Z" fill="#000000" fill-rule="evenodd" fill-opacity="1" /><path clip-path="url(#clip670)" d="M2968.89 1022.94 L2973.15 1022.94 L2973.15 1049.33 Q2973.15 1054.29 2971.25 1056.51 Q2969.37 1058.73 2965.18 1058.73 L2963.56 1058.73 L2963.56 1055.12 L2964.7 1055.12 Q2967.13 1055.12 2968.01 1053.99 Q2968.89 1052.87 2968.89 1049.33 L2968.89 1022.94 M2968.89 1012.85 L2973.15 1012.85 L2973.15 1018.25 L2968.89 1018.25 L2968.89 1012.85 Z" fill="#000000" fill-rule="evenodd" fill-opacity="1" /><path clip-path="url(#clip670)" d="M2982.06 1022.94 L2986.32 1022.94 L2986.32 1048.87 L2982.06 1048.87 L2982.06 1022.94 M2982.06 1012.85 L2986.32 1012.85 L2986.32 1018.25 L2982.06 1018.25 L2982.06 1012.85 Z" fill="#000000" fill-rule="evenodd" fill-opacity="1" /></svg>
